M48
; DRILL file KiCad 10.0.3 date 2026-06-14T19:12:48
; FORMAT={-:-/ absolute / metric / decimal}
; #@! TF.CreationDate,2026-06-14T19:12:48-04:00
; #@! TF.GenerationSoftware,Kicad,Pcbnew,10.0.3
; #@! TF.FileFunction,Plated,1,2,PTH
FMAT,2
METRIC
; #@! TA.AperFunction,Plated,PTH,ViaDrill
T1C0.300
; #@! TA.AperFunction,Plated,PTH,ComponentDrill
T2C0.600
; #@! TA.AperFunction,Plated,PTH,ComponentDrill
T3C0.920
; #@! TA.AperFunction,Plated,PTH,ComponentDrill
T4C2.300
%
G90
G05
T1
X123.45Y-101.81
X123.45Y-104.01
X125.89Y-101.78
X127.13Y-101.92
X131.37Y-66.94
X131.94Y-71.54
X132.24Y-67.91
X132.24Y-69.89
X132.38Y-102.74
X133.99Y-103.98
X136.09Y-60.52
X137.42Y-71.44
X138.32Y-72.39
X138.8Y-73.86
X138.98Y-103.19
X139.5Y-103.79
X141.38Y-70.374
X143.46Y-74.43
X146.431Y-71.661
X147.85Y-67.2
X148.07Y-80.48
X148.743Y-66.417
X149.25Y-74.61
X149.5Y-69.55
X150.73Y-105.0
X152.53Y-99.63
X152.77Y-87.62
X152.87Y-68.94
X154.873Y-74.536
X155.17Y-68.11
X155.31Y-69.23
X156.98Y-95.27
X157.83Y-87.52
X158.49Y-64.67
X158.58Y-69.23
X159.91Y-69.24
X160.0Y-75.09
X160.53Y-80.34
X160.64Y-76.43
X169.16Y-74.92
X170.75Y-88.37
X172.09Y-86.99
X172.4Y-88.38
X173.08Y-88.07
X173.11Y-72.97
X173.97Y-91.42
X176.3Y-89.8
X178.346Y-88.873
X178.63Y-67.49
X178.94Y-75.68
X179.22Y-91.42
X179.23Y-66.12
X179.99Y-64.29
X179.99Y-68.69
X180.38Y-87.27
X180.56Y-77.86
X183.67Y-88.36
X185.55Y-59.79
X186.02Y-66.77
X186.93Y-61.56
X186.961Y-67.369
X187.131Y-65.699
X187.3Y-60.6
X187.95Y-66.29
X190.49Y-63.54
T3
X115.01Y-107.24
X117.51Y-107.24
X119.51Y-107.24
X122.01Y-107.24
X141.4Y-107.24
X143.9Y-107.24
X145.9Y-107.24
X148.4Y-107.24
T4
X111.94Y-109.94
X125.08Y-109.94
X138.33Y-109.94
X151.47Y-109.94
T2
G00X191.847Y-59.0
M15
G01X192.748Y-59.0
M16
G05
G00X191.848Y-67.64
M15
G01X192.748Y-67.64
M16
G05
G00X196.208Y-59.0
M15
G01X196.808Y-59.0
M16
G05
G00X196.208Y-67.64
M15
G01X196.808Y-67.64
M16
G05
M30
