%TF.GenerationSoftware,KiCad,Pcbnew,10.0.3*%
%TF.CreationDate,2026-06-14T19:13:01-04:00*%
%TF.ProjectId,a-side,612d7369-6465-42e6-9b69-6361645f7063,rev?*%
%TF.SameCoordinates,Original*%
%TF.FileFunction,Soldermask,Top*%
%TF.FilePolarity,Negative*%
%FSLAX46Y46*%
G04 Gerber Fmt 4.6, Leading zero omitted, Abs format (unit mm)*
G04 Created by KiCad (PCBNEW 10.0.3) date 2026-06-14 19:13:01*
%MOMM*%
%LPD*%
G01*
G04 APERTURE LIST*
G04 APERTURE END LIST*
G36*
X160750671Y-117739030D02*
G01*
X160831777Y-117793223D01*
X160885970Y-117874329D01*
X160905000Y-117970000D01*
X160905000Y-118870000D01*
X160885970Y-118965671D01*
X160831777Y-119046777D01*
X160750671Y-119100970D01*
X160655000Y-119120000D01*
X160005000Y-119120000D01*
X159909329Y-119100970D01*
X159828223Y-119046777D01*
X159774030Y-118965671D01*
X159755000Y-118870000D01*
X159755000Y-117970000D01*
X159774030Y-117874329D01*
X159828223Y-117793223D01*
X159909329Y-117739030D01*
X160005000Y-117720000D01*
X160655000Y-117720000D01*
X160750671Y-117739030D01*
G37*
G36*
X162800671Y-117739030D02*
G01*
X162881777Y-117793223D01*
X162935970Y-117874329D01*
X162955000Y-117970000D01*
X162955000Y-118870000D01*
X162935970Y-118965671D01*
X162881777Y-119046777D01*
X162800671Y-119100970D01*
X162705000Y-119120000D01*
X162055000Y-119120000D01*
X161959329Y-119100970D01*
X161878223Y-119046777D01*
X161824030Y-118965671D01*
X161805000Y-118870000D01*
X161805000Y-117970000D01*
X161824030Y-117874329D01*
X161878223Y-117793223D01*
X161959329Y-117739030D01*
X162055000Y-117720000D01*
X162705000Y-117720000D01*
X162800671Y-117739030D01*
G37*
G36*
X105333513Y-113564208D02*
G01*
X105572293Y-113641793D01*
X105795998Y-113755776D01*
X105999117Y-113903350D01*
X106176650Y-114080883D01*
X106324224Y-114284002D01*
X106438207Y-114507707D01*
X106515792Y-114746487D01*
X106555068Y-114994465D01*
X106555068Y-115245535D01*
X106515792Y-115493513D01*
X106438207Y-115732293D01*
X106324224Y-115955998D01*
X106176650Y-116159117D01*
X105999117Y-116336650D01*
X105795998Y-116484224D01*
X105572293Y-116598207D01*
X105333513Y-116675792D01*
X105085535Y-116715068D01*
X104834465Y-116715068D01*
X104586487Y-116675792D01*
X104347707Y-116598207D01*
X104124002Y-116484224D01*
X103920883Y-116336650D01*
X103743350Y-116159117D01*
X103595776Y-115955998D01*
X103481793Y-115732293D01*
X103404208Y-115493513D01*
X103364932Y-115245535D01*
X103364932Y-114994465D01*
X103404208Y-114746487D01*
X103481793Y-114507707D01*
X103595776Y-114284002D01*
X103743350Y-114080883D01*
X103920883Y-113903350D01*
X104124002Y-113755776D01*
X104347707Y-113641793D01*
X104586487Y-113564208D01*
X104834465Y-113524932D01*
X105085535Y-113524932D01*
X105333513Y-113564208D01*
G37*
G36*
X160605671Y-114059030D02*
G01*
X160686777Y-114113223D01*
X160740970Y-114194329D01*
X160760000Y-114290000D01*
X160760000Y-115190000D01*
X160740970Y-115285671D01*
X160686777Y-115366777D01*
X160605671Y-115420970D01*
X160510000Y-115440000D01*
X159985000Y-115440000D01*
X159889329Y-115420970D01*
X159808223Y-115366777D01*
X159754030Y-115285671D01*
X159735000Y-115190000D01*
X159735000Y-114290000D01*
X159754030Y-114194329D01*
X159808223Y-114113223D01*
X159889329Y-114059030D01*
X159985000Y-114040000D01*
X160510000Y-114040000D01*
X160605671Y-114059030D01*
G37*
G36*
X162430671Y-114059030D02*
G01*
X162511777Y-114113223D01*
X162565970Y-114194329D01*
X162585000Y-114290000D01*
X162585000Y-115190000D01*
X162565970Y-115285671D01*
X162511777Y-115366777D01*
X162430671Y-115420970D01*
X162335000Y-115440000D01*
X161810000Y-115440000D01*
X161714329Y-115420970D01*
X161633223Y-115366777D01*
X161579030Y-115285671D01*
X161560000Y-115190000D01*
X161560000Y-114290000D01*
X161579030Y-114194329D01*
X161633223Y-114113223D01*
X161714329Y-114059030D01*
X161810000Y-114040000D01*
X162335000Y-114040000D01*
X162430671Y-114059030D01*
G37*
G36*
X166242228Y-113474448D02*
G01*
X166387117Y-113534463D01*
X166517515Y-113621592D01*
X166628408Y-113732485D01*
X166715537Y-113862883D01*
X166775552Y-114007772D01*
X166806148Y-114161586D01*
X166806148Y-114318414D01*
X166775552Y-114472228D01*
X166715537Y-114617117D01*
X166628408Y-114747515D01*
X166517515Y-114858408D01*
X166387117Y-114945537D01*
X166242228Y-115005552D01*
X166088414Y-115036148D01*
X165931586Y-115036148D01*
X165777772Y-115005552D01*
X165632883Y-114945537D01*
X165502485Y-114858408D01*
X165391592Y-114747515D01*
X165304463Y-114617117D01*
X165244448Y-114472228D01*
X165213852Y-114318414D01*
X165213852Y-114161586D01*
X165244448Y-114007772D01*
X165304463Y-113862883D01*
X165391592Y-113732485D01*
X165502485Y-113621592D01*
X165632883Y-113534463D01*
X165777772Y-113474448D01*
X165931586Y-113443852D01*
X166088414Y-113443852D01*
X166242228Y-113474448D01*
G37*
G36*
X190452228Y-113474448D02*
G01*
X190597117Y-113534463D01*
X190727515Y-113621592D01*
X190838408Y-113732485D01*
X190925537Y-113862883D01*
X190985552Y-114007772D01*
X191016148Y-114161586D01*
X191016148Y-114318414D01*
X190985552Y-114472228D01*
X190925537Y-114617117D01*
X190838408Y-114747515D01*
X190727515Y-114858408D01*
X190597117Y-114945537D01*
X190452228Y-115005552D01*
X190298414Y-115036148D01*
X190141586Y-115036148D01*
X189987772Y-115005552D01*
X189842883Y-114945537D01*
X189712485Y-114858408D01*
X189601592Y-114747515D01*
X189514463Y-114617117D01*
X189454448Y-114472228D01*
X189423852Y-114318414D01*
X189423852Y-114161586D01*
X189454448Y-114007772D01*
X189514463Y-113862883D01*
X189601592Y-113732485D01*
X189712485Y-113621592D01*
X189842883Y-113534463D01*
X189987772Y-113474448D01*
X190141586Y-113443852D01*
X190298414Y-113443852D01*
X190452228Y-113474448D01*
G37*
G36*
X165360000Y-113140000D02*
G01*
X164160000Y-113140000D01*
X164160000Y-111140000D01*
X165360000Y-111140000D01*
X165360000Y-113140000D01*
G37*
G36*
X192820000Y-111940000D02*
G01*
X191620000Y-111940000D01*
X191620000Y-109940000D01*
X192820000Y-109940000D01*
X192820000Y-111940000D01*
G37*
G36*
X112313513Y-108384208D02*
G01*
X112552293Y-108461793D01*
X112775998Y-108575776D01*
X112979117Y-108723350D01*
X113156650Y-108900883D01*
X113304224Y-109104002D01*
X113418207Y-109327707D01*
X113495792Y-109566487D01*
X113535068Y-109814465D01*
X113535068Y-110065535D01*
X113495792Y-110313513D01*
X113418207Y-110552293D01*
X113304224Y-110775998D01*
X113156650Y-110979117D01*
X112979117Y-111156650D01*
X112775998Y-111304224D01*
X112552293Y-111418207D01*
X112313513Y-111495792D01*
X112065535Y-111535068D01*
X111814465Y-111535068D01*
X111566487Y-111495792D01*
X111327707Y-111418207D01*
X111104002Y-111304224D01*
X110900883Y-111156650D01*
X110723350Y-110979117D01*
X110575776Y-110775998D01*
X110461793Y-110552293D01*
X110384208Y-110313513D01*
X110344932Y-110065535D01*
X110344932Y-109814465D01*
X110384208Y-109566487D01*
X110461793Y-109327707D01*
X110575776Y-109104002D01*
X110723350Y-108900883D01*
X110900883Y-108723350D01*
X111104002Y-108575776D01*
X111327707Y-108461793D01*
X111566487Y-108384208D01*
X111814465Y-108344932D01*
X112065535Y-108344932D01*
X112313513Y-108384208D01*
G37*
G36*
X125453513Y-108384208D02*
G01*
X125692293Y-108461793D01*
X125915998Y-108575776D01*
X126119117Y-108723350D01*
X126296650Y-108900883D01*
X126444224Y-109104002D01*
X126558207Y-109327707D01*
X126635792Y-109566487D01*
X126675068Y-109814465D01*
X126675068Y-110065535D01*
X126635792Y-110313513D01*
X126558207Y-110552293D01*
X126444224Y-110775998D01*
X126296650Y-110979117D01*
X126119117Y-111156650D01*
X125915998Y-111304224D01*
X125692293Y-111418207D01*
X125453513Y-111495792D01*
X125205535Y-111535068D01*
X124954465Y-111535068D01*
X124706487Y-111495792D01*
X124467707Y-111418207D01*
X124244002Y-111304224D01*
X124040883Y-111156650D01*
X123863350Y-110979117D01*
X123715776Y-110775998D01*
X123601793Y-110552293D01*
X123524208Y-110313513D01*
X123484932Y-110065535D01*
X123484932Y-109814465D01*
X123524208Y-109566487D01*
X123601793Y-109327707D01*
X123715776Y-109104002D01*
X123863350Y-108900883D01*
X124040883Y-108723350D01*
X124244002Y-108575776D01*
X124467707Y-108461793D01*
X124706487Y-108384208D01*
X124954465Y-108344932D01*
X125205535Y-108344932D01*
X125453513Y-108384208D01*
G37*
G36*
X138703513Y-108384208D02*
G01*
X138942293Y-108461793D01*
X139165998Y-108575776D01*
X139369117Y-108723350D01*
X139546650Y-108900883D01*
X139694224Y-109104002D01*
X139808207Y-109327707D01*
X139885792Y-109566487D01*
X139925068Y-109814465D01*
X139925068Y-110065535D01*
X139885792Y-110313513D01*
X139808207Y-110552293D01*
X139694224Y-110775998D01*
X139546650Y-110979117D01*
X139369117Y-111156650D01*
X139165998Y-111304224D01*
X138942293Y-111418207D01*
X138703513Y-111495792D01*
X138455535Y-111535068D01*
X138204465Y-111535068D01*
X137956487Y-111495792D01*
X137717707Y-111418207D01*
X137494002Y-111304224D01*
X137290883Y-111156650D01*
X137113350Y-110979117D01*
X136965776Y-110775998D01*
X136851793Y-110552293D01*
X136774208Y-110313513D01*
X136734932Y-110065535D01*
X136734932Y-109814465D01*
X136774208Y-109566487D01*
X136851793Y-109327707D01*
X136965776Y-109104002D01*
X137113350Y-108900883D01*
X137290883Y-108723350D01*
X137494002Y-108575776D01*
X137717707Y-108461793D01*
X137956487Y-108384208D01*
X138204465Y-108344932D01*
X138455535Y-108344932D01*
X138703513Y-108384208D01*
G37*
G36*
X151843513Y-108384208D02*
G01*
X152082293Y-108461793D01*
X152305998Y-108575776D01*
X152509117Y-108723350D01*
X152686650Y-108900883D01*
X152834224Y-109104002D01*
X152948207Y-109327707D01*
X153025792Y-109566487D01*
X153065068Y-109814465D01*
X153065068Y-110065535D01*
X153025792Y-110313513D01*
X152948207Y-110552293D01*
X152834224Y-110775998D01*
X152686650Y-110979117D01*
X152509117Y-111156650D01*
X152305998Y-111304224D01*
X152082293Y-111418207D01*
X151843513Y-111495792D01*
X151595535Y-111535068D01*
X151344465Y-111535068D01*
X151096487Y-111495792D01*
X150857707Y-111418207D01*
X150634002Y-111304224D01*
X150430883Y-111156650D01*
X150253350Y-110979117D01*
X150105776Y-110775998D01*
X149991793Y-110552293D01*
X149914208Y-110313513D01*
X149874932Y-110065535D01*
X149874932Y-109814465D01*
X149914208Y-109566487D01*
X149991793Y-109327707D01*
X150105776Y-109104002D01*
X150253350Y-108900883D01*
X150430883Y-108723350D01*
X150634002Y-108575776D01*
X150857707Y-108461793D01*
X151096487Y-108384208D01*
X151344465Y-108344932D01*
X151595535Y-108344932D01*
X151843513Y-108384208D01*
G37*
G36*
X115230616Y-106512725D02*
G01*
X115368262Y-106569740D01*
X115492139Y-106652512D01*
X115597488Y-106757861D01*
X115680260Y-106881738D01*
X115737275Y-107019384D01*
X115766340Y-107165507D01*
X115766340Y-107314493D01*
X115737275Y-107460616D01*
X115680260Y-107598262D01*
X115597488Y-107722139D01*
X115492139Y-107827488D01*
X115368262Y-107910260D01*
X115230616Y-107967275D01*
X115084493Y-107996340D01*
X114935507Y-107996340D01*
X114789384Y-107967275D01*
X114651738Y-107910260D01*
X114527861Y-107827488D01*
X114422512Y-107722139D01*
X114339740Y-107598262D01*
X114282725Y-107460616D01*
X114253660Y-107314493D01*
X114253660Y-107165507D01*
X114282725Y-107019384D01*
X114339740Y-106881738D01*
X114422512Y-106757861D01*
X114527861Y-106652512D01*
X114651738Y-106569740D01*
X114789384Y-106512725D01*
X114935507Y-106483660D01*
X115084493Y-106483660D01*
X115230616Y-106512725D01*
G37*
G36*
X117730616Y-106512725D02*
G01*
X117868262Y-106569740D01*
X117992139Y-106652512D01*
X118097488Y-106757861D01*
X118180260Y-106881738D01*
X118237275Y-107019384D01*
X118266340Y-107165507D01*
X118266340Y-107314493D01*
X118237275Y-107460616D01*
X118180260Y-107598262D01*
X118097488Y-107722139D01*
X117992139Y-107827488D01*
X117868262Y-107910260D01*
X117730616Y-107967275D01*
X117584493Y-107996340D01*
X117435507Y-107996340D01*
X117289384Y-107967275D01*
X117151738Y-107910260D01*
X117027861Y-107827488D01*
X116922512Y-107722139D01*
X116839740Y-107598262D01*
X116782725Y-107460616D01*
X116753660Y-107314493D01*
X116753660Y-107165507D01*
X116782725Y-107019384D01*
X116839740Y-106881738D01*
X116922512Y-106757861D01*
X117027861Y-106652512D01*
X117151738Y-106569740D01*
X117289384Y-106512725D01*
X117435507Y-106483660D01*
X117584493Y-106483660D01*
X117730616Y-106512725D01*
G37*
G36*
X119730616Y-106512725D02*
G01*
X119868262Y-106569740D01*
X119992139Y-106652512D01*
X120097488Y-106757861D01*
X120180260Y-106881738D01*
X120237275Y-107019384D01*
X120266340Y-107165507D01*
X120266340Y-107314493D01*
X120237275Y-107460616D01*
X120180260Y-107598262D01*
X120097488Y-107722139D01*
X119992139Y-107827488D01*
X119868262Y-107910260D01*
X119730616Y-107967275D01*
X119584493Y-107996340D01*
X119435507Y-107996340D01*
X119289384Y-107967275D01*
X119151738Y-107910260D01*
X119027861Y-107827488D01*
X118922512Y-107722139D01*
X118839740Y-107598262D01*
X118782725Y-107460616D01*
X118753660Y-107314493D01*
X118753660Y-107165507D01*
X118782725Y-107019384D01*
X118839740Y-106881738D01*
X118922512Y-106757861D01*
X119027861Y-106652512D01*
X119151738Y-106569740D01*
X119289384Y-106512725D01*
X119435507Y-106483660D01*
X119584493Y-106483660D01*
X119730616Y-106512725D01*
G37*
G36*
X122230616Y-106512725D02*
G01*
X122368262Y-106569740D01*
X122492139Y-106652512D01*
X122597488Y-106757861D01*
X122680260Y-106881738D01*
X122737275Y-107019384D01*
X122766340Y-107165507D01*
X122766340Y-107314493D01*
X122737275Y-107460616D01*
X122680260Y-107598262D01*
X122597488Y-107722139D01*
X122492139Y-107827488D01*
X122368262Y-107910260D01*
X122230616Y-107967275D01*
X122084493Y-107996340D01*
X121935507Y-107996340D01*
X121789384Y-107967275D01*
X121651738Y-107910260D01*
X121527861Y-107827488D01*
X121422512Y-107722139D01*
X121339740Y-107598262D01*
X121282725Y-107460616D01*
X121253660Y-107314493D01*
X121253660Y-107165507D01*
X121282725Y-107019384D01*
X121339740Y-106881738D01*
X121422512Y-106757861D01*
X121527861Y-106652512D01*
X121651738Y-106569740D01*
X121789384Y-106512725D01*
X121935507Y-106483660D01*
X122084493Y-106483660D01*
X122230616Y-106512725D01*
G37*
G36*
X141620616Y-106512725D02*
G01*
X141758262Y-106569740D01*
X141882139Y-106652512D01*
X141987488Y-106757861D01*
X142070260Y-106881738D01*
X142127275Y-107019384D01*
X142156340Y-107165507D01*
X142156340Y-107314493D01*
X142127275Y-107460616D01*
X142070260Y-107598262D01*
X141987488Y-107722139D01*
X141882139Y-107827488D01*
X141758262Y-107910260D01*
X141620616Y-107967275D01*
X141474493Y-107996340D01*
X141325507Y-107996340D01*
X141179384Y-107967275D01*
X141041738Y-107910260D01*
X140917861Y-107827488D01*
X140812512Y-107722139D01*
X140729740Y-107598262D01*
X140672725Y-107460616D01*
X140643660Y-107314493D01*
X140643660Y-107165507D01*
X140672725Y-107019384D01*
X140729740Y-106881738D01*
X140812512Y-106757861D01*
X140917861Y-106652512D01*
X141041738Y-106569740D01*
X141179384Y-106512725D01*
X141325507Y-106483660D01*
X141474493Y-106483660D01*
X141620616Y-106512725D01*
G37*
G36*
X144120616Y-106512725D02*
G01*
X144258262Y-106569740D01*
X144382139Y-106652512D01*
X144487488Y-106757861D01*
X144570260Y-106881738D01*
X144627275Y-107019384D01*
X144656340Y-107165507D01*
X144656340Y-107314493D01*
X144627275Y-107460616D01*
X144570260Y-107598262D01*
X144487488Y-107722139D01*
X144382139Y-107827488D01*
X144258262Y-107910260D01*
X144120616Y-107967275D01*
X143974493Y-107996340D01*
X143825507Y-107996340D01*
X143679384Y-107967275D01*
X143541738Y-107910260D01*
X143417861Y-107827488D01*
X143312512Y-107722139D01*
X143229740Y-107598262D01*
X143172725Y-107460616D01*
X143143660Y-107314493D01*
X143143660Y-107165507D01*
X143172725Y-107019384D01*
X143229740Y-106881738D01*
X143312512Y-106757861D01*
X143417861Y-106652512D01*
X143541738Y-106569740D01*
X143679384Y-106512725D01*
X143825507Y-106483660D01*
X143974493Y-106483660D01*
X144120616Y-106512725D01*
G37*
G36*
X146120616Y-106512725D02*
G01*
X146258262Y-106569740D01*
X146382139Y-106652512D01*
X146487488Y-106757861D01*
X146570260Y-106881738D01*
X146627275Y-107019384D01*
X146656340Y-107165507D01*
X146656340Y-107314493D01*
X146627275Y-107460616D01*
X146570260Y-107598262D01*
X146487488Y-107722139D01*
X146382139Y-107827488D01*
X146258262Y-107910260D01*
X146120616Y-107967275D01*
X145974493Y-107996340D01*
X145825507Y-107996340D01*
X145679384Y-107967275D01*
X145541738Y-107910260D01*
X145417861Y-107827488D01*
X145312512Y-107722139D01*
X145229740Y-107598262D01*
X145172725Y-107460616D01*
X145143660Y-107314493D01*
X145143660Y-107165507D01*
X145172725Y-107019384D01*
X145229740Y-106881738D01*
X145312512Y-106757861D01*
X145417861Y-106652512D01*
X145541738Y-106569740D01*
X145679384Y-106512725D01*
X145825507Y-106483660D01*
X145974493Y-106483660D01*
X146120616Y-106512725D01*
G37*
G36*
X148620616Y-106512725D02*
G01*
X148758262Y-106569740D01*
X148882139Y-106652512D01*
X148987488Y-106757861D01*
X149070260Y-106881738D01*
X149127275Y-107019384D01*
X149156340Y-107165507D01*
X149156340Y-107314493D01*
X149127275Y-107460616D01*
X149070260Y-107598262D01*
X148987488Y-107722139D01*
X148882139Y-107827488D01*
X148758262Y-107910260D01*
X148620616Y-107967275D01*
X148474493Y-107996340D01*
X148325507Y-107996340D01*
X148179384Y-107967275D01*
X148041738Y-107910260D01*
X147917861Y-107827488D01*
X147812512Y-107722139D01*
X147729740Y-107598262D01*
X147672725Y-107460616D01*
X147643660Y-107314493D01*
X147643660Y-107165507D01*
X147672725Y-107019384D01*
X147729740Y-106881738D01*
X147812512Y-106757861D01*
X147917861Y-106652512D01*
X148041738Y-106569740D01*
X148179384Y-106512725D01*
X148325507Y-106483660D01*
X148474493Y-106483660D01*
X148620616Y-106512725D01*
G37*
G36*
X131794903Y-102461418D02*
G01*
X131843566Y-102493934D01*
X131876082Y-102542597D01*
X131887500Y-102600000D01*
X131887500Y-102900000D01*
X131876082Y-102957403D01*
X131843566Y-103006066D01*
X131794903Y-103038582D01*
X131737500Y-103050000D01*
X130712500Y-103050000D01*
X130655097Y-103038582D01*
X130606434Y-103006066D01*
X130573918Y-102957403D01*
X130562500Y-102900000D01*
X130562500Y-102600000D01*
X130573918Y-102542597D01*
X130606434Y-102493934D01*
X130655097Y-102461418D01*
X130712500Y-102450000D01*
X131737500Y-102450000D01*
X131794903Y-102461418D01*
G37*
G36*
X134069903Y-102461418D02*
G01*
X134118566Y-102493934D01*
X134151082Y-102542597D01*
X134162500Y-102600000D01*
X134162500Y-102900000D01*
X134151082Y-102957403D01*
X134118566Y-103006066D01*
X134069903Y-103038582D01*
X134012500Y-103050000D01*
X132987500Y-103050000D01*
X132930097Y-103038582D01*
X132881434Y-103006066D01*
X132848918Y-102957403D01*
X132837500Y-102900000D01*
X132837500Y-102600000D01*
X132848918Y-102542597D01*
X132881434Y-102493934D01*
X132930097Y-102461418D01*
X132987500Y-102450000D01*
X134012500Y-102450000D01*
X134069903Y-102461418D01*
G37*
G36*
X135525671Y-101084030D02*
G01*
X135606777Y-101138223D01*
X135660970Y-101219329D01*
X135680000Y-101315000D01*
X135680000Y-102265000D01*
X135660970Y-102360671D01*
X135606777Y-102441777D01*
X135525671Y-102495970D01*
X135430000Y-102515000D01*
X134930000Y-102515000D01*
X134834329Y-102495970D01*
X134753223Y-102441777D01*
X134699030Y-102360671D01*
X134680000Y-102265000D01*
X134680000Y-101315000D01*
X134699030Y-101219329D01*
X134753223Y-101138223D01*
X134834329Y-101084030D01*
X134930000Y-101065000D01*
X135430000Y-101065000D01*
X135525671Y-101084030D01*
G37*
G36*
X137425671Y-101084030D02*
G01*
X137506777Y-101138223D01*
X137560970Y-101219329D01*
X137580000Y-101315000D01*
X137580000Y-102265000D01*
X137560970Y-102360671D01*
X137506777Y-102441777D01*
X137425671Y-102495970D01*
X137330000Y-102515000D01*
X136830000Y-102515000D01*
X136734329Y-102495970D01*
X136653223Y-102441777D01*
X136599030Y-102360671D01*
X136580000Y-102265000D01*
X136580000Y-101315000D01*
X136599030Y-101219329D01*
X136653223Y-101138223D01*
X136734329Y-101084030D01*
X136830000Y-101065000D01*
X137330000Y-101065000D01*
X137425671Y-101084030D01*
G37*
G36*
X131794903Y-101511418D02*
G01*
X131843566Y-101543934D01*
X131876082Y-101592597D01*
X131887500Y-101650000D01*
X131887500Y-101950000D01*
X131876082Y-102007403D01*
X131843566Y-102056066D01*
X131794903Y-102088582D01*
X131737500Y-102100000D01*
X130712500Y-102100000D01*
X130655097Y-102088582D01*
X130606434Y-102056066D01*
X130573918Y-102007403D01*
X130562500Y-101950000D01*
X130562500Y-101650000D01*
X130573918Y-101592597D01*
X130606434Y-101543934D01*
X130655097Y-101511418D01*
X130712500Y-101500000D01*
X131737500Y-101500000D01*
X131794903Y-101511418D01*
G37*
G36*
X134069903Y-101511418D02*
G01*
X134118566Y-101543934D01*
X134151082Y-101592597D01*
X134162500Y-101650000D01*
X134162500Y-101950000D01*
X134151082Y-102007403D01*
X134118566Y-102056066D01*
X134069903Y-102088582D01*
X134012500Y-102100000D01*
X132987500Y-102100000D01*
X132930097Y-102088582D01*
X132881434Y-102056066D01*
X132848918Y-102007403D01*
X132837500Y-101950000D01*
X132837500Y-101650000D01*
X132848918Y-101592597D01*
X132881434Y-101543934D01*
X132930097Y-101511418D01*
X132987500Y-101500000D01*
X134012500Y-101500000D01*
X134069903Y-101511418D01*
G37*
G36*
X131794903Y-100561418D02*
G01*
X131843566Y-100593934D01*
X131876082Y-100642597D01*
X131887500Y-100700000D01*
X131887500Y-101000000D01*
X131876082Y-101057403D01*
X131843566Y-101106066D01*
X131794903Y-101138582D01*
X131737500Y-101150000D01*
X130712500Y-101150000D01*
X130655097Y-101138582D01*
X130606434Y-101106066D01*
X130573918Y-101057403D01*
X130562500Y-101000000D01*
X130562500Y-100700000D01*
X130573918Y-100642597D01*
X130606434Y-100593934D01*
X130655097Y-100561418D01*
X130712500Y-100550000D01*
X131737500Y-100550000D01*
X131794903Y-100561418D01*
G37*
G36*
X134069903Y-100561418D02*
G01*
X134118566Y-100593934D01*
X134151082Y-100642597D01*
X134162500Y-100700000D01*
X134162500Y-101000000D01*
X134151082Y-101057403D01*
X134118566Y-101106066D01*
X134069903Y-101138582D01*
X134012500Y-101150000D01*
X132987500Y-101150000D01*
X132930097Y-101138582D01*
X132881434Y-101106066D01*
X132848918Y-101057403D01*
X132837500Y-101000000D01*
X132837500Y-100700000D01*
X132848918Y-100642597D01*
X132881434Y-100593934D01*
X132930097Y-100561418D01*
X132987500Y-100550000D01*
X134012500Y-100550000D01*
X134069903Y-100561418D01*
G37*
G36*
X105053513Y-95044208D02*
G01*
X105292293Y-95121793D01*
X105515998Y-95235776D01*
X105719117Y-95383350D01*
X105896650Y-95560883D01*
X106044224Y-95764002D01*
X106158207Y-95987707D01*
X106235792Y-96226487D01*
X106275068Y-96474465D01*
X106275068Y-96725535D01*
X106235792Y-96973513D01*
X106158207Y-97212293D01*
X106044224Y-97435998D01*
X105896650Y-97639117D01*
X105719117Y-97816650D01*
X105515998Y-97964224D01*
X105292293Y-98078207D01*
X105053513Y-98155792D01*
X104805535Y-98195068D01*
X104554465Y-98195068D01*
X104306487Y-98155792D01*
X104067707Y-98078207D01*
X103844002Y-97964224D01*
X103640883Y-97816650D01*
X103463350Y-97639117D01*
X103315776Y-97435998D01*
X103201793Y-97212293D01*
X103124208Y-96973513D01*
X103084932Y-96725535D01*
X103084932Y-96474465D01*
X103124208Y-96226487D01*
X103201793Y-95987707D01*
X103315776Y-95764002D01*
X103463350Y-95560883D01*
X103640883Y-95383350D01*
X103844002Y-95235776D01*
X104067707Y-95121793D01*
X104306487Y-95044208D01*
X104554465Y-95004932D01*
X104805535Y-95004932D01*
X105053513Y-95044208D01*
G37*
G36*
X150250671Y-92279029D02*
G01*
X150331777Y-92333222D01*
X150385970Y-92414328D01*
X150405000Y-92509999D01*
X150405000Y-93009999D01*
X150385970Y-93105670D01*
X150331777Y-93186776D01*
X150250671Y-93240969D01*
X150155000Y-93259999D01*
X149205000Y-93259999D01*
X149109329Y-93240969D01*
X149028223Y-93186776D01*
X148974030Y-93105670D01*
X148955000Y-93009999D01*
X148955000Y-92509999D01*
X148974030Y-92414328D01*
X149028223Y-92333222D01*
X149109329Y-92279029D01*
X149205000Y-92259999D01*
X150155000Y-92259999D01*
X150250671Y-92279029D01*
G37*
G36*
X156480671Y-90499029D02*
G01*
X156561777Y-90553222D01*
X156615970Y-90634328D01*
X156635000Y-90729999D01*
X156635000Y-91229999D01*
X156615970Y-91325670D01*
X156561777Y-91406776D01*
X156480671Y-91460969D01*
X156385000Y-91479999D01*
X155435000Y-91479999D01*
X155339329Y-91460969D01*
X155258223Y-91406776D01*
X155204030Y-91325670D01*
X155185000Y-91229999D01*
X155185000Y-90729999D01*
X155204030Y-90634328D01*
X155258223Y-90553222D01*
X155339329Y-90499029D01*
X155435000Y-90479999D01*
X156385000Y-90479999D01*
X156480671Y-90499029D01*
G37*
G36*
X152255671Y-90239031D02*
G01*
X152336777Y-90293224D01*
X152390970Y-90374330D01*
X152410000Y-90470001D01*
X152410000Y-91170001D01*
X152390970Y-91265672D01*
X152336777Y-91346778D01*
X152255671Y-91400971D01*
X152160000Y-91420001D01*
X151260000Y-91420001D01*
X151164329Y-91400971D01*
X151083223Y-91346778D01*
X151029030Y-91265672D01*
X151010000Y-91170001D01*
X151010000Y-90470001D01*
X151029030Y-90374330D01*
X151083223Y-90293224D01*
X151164329Y-90239031D01*
X151260000Y-90220001D01*
X152160000Y-90220001D01*
X152255671Y-90239031D01*
G37*
G36*
X154455671Y-90239031D02*
G01*
X154536777Y-90293224D01*
X154590970Y-90374330D01*
X154610000Y-90470001D01*
X154610000Y-91170001D01*
X154590970Y-91265672D01*
X154536777Y-91346778D01*
X154455671Y-91400971D01*
X154360000Y-91420001D01*
X153460000Y-91420001D01*
X153364329Y-91400971D01*
X153283223Y-91346778D01*
X153229030Y-91265672D01*
X153210000Y-91170001D01*
X153210000Y-90470001D01*
X153229030Y-90374330D01*
X153283223Y-90293224D01*
X153364329Y-90239031D01*
X153460000Y-90220001D01*
X154360000Y-90220001D01*
X154455671Y-90239031D01*
G37*
G36*
X150250671Y-90379031D02*
G01*
X150331777Y-90433224D01*
X150385970Y-90514330D01*
X150405000Y-90610001D01*
X150405000Y-91110001D01*
X150385970Y-91205672D01*
X150331777Y-91286778D01*
X150250671Y-91340971D01*
X150155000Y-91360001D01*
X149205000Y-91360001D01*
X149109329Y-91340971D01*
X149028223Y-91286778D01*
X148974030Y-91205672D01*
X148955000Y-91110001D01*
X148955000Y-90610001D01*
X148974030Y-90514330D01*
X149028223Y-90433224D01*
X149109329Y-90379031D01*
X149205000Y-90360001D01*
X150155000Y-90360001D01*
X150250671Y-90379031D01*
G37*
G36*
X165610000Y-90690000D02*
G01*
X164410000Y-90690000D01*
X164410000Y-89190000D01*
X165610000Y-89190000D01*
X165610000Y-90690000D01*
G37*
G36*
X168960000Y-90690000D02*
G01*
X167760000Y-90690000D01*
X167760000Y-89190000D01*
X168960000Y-89190000D01*
X168960000Y-90690000D01*
G37*
G36*
X170660000Y-90690000D02*
G01*
X169460000Y-90690000D01*
X169460000Y-89190000D01*
X170660000Y-89190000D01*
X170660000Y-90690000D01*
G37*
G36*
X173090000Y-90690000D02*
G01*
X171890000Y-90690000D01*
X171890000Y-89190000D01*
X173090000Y-89190000D01*
X173090000Y-90690000D01*
G37*
G36*
X175590000Y-90690000D02*
G01*
X174390000Y-90690000D01*
X174390000Y-89190000D01*
X175590000Y-89190000D01*
X175590000Y-90690000D01*
G37*
G36*
X178090000Y-90690000D02*
G01*
X176890000Y-90690000D01*
X176890000Y-89190000D01*
X178090000Y-89190000D01*
X178090000Y-90690000D01*
G37*
G36*
X179790000Y-90690000D02*
G01*
X178590000Y-90690000D01*
X178590000Y-89190000D01*
X179790000Y-89190000D01*
X179790000Y-90690000D01*
G37*
G36*
X181440000Y-90690000D02*
G01*
X180240000Y-90690000D01*
X180240000Y-89190000D01*
X181440000Y-89190000D01*
X181440000Y-90690000D01*
G37*
G36*
X183090000Y-90690000D02*
G01*
X181890000Y-90690000D01*
X181890000Y-89190000D01*
X183090000Y-89190000D01*
X183090000Y-90690000D01*
G37*
G36*
X185590000Y-90690000D02*
G01*
X184390000Y-90690000D01*
X184390000Y-89190000D01*
X185590000Y-89190000D01*
X185590000Y-90690000D01*
G37*
G36*
X188090000Y-90690000D02*
G01*
X186890000Y-90690000D01*
X186890000Y-89190000D01*
X188090000Y-89190000D01*
X188090000Y-90690000D01*
G37*
G36*
X152255671Y-88539031D02*
G01*
X152336777Y-88593224D01*
X152390970Y-88674330D01*
X152410000Y-88770001D01*
X152410000Y-89470001D01*
X152390970Y-89565672D01*
X152336777Y-89646778D01*
X152255671Y-89700971D01*
X152160000Y-89720001D01*
X151260000Y-89720001D01*
X151164329Y-89700971D01*
X151083223Y-89646778D01*
X151029030Y-89565672D01*
X151010000Y-89470001D01*
X151010000Y-88770001D01*
X151029030Y-88674330D01*
X151083223Y-88593224D01*
X151164329Y-88539031D01*
X151260000Y-88520001D01*
X152160000Y-88520001D01*
X152255671Y-88539031D01*
G37*
G36*
X154455671Y-88539031D02*
G01*
X154536777Y-88593224D01*
X154590970Y-88674330D01*
X154610000Y-88770001D01*
X154610000Y-89470001D01*
X154590970Y-89565672D01*
X154536777Y-89646778D01*
X154455671Y-89700971D01*
X154360000Y-89720001D01*
X153460000Y-89720001D01*
X153364329Y-89700971D01*
X153283223Y-89646778D01*
X153229030Y-89565672D01*
X153210000Y-89470001D01*
X153210000Y-88770001D01*
X153229030Y-88674330D01*
X153283223Y-88593224D01*
X153364329Y-88539031D01*
X153460000Y-88520001D01*
X154360000Y-88520001D01*
X154455671Y-88539031D01*
G37*
G36*
X156480671Y-88599031D02*
G01*
X156561777Y-88653224D01*
X156615970Y-88734330D01*
X156635000Y-88830001D01*
X156635000Y-89330001D01*
X156615970Y-89425672D01*
X156561777Y-89506778D01*
X156480671Y-89560971D01*
X156385000Y-89580001D01*
X155435000Y-89580001D01*
X155339329Y-89560971D01*
X155258223Y-89506778D01*
X155204030Y-89425672D01*
X155185000Y-89330001D01*
X155185000Y-88830001D01*
X155204030Y-88734330D01*
X155258223Y-88653224D01*
X155339329Y-88599031D01*
X155435000Y-88580001D01*
X156385000Y-88580001D01*
X156480671Y-88599031D01*
G37*
G36*
X101395671Y-88134030D02*
G01*
X101476777Y-88188223D01*
X101530970Y-88269329D01*
X101550000Y-88365000D01*
X101550000Y-89015000D01*
X101530970Y-89110671D01*
X101476777Y-89191777D01*
X101395671Y-89245970D01*
X101300000Y-89265000D01*
X100400000Y-89265000D01*
X100304329Y-89245970D01*
X100223223Y-89191777D01*
X100169030Y-89110671D01*
X100150000Y-89015000D01*
X100150000Y-88365000D01*
X100169030Y-88269329D01*
X100223223Y-88188223D01*
X100304329Y-88134030D01*
X100400000Y-88115000D01*
X101300000Y-88115000D01*
X101395671Y-88134030D01*
G37*
G36*
X161056537Y-88015224D02*
G01*
X161121421Y-88058579D01*
X161164776Y-88123463D01*
X161180000Y-88200000D01*
X161180000Y-88600000D01*
X161164776Y-88676537D01*
X161121421Y-88741421D01*
X161056537Y-88784776D01*
X160980000Y-88800000D01*
X159380000Y-88800000D01*
X159303463Y-88784776D01*
X159238579Y-88741421D01*
X159195224Y-88676537D01*
X159180000Y-88600000D01*
X159180000Y-88200000D01*
X159195224Y-88123463D01*
X159238579Y-88058579D01*
X159303463Y-88015224D01*
X159380000Y-88000000D01*
X160980000Y-88000000D01*
X161056537Y-88015224D01*
G37*
G36*
X183055671Y-87629030D02*
G01*
X183136777Y-87683223D01*
X183190970Y-87764329D01*
X183210000Y-87860000D01*
X183210000Y-88385000D01*
X183190970Y-88480671D01*
X183136777Y-88561777D01*
X183055671Y-88615970D01*
X182960000Y-88635000D01*
X182060000Y-88635000D01*
X181964329Y-88615970D01*
X181883223Y-88561777D01*
X181829030Y-88480671D01*
X181810000Y-88385000D01*
X181810000Y-87860000D01*
X181829030Y-87764329D01*
X181883223Y-87683223D01*
X181964329Y-87629030D01*
X182060000Y-87610000D01*
X182960000Y-87610000D01*
X183055671Y-87629030D01*
G37*
G36*
X181145671Y-87619030D02*
G01*
X181226777Y-87673223D01*
X181280970Y-87754329D01*
X181300000Y-87850000D01*
X181300000Y-88375000D01*
X181280970Y-88470671D01*
X181226777Y-88551777D01*
X181145671Y-88605970D01*
X181050000Y-88625000D01*
X180150000Y-88625000D01*
X180054329Y-88605970D01*
X179973223Y-88551777D01*
X179919030Y-88470671D01*
X179900000Y-88375000D01*
X179900000Y-87850000D01*
X179919030Y-87754329D01*
X179973223Y-87673223D01*
X180054329Y-87619030D01*
X180150000Y-87600000D01*
X181050000Y-87600000D01*
X181145671Y-87619030D01*
G37*
G36*
X179225671Y-87611530D02*
G01*
X179306777Y-87665723D01*
X179360970Y-87746829D01*
X179380000Y-87842500D01*
X179380000Y-88367500D01*
X179360970Y-88463171D01*
X179306777Y-88544277D01*
X179225671Y-88598470D01*
X179130000Y-88617500D01*
X178230000Y-88617500D01*
X178134329Y-88598470D01*
X178053223Y-88544277D01*
X177999030Y-88463171D01*
X177980000Y-88367500D01*
X177980000Y-87842500D01*
X177999030Y-87746829D01*
X178053223Y-87665723D01*
X178134329Y-87611530D01*
X178230000Y-87592500D01*
X179130000Y-87592500D01*
X179225671Y-87611530D01*
G37*
G36*
X177195671Y-87599030D02*
G01*
X177276777Y-87653223D01*
X177330970Y-87734329D01*
X177350000Y-87830000D01*
X177350000Y-88355000D01*
X177330970Y-88450671D01*
X177276777Y-88531777D01*
X177195671Y-88585970D01*
X177100000Y-88605000D01*
X176200000Y-88605000D01*
X176104329Y-88585970D01*
X176023223Y-88531777D01*
X175969030Y-88450671D01*
X175950000Y-88355000D01*
X175950000Y-87830000D01*
X175969030Y-87734329D01*
X176023223Y-87653223D01*
X176104329Y-87599030D01*
X176200000Y-87580000D01*
X177100000Y-87580000D01*
X177195671Y-87599030D01*
G37*
G36*
X175285671Y-87581530D02*
G01*
X175366777Y-87635723D01*
X175420970Y-87716829D01*
X175440000Y-87812500D01*
X175440000Y-88337500D01*
X175420970Y-88433171D01*
X175366777Y-88514277D01*
X175285671Y-88568470D01*
X175190000Y-88587500D01*
X174290000Y-88587500D01*
X174194329Y-88568470D01*
X174113223Y-88514277D01*
X174059030Y-88433171D01*
X174040000Y-88337500D01*
X174040000Y-87812500D01*
X174059030Y-87716829D01*
X174113223Y-87635723D01*
X174194329Y-87581530D01*
X174290000Y-87562500D01*
X175190000Y-87562500D01*
X175285671Y-87581530D01*
G37*
G36*
X104435671Y-85969030D02*
G01*
X104516777Y-86023223D01*
X104570970Y-86104329D01*
X104590000Y-86200000D01*
X104590000Y-87100000D01*
X104570970Y-87195671D01*
X104516777Y-87276777D01*
X104435671Y-87330970D01*
X104340000Y-87350000D01*
X103815000Y-87350000D01*
X103719329Y-87330970D01*
X103638223Y-87276777D01*
X103584030Y-87195671D01*
X103565000Y-87100000D01*
X103565000Y-86200000D01*
X103584030Y-86104329D01*
X103638223Y-86023223D01*
X103719329Y-85969030D01*
X103815000Y-85950000D01*
X104340000Y-85950000D01*
X104435671Y-85969030D01*
G37*
G36*
X106260671Y-85969030D02*
G01*
X106341777Y-86023223D01*
X106395970Y-86104329D01*
X106415000Y-86200000D01*
X106415000Y-87100000D01*
X106395970Y-87195671D01*
X106341777Y-87276777D01*
X106260671Y-87330970D01*
X106165000Y-87350000D01*
X105640000Y-87350000D01*
X105544329Y-87330970D01*
X105463223Y-87276777D01*
X105409030Y-87195671D01*
X105390000Y-87100000D01*
X105390000Y-86200000D01*
X105409030Y-86104329D01*
X105463223Y-86023223D01*
X105544329Y-85969030D01*
X105640000Y-85950000D01*
X106165000Y-85950000D01*
X106260671Y-85969030D01*
G37*
G36*
X101395671Y-86084032D02*
G01*
X101476777Y-86138225D01*
X101530970Y-86219331D01*
X101550000Y-86315002D01*
X101550000Y-86965002D01*
X101530970Y-87060673D01*
X101476777Y-87141779D01*
X101395671Y-87195972D01*
X101300000Y-87215002D01*
X100400000Y-87215002D01*
X100304329Y-87195972D01*
X100223223Y-87141779D01*
X100169030Y-87060673D01*
X100150000Y-86965002D01*
X100150000Y-86315002D01*
X100169030Y-86219331D01*
X100223223Y-86138225D01*
X100304329Y-86084032D01*
X100400000Y-86065002D01*
X101300000Y-86065002D01*
X101395671Y-86084032D01*
G37*
G36*
X183055671Y-85804030D02*
G01*
X183136777Y-85858223D01*
X183190970Y-85939329D01*
X183210000Y-86035000D01*
X183210000Y-86560000D01*
X183190970Y-86655671D01*
X183136777Y-86736777D01*
X183055671Y-86790970D01*
X182960000Y-86810000D01*
X182060000Y-86810000D01*
X181964329Y-86790970D01*
X181883223Y-86736777D01*
X181829030Y-86655671D01*
X181810000Y-86560000D01*
X181810000Y-86035000D01*
X181829030Y-85939329D01*
X181883223Y-85858223D01*
X181964329Y-85804030D01*
X182060000Y-85785000D01*
X182960000Y-85785000D01*
X183055671Y-85804030D01*
G37*
G36*
X181145671Y-85794030D02*
G01*
X181226777Y-85848223D01*
X181280970Y-85929329D01*
X181300000Y-86025000D01*
X181300000Y-86550000D01*
X181280970Y-86645671D01*
X181226777Y-86726777D01*
X181145671Y-86780970D01*
X181050000Y-86800000D01*
X180150000Y-86800000D01*
X180054329Y-86780970D01*
X179973223Y-86726777D01*
X179919030Y-86645671D01*
X179900000Y-86550000D01*
X179900000Y-86025000D01*
X179919030Y-85929329D01*
X179973223Y-85848223D01*
X180054329Y-85794030D01*
X180150000Y-85775000D01*
X181050000Y-85775000D01*
X181145671Y-85794030D01*
G37*
G36*
X179225671Y-85786530D02*
G01*
X179306777Y-85840723D01*
X179360970Y-85921829D01*
X179380000Y-86017500D01*
X179380000Y-86542500D01*
X179360970Y-86638171D01*
X179306777Y-86719277D01*
X179225671Y-86773470D01*
X179130000Y-86792500D01*
X178230000Y-86792500D01*
X178134329Y-86773470D01*
X178053223Y-86719277D01*
X177999030Y-86638171D01*
X177980000Y-86542500D01*
X177980000Y-86017500D01*
X177999030Y-85921829D01*
X178053223Y-85840723D01*
X178134329Y-85786530D01*
X178230000Y-85767500D01*
X179130000Y-85767500D01*
X179225671Y-85786530D01*
G37*
G36*
X177195671Y-85774030D02*
G01*
X177276777Y-85828223D01*
X177330970Y-85909329D01*
X177350000Y-86005000D01*
X177350000Y-86530000D01*
X177330970Y-86625671D01*
X177276777Y-86706777D01*
X177195671Y-86760970D01*
X177100000Y-86780000D01*
X176200000Y-86780000D01*
X176104329Y-86760970D01*
X176023223Y-86706777D01*
X175969030Y-86625671D01*
X175950000Y-86530000D01*
X175950000Y-86005000D01*
X175969030Y-85909329D01*
X176023223Y-85828223D01*
X176104329Y-85774030D01*
X176200000Y-85755000D01*
X177100000Y-85755000D01*
X177195671Y-85774030D01*
G37*
G36*
X175285671Y-85756530D02*
G01*
X175366777Y-85810723D01*
X175420970Y-85891829D01*
X175440000Y-85987500D01*
X175440000Y-86512500D01*
X175420970Y-86608171D01*
X175366777Y-86689277D01*
X175285671Y-86743470D01*
X175190000Y-86762500D01*
X174290000Y-86762500D01*
X174194329Y-86743470D01*
X174113223Y-86689277D01*
X174059030Y-86608171D01*
X174040000Y-86512500D01*
X174040000Y-85987500D01*
X174059030Y-85891829D01*
X174113223Y-85810723D01*
X174194329Y-85756530D01*
X174290000Y-85737500D01*
X175190000Y-85737500D01*
X175285671Y-85756530D01*
G37*
G36*
X163440671Y-85699029D02*
G01*
X163521777Y-85753222D01*
X163575970Y-85834328D01*
X163595000Y-85929999D01*
X163595000Y-86429999D01*
X163575970Y-86525670D01*
X163521777Y-86606776D01*
X163440671Y-86660969D01*
X163345000Y-86679999D01*
X162395000Y-86679999D01*
X162299329Y-86660969D01*
X162218223Y-86606776D01*
X162164030Y-86525670D01*
X162145000Y-86429999D01*
X162145000Y-85929999D01*
X162164030Y-85834328D01*
X162218223Y-85753222D01*
X162299329Y-85699029D01*
X162395000Y-85679999D01*
X163345000Y-85679999D01*
X163440671Y-85699029D01*
G37*
G36*
X153360671Y-85689029D02*
G01*
X153441777Y-85743222D01*
X153495970Y-85824328D01*
X153515000Y-85919999D01*
X153515000Y-86419999D01*
X153495970Y-86515670D01*
X153441777Y-86596776D01*
X153360671Y-86650969D01*
X153265000Y-86669999D01*
X152315000Y-86669999D01*
X152219329Y-86650969D01*
X152138223Y-86596776D01*
X152084030Y-86515670D01*
X152065000Y-86419999D01*
X152065000Y-85919999D01*
X152084030Y-85824328D01*
X152138223Y-85743222D01*
X152219329Y-85689029D01*
X152315000Y-85669999D01*
X153265000Y-85669999D01*
X153360671Y-85689029D01*
G37*
G36*
X157380671Y-85609029D02*
G01*
X157461777Y-85663222D01*
X157515970Y-85744328D01*
X157535000Y-85839999D01*
X157535000Y-86339999D01*
X157515970Y-86435670D01*
X157461777Y-86516776D01*
X157380671Y-86570969D01*
X157285000Y-86589999D01*
X156335000Y-86589999D01*
X156239329Y-86570969D01*
X156158223Y-86516776D01*
X156104030Y-86435670D01*
X156085000Y-86339999D01*
X156085000Y-85839999D01*
X156104030Y-85744328D01*
X156158223Y-85663222D01*
X156239329Y-85609029D01*
X156335000Y-85589999D01*
X157285000Y-85589999D01*
X157380671Y-85609029D01*
G37*
G36*
X149418171Y-83879030D02*
G01*
X149499277Y-83933223D01*
X149553470Y-84014329D01*
X149572500Y-84110000D01*
X149572500Y-85010000D01*
X149553470Y-85105671D01*
X149499277Y-85186777D01*
X149418171Y-85240970D01*
X149322500Y-85260000D01*
X148797500Y-85260000D01*
X148701829Y-85240970D01*
X148620723Y-85186777D01*
X148566530Y-85105671D01*
X148547500Y-85010000D01*
X148547500Y-84110000D01*
X148566530Y-84014329D01*
X148620723Y-83933223D01*
X148701829Y-83879030D01*
X148797500Y-83860000D01*
X149322500Y-83860000D01*
X149418171Y-83879030D01*
G37*
G36*
X151243171Y-83879030D02*
G01*
X151324277Y-83933223D01*
X151378470Y-84014329D01*
X151397500Y-84110000D01*
X151397500Y-85010000D01*
X151378470Y-85105671D01*
X151324277Y-85186777D01*
X151243171Y-85240970D01*
X151147500Y-85260000D01*
X150622500Y-85260000D01*
X150526829Y-85240970D01*
X150445723Y-85186777D01*
X150391530Y-85105671D01*
X150372500Y-85010000D01*
X150372500Y-84110000D01*
X150391530Y-84014329D01*
X150445723Y-83933223D01*
X150526829Y-83879030D01*
X150622500Y-83860000D01*
X151147500Y-83860000D01*
X151243171Y-83879030D01*
G37*
G36*
X176277500Y-85150000D02*
G01*
X175842500Y-85150000D01*
X175842500Y-83650000D01*
X176277500Y-83650000D01*
X176277500Y-85150000D01*
G37*
G36*
X176911500Y-85150000D02*
G01*
X176476500Y-85150000D01*
X176476500Y-83650000D01*
X176911500Y-83650000D01*
X176911500Y-85150000D01*
G37*
G36*
X177547500Y-85150000D02*
G01*
X177112500Y-85150000D01*
X177112500Y-83650000D01*
X177547500Y-83650000D01*
X177547500Y-85150000D01*
G37*
G36*
X178181500Y-85150000D02*
G01*
X177746500Y-85150000D01*
X177746500Y-83650000D01*
X178181500Y-83650000D01*
X178181500Y-85150000D01*
G37*
G36*
X178817500Y-85150000D02*
G01*
X178382500Y-85150000D01*
X178382500Y-83650000D01*
X178817500Y-83650000D01*
X178817500Y-85150000D01*
G37*
G36*
X179451500Y-85150000D02*
G01*
X179016500Y-85150000D01*
X179016500Y-83650000D01*
X179451500Y-83650000D01*
X179451500Y-85150000D01*
G37*
G36*
X180087500Y-85150000D02*
G01*
X179652500Y-85150000D01*
X179652500Y-83650000D01*
X180087500Y-83650000D01*
X180087500Y-85150000D01*
G37*
G36*
X180721500Y-85150000D02*
G01*
X180286500Y-85150000D01*
X180286500Y-83650000D01*
X180721500Y-83650000D01*
X180721500Y-85150000D01*
G37*
G36*
X163440671Y-83799031D02*
G01*
X163521777Y-83853224D01*
X163575970Y-83934330D01*
X163595000Y-84030001D01*
X163595000Y-84530001D01*
X163575970Y-84625672D01*
X163521777Y-84706778D01*
X163440671Y-84760971D01*
X163345000Y-84780001D01*
X162395000Y-84780001D01*
X162299329Y-84760971D01*
X162218223Y-84706778D01*
X162164030Y-84625672D01*
X162145000Y-84530001D01*
X162145000Y-84030001D01*
X162164030Y-83934330D01*
X162218223Y-83853224D01*
X162299329Y-83799031D01*
X162395000Y-83780001D01*
X163345000Y-83780001D01*
X163440671Y-83799031D01*
G37*
G36*
X153360671Y-83789031D02*
G01*
X153441777Y-83843224D01*
X153495970Y-83924330D01*
X153515000Y-84020001D01*
X153515000Y-84520001D01*
X153495970Y-84615672D01*
X153441777Y-84696778D01*
X153360671Y-84750971D01*
X153265000Y-84770001D01*
X152315000Y-84770001D01*
X152219329Y-84750971D01*
X152138223Y-84696778D01*
X152084030Y-84615672D01*
X152065000Y-84520001D01*
X152065000Y-84020001D01*
X152084030Y-83924330D01*
X152138223Y-83843224D01*
X152219329Y-83789031D01*
X152315000Y-83770001D01*
X153265000Y-83770001D01*
X153360671Y-83789031D01*
G37*
G36*
X193431342Y-83768060D02*
G01*
X193544381Y-83833323D01*
X193636677Y-83925619D01*
X193701940Y-84038658D01*
X193735722Y-84164737D01*
X193735722Y-84295263D01*
X193701940Y-84421342D01*
X193636677Y-84534381D01*
X193544381Y-84626677D01*
X193431342Y-84691940D01*
X193305263Y-84725722D01*
X193174737Y-84725722D01*
X193048658Y-84691940D01*
X192935619Y-84626677D01*
X192843323Y-84534381D01*
X192778060Y-84421342D01*
X192744278Y-84295263D01*
X192744278Y-84164737D01*
X192778060Y-84038658D01*
X192843323Y-83925619D01*
X192935619Y-83833323D01*
X193048658Y-83768060D01*
X193174737Y-83734278D01*
X193305263Y-83734278D01*
X193431342Y-83768060D01*
G37*
G36*
X157380671Y-83709031D02*
G01*
X157461777Y-83763224D01*
X157515970Y-83844330D01*
X157535000Y-83940001D01*
X157535000Y-84440001D01*
X157515970Y-84535672D01*
X157461777Y-84616778D01*
X157380671Y-84670971D01*
X157285000Y-84690001D01*
X156335000Y-84690001D01*
X156239329Y-84670971D01*
X156158223Y-84616778D01*
X156104030Y-84535672D01*
X156085000Y-84440001D01*
X156085000Y-83940001D01*
X156104030Y-83844330D01*
X156158223Y-83763224D01*
X156239329Y-83709031D01*
X156335000Y-83690001D01*
X157285000Y-83690001D01*
X157380671Y-83709031D01*
G37*
G36*
X161056537Y-83815224D02*
G01*
X161121421Y-83858579D01*
X161164776Y-83923463D01*
X161180000Y-84000000D01*
X161180000Y-84400000D01*
X161164776Y-84476537D01*
X161121421Y-84541421D01*
X161056537Y-84584776D01*
X160980000Y-84600000D01*
X159380000Y-84600000D01*
X159303463Y-84584776D01*
X159238579Y-84541421D01*
X159195224Y-84476537D01*
X159180000Y-84400000D01*
X159180000Y-84000000D01*
X159195224Y-83923463D01*
X159238579Y-83858579D01*
X159303463Y-83815224D01*
X159380000Y-83800000D01*
X160980000Y-83800000D01*
X161056537Y-83815224D01*
G37*
G36*
X109790000Y-84300000D02*
G01*
X107790000Y-84300000D01*
X107790000Y-83100000D01*
X109790000Y-83100000D01*
X109790000Y-84300000D01*
G37*
G36*
X154159034Y-81415764D02*
G01*
X154192125Y-81437875D01*
X154214236Y-81470966D01*
X154222000Y-81510000D01*
X154222000Y-83310000D01*
X154214236Y-83349034D01*
X154192125Y-83382125D01*
X154159034Y-83404236D01*
X154120000Y-83412000D01*
X153770000Y-83412000D01*
X153730966Y-83404236D01*
X153697875Y-83382125D01*
X153675764Y-83349034D01*
X153668000Y-83310000D01*
X153668000Y-81510000D01*
X153675764Y-81470966D01*
X153697875Y-81437875D01*
X153730966Y-81415764D01*
X153770000Y-81408000D01*
X154120000Y-81408000D01*
X154159034Y-81415764D01*
G37*
G36*
X154809034Y-81415764D02*
G01*
X154842125Y-81437875D01*
X154864236Y-81470966D01*
X154872000Y-81510000D01*
X154872000Y-83310000D01*
X154864236Y-83349034D01*
X154842125Y-83382125D01*
X154809034Y-83404236D01*
X154770000Y-83412000D01*
X154420000Y-83412000D01*
X154380966Y-83404236D01*
X154347875Y-83382125D01*
X154325764Y-83349034D01*
X154318000Y-83310000D01*
X154318000Y-81510000D01*
X154325764Y-81470966D01*
X154347875Y-81437875D01*
X154380966Y-81415764D01*
X154420000Y-81408000D01*
X154770000Y-81408000D01*
X154809034Y-81415764D01*
G37*
G36*
X155459034Y-81415764D02*
G01*
X155492125Y-81437875D01*
X155514236Y-81470966D01*
X155522000Y-81510000D01*
X155522000Y-83310000D01*
X155514236Y-83349034D01*
X155492125Y-83382125D01*
X155459034Y-83404236D01*
X155420000Y-83412000D01*
X155070000Y-83412000D01*
X155030966Y-83404236D01*
X154997875Y-83382125D01*
X154975764Y-83349034D01*
X154968000Y-83310000D01*
X154968000Y-81510000D01*
X154975764Y-81470966D01*
X154997875Y-81437875D01*
X155030966Y-81415764D01*
X155070000Y-81408000D01*
X155420000Y-81408000D01*
X155459034Y-81415764D01*
G37*
G36*
X156109034Y-81415764D02*
G01*
X156142125Y-81437875D01*
X156164236Y-81470966D01*
X156172000Y-81510000D01*
X156172000Y-83310000D01*
X156164236Y-83349034D01*
X156142125Y-83382125D01*
X156109034Y-83404236D01*
X156070000Y-83412000D01*
X155720000Y-83412000D01*
X155680966Y-83404236D01*
X155647875Y-83382125D01*
X155625764Y-83349034D01*
X155618000Y-83310000D01*
X155618000Y-81510000D01*
X155625764Y-81470966D01*
X155647875Y-81437875D01*
X155680966Y-81415764D01*
X155720000Y-81408000D01*
X156070000Y-81408000D01*
X156109034Y-81415764D01*
G37*
G36*
X156759034Y-81415764D02*
G01*
X156792125Y-81437875D01*
X156814236Y-81470966D01*
X156822000Y-81510000D01*
X156822000Y-83310000D01*
X156814236Y-83349034D01*
X156792125Y-83382125D01*
X156759034Y-83404236D01*
X156720000Y-83412000D01*
X156370000Y-83412000D01*
X156330966Y-83404236D01*
X156297875Y-83382125D01*
X156275764Y-83349034D01*
X156268000Y-83310000D01*
X156268000Y-81510000D01*
X156275764Y-81470966D01*
X156297875Y-81437875D01*
X156330966Y-81415764D01*
X156370000Y-81408000D01*
X156720000Y-81408000D01*
X156759034Y-81415764D01*
G37*
G36*
X157409034Y-81415764D02*
G01*
X157442125Y-81437875D01*
X157464236Y-81470966D01*
X157472000Y-81510000D01*
X157472000Y-83310000D01*
X157464236Y-83349034D01*
X157442125Y-83382125D01*
X157409034Y-83404236D01*
X157370000Y-83412000D01*
X157020000Y-83412000D01*
X156980966Y-83404236D01*
X156947875Y-83382125D01*
X156925764Y-83349034D01*
X156918000Y-83310000D01*
X156918000Y-81510000D01*
X156925764Y-81470966D01*
X156947875Y-81437875D01*
X156980966Y-81415764D01*
X157020000Y-81408000D01*
X157370000Y-81408000D01*
X157409034Y-81415764D01*
G37*
G36*
X158059034Y-81415764D02*
G01*
X158092125Y-81437875D01*
X158114236Y-81470966D01*
X158122000Y-81510000D01*
X158122000Y-83310000D01*
X158114236Y-83349034D01*
X158092125Y-83382125D01*
X158059034Y-83404236D01*
X158020000Y-83412000D01*
X157670000Y-83412000D01*
X157630966Y-83404236D01*
X157597875Y-83382125D01*
X157575764Y-83349034D01*
X157568000Y-83310000D01*
X157568000Y-81510000D01*
X157575764Y-81470966D01*
X157597875Y-81437875D01*
X157630966Y-81415764D01*
X157670000Y-81408000D01*
X158020000Y-81408000D01*
X158059034Y-81415764D01*
G37*
G36*
X158709034Y-81415764D02*
G01*
X158742125Y-81437875D01*
X158764236Y-81470966D01*
X158772000Y-81510000D01*
X158772000Y-83310000D01*
X158764236Y-83349034D01*
X158742125Y-83382125D01*
X158709034Y-83404236D01*
X158670000Y-83412000D01*
X158320000Y-83412000D01*
X158280966Y-83404236D01*
X158247875Y-83382125D01*
X158225764Y-83349034D01*
X158218000Y-83310000D01*
X158218000Y-81510000D01*
X158225764Y-81470966D01*
X158247875Y-81437875D01*
X158280966Y-81415764D01*
X158320000Y-81408000D01*
X158670000Y-81408000D01*
X158709034Y-81415764D01*
G37*
G36*
X159359034Y-81415764D02*
G01*
X159392125Y-81437875D01*
X159414236Y-81470966D01*
X159422000Y-81510000D01*
X159422000Y-83310000D01*
X159414236Y-83349034D01*
X159392125Y-83382125D01*
X159359034Y-83404236D01*
X159320000Y-83412000D01*
X158970000Y-83412000D01*
X158930966Y-83404236D01*
X158897875Y-83382125D01*
X158875764Y-83349034D01*
X158868000Y-83310000D01*
X158868000Y-81510000D01*
X158875764Y-81470966D01*
X158897875Y-81437875D01*
X158930966Y-81415764D01*
X158970000Y-81408000D01*
X159320000Y-81408000D01*
X159359034Y-81415764D01*
G37*
G36*
X150870000Y-83310000D02*
G01*
X150520000Y-83310000D01*
X150520000Y-81510000D01*
X150870000Y-81510000D01*
X150870000Y-83310000D01*
G37*
G36*
X151520000Y-83310000D02*
G01*
X151170000Y-83310000D01*
X151170000Y-81510000D01*
X151520000Y-81510000D01*
X151520000Y-83310000D01*
G37*
G36*
X152170000Y-83310000D02*
G01*
X151820000Y-83310000D01*
X151820000Y-81510000D01*
X152170000Y-81510000D01*
X152170000Y-83310000D01*
G37*
G36*
X152820000Y-83310000D02*
G01*
X152470000Y-83310000D01*
X152470000Y-81510000D01*
X152820000Y-81510000D01*
X152820000Y-83310000D01*
G37*
G36*
X153470000Y-83310000D02*
G01*
X153120000Y-83310000D01*
X153120000Y-81510000D01*
X153470000Y-81510000D01*
X153470000Y-83310000D01*
G37*
G36*
X147945672Y-81764030D02*
G01*
X148026778Y-81818223D01*
X148080971Y-81899329D01*
X148100001Y-81995000D01*
X148100001Y-82945000D01*
X148080971Y-83040671D01*
X148026778Y-83121777D01*
X147945672Y-83175970D01*
X147850001Y-83195000D01*
X147350001Y-83195000D01*
X147254330Y-83175970D01*
X147173224Y-83121777D01*
X147119031Y-83040671D01*
X147100001Y-82945000D01*
X147100001Y-81995000D01*
X147119031Y-81899329D01*
X147173224Y-81818223D01*
X147254330Y-81764030D01*
X147350001Y-81745000D01*
X147850001Y-81745000D01*
X147945672Y-81764030D01*
G37*
G36*
X149845670Y-81764030D02*
G01*
X149926776Y-81818223D01*
X149980969Y-81899329D01*
X149999999Y-81995000D01*
X149999999Y-82945000D01*
X149980969Y-83040671D01*
X149926776Y-83121777D01*
X149845670Y-83175970D01*
X149749999Y-83195000D01*
X149249999Y-83195000D01*
X149154328Y-83175970D01*
X149073222Y-83121777D01*
X149019029Y-83040671D01*
X148999999Y-82945000D01*
X148999999Y-81995000D01*
X149019029Y-81899329D01*
X149073222Y-81818223D01*
X149154328Y-81764030D01*
X149249999Y-81745000D01*
X149749999Y-81745000D01*
X149845670Y-81764030D01*
G37*
G36*
X105722228Y-80934448D02*
G01*
X105867117Y-80994463D01*
X105997515Y-81081592D01*
X106108408Y-81192485D01*
X106195537Y-81322883D01*
X106255552Y-81467772D01*
X106286148Y-81621586D01*
X106286148Y-81778414D01*
X106255552Y-81932228D01*
X106195537Y-82077117D01*
X106108408Y-82207515D01*
X105997515Y-82318408D01*
X105867117Y-82405537D01*
X105722228Y-82465552D01*
X105568414Y-82496148D01*
X105411586Y-82496148D01*
X105257772Y-82465552D01*
X105112883Y-82405537D01*
X104982485Y-82318408D01*
X104871592Y-82207515D01*
X104784463Y-82077117D01*
X104724448Y-81932228D01*
X104693852Y-81778414D01*
X104693852Y-81621586D01*
X104724448Y-81467772D01*
X104784463Y-81322883D01*
X104871592Y-81192485D01*
X104982485Y-81081592D01*
X105112883Y-80994463D01*
X105257772Y-80934448D01*
X105411586Y-80903852D01*
X105568414Y-80903852D01*
X105722228Y-80934448D01*
G37*
G36*
X166101342Y-80668060D02*
G01*
X166214381Y-80733323D01*
X166306677Y-80825619D01*
X166371940Y-80938658D01*
X166405722Y-81064737D01*
X166405722Y-81195263D01*
X166371940Y-81321342D01*
X166306677Y-81434381D01*
X166214381Y-81526677D01*
X166101342Y-81591940D01*
X165975263Y-81625722D01*
X165844737Y-81625722D01*
X165718658Y-81591940D01*
X165605619Y-81526677D01*
X165513323Y-81434381D01*
X165448060Y-81321342D01*
X165414278Y-81195263D01*
X165414278Y-81064737D01*
X165448060Y-80938658D01*
X165513323Y-80825619D01*
X165605619Y-80733323D01*
X165718658Y-80668060D01*
X165844737Y-80634278D01*
X165975263Y-80634278D01*
X166101342Y-80668060D01*
G37*
G36*
X176277500Y-79750000D02*
G01*
X175842500Y-79750000D01*
X175842500Y-78250000D01*
X176277500Y-78250000D01*
X176277500Y-79750000D01*
G37*
G36*
X176911500Y-79750000D02*
G01*
X176476500Y-79750000D01*
X176476500Y-78250000D01*
X176911500Y-78250000D01*
X176911500Y-79750000D01*
G37*
G36*
X177547500Y-79750000D02*
G01*
X177112500Y-79750000D01*
X177112500Y-78250000D01*
X177547500Y-78250000D01*
X177547500Y-79750000D01*
G37*
G36*
X178181500Y-79750000D02*
G01*
X177746500Y-79750000D01*
X177746500Y-78250000D01*
X178181500Y-78250000D01*
X178181500Y-79750000D01*
G37*
G36*
X178817500Y-79750000D02*
G01*
X178382500Y-79750000D01*
X178382500Y-78250000D01*
X178817500Y-78250000D01*
X178817500Y-79750000D01*
G37*
G36*
X179451500Y-79750000D02*
G01*
X179016500Y-79750000D01*
X179016500Y-78250000D01*
X179451500Y-78250000D01*
X179451500Y-79750000D01*
G37*
G36*
X180087500Y-79750000D02*
G01*
X179652500Y-79750000D01*
X179652500Y-78250000D01*
X180087500Y-78250000D01*
X180087500Y-79750000D01*
G37*
G36*
X180721500Y-79750000D02*
G01*
X180286500Y-79750000D01*
X180286500Y-78250000D01*
X180721500Y-78250000D01*
X180721500Y-79750000D01*
G37*
G36*
X182129672Y-78264030D02*
G01*
X182210778Y-78318223D01*
X182264971Y-78399329D01*
X182284001Y-78495000D01*
X182284001Y-79445000D01*
X182264971Y-79540671D01*
X182210778Y-79621777D01*
X182129672Y-79675970D01*
X182034001Y-79695000D01*
X181534001Y-79695000D01*
X181438330Y-79675970D01*
X181357224Y-79621777D01*
X181303031Y-79540671D01*
X181284001Y-79445000D01*
X181284001Y-78495000D01*
X181303031Y-78399329D01*
X181357224Y-78318223D01*
X181438330Y-78264030D01*
X181534001Y-78245000D01*
X182034001Y-78245000D01*
X182129672Y-78264030D01*
G37*
G36*
X184029670Y-78264030D02*
G01*
X184110776Y-78318223D01*
X184164969Y-78399329D01*
X184183999Y-78495000D01*
X184183999Y-79445000D01*
X184164969Y-79540671D01*
X184110776Y-79621777D01*
X184029670Y-79675970D01*
X183933999Y-79695000D01*
X183433999Y-79695000D01*
X183338328Y-79675970D01*
X183257222Y-79621777D01*
X183203029Y-79540671D01*
X183183999Y-79445000D01*
X183183999Y-78495000D01*
X183203029Y-78399329D01*
X183257222Y-78318223D01*
X183338328Y-78264030D01*
X183433999Y-78245000D01*
X183933999Y-78245000D01*
X184029670Y-78264030D01*
G37*
G36*
X130540000Y-79570000D02*
G01*
X129040000Y-79570000D01*
X129040000Y-78370000D01*
X130540000Y-78370000D01*
X130540000Y-79570000D01*
G37*
G36*
X178234671Y-76589028D02*
G01*
X178315777Y-76643221D01*
X178369970Y-76724327D01*
X178389000Y-76819998D01*
X178389000Y-77319998D01*
X178369970Y-77415669D01*
X178315777Y-77496775D01*
X178234671Y-77550968D01*
X178139000Y-77569998D01*
X177189000Y-77569998D01*
X177093329Y-77550968D01*
X177012223Y-77496775D01*
X176958030Y-77415669D01*
X176939000Y-77319998D01*
X176939000Y-76819998D01*
X176958030Y-76724327D01*
X177012223Y-76643221D01*
X177093329Y-76589028D01*
X177189000Y-76569998D01*
X178139000Y-76569998D01*
X178234671Y-76589028D01*
G37*
G36*
X180249671Y-76004030D02*
G01*
X180330777Y-76058223D01*
X180384970Y-76139329D01*
X180404000Y-76235000D01*
X180404000Y-77185000D01*
X180384970Y-77280671D01*
X180330777Y-77361777D01*
X180249671Y-77415970D01*
X180154000Y-77435000D01*
X179654000Y-77435000D01*
X179558329Y-77415970D01*
X179477223Y-77361777D01*
X179423030Y-77280671D01*
X179404000Y-77185000D01*
X179404000Y-76235000D01*
X179423030Y-76139329D01*
X179477223Y-76058223D01*
X179558329Y-76004030D01*
X179654000Y-75985000D01*
X180154000Y-75985000D01*
X180249671Y-76004030D01*
G37*
G36*
X182149671Y-76004030D02*
G01*
X182230777Y-76058223D01*
X182284970Y-76139329D01*
X182304000Y-76235000D01*
X182304000Y-77185000D01*
X182284970Y-77280671D01*
X182230777Y-77361777D01*
X182149671Y-77415970D01*
X182054000Y-77435000D01*
X181554000Y-77435000D01*
X181458329Y-77415970D01*
X181377223Y-77361777D01*
X181323030Y-77280671D01*
X181304000Y-77185000D01*
X181304000Y-76235000D01*
X181323030Y-76139329D01*
X181377223Y-76058223D01*
X181458329Y-76004030D01*
X181554000Y-75985000D01*
X182054000Y-75985000D01*
X182149671Y-76004030D01*
G37*
G36*
X130540000Y-77070000D02*
G01*
X129040000Y-77070000D01*
X129040000Y-75870000D01*
X130540000Y-75870000D01*
X130540000Y-77070000D01*
G37*
G36*
X154159034Y-75015764D02*
G01*
X154192125Y-75037875D01*
X154214236Y-75070966D01*
X154222000Y-75110000D01*
X154222000Y-76910000D01*
X154214236Y-76949034D01*
X154192125Y-76982125D01*
X154159034Y-77004236D01*
X154120000Y-77012000D01*
X153770000Y-77012000D01*
X153730966Y-77004236D01*
X153697875Y-76982125D01*
X153675764Y-76949034D01*
X153668000Y-76910000D01*
X153668000Y-75110000D01*
X153675764Y-75070966D01*
X153697875Y-75037875D01*
X153730966Y-75015764D01*
X153770000Y-75008000D01*
X154120000Y-75008000D01*
X154159034Y-75015764D01*
G37*
G36*
X154809034Y-75015764D02*
G01*
X154842125Y-75037875D01*
X154864236Y-75070966D01*
X154872000Y-75110000D01*
X154872000Y-76910000D01*
X154864236Y-76949034D01*
X154842125Y-76982125D01*
X154809034Y-77004236D01*
X154770000Y-77012000D01*
X154420000Y-77012000D01*
X154380966Y-77004236D01*
X154347875Y-76982125D01*
X154325764Y-76949034D01*
X154318000Y-76910000D01*
X154318000Y-75110000D01*
X154325764Y-75070966D01*
X154347875Y-75037875D01*
X154380966Y-75015764D01*
X154420000Y-75008000D01*
X154770000Y-75008000D01*
X154809034Y-75015764D01*
G37*
G36*
X155459034Y-75015764D02*
G01*
X155492125Y-75037875D01*
X155514236Y-75070966D01*
X155522000Y-75110000D01*
X155522000Y-76910000D01*
X155514236Y-76949034D01*
X155492125Y-76982125D01*
X155459034Y-77004236D01*
X155420000Y-77012000D01*
X155070000Y-77012000D01*
X155030966Y-77004236D01*
X154997875Y-76982125D01*
X154975764Y-76949034D01*
X154968000Y-76910000D01*
X154968000Y-75110000D01*
X154975764Y-75070966D01*
X154997875Y-75037875D01*
X155030966Y-75015764D01*
X155070000Y-75008000D01*
X155420000Y-75008000D01*
X155459034Y-75015764D01*
G37*
G36*
X156109034Y-75015764D02*
G01*
X156142125Y-75037875D01*
X156164236Y-75070966D01*
X156172000Y-75110000D01*
X156172000Y-76910000D01*
X156164236Y-76949034D01*
X156142125Y-76982125D01*
X156109034Y-77004236D01*
X156070000Y-77012000D01*
X155720000Y-77012000D01*
X155680966Y-77004236D01*
X155647875Y-76982125D01*
X155625764Y-76949034D01*
X155618000Y-76910000D01*
X155618000Y-75110000D01*
X155625764Y-75070966D01*
X155647875Y-75037875D01*
X155680966Y-75015764D01*
X155720000Y-75008000D01*
X156070000Y-75008000D01*
X156109034Y-75015764D01*
G37*
G36*
X156759034Y-75015764D02*
G01*
X156792125Y-75037875D01*
X156814236Y-75070966D01*
X156822000Y-75110000D01*
X156822000Y-76910000D01*
X156814236Y-76949034D01*
X156792125Y-76982125D01*
X156759034Y-77004236D01*
X156720000Y-77012000D01*
X156370000Y-77012000D01*
X156330966Y-77004236D01*
X156297875Y-76982125D01*
X156275764Y-76949034D01*
X156268000Y-76910000D01*
X156268000Y-75110000D01*
X156275764Y-75070966D01*
X156297875Y-75037875D01*
X156330966Y-75015764D01*
X156370000Y-75008000D01*
X156720000Y-75008000D01*
X156759034Y-75015764D01*
G37*
G36*
X157409034Y-75015764D02*
G01*
X157442125Y-75037875D01*
X157464236Y-75070966D01*
X157472000Y-75110000D01*
X157472000Y-76910000D01*
X157464236Y-76949034D01*
X157442125Y-76982125D01*
X157409034Y-77004236D01*
X157370000Y-77012000D01*
X157020000Y-77012000D01*
X156980966Y-77004236D01*
X156947875Y-76982125D01*
X156925764Y-76949034D01*
X156918000Y-76910000D01*
X156918000Y-75110000D01*
X156925764Y-75070966D01*
X156947875Y-75037875D01*
X156980966Y-75015764D01*
X157020000Y-75008000D01*
X157370000Y-75008000D01*
X157409034Y-75015764D01*
G37*
G36*
X158059034Y-75015764D02*
G01*
X158092125Y-75037875D01*
X158114236Y-75070966D01*
X158122000Y-75110000D01*
X158122000Y-76910000D01*
X158114236Y-76949034D01*
X158092125Y-76982125D01*
X158059034Y-77004236D01*
X158020000Y-77012000D01*
X157670000Y-77012000D01*
X157630966Y-77004236D01*
X157597875Y-76982125D01*
X157575764Y-76949034D01*
X157568000Y-76910000D01*
X157568000Y-75110000D01*
X157575764Y-75070966D01*
X157597875Y-75037875D01*
X157630966Y-75015764D01*
X157670000Y-75008000D01*
X158020000Y-75008000D01*
X158059034Y-75015764D01*
G37*
G36*
X158709034Y-75015764D02*
G01*
X158742125Y-75037875D01*
X158764236Y-75070966D01*
X158772000Y-75110000D01*
X158772000Y-76910000D01*
X158764236Y-76949034D01*
X158742125Y-76982125D01*
X158709034Y-77004236D01*
X158670000Y-77012000D01*
X158320000Y-77012000D01*
X158280966Y-77004236D01*
X158247875Y-76982125D01*
X158225764Y-76949034D01*
X158218000Y-76910000D01*
X158218000Y-75110000D01*
X158225764Y-75070966D01*
X158247875Y-75037875D01*
X158280966Y-75015764D01*
X158320000Y-75008000D01*
X158670000Y-75008000D01*
X158709034Y-75015764D01*
G37*
G36*
X150870000Y-76910000D02*
G01*
X150520000Y-76910000D01*
X150520000Y-75110000D01*
X150870000Y-75110000D01*
X150870000Y-76910000D01*
G37*
G36*
X151520000Y-76910000D02*
G01*
X151170000Y-76910000D01*
X151170000Y-75110000D01*
X151520000Y-75110000D01*
X151520000Y-76910000D01*
G37*
G36*
X152170000Y-76910000D02*
G01*
X151820000Y-76910000D01*
X151820000Y-75110000D01*
X152170000Y-75110000D01*
X152170000Y-76910000D01*
G37*
G36*
X152820000Y-76910000D02*
G01*
X152470000Y-76910000D01*
X152470000Y-75110000D01*
X152820000Y-75110000D01*
X152820000Y-76910000D01*
G37*
G36*
X153470000Y-76910000D02*
G01*
X153120000Y-76910000D01*
X153120000Y-75110000D01*
X153470000Y-75110000D01*
X153470000Y-76910000D01*
G37*
G36*
X159320000Y-76910000D02*
G01*
X158970000Y-76910000D01*
X158970000Y-75110000D01*
X159320000Y-75110000D01*
X159320000Y-76910000D01*
G37*
G36*
X194733513Y-72904208D02*
G01*
X194972293Y-72981793D01*
X195195998Y-73095776D01*
X195399117Y-73243350D01*
X195576650Y-73420883D01*
X195724224Y-73624002D01*
X195838207Y-73847707D01*
X195915792Y-74086487D01*
X195955068Y-74334465D01*
X195955068Y-74585535D01*
X195915792Y-74833513D01*
X195838207Y-75072293D01*
X195724224Y-75295998D01*
X195576650Y-75499117D01*
X195399117Y-75676650D01*
X195195998Y-75824224D01*
X194972293Y-75938207D01*
X194733513Y-76015792D01*
X194485535Y-76055068D01*
X194234465Y-76055068D01*
X193986487Y-76015792D01*
X193747707Y-75938207D01*
X193524002Y-75824224D01*
X193320883Y-75676650D01*
X193143350Y-75499117D01*
X192995776Y-75295998D01*
X192881793Y-75072293D01*
X192804208Y-74833513D01*
X192764932Y-74585535D01*
X192764932Y-74334465D01*
X192804208Y-74086487D01*
X192881793Y-73847707D01*
X192995776Y-73624002D01*
X193143350Y-73420883D01*
X193320883Y-73243350D01*
X193524002Y-73095776D01*
X193747707Y-72981793D01*
X193986487Y-72904208D01*
X194234465Y-72864932D01*
X194485535Y-72864932D01*
X194733513Y-72904208D01*
G37*
G36*
X178234671Y-74689030D02*
G01*
X178315777Y-74743223D01*
X178369970Y-74824329D01*
X178389000Y-74920000D01*
X178389000Y-75420000D01*
X178369970Y-75515671D01*
X178315777Y-75596777D01*
X178234671Y-75650970D01*
X178139000Y-75670000D01*
X177189000Y-75670000D01*
X177093329Y-75650970D01*
X177012223Y-75596777D01*
X176958030Y-75515671D01*
X176939000Y-75420000D01*
X176939000Y-74920000D01*
X176958030Y-74824329D01*
X177012223Y-74743223D01*
X177093329Y-74689030D01*
X177189000Y-74670000D01*
X178139000Y-74670000D01*
X178234671Y-74689030D01*
G37*
G36*
X145740671Y-73839029D02*
G01*
X145821777Y-73893222D01*
X145875970Y-73974328D01*
X145895000Y-74069999D01*
X145895000Y-74569999D01*
X145875970Y-74665670D01*
X145821777Y-74746776D01*
X145740671Y-74800969D01*
X145645000Y-74819999D01*
X144695000Y-74819999D01*
X144599329Y-74800969D01*
X144518223Y-74746776D01*
X144464030Y-74665670D01*
X144445000Y-74569999D01*
X144445000Y-74069999D01*
X144464030Y-73974328D01*
X144518223Y-73893222D01*
X144599329Y-73839029D01*
X144695000Y-73819999D01*
X145645000Y-73819999D01*
X145740671Y-73839029D01*
G37*
G36*
X130540000Y-74570000D02*
G01*
X129040000Y-74570000D01*
X129040000Y-73370000D01*
X130540000Y-73370000D01*
X130540000Y-74570000D01*
G37*
G36*
X160430671Y-73139028D02*
G01*
X160511777Y-73193221D01*
X160565970Y-73274327D01*
X160585000Y-73369998D01*
X160585000Y-73869998D01*
X160565970Y-73965669D01*
X160511777Y-74046775D01*
X160430671Y-74100968D01*
X160335000Y-74119998D01*
X159385000Y-74119998D01*
X159289329Y-74100968D01*
X159208223Y-74046775D01*
X159154030Y-73965669D01*
X159135000Y-73869998D01*
X159135000Y-73369998D01*
X159154030Y-73274327D01*
X159208223Y-73193221D01*
X159289329Y-73139028D01*
X159385000Y-73119998D01*
X160335000Y-73119998D01*
X160430671Y-73139028D01*
G37*
G36*
X153860671Y-72979029D02*
G01*
X153941777Y-73033222D01*
X153995970Y-73114328D01*
X154015000Y-73209999D01*
X154015000Y-73709999D01*
X153995970Y-73805670D01*
X153941777Y-73886776D01*
X153860671Y-73940969D01*
X153765000Y-73959999D01*
X152815000Y-73959999D01*
X152719329Y-73940969D01*
X152638223Y-73886776D01*
X152584030Y-73805670D01*
X152565000Y-73709999D01*
X152565000Y-73209999D01*
X152584030Y-73114328D01*
X152638223Y-73033222D01*
X152719329Y-72979029D01*
X152815000Y-72959999D01*
X153765000Y-72959999D01*
X153860671Y-72979029D01*
G37*
G36*
X155840671Y-72979029D02*
G01*
X155921777Y-73033222D01*
X155975970Y-73114328D01*
X155995000Y-73209999D01*
X155995000Y-73709999D01*
X155975970Y-73805670D01*
X155921777Y-73886776D01*
X155840671Y-73940969D01*
X155745000Y-73959999D01*
X154795000Y-73959999D01*
X154699329Y-73940969D01*
X154618223Y-73886776D01*
X154564030Y-73805670D01*
X154545000Y-73709999D01*
X154545000Y-73209999D01*
X154564030Y-73114328D01*
X154618223Y-73033222D01*
X154699329Y-72979029D01*
X154795000Y-72959999D01*
X155745000Y-72959999D01*
X155840671Y-72979029D01*
G37*
G36*
X133905671Y-71759030D02*
G01*
X133986777Y-71813223D01*
X134040970Y-71894329D01*
X134060000Y-71990000D01*
X134060000Y-72890000D01*
X134040970Y-72985671D01*
X133986777Y-73066777D01*
X133905671Y-73120970D01*
X133810000Y-73140000D01*
X133285000Y-73140000D01*
X133189329Y-73120970D01*
X133108223Y-73066777D01*
X133054030Y-72985671D01*
X133035000Y-72890000D01*
X133035000Y-71990000D01*
X133054030Y-71894329D01*
X133108223Y-71813223D01*
X133189329Y-71759030D01*
X133285000Y-71740000D01*
X133810000Y-71740000D01*
X133905671Y-71759030D01*
G37*
G36*
X135730671Y-71759030D02*
G01*
X135811777Y-71813223D01*
X135865970Y-71894329D01*
X135885000Y-71990000D01*
X135885000Y-72890000D01*
X135865970Y-72985671D01*
X135811777Y-73066777D01*
X135730671Y-73120970D01*
X135635000Y-73140000D01*
X135110000Y-73140000D01*
X135014329Y-73120970D01*
X134933223Y-73066777D01*
X134879030Y-72985671D01*
X134860000Y-72890000D01*
X134860000Y-71990000D01*
X134879030Y-71894329D01*
X134933223Y-71813223D01*
X135014329Y-71759030D01*
X135110000Y-71740000D01*
X135635000Y-71740000D01*
X135730671Y-71759030D01*
G37*
G36*
X145740671Y-71939031D02*
G01*
X145821777Y-71993224D01*
X145875970Y-72074330D01*
X145895000Y-72170001D01*
X145895000Y-72670001D01*
X145875970Y-72765672D01*
X145821777Y-72846778D01*
X145740671Y-72900971D01*
X145645000Y-72920001D01*
X144695000Y-72920001D01*
X144599329Y-72900971D01*
X144518223Y-72846778D01*
X144464030Y-72765672D01*
X144445000Y-72670001D01*
X144445000Y-72170001D01*
X144464030Y-72074330D01*
X144518223Y-71993224D01*
X144599329Y-71939031D01*
X144695000Y-71920001D01*
X145645000Y-71920001D01*
X145740671Y-71939031D01*
G37*
G36*
X130540000Y-72920000D02*
G01*
X129040000Y-72920000D01*
X129040000Y-71720000D01*
X130540000Y-71720000D01*
X130540000Y-72920000D01*
G37*
G36*
X160430671Y-71239030D02*
G01*
X160511777Y-71293223D01*
X160565970Y-71374329D01*
X160585000Y-71470000D01*
X160585000Y-71970000D01*
X160565970Y-72065671D01*
X160511777Y-72146777D01*
X160430671Y-72200970D01*
X160335000Y-72220000D01*
X159385000Y-72220000D01*
X159289329Y-72200970D01*
X159208223Y-72146777D01*
X159154030Y-72065671D01*
X159135000Y-71970000D01*
X159135000Y-71470000D01*
X159154030Y-71374329D01*
X159208223Y-71293223D01*
X159289329Y-71239030D01*
X159385000Y-71220000D01*
X160335000Y-71220000D01*
X160430671Y-71239030D01*
G37*
G36*
X153860671Y-71079031D02*
G01*
X153941777Y-71133224D01*
X153995970Y-71214330D01*
X154015000Y-71310001D01*
X154015000Y-71810001D01*
X153995970Y-71905672D01*
X153941777Y-71986778D01*
X153860671Y-72040971D01*
X153765000Y-72060001D01*
X152815000Y-72060001D01*
X152719329Y-72040971D01*
X152638223Y-71986778D01*
X152584030Y-71905672D01*
X152565000Y-71810001D01*
X152565000Y-71310001D01*
X152584030Y-71214330D01*
X152638223Y-71133224D01*
X152719329Y-71079031D01*
X152815000Y-71060001D01*
X153765000Y-71060001D01*
X153860671Y-71079031D01*
G37*
G36*
X155840671Y-71079031D02*
G01*
X155921777Y-71133224D01*
X155975970Y-71214330D01*
X155995000Y-71310001D01*
X155995000Y-71810001D01*
X155975970Y-71905672D01*
X155921777Y-71986778D01*
X155840671Y-72040971D01*
X155745000Y-72060001D01*
X154795000Y-72060001D01*
X154699329Y-72040971D01*
X154618223Y-71986778D01*
X154564030Y-71905672D01*
X154545000Y-71810001D01*
X154545000Y-71310001D01*
X154564030Y-71214330D01*
X154618223Y-71133224D01*
X154699329Y-71079031D01*
X154795000Y-71060001D01*
X155745000Y-71060001D01*
X155840671Y-71079031D01*
G37*
G36*
X140490000Y-71362000D02*
G01*
X138990000Y-71362000D01*
X138990000Y-70927000D01*
X140490000Y-70927000D01*
X140490000Y-71362000D01*
G37*
G36*
X145890000Y-71362000D02*
G01*
X144390000Y-71362000D01*
X144390000Y-70927000D01*
X145890000Y-70927000D01*
X145890000Y-71362000D01*
G37*
G36*
X168161342Y-70378060D02*
G01*
X168274381Y-70443323D01*
X168366677Y-70535619D01*
X168431940Y-70648658D01*
X168465722Y-70774737D01*
X168465722Y-70905263D01*
X168431940Y-71031342D01*
X168366677Y-71144381D01*
X168274381Y-71236677D01*
X168161342Y-71301940D01*
X168035263Y-71335722D01*
X167904737Y-71335722D01*
X167778658Y-71301940D01*
X167665619Y-71236677D01*
X167573323Y-71144381D01*
X167508060Y-71031342D01*
X167474278Y-70905263D01*
X167474278Y-70774737D01*
X167508060Y-70648658D01*
X167573323Y-70535619D01*
X167665619Y-70443323D01*
X167778658Y-70378060D01*
X167904737Y-70344278D01*
X168035263Y-70344278D01*
X168161342Y-70378060D01*
G37*
G36*
X130540000Y-71270000D02*
G01*
X129040000Y-71270000D01*
X129040000Y-70070000D01*
X130540000Y-70070000D01*
X130540000Y-71270000D01*
G37*
G36*
X147255671Y-69814030D02*
G01*
X147336777Y-69868223D01*
X147390970Y-69949329D01*
X147410000Y-70045000D01*
X147410000Y-70995000D01*
X147390970Y-71090671D01*
X147336777Y-71171777D01*
X147255671Y-71225970D01*
X147160000Y-71245000D01*
X146660000Y-71245000D01*
X146564329Y-71225970D01*
X146483223Y-71171777D01*
X146429030Y-71090671D01*
X146410000Y-70995000D01*
X146410000Y-70045000D01*
X146429030Y-69949329D01*
X146483223Y-69868223D01*
X146564329Y-69814030D01*
X146660000Y-69795000D01*
X147160000Y-69795000D01*
X147255671Y-69814030D01*
G37*
G36*
X149155671Y-69814030D02*
G01*
X149236777Y-69868223D01*
X149290970Y-69949329D01*
X149310000Y-70045000D01*
X149310000Y-70995000D01*
X149290970Y-71090671D01*
X149236777Y-71171777D01*
X149155671Y-71225970D01*
X149060000Y-71245000D01*
X148560000Y-71245000D01*
X148464329Y-71225970D01*
X148383223Y-71171777D01*
X148329030Y-71090671D01*
X148310000Y-70995000D01*
X148310000Y-70045000D01*
X148329030Y-69949329D01*
X148383223Y-69868223D01*
X148464329Y-69814030D01*
X148560000Y-69795000D01*
X149060000Y-69795000D01*
X149155671Y-69814030D01*
G37*
G36*
X133923171Y-69839030D02*
G01*
X134004277Y-69893223D01*
X134058470Y-69974329D01*
X134077500Y-70070000D01*
X134077500Y-70970000D01*
X134058470Y-71065671D01*
X134004277Y-71146777D01*
X133923171Y-71200970D01*
X133827500Y-71220000D01*
X133302500Y-71220000D01*
X133206829Y-71200970D01*
X133125723Y-71146777D01*
X133071530Y-71065671D01*
X133052500Y-70970000D01*
X133052500Y-70070000D01*
X133071530Y-69974329D01*
X133125723Y-69893223D01*
X133206829Y-69839030D01*
X133302500Y-69820000D01*
X133827500Y-69820000D01*
X133923171Y-69839030D01*
G37*
G36*
X135748171Y-69839030D02*
G01*
X135829277Y-69893223D01*
X135883470Y-69974329D01*
X135902500Y-70070000D01*
X135902500Y-70970000D01*
X135883470Y-71065671D01*
X135829277Y-71146777D01*
X135748171Y-71200970D01*
X135652500Y-71220000D01*
X135127500Y-71220000D01*
X135031829Y-71200970D01*
X134950723Y-71146777D01*
X134896530Y-71065671D01*
X134877500Y-70970000D01*
X134877500Y-70070000D01*
X134896530Y-69974329D01*
X134950723Y-69893223D01*
X135031829Y-69839030D01*
X135127500Y-69820000D01*
X135652500Y-69820000D01*
X135748171Y-69839030D01*
G37*
G36*
X140490000Y-70728000D02*
G01*
X138990000Y-70728000D01*
X138990000Y-70293000D01*
X140490000Y-70293000D01*
X140490000Y-70728000D01*
G37*
G36*
X145890000Y-70728000D02*
G01*
X144390000Y-70728000D01*
X144390000Y-70293000D01*
X145890000Y-70293000D01*
X145890000Y-70728000D01*
G37*
G36*
X140490000Y-70092000D02*
G01*
X138990000Y-70092000D01*
X138990000Y-69657000D01*
X140490000Y-69657000D01*
X140490000Y-70092000D01*
G37*
G36*
X145890000Y-70092000D02*
G01*
X144390000Y-70092000D01*
X144390000Y-69657000D01*
X145890000Y-69657000D01*
X145890000Y-70092000D01*
G37*
G36*
X130540000Y-69570000D02*
G01*
X129040000Y-69570000D01*
X129040000Y-68370000D01*
X130540000Y-68370000D01*
X130540000Y-69570000D01*
G37*
G36*
X140490000Y-69458000D02*
G01*
X138990000Y-69458000D01*
X138990000Y-69023000D01*
X140490000Y-69023000D01*
X140490000Y-69458000D01*
G37*
G36*
X145890000Y-69458000D02*
G01*
X144390000Y-69458000D01*
X144390000Y-69023000D01*
X145890000Y-69023000D01*
X145890000Y-69458000D01*
G37*
G36*
X147255671Y-67854030D02*
G01*
X147336777Y-67908223D01*
X147390970Y-67989329D01*
X147410000Y-68085000D01*
X147410000Y-69035000D01*
X147390970Y-69130671D01*
X147336777Y-69211777D01*
X147255671Y-69265970D01*
X147160000Y-69285000D01*
X146660000Y-69285000D01*
X146564329Y-69265970D01*
X146483223Y-69211777D01*
X146429030Y-69130671D01*
X146410000Y-69035000D01*
X146410000Y-68085000D01*
X146429030Y-67989329D01*
X146483223Y-67908223D01*
X146564329Y-67854030D01*
X146660000Y-67835000D01*
X147160000Y-67835000D01*
X147255671Y-67854030D01*
G37*
G36*
X149155671Y-67854030D02*
G01*
X149236777Y-67908223D01*
X149290970Y-67989329D01*
X149310000Y-68085000D01*
X149310000Y-69035000D01*
X149290970Y-69130671D01*
X149236777Y-69211777D01*
X149155671Y-69265970D01*
X149060000Y-69285000D01*
X148560000Y-69285000D01*
X148464329Y-69265970D01*
X148383223Y-69211777D01*
X148329030Y-69130671D01*
X148310000Y-69035000D01*
X148310000Y-68085000D01*
X148329030Y-67989329D01*
X148383223Y-67908223D01*
X148464329Y-67854030D01*
X148560000Y-67835000D01*
X149060000Y-67835000D01*
X149155671Y-67854030D01*
G37*
G36*
X133908171Y-67769030D02*
G01*
X133989277Y-67823223D01*
X134043470Y-67904329D01*
X134062500Y-68000000D01*
X134062500Y-68900000D01*
X134043470Y-68995671D01*
X133989277Y-69076777D01*
X133908171Y-69130970D01*
X133812500Y-69150000D01*
X133287500Y-69150000D01*
X133191829Y-69130970D01*
X133110723Y-69076777D01*
X133056530Y-68995671D01*
X133037500Y-68900000D01*
X133037500Y-68000000D01*
X133056530Y-67904329D01*
X133110723Y-67823223D01*
X133191829Y-67769030D01*
X133287500Y-67750000D01*
X133812500Y-67750000D01*
X133908171Y-67769030D01*
G37*
G36*
X135733171Y-67769030D02*
G01*
X135814277Y-67823223D01*
X135868470Y-67904329D01*
X135887500Y-68000000D01*
X135887500Y-68900000D01*
X135868470Y-68995671D01*
X135814277Y-69076777D01*
X135733171Y-69130970D01*
X135637500Y-69150000D01*
X135112500Y-69150000D01*
X135016829Y-69130970D01*
X134935723Y-69076777D01*
X134881530Y-68995671D01*
X134862500Y-68900000D01*
X134862500Y-68000000D01*
X134881530Y-67904329D01*
X134935723Y-67823223D01*
X135016829Y-67769030D01*
X135112500Y-67750000D01*
X135637500Y-67750000D01*
X135733171Y-67769030D01*
G37*
G36*
X140490000Y-68822000D02*
G01*
X138990000Y-68822000D01*
X138990000Y-68387000D01*
X140490000Y-68387000D01*
X140490000Y-68822000D01*
G37*
G36*
X145890000Y-68822000D02*
G01*
X144390000Y-68822000D01*
X144390000Y-68387000D01*
X145890000Y-68387000D01*
X145890000Y-68822000D01*
G37*
G36*
X196809344Y-67040120D02*
G01*
X196865692Y-67042889D01*
X196872627Y-67044268D01*
X196885817Y-67045133D01*
X196911291Y-67051958D01*
X196981638Y-67065951D01*
X197014843Y-67079705D01*
X197037111Y-67085672D01*
X197057077Y-67097199D01*
X197090280Y-67110953D01*
X197149915Y-67150799D01*
X197172758Y-67163988D01*
X197179010Y-67170240D01*
X197188060Y-67176287D01*
X197271213Y-67259440D01*
X197277259Y-67268489D01*
X197283513Y-67274743D01*
X197296703Y-67297589D01*
X197336547Y-67357220D01*
X197350298Y-67390419D01*
X197361829Y-67410390D01*
X197367796Y-67432661D01*
X197381549Y-67465862D01*
X197395540Y-67536202D01*
X197402368Y-67561684D01*
X197402368Y-67570528D01*
X197404491Y-67581202D01*
X197404491Y-67698797D01*
X197402368Y-67709470D01*
X197402368Y-67718316D01*
X197395539Y-67743800D01*
X197381549Y-67814137D01*
X197367797Y-67847335D01*
X197361829Y-67869610D01*
X197350297Y-67889583D01*
X197336547Y-67922779D01*
X197296707Y-67982403D01*
X197283513Y-68005257D01*
X197277257Y-68011512D01*
X197271213Y-68020559D01*
X197188060Y-68103712D01*
X197179013Y-68109756D01*
X197172758Y-68116012D01*
X197149904Y-68129206D01*
X197090280Y-68169046D01*
X197057084Y-68182796D01*
X197037111Y-68194328D01*
X197014836Y-68200296D01*
X196981638Y-68214048D01*
X196911306Y-68228037D01*
X196885817Y-68234867D01*
X196872620Y-68235731D01*
X196865692Y-68237110D01*
X196809347Y-68239879D01*
X196807501Y-68240000D01*
X196806885Y-68240000D01*
X196208117Y-68240000D01*
X196207501Y-68240000D01*
X196205655Y-68239879D01*
X196149309Y-68237110D01*
X196142380Y-68235731D01*
X196129185Y-68234867D01*
X196103698Y-68228037D01*
X196033363Y-68214048D01*
X196000162Y-68200295D01*
X195977891Y-68194328D01*
X195957920Y-68182797D01*
X195924721Y-68169046D01*
X195865090Y-68129202D01*
X195842244Y-68116012D01*
X195835990Y-68109758D01*
X195826941Y-68103712D01*
X195743788Y-68020559D01*
X195737741Y-68011509D01*
X195731489Y-68005257D01*
X195718300Y-67982414D01*
X195678454Y-67922779D01*
X195664700Y-67889576D01*
X195653173Y-67869610D01*
X195647206Y-67847342D01*
X195633452Y-67814137D01*
X195619461Y-67743794D01*
X195612634Y-67718316D01*
X195612634Y-67709470D01*
X195610511Y-67698797D01*
X195610511Y-67581202D01*
X195612634Y-67570528D01*
X195612634Y-67561684D01*
X195619460Y-67536207D01*
X195633452Y-67465862D01*
X195647207Y-67432654D01*
X195653173Y-67410390D01*
X195664699Y-67390425D01*
X195678454Y-67357220D01*
X195718305Y-67297578D01*
X195731489Y-67274743D01*
X195737739Y-67268492D01*
X195743788Y-67259440D01*
X195826941Y-67176287D01*
X195835993Y-67170238D01*
X195842244Y-67163988D01*
X195865079Y-67150804D01*
X195924721Y-67110953D01*
X195957926Y-67097198D01*
X195977891Y-67085672D01*
X196000155Y-67079706D01*
X196033363Y-67065951D01*
X196103713Y-67051958D01*
X196129185Y-67045133D01*
X196142372Y-67044268D01*
X196149309Y-67042889D01*
X196205657Y-67040120D01*
X196207501Y-67040000D01*
X196807501Y-67040000D01*
X196809344Y-67040120D01*
G37*
G36*
X192819290Y-67094705D02*
G01*
X192957977Y-67131866D01*
X193082320Y-67203656D01*
X193183845Y-67305181D01*
X193255635Y-67429524D01*
X193292796Y-67568211D01*
X193292796Y-67711789D01*
X193255635Y-67850476D01*
X193183845Y-67974819D01*
X193082320Y-68076344D01*
X192957977Y-68148134D01*
X192819290Y-68185295D01*
X192747501Y-68190000D01*
X192746690Y-68190000D01*
X191848312Y-68190000D01*
X191847501Y-68190000D01*
X191775712Y-68185295D01*
X191637025Y-68148134D01*
X191512682Y-68076344D01*
X191411157Y-67974819D01*
X191339367Y-67850476D01*
X191302206Y-67711789D01*
X191302206Y-67568211D01*
X191339367Y-67429524D01*
X191411157Y-67305181D01*
X191512682Y-67203656D01*
X191637025Y-67131866D01*
X191775712Y-67094705D01*
X191847501Y-67090000D01*
X192747501Y-67090000D01*
X192819290Y-67094705D01*
G37*
G36*
X140490000Y-68188000D02*
G01*
X138990000Y-68188000D01*
X138990000Y-67753000D01*
X140490000Y-67753000D01*
X140490000Y-68188000D01*
G37*
G36*
X145890000Y-68188000D02*
G01*
X144390000Y-68188000D01*
X144390000Y-67753000D01*
X145890000Y-67753000D01*
X145890000Y-68188000D01*
G37*
G36*
X140490000Y-67552000D02*
G01*
X138990000Y-67552000D01*
X138990000Y-67117000D01*
X140490000Y-67117000D01*
X140490000Y-67552000D01*
G37*
G36*
X145890000Y-67552000D02*
G01*
X144390000Y-67552000D01*
X144390000Y-67117000D01*
X145890000Y-67117000D01*
X145890000Y-67552000D01*
G37*
G36*
X133908171Y-65869030D02*
G01*
X133989277Y-65923223D01*
X134043470Y-66004329D01*
X134062500Y-66100000D01*
X134062500Y-67000000D01*
X134043470Y-67095671D01*
X133989277Y-67176777D01*
X133908171Y-67230970D01*
X133812500Y-67250000D01*
X133287500Y-67250000D01*
X133191829Y-67230970D01*
X133110723Y-67176777D01*
X133056530Y-67095671D01*
X133037500Y-67000000D01*
X133037500Y-66100000D01*
X133056530Y-66004329D01*
X133110723Y-65923223D01*
X133191829Y-65869030D01*
X133287500Y-65850000D01*
X133812500Y-65850000D01*
X133908171Y-65869030D01*
G37*
G36*
X135733171Y-65869030D02*
G01*
X135814277Y-65923223D01*
X135868470Y-66004329D01*
X135887500Y-66100000D01*
X135887500Y-67000000D01*
X135868470Y-67095671D01*
X135814277Y-67176777D01*
X135733171Y-67230970D01*
X135637500Y-67250000D01*
X135112500Y-67250000D01*
X135016829Y-67230970D01*
X134935723Y-67176777D01*
X134881530Y-67095671D01*
X134862500Y-67000000D01*
X134862500Y-66100000D01*
X134881530Y-66004329D01*
X134935723Y-65923223D01*
X135016829Y-65869030D01*
X135112500Y-65850000D01*
X135637500Y-65850000D01*
X135733171Y-65869030D01*
G37*
G36*
X130540000Y-67070000D02*
G01*
X129040000Y-67070000D01*
X129040000Y-65870000D01*
X130540000Y-65870000D01*
X130540000Y-67070000D01*
G37*
G36*
X140490000Y-66918000D02*
G01*
X138990000Y-66918000D01*
X138990000Y-66483000D01*
X140490000Y-66483000D01*
X140490000Y-66918000D01*
G37*
G36*
X145890000Y-66918000D02*
G01*
X144390000Y-66918000D01*
X144390000Y-66483000D01*
X145890000Y-66483000D01*
X145890000Y-66918000D01*
G37*
G36*
X192297501Y-66795000D02*
G01*
X191197501Y-66795000D01*
X191197501Y-66245000D01*
X192297501Y-66245000D01*
X192297501Y-66795000D01*
G37*
G36*
X192961440Y-65886642D02*
G01*
X193040568Y-65932326D01*
X193105175Y-65996933D01*
X193150859Y-66076061D01*
X193174507Y-66164316D01*
X193174507Y-66255684D01*
X193150859Y-66343939D01*
X193105175Y-66423067D01*
X193040568Y-66487674D01*
X192961440Y-66533358D01*
X192873185Y-66557006D01*
X192781817Y-66557006D01*
X192693562Y-66533358D01*
X192614434Y-66487674D01*
X192549827Y-66423067D01*
X192504143Y-66343939D01*
X192480495Y-66255684D01*
X192480495Y-66164316D01*
X192504143Y-66076061D01*
X192549827Y-65996933D01*
X192614434Y-65932326D01*
X192693562Y-65886642D01*
X192781817Y-65862994D01*
X192873185Y-65862994D01*
X192961440Y-65886642D01*
G37*
G36*
X184193171Y-64679030D02*
G01*
X184274277Y-64733223D01*
X184328470Y-64814329D01*
X184347500Y-64910000D01*
X184347500Y-65810000D01*
X184328470Y-65905671D01*
X184274277Y-65986777D01*
X184193171Y-66040970D01*
X184097500Y-66060000D01*
X183572500Y-66060000D01*
X183476829Y-66040970D01*
X183395723Y-65986777D01*
X183341530Y-65905671D01*
X183322500Y-65810000D01*
X183322500Y-64910000D01*
X183341530Y-64814329D01*
X183395723Y-64733223D01*
X183476829Y-64679030D01*
X183572500Y-64660000D01*
X184097500Y-64660000D01*
X184193171Y-64679030D01*
G37*
G36*
X186018171Y-64679030D02*
G01*
X186099277Y-64733223D01*
X186153470Y-64814329D01*
X186172500Y-64910000D01*
X186172500Y-65810000D01*
X186153470Y-65905671D01*
X186099277Y-65986777D01*
X186018171Y-66040970D01*
X185922500Y-66060000D01*
X185397500Y-66060000D01*
X185301829Y-66040970D01*
X185220723Y-65986777D01*
X185166530Y-65905671D01*
X185147500Y-65810000D01*
X185147500Y-64910000D01*
X185166530Y-64814329D01*
X185220723Y-64733223D01*
X185301829Y-64679030D01*
X185397500Y-64660000D01*
X185922500Y-64660000D01*
X186018171Y-64679030D01*
G37*
G36*
X192297501Y-65995000D02*
G01*
X191197501Y-65995000D01*
X191197501Y-65445000D01*
X192297501Y-65445000D01*
X192297501Y-65995000D01*
G37*
G36*
X175350671Y-64599029D02*
G01*
X175431777Y-64653222D01*
X175485970Y-64734328D01*
X175505000Y-64829999D01*
X175505000Y-65329999D01*
X175485970Y-65425670D01*
X175431777Y-65506776D01*
X175350671Y-65560969D01*
X175255000Y-65579999D01*
X174305000Y-65579999D01*
X174209329Y-65560969D01*
X174128223Y-65506776D01*
X174074030Y-65425670D01*
X174055000Y-65329999D01*
X174055000Y-64829999D01*
X174074030Y-64734328D01*
X174128223Y-64653222D01*
X174209329Y-64599029D01*
X174305000Y-64579999D01*
X175255000Y-64579999D01*
X175350671Y-64599029D01*
G37*
G36*
X178540671Y-64599029D02*
G01*
X178621777Y-64653222D01*
X178675970Y-64734328D01*
X178695000Y-64829999D01*
X178695000Y-65329999D01*
X178675970Y-65425670D01*
X178621777Y-65506776D01*
X178540671Y-65560969D01*
X178445000Y-65579999D01*
X177495000Y-65579999D01*
X177399329Y-65560969D01*
X177318223Y-65506776D01*
X177264030Y-65425670D01*
X177245000Y-65329999D01*
X177245000Y-64829999D01*
X177264030Y-64734328D01*
X177318223Y-64653222D01*
X177399329Y-64599029D01*
X177495000Y-64579999D01*
X178445000Y-64579999D01*
X178540671Y-64599029D01*
G37*
G36*
X188417405Y-64093918D02*
G01*
X188466068Y-64126434D01*
X188498584Y-64175097D01*
X188510002Y-64232500D01*
X188510002Y-65257500D01*
X188498584Y-65314903D01*
X188466068Y-65363566D01*
X188417405Y-65396082D01*
X188360002Y-65407500D01*
X188060002Y-65407500D01*
X188002599Y-65396082D01*
X187953936Y-65363566D01*
X187921420Y-65314903D01*
X187910002Y-65257500D01*
X187910002Y-64232500D01*
X187921420Y-64175097D01*
X187953936Y-64126434D01*
X188002599Y-64093918D01*
X188060002Y-64082500D01*
X188360002Y-64082500D01*
X188417405Y-64093918D01*
G37*
G36*
X189367404Y-64093918D02*
G01*
X189416067Y-64126434D01*
X189448583Y-64175097D01*
X189460001Y-64232500D01*
X189460001Y-65257500D01*
X189448583Y-65314903D01*
X189416067Y-65363566D01*
X189367404Y-65396082D01*
X189310001Y-65407500D01*
X189010001Y-65407500D01*
X188952598Y-65396082D01*
X188903935Y-65363566D01*
X188871419Y-65314903D01*
X188860001Y-65257500D01*
X188860001Y-64232500D01*
X188871419Y-64175097D01*
X188903935Y-64126434D01*
X188952598Y-64093918D01*
X189010001Y-64082500D01*
X189310001Y-64082500D01*
X189367404Y-64093918D01*
G37*
G36*
X190317403Y-64093918D02*
G01*
X190366066Y-64126434D01*
X190398582Y-64175097D01*
X190410000Y-64232500D01*
X190410000Y-65257500D01*
X190398582Y-65314903D01*
X190366066Y-65363566D01*
X190317403Y-65396082D01*
X190260000Y-65407500D01*
X189960000Y-65407500D01*
X189902597Y-65396082D01*
X189853934Y-65363566D01*
X189821418Y-65314903D01*
X189810000Y-65257500D01*
X189810000Y-64232500D01*
X189821418Y-64175097D01*
X189853934Y-64126434D01*
X189902597Y-64093918D01*
X189960000Y-64082500D01*
X190260000Y-64082500D01*
X190317403Y-64093918D01*
G37*
G36*
X133905671Y-63959030D02*
G01*
X133986777Y-64013223D01*
X134040970Y-64094329D01*
X134060000Y-64190000D01*
X134060000Y-65090000D01*
X134040970Y-65185671D01*
X133986777Y-65266777D01*
X133905671Y-65320970D01*
X133810000Y-65340000D01*
X133285000Y-65340000D01*
X133189329Y-65320970D01*
X133108223Y-65266777D01*
X133054030Y-65185671D01*
X133035000Y-65090000D01*
X133035000Y-64190000D01*
X133054030Y-64094329D01*
X133108223Y-64013223D01*
X133189329Y-63959030D01*
X133285000Y-63940000D01*
X133810000Y-63940000D01*
X133905671Y-63959030D01*
G37*
G36*
X135730671Y-63959030D02*
G01*
X135811777Y-64013223D01*
X135865970Y-64094329D01*
X135885000Y-64190000D01*
X135885000Y-65090000D01*
X135865970Y-65185671D01*
X135811777Y-65266777D01*
X135730671Y-65320970D01*
X135635000Y-65340000D01*
X135110000Y-65340000D01*
X135014329Y-65320970D01*
X134933223Y-65266777D01*
X134879030Y-65185671D01*
X134860000Y-65090000D01*
X134860000Y-64190000D01*
X134879030Y-64094329D01*
X134933223Y-64013223D01*
X135014329Y-63959030D01*
X135110000Y-63940000D01*
X135635000Y-63940000D01*
X135730671Y-63959030D01*
G37*
G36*
X192297501Y-65220000D02*
G01*
X191197501Y-65220000D01*
X191197501Y-64920000D01*
X192297501Y-64920000D01*
X192297501Y-65220000D01*
G37*
G36*
X192297500Y-64720000D02*
G01*
X191197500Y-64720000D01*
X191197500Y-64420000D01*
X192297500Y-64420000D01*
X192297500Y-64720000D01*
G37*
G36*
X130540000Y-64570000D02*
G01*
X129040000Y-64570000D01*
X129040000Y-63370000D01*
X130540000Y-63370000D01*
X130540000Y-64570000D01*
G37*
G36*
X192297501Y-64220000D02*
G01*
X191197501Y-64220000D01*
X191197501Y-63920000D01*
X192297501Y-63920000D01*
X192297501Y-64220000D01*
G37*
G36*
X192297501Y-63720000D02*
G01*
X191197501Y-63720000D01*
X191197501Y-63420000D01*
X192297501Y-63420000D01*
X192297501Y-63720000D01*
G37*
G36*
X175350671Y-62699031D02*
G01*
X175431777Y-62753224D01*
X175485970Y-62834330D01*
X175505000Y-62930001D01*
X175505000Y-63430001D01*
X175485970Y-63525672D01*
X175431777Y-63606778D01*
X175350671Y-63660971D01*
X175255000Y-63680001D01*
X174305000Y-63680001D01*
X174209329Y-63660971D01*
X174128223Y-63606778D01*
X174074030Y-63525672D01*
X174055000Y-63430001D01*
X174055000Y-62930001D01*
X174074030Y-62834330D01*
X174128223Y-62753224D01*
X174209329Y-62699031D01*
X174305000Y-62680001D01*
X175255000Y-62680001D01*
X175350671Y-62699031D01*
G37*
G36*
X178540671Y-62699031D02*
G01*
X178621777Y-62753224D01*
X178675970Y-62834330D01*
X178695000Y-62930001D01*
X178695000Y-63430001D01*
X178675970Y-63525672D01*
X178621777Y-63606778D01*
X178540671Y-63660971D01*
X178445000Y-63680001D01*
X177495000Y-63680001D01*
X177399329Y-63660971D01*
X177318223Y-63606778D01*
X177264030Y-63525672D01*
X177245000Y-63430001D01*
X177245000Y-62930001D01*
X177264030Y-62834330D01*
X177318223Y-62753224D01*
X177399329Y-62699031D01*
X177495000Y-62680001D01*
X178445000Y-62680001D01*
X178540671Y-62699031D01*
G37*
G36*
X153715671Y-62599030D02*
G01*
X153796777Y-62653223D01*
X153850970Y-62734329D01*
X153870000Y-62830000D01*
X153870000Y-63355000D01*
X153850970Y-63450671D01*
X153796777Y-63531777D01*
X153715671Y-63585970D01*
X153620000Y-63605000D01*
X152720000Y-63605000D01*
X152624329Y-63585970D01*
X152543223Y-63531777D01*
X152489030Y-63450671D01*
X152470000Y-63355000D01*
X152470000Y-62830000D01*
X152489030Y-62734329D01*
X152543223Y-62653223D01*
X152624329Y-62599030D01*
X152720000Y-62580000D01*
X153620000Y-62580000D01*
X153715671Y-62599030D01*
G37*
G36*
X155715671Y-62566530D02*
G01*
X155796777Y-62620723D01*
X155850970Y-62701829D01*
X155870000Y-62797500D01*
X155870000Y-63322500D01*
X155850970Y-63418171D01*
X155796777Y-63499277D01*
X155715671Y-63553470D01*
X155620000Y-63572500D01*
X154720000Y-63572500D01*
X154624329Y-63553470D01*
X154543223Y-63499277D01*
X154489030Y-63418171D01*
X154470000Y-63322500D01*
X154470000Y-62797500D01*
X154489030Y-62701829D01*
X154543223Y-62620723D01*
X154624329Y-62566530D01*
X154720000Y-62547500D01*
X155620000Y-62547500D01*
X155715671Y-62566530D01*
G37*
G36*
X159565671Y-62546530D02*
G01*
X159646777Y-62600723D01*
X159700970Y-62681829D01*
X159720000Y-62777500D01*
X159720000Y-63302500D01*
X159700970Y-63398171D01*
X159646777Y-63479277D01*
X159565671Y-63533470D01*
X159470000Y-63552500D01*
X158570000Y-63552500D01*
X158474329Y-63533470D01*
X158393223Y-63479277D01*
X158339030Y-63398171D01*
X158320000Y-63302500D01*
X158320000Y-62777500D01*
X158339030Y-62681829D01*
X158393223Y-62600723D01*
X158474329Y-62546530D01*
X158570000Y-62527500D01*
X159470000Y-62527500D01*
X159565671Y-62546530D01*
G37*
G36*
X157645671Y-62544030D02*
G01*
X157726777Y-62598223D01*
X157780970Y-62679329D01*
X157800000Y-62775000D01*
X157800000Y-63300000D01*
X157780970Y-63395671D01*
X157726777Y-63476777D01*
X157645671Y-63530970D01*
X157550000Y-63550000D01*
X156650000Y-63550000D01*
X156554329Y-63530970D01*
X156473223Y-63476777D01*
X156419030Y-63395671D01*
X156400000Y-63300000D01*
X156400000Y-62775000D01*
X156419030Y-62679329D01*
X156473223Y-62598223D01*
X156554329Y-62544030D01*
X156650000Y-62525000D01*
X157550000Y-62525000D01*
X157645671Y-62544030D01*
G37*
G36*
X192297501Y-63220000D02*
G01*
X191197501Y-63220000D01*
X191197501Y-62920000D01*
X192297501Y-62920000D01*
X192297501Y-63220000D01*
G37*
G36*
X188417405Y-61818918D02*
G01*
X188466068Y-61851434D01*
X188498584Y-61900097D01*
X188510002Y-61957500D01*
X188510002Y-62982500D01*
X188498584Y-63039903D01*
X188466068Y-63088566D01*
X188417405Y-63121082D01*
X188360002Y-63132500D01*
X188060002Y-63132500D01*
X188002599Y-63121082D01*
X187953936Y-63088566D01*
X187921420Y-63039903D01*
X187910002Y-62982500D01*
X187910002Y-61957500D01*
X187921420Y-61900097D01*
X187953936Y-61851434D01*
X188002599Y-61818918D01*
X188060002Y-61807500D01*
X188360002Y-61807500D01*
X188417405Y-61818918D01*
G37*
G36*
X189367404Y-61818918D02*
G01*
X189416067Y-61851434D01*
X189448583Y-61900097D01*
X189460001Y-61957500D01*
X189460001Y-62982500D01*
X189448583Y-63039903D01*
X189416067Y-63088566D01*
X189367404Y-63121082D01*
X189310001Y-63132500D01*
X189010001Y-63132500D01*
X188952598Y-63121082D01*
X188903935Y-63088566D01*
X188871419Y-63039903D01*
X188860001Y-62982500D01*
X188860001Y-61957500D01*
X188871419Y-61900097D01*
X188903935Y-61851434D01*
X188952598Y-61818918D01*
X189010001Y-61807500D01*
X189310001Y-61807500D01*
X189367404Y-61818918D01*
G37*
G36*
X190317403Y-61818918D02*
G01*
X190366066Y-61851434D01*
X190398582Y-61900097D01*
X190410000Y-61957500D01*
X190410000Y-62982500D01*
X190398582Y-63039903D01*
X190366066Y-63088566D01*
X190317403Y-63121082D01*
X190260000Y-63132500D01*
X189960000Y-63132500D01*
X189902597Y-63121082D01*
X189853934Y-63088566D01*
X189821418Y-63039903D01*
X189810000Y-62982500D01*
X189810000Y-61957500D01*
X189821418Y-61900097D01*
X189853934Y-61851434D01*
X189902597Y-61818918D01*
X189960000Y-61807500D01*
X190260000Y-61807500D01*
X190317403Y-61818918D01*
G37*
G36*
X184185671Y-61699030D02*
G01*
X184266777Y-61753223D01*
X184320970Y-61834329D01*
X184340000Y-61930000D01*
X184340000Y-62830000D01*
X184320970Y-62925671D01*
X184266777Y-63006777D01*
X184185671Y-63060970D01*
X184090000Y-63080000D01*
X183565000Y-63080000D01*
X183469329Y-63060970D01*
X183388223Y-63006777D01*
X183334030Y-62925671D01*
X183315000Y-62830000D01*
X183315000Y-61930000D01*
X183334030Y-61834329D01*
X183388223Y-61753223D01*
X183469329Y-61699030D01*
X183565000Y-61680000D01*
X184090000Y-61680000D01*
X184185671Y-61699030D01*
G37*
G36*
X186010671Y-61699030D02*
G01*
X186091777Y-61753223D01*
X186145970Y-61834329D01*
X186165000Y-61930000D01*
X186165000Y-62830000D01*
X186145970Y-62925671D01*
X186091777Y-63006777D01*
X186010671Y-63060970D01*
X185915000Y-63080000D01*
X185390000Y-63080000D01*
X185294329Y-63060970D01*
X185213223Y-63006777D01*
X185159030Y-62925671D01*
X185140000Y-62830000D01*
X185140000Y-61930000D01*
X185159030Y-61834329D01*
X185213223Y-61753223D01*
X185294329Y-61699030D01*
X185390000Y-61680000D01*
X185915000Y-61680000D01*
X186010671Y-61699030D01*
G37*
G36*
X192297501Y-62720000D02*
G01*
X191197501Y-62720000D01*
X191197501Y-62420000D01*
X192297501Y-62420000D01*
X192297501Y-62720000D01*
G37*
G36*
X192297500Y-62220000D02*
G01*
X191197500Y-62220000D01*
X191197500Y-61920000D01*
X192297500Y-61920000D01*
X192297500Y-62220000D01*
G37*
G36*
X130540000Y-62140000D02*
G01*
X129040000Y-62140000D01*
X129040000Y-60940000D01*
X130540000Y-60940000D01*
X130540000Y-62140000D01*
G37*
G36*
X153715671Y-60774030D02*
G01*
X153796777Y-60828223D01*
X153850970Y-60909329D01*
X153870000Y-61005000D01*
X153870000Y-61530000D01*
X153850970Y-61625671D01*
X153796777Y-61706777D01*
X153715671Y-61760970D01*
X153620000Y-61780000D01*
X152720000Y-61780000D01*
X152624329Y-61760970D01*
X152543223Y-61706777D01*
X152489030Y-61625671D01*
X152470000Y-61530000D01*
X152470000Y-61005000D01*
X152489030Y-60909329D01*
X152543223Y-60828223D01*
X152624329Y-60774030D01*
X152720000Y-60755000D01*
X153620000Y-60755000D01*
X153715671Y-60774030D01*
G37*
G36*
X155715671Y-60741530D02*
G01*
X155796777Y-60795723D01*
X155850970Y-60876829D01*
X155870000Y-60972500D01*
X155870000Y-61497500D01*
X155850970Y-61593171D01*
X155796777Y-61674277D01*
X155715671Y-61728470D01*
X155620000Y-61747500D01*
X154720000Y-61747500D01*
X154624329Y-61728470D01*
X154543223Y-61674277D01*
X154489030Y-61593171D01*
X154470000Y-61497500D01*
X154470000Y-60972500D01*
X154489030Y-60876829D01*
X154543223Y-60795723D01*
X154624329Y-60741530D01*
X154720000Y-60722500D01*
X155620000Y-60722500D01*
X155715671Y-60741530D01*
G37*
G36*
X159565671Y-60721530D02*
G01*
X159646777Y-60775723D01*
X159700970Y-60856829D01*
X159720000Y-60952500D01*
X159720000Y-61477500D01*
X159700970Y-61573171D01*
X159646777Y-61654277D01*
X159565671Y-61708470D01*
X159470000Y-61727500D01*
X158570000Y-61727500D01*
X158474329Y-61708470D01*
X158393223Y-61654277D01*
X158339030Y-61573171D01*
X158320000Y-61477500D01*
X158320000Y-60952500D01*
X158339030Y-60856829D01*
X158393223Y-60775723D01*
X158474329Y-60721530D01*
X158570000Y-60702500D01*
X159470000Y-60702500D01*
X159565671Y-60721530D01*
G37*
G36*
X157645671Y-60719030D02*
G01*
X157726777Y-60773223D01*
X157780970Y-60854329D01*
X157800000Y-60950000D01*
X157800000Y-61475000D01*
X157780970Y-61570671D01*
X157726777Y-61651777D01*
X157645671Y-61705970D01*
X157550000Y-61725000D01*
X156650000Y-61725000D01*
X156554329Y-61705970D01*
X156473223Y-61651777D01*
X156419030Y-61570671D01*
X156400000Y-61475000D01*
X156400000Y-60950000D01*
X156419030Y-60854329D01*
X156473223Y-60773223D01*
X156554329Y-60719030D01*
X156650000Y-60700000D01*
X157550000Y-60700000D01*
X157645671Y-60719030D01*
G37*
G36*
X192297501Y-61720000D02*
G01*
X191197501Y-61720000D01*
X191197501Y-61420000D01*
X192297501Y-61420000D01*
X192297501Y-61720000D01*
G37*
G36*
X192297501Y-61195000D02*
G01*
X191197501Y-61195000D01*
X191197501Y-60645000D01*
X192297501Y-60645000D01*
X192297501Y-61195000D01*
G37*
G36*
X188875671Y-59514030D02*
G01*
X188956777Y-59568223D01*
X189010970Y-59649329D01*
X189030000Y-59745000D01*
X189030000Y-60695000D01*
X189010970Y-60790671D01*
X188956777Y-60871777D01*
X188875671Y-60925970D01*
X188780000Y-60945000D01*
X188280000Y-60945000D01*
X188184329Y-60925970D01*
X188103223Y-60871777D01*
X188049030Y-60790671D01*
X188030000Y-60695000D01*
X188030000Y-59745000D01*
X188049030Y-59649329D01*
X188103223Y-59568223D01*
X188184329Y-59514030D01*
X188280000Y-59495000D01*
X188780000Y-59495000D01*
X188875671Y-59514030D01*
G37*
G36*
X190775671Y-59514030D02*
G01*
X190856777Y-59568223D01*
X190910970Y-59649329D01*
X190930000Y-59745000D01*
X190930000Y-60695000D01*
X190910970Y-60790671D01*
X190856777Y-60871777D01*
X190775671Y-60925970D01*
X190680000Y-60945000D01*
X190180000Y-60945000D01*
X190084329Y-60925970D01*
X190003223Y-60871777D01*
X189949030Y-60790671D01*
X189930000Y-60695000D01*
X189930000Y-59745000D01*
X189949030Y-59649329D01*
X190003223Y-59568223D01*
X190084329Y-59514030D01*
X190180000Y-59495000D01*
X190680000Y-59495000D01*
X190775671Y-59514030D01*
G37*
G36*
X192961440Y-60106642D02*
G01*
X193040568Y-60152326D01*
X193105175Y-60216933D01*
X193150859Y-60296061D01*
X193174507Y-60384316D01*
X193174507Y-60475684D01*
X193150859Y-60563939D01*
X193105175Y-60643067D01*
X193040568Y-60707674D01*
X192961440Y-60753358D01*
X192873185Y-60777006D01*
X192781817Y-60777006D01*
X192693562Y-60753358D01*
X192614434Y-60707674D01*
X192549827Y-60643067D01*
X192504143Y-60563939D01*
X192480495Y-60475684D01*
X192480495Y-60384316D01*
X192504143Y-60296061D01*
X192549827Y-60216933D01*
X192614434Y-60152326D01*
X192693562Y-60106642D01*
X192781817Y-60082994D01*
X192873185Y-60082994D01*
X192961440Y-60106642D01*
G37*
G36*
X130540000Y-60440000D02*
G01*
X129040000Y-60440000D01*
X129040000Y-59240000D01*
X130540000Y-59240000D01*
X130540000Y-60440000D01*
G37*
G36*
X192297501Y-60395000D02*
G01*
X191197501Y-60395000D01*
X191197501Y-59845000D01*
X192297501Y-59845000D01*
X192297501Y-60395000D01*
G37*
G36*
X196809344Y-58400120D02*
G01*
X196865692Y-58402889D01*
X196872627Y-58404268D01*
X196885817Y-58405133D01*
X196911291Y-58411958D01*
X196981638Y-58425951D01*
X197014843Y-58439705D01*
X197037111Y-58445672D01*
X197057077Y-58457199D01*
X197090280Y-58470953D01*
X197149915Y-58510799D01*
X197172758Y-58523988D01*
X197179010Y-58530240D01*
X197188060Y-58536287D01*
X197271213Y-58619440D01*
X197277259Y-58628489D01*
X197283513Y-58634743D01*
X197296703Y-58657589D01*
X197336547Y-58717220D01*
X197350298Y-58750419D01*
X197361829Y-58770390D01*
X197367796Y-58792661D01*
X197381549Y-58825862D01*
X197395540Y-58896202D01*
X197402368Y-58921684D01*
X197402368Y-58930528D01*
X197404491Y-58941202D01*
X197404491Y-59058797D01*
X197402368Y-59069470D01*
X197402368Y-59078316D01*
X197395539Y-59103800D01*
X197381549Y-59174137D01*
X197367797Y-59207335D01*
X197361829Y-59229610D01*
X197350297Y-59249583D01*
X197336547Y-59282779D01*
X197296707Y-59342403D01*
X197283513Y-59365257D01*
X197277257Y-59371512D01*
X197271213Y-59380559D01*
X197188060Y-59463712D01*
X197179013Y-59469756D01*
X197172758Y-59476012D01*
X197149904Y-59489206D01*
X197090280Y-59529046D01*
X197057084Y-59542796D01*
X197037111Y-59554328D01*
X197014836Y-59560296D01*
X196981638Y-59574048D01*
X196911306Y-59588037D01*
X196885817Y-59594867D01*
X196872620Y-59595731D01*
X196865692Y-59597110D01*
X196809347Y-59599879D01*
X196807501Y-59600000D01*
X196806885Y-59600000D01*
X196208117Y-59600000D01*
X196207501Y-59600000D01*
X196205655Y-59599879D01*
X196149309Y-59597110D01*
X196142380Y-59595731D01*
X196129185Y-59594867D01*
X196103698Y-59588037D01*
X196033363Y-59574048D01*
X196000162Y-59560295D01*
X195977891Y-59554328D01*
X195957920Y-59542797D01*
X195924721Y-59529046D01*
X195865090Y-59489202D01*
X195842244Y-59476012D01*
X195835990Y-59469758D01*
X195826941Y-59463712D01*
X195743788Y-59380559D01*
X195737741Y-59371509D01*
X195731489Y-59365257D01*
X195718300Y-59342414D01*
X195678454Y-59282779D01*
X195664700Y-59249576D01*
X195653173Y-59229610D01*
X195647206Y-59207342D01*
X195633452Y-59174137D01*
X195619461Y-59103794D01*
X195612634Y-59078316D01*
X195612634Y-59069470D01*
X195610511Y-59058797D01*
X195610511Y-58941202D01*
X195612634Y-58930528D01*
X195612634Y-58921684D01*
X195619460Y-58896207D01*
X195633452Y-58825862D01*
X195647207Y-58792654D01*
X195653173Y-58770390D01*
X195664699Y-58750425D01*
X195678454Y-58717220D01*
X195718305Y-58657578D01*
X195731489Y-58634743D01*
X195737739Y-58628492D01*
X195743788Y-58619440D01*
X195826941Y-58536287D01*
X195835993Y-58530238D01*
X195842244Y-58523988D01*
X195865079Y-58510804D01*
X195924721Y-58470953D01*
X195957926Y-58457198D01*
X195977891Y-58445672D01*
X196000155Y-58439706D01*
X196033363Y-58425951D01*
X196103713Y-58411958D01*
X196129185Y-58405133D01*
X196142372Y-58404268D01*
X196149309Y-58402889D01*
X196205657Y-58400120D01*
X196207501Y-58400000D01*
X196807501Y-58400000D01*
X196809344Y-58400120D01*
G37*
G36*
X192819290Y-58454705D02*
G01*
X192957977Y-58491866D01*
X193082320Y-58563656D01*
X193183845Y-58665181D01*
X193255635Y-58789524D01*
X193292796Y-58928211D01*
X193292796Y-59071789D01*
X193255635Y-59210476D01*
X193183845Y-59334819D01*
X193082320Y-59436344D01*
X192957977Y-59508134D01*
X192819290Y-59545295D01*
X192747501Y-59550000D01*
X192746690Y-59550000D01*
X191848312Y-59550000D01*
X191847501Y-59550000D01*
X191775712Y-59545295D01*
X191637025Y-59508134D01*
X191512682Y-59436344D01*
X191411157Y-59334819D01*
X191339367Y-59210476D01*
X191302206Y-59071789D01*
X191302206Y-58928211D01*
X191339367Y-58789524D01*
X191411157Y-58665181D01*
X191512682Y-58563656D01*
X191637025Y-58491866D01*
X191775712Y-58454705D01*
X191847501Y-58450000D01*
X192747501Y-58450000D01*
X192819290Y-58454705D01*
G37*
G36*
X105722228Y-56724448D02*
G01*
X105867117Y-56784463D01*
X105997515Y-56871592D01*
X106108408Y-56982485D01*
X106195537Y-57112883D01*
X106255552Y-57257772D01*
X106286148Y-57411586D01*
X106286148Y-57568414D01*
X106255552Y-57722228D01*
X106195537Y-57867117D01*
X106108408Y-57997515D01*
X105997515Y-58108408D01*
X105867117Y-58195537D01*
X105722228Y-58255552D01*
X105568414Y-58286148D01*
X105411586Y-58286148D01*
X105257772Y-58255552D01*
X105112883Y-58195537D01*
X104982485Y-58108408D01*
X104871592Y-57997515D01*
X104784463Y-57867117D01*
X104724448Y-57722228D01*
X104693852Y-57568414D01*
X104693852Y-57411586D01*
X104724448Y-57257772D01*
X104784463Y-57112883D01*
X104871592Y-56982485D01*
X104982485Y-56871592D01*
X105112883Y-56784463D01*
X105257772Y-56724448D01*
X105411586Y-56693852D01*
X105568414Y-56693852D01*
X105722228Y-56724448D01*
G37*
G36*
X130540000Y-57090000D02*
G01*
X129040000Y-57090000D01*
X129040000Y-55890000D01*
X130540000Y-55890000D01*
X130540000Y-57090000D01*
G37*
G36*
X108590000Y-56840000D02*
G01*
X106590000Y-56840000D01*
X106590000Y-55640000D01*
X108590000Y-55640000D01*
X108590000Y-56840000D01*
G37*
G36*
X177931342Y-55138060D02*
G01*
X178044381Y-55203323D01*
X178136677Y-55295619D01*
X178201940Y-55408658D01*
X178235722Y-55534737D01*
X178235722Y-55665263D01*
X178201940Y-55791342D01*
X178136677Y-55904381D01*
X178044381Y-55996677D01*
X177931342Y-56061940D01*
X177805263Y-56095722D01*
X177674737Y-56095722D01*
X177548658Y-56061940D01*
X177435619Y-55996677D01*
X177343323Y-55904381D01*
X177278060Y-55791342D01*
X177244278Y-55665263D01*
X177244278Y-55534737D01*
X177278060Y-55408658D01*
X177343323Y-55295619D01*
X177435619Y-55203323D01*
X177548658Y-55138060D01*
X177674737Y-55104278D01*
X177805263Y-55104278D01*
X177931342Y-55138060D01*
G37*
M02*
