%TF.GenerationSoftware,KiCad,Pcbnew,10.0.3*%
%TF.CreationDate,2026-06-14T19:13:01-04:00*%
%TF.ProjectId,a-side,612d7369-6465-42e6-9b69-6361645f7063,rev?*%
%TF.SameCoordinates,Original*%
%TF.FileFunction,Soldermask,Bot*%
%TF.FilePolarity,Negative*%
%FSLAX46Y46*%
G04 Gerber Fmt 4.6, Leading zero omitted, Abs format (unit mm)*
G04 Created by KiCad (PCBNEW 10.0.3) date 2026-06-14 19:13:01*
%MOMM*%
%LPD*%
G01*
G04 APERTURE LIST*
G04 APERTURE END LIST*
G36*
X105333513Y-113564208D02*
G01*
X105572293Y-113641793D01*
X105795998Y-113755776D01*
X105999117Y-113903350D01*
X106176650Y-114080883D01*
X106324224Y-114284002D01*
X106438207Y-114507707D01*
X106515792Y-114746487D01*
X106555068Y-114994465D01*
X106555068Y-115245535D01*
X106515792Y-115493513D01*
X106438207Y-115732293D01*
X106324224Y-115955998D01*
X106176650Y-116159117D01*
X105999117Y-116336650D01*
X105795998Y-116484224D01*
X105572293Y-116598207D01*
X105333513Y-116675792D01*
X105085535Y-116715068D01*
X104834465Y-116715068D01*
X104586487Y-116675792D01*
X104347707Y-116598207D01*
X104124002Y-116484224D01*
X103920883Y-116336650D01*
X103743350Y-116159117D01*
X103595776Y-115955998D01*
X103481793Y-115732293D01*
X103404208Y-115493513D01*
X103364932Y-115245535D01*
X103364932Y-114994465D01*
X103404208Y-114746487D01*
X103481793Y-114507707D01*
X103595776Y-114284002D01*
X103743350Y-114080883D01*
X103920883Y-113903350D01*
X104124002Y-113755776D01*
X104347707Y-113641793D01*
X104586487Y-113564208D01*
X104834465Y-113524932D01*
X105085535Y-113524932D01*
X105333513Y-113564208D01*
G37*
G36*
X166242228Y-113474448D02*
G01*
X166387117Y-113534463D01*
X166517515Y-113621592D01*
X166628408Y-113732485D01*
X166715537Y-113862883D01*
X166775552Y-114007772D01*
X166806148Y-114161586D01*
X166806148Y-114318414D01*
X166775552Y-114472228D01*
X166715537Y-114617117D01*
X166628408Y-114747515D01*
X166517515Y-114858408D01*
X166387117Y-114945537D01*
X166242228Y-115005552D01*
X166088414Y-115036148D01*
X165931586Y-115036148D01*
X165777772Y-115005552D01*
X165632883Y-114945537D01*
X165502485Y-114858408D01*
X165391592Y-114747515D01*
X165304463Y-114617117D01*
X165244448Y-114472228D01*
X165213852Y-114318414D01*
X165213852Y-114161586D01*
X165244448Y-114007772D01*
X165304463Y-113862883D01*
X165391592Y-113732485D01*
X165502485Y-113621592D01*
X165632883Y-113534463D01*
X165777772Y-113474448D01*
X165931586Y-113443852D01*
X166088414Y-113443852D01*
X166242228Y-113474448D01*
G37*
G36*
X190452228Y-113474448D02*
G01*
X190597117Y-113534463D01*
X190727515Y-113621592D01*
X190838408Y-113732485D01*
X190925537Y-113862883D01*
X190985552Y-114007772D01*
X191016148Y-114161586D01*
X191016148Y-114318414D01*
X190985552Y-114472228D01*
X190925537Y-114617117D01*
X190838408Y-114747515D01*
X190727515Y-114858408D01*
X190597117Y-114945537D01*
X190452228Y-115005552D01*
X190298414Y-115036148D01*
X190141586Y-115036148D01*
X189987772Y-115005552D01*
X189842883Y-114945537D01*
X189712485Y-114858408D01*
X189601592Y-114747515D01*
X189514463Y-114617117D01*
X189454448Y-114472228D01*
X189423852Y-114318414D01*
X189423852Y-114161586D01*
X189454448Y-114007772D01*
X189514463Y-113862883D01*
X189601592Y-113732485D01*
X189712485Y-113621592D01*
X189842883Y-113534463D01*
X189987772Y-113474448D01*
X190141586Y-113443852D01*
X190298414Y-113443852D01*
X190452228Y-113474448D01*
G37*
G36*
X112313513Y-108384208D02*
G01*
X112552293Y-108461793D01*
X112775998Y-108575776D01*
X112979117Y-108723350D01*
X113156650Y-108900883D01*
X113304224Y-109104002D01*
X113418207Y-109327707D01*
X113495792Y-109566487D01*
X113535068Y-109814465D01*
X113535068Y-110065535D01*
X113495792Y-110313513D01*
X113418207Y-110552293D01*
X113304224Y-110775998D01*
X113156650Y-110979117D01*
X112979117Y-111156650D01*
X112775998Y-111304224D01*
X112552293Y-111418207D01*
X112313513Y-111495792D01*
X112065535Y-111535068D01*
X111814465Y-111535068D01*
X111566487Y-111495792D01*
X111327707Y-111418207D01*
X111104002Y-111304224D01*
X110900883Y-111156650D01*
X110723350Y-110979117D01*
X110575776Y-110775998D01*
X110461793Y-110552293D01*
X110384208Y-110313513D01*
X110344932Y-110065535D01*
X110344932Y-109814465D01*
X110384208Y-109566487D01*
X110461793Y-109327707D01*
X110575776Y-109104002D01*
X110723350Y-108900883D01*
X110900883Y-108723350D01*
X111104002Y-108575776D01*
X111327707Y-108461793D01*
X111566487Y-108384208D01*
X111814465Y-108344932D01*
X112065535Y-108344932D01*
X112313513Y-108384208D01*
G37*
G36*
X125453513Y-108384208D02*
G01*
X125692293Y-108461793D01*
X125915998Y-108575776D01*
X126119117Y-108723350D01*
X126296650Y-108900883D01*
X126444224Y-109104002D01*
X126558207Y-109327707D01*
X126635792Y-109566487D01*
X126675068Y-109814465D01*
X126675068Y-110065535D01*
X126635792Y-110313513D01*
X126558207Y-110552293D01*
X126444224Y-110775998D01*
X126296650Y-110979117D01*
X126119117Y-111156650D01*
X125915998Y-111304224D01*
X125692293Y-111418207D01*
X125453513Y-111495792D01*
X125205535Y-111535068D01*
X124954465Y-111535068D01*
X124706487Y-111495792D01*
X124467707Y-111418207D01*
X124244002Y-111304224D01*
X124040883Y-111156650D01*
X123863350Y-110979117D01*
X123715776Y-110775998D01*
X123601793Y-110552293D01*
X123524208Y-110313513D01*
X123484932Y-110065535D01*
X123484932Y-109814465D01*
X123524208Y-109566487D01*
X123601793Y-109327707D01*
X123715776Y-109104002D01*
X123863350Y-108900883D01*
X124040883Y-108723350D01*
X124244002Y-108575776D01*
X124467707Y-108461793D01*
X124706487Y-108384208D01*
X124954465Y-108344932D01*
X125205535Y-108344932D01*
X125453513Y-108384208D01*
G37*
G36*
X138703513Y-108384208D02*
G01*
X138942293Y-108461793D01*
X139165998Y-108575776D01*
X139369117Y-108723350D01*
X139546650Y-108900883D01*
X139694224Y-109104002D01*
X139808207Y-109327707D01*
X139885792Y-109566487D01*
X139925068Y-109814465D01*
X139925068Y-110065535D01*
X139885792Y-110313513D01*
X139808207Y-110552293D01*
X139694224Y-110775998D01*
X139546650Y-110979117D01*
X139369117Y-111156650D01*
X139165998Y-111304224D01*
X138942293Y-111418207D01*
X138703513Y-111495792D01*
X138455535Y-111535068D01*
X138204465Y-111535068D01*
X137956487Y-111495792D01*
X137717707Y-111418207D01*
X137494002Y-111304224D01*
X137290883Y-111156650D01*
X137113350Y-110979117D01*
X136965776Y-110775998D01*
X136851793Y-110552293D01*
X136774208Y-110313513D01*
X136734932Y-110065535D01*
X136734932Y-109814465D01*
X136774208Y-109566487D01*
X136851793Y-109327707D01*
X136965776Y-109104002D01*
X137113350Y-108900883D01*
X137290883Y-108723350D01*
X137494002Y-108575776D01*
X137717707Y-108461793D01*
X137956487Y-108384208D01*
X138204465Y-108344932D01*
X138455535Y-108344932D01*
X138703513Y-108384208D01*
G37*
G36*
X151843513Y-108384208D02*
G01*
X152082293Y-108461793D01*
X152305998Y-108575776D01*
X152509117Y-108723350D01*
X152686650Y-108900883D01*
X152834224Y-109104002D01*
X152948207Y-109327707D01*
X153025792Y-109566487D01*
X153065068Y-109814465D01*
X153065068Y-110065535D01*
X153025792Y-110313513D01*
X152948207Y-110552293D01*
X152834224Y-110775998D01*
X152686650Y-110979117D01*
X152509117Y-111156650D01*
X152305998Y-111304224D01*
X152082293Y-111418207D01*
X151843513Y-111495792D01*
X151595535Y-111535068D01*
X151344465Y-111535068D01*
X151096487Y-111495792D01*
X150857707Y-111418207D01*
X150634002Y-111304224D01*
X150430883Y-111156650D01*
X150253350Y-110979117D01*
X150105776Y-110775998D01*
X149991793Y-110552293D01*
X149914208Y-110313513D01*
X149874932Y-110065535D01*
X149874932Y-109814465D01*
X149914208Y-109566487D01*
X149991793Y-109327707D01*
X150105776Y-109104002D01*
X150253350Y-108900883D01*
X150430883Y-108723350D01*
X150634002Y-108575776D01*
X150857707Y-108461793D01*
X151096487Y-108384208D01*
X151344465Y-108344932D01*
X151595535Y-108344932D01*
X151843513Y-108384208D01*
G37*
G36*
X115230616Y-106512725D02*
G01*
X115368262Y-106569740D01*
X115492139Y-106652512D01*
X115597488Y-106757861D01*
X115680260Y-106881738D01*
X115737275Y-107019384D01*
X115766340Y-107165507D01*
X115766340Y-107314493D01*
X115737275Y-107460616D01*
X115680260Y-107598262D01*
X115597488Y-107722139D01*
X115492139Y-107827488D01*
X115368262Y-107910260D01*
X115230616Y-107967275D01*
X115084493Y-107996340D01*
X114935507Y-107996340D01*
X114789384Y-107967275D01*
X114651738Y-107910260D01*
X114527861Y-107827488D01*
X114422512Y-107722139D01*
X114339740Y-107598262D01*
X114282725Y-107460616D01*
X114253660Y-107314493D01*
X114253660Y-107165507D01*
X114282725Y-107019384D01*
X114339740Y-106881738D01*
X114422512Y-106757861D01*
X114527861Y-106652512D01*
X114651738Y-106569740D01*
X114789384Y-106512725D01*
X114935507Y-106483660D01*
X115084493Y-106483660D01*
X115230616Y-106512725D01*
G37*
G36*
X117730616Y-106512725D02*
G01*
X117868262Y-106569740D01*
X117992139Y-106652512D01*
X118097488Y-106757861D01*
X118180260Y-106881738D01*
X118237275Y-107019384D01*
X118266340Y-107165507D01*
X118266340Y-107314493D01*
X118237275Y-107460616D01*
X118180260Y-107598262D01*
X118097488Y-107722139D01*
X117992139Y-107827488D01*
X117868262Y-107910260D01*
X117730616Y-107967275D01*
X117584493Y-107996340D01*
X117435507Y-107996340D01*
X117289384Y-107967275D01*
X117151738Y-107910260D01*
X117027861Y-107827488D01*
X116922512Y-107722139D01*
X116839740Y-107598262D01*
X116782725Y-107460616D01*
X116753660Y-107314493D01*
X116753660Y-107165507D01*
X116782725Y-107019384D01*
X116839740Y-106881738D01*
X116922512Y-106757861D01*
X117027861Y-106652512D01*
X117151738Y-106569740D01*
X117289384Y-106512725D01*
X117435507Y-106483660D01*
X117584493Y-106483660D01*
X117730616Y-106512725D01*
G37*
G36*
X119730616Y-106512725D02*
G01*
X119868262Y-106569740D01*
X119992139Y-106652512D01*
X120097488Y-106757861D01*
X120180260Y-106881738D01*
X120237275Y-107019384D01*
X120266340Y-107165507D01*
X120266340Y-107314493D01*
X120237275Y-107460616D01*
X120180260Y-107598262D01*
X120097488Y-107722139D01*
X119992139Y-107827488D01*
X119868262Y-107910260D01*
X119730616Y-107967275D01*
X119584493Y-107996340D01*
X119435507Y-107996340D01*
X119289384Y-107967275D01*
X119151738Y-107910260D01*
X119027861Y-107827488D01*
X118922512Y-107722139D01*
X118839740Y-107598262D01*
X118782725Y-107460616D01*
X118753660Y-107314493D01*
X118753660Y-107165507D01*
X118782725Y-107019384D01*
X118839740Y-106881738D01*
X118922512Y-106757861D01*
X119027861Y-106652512D01*
X119151738Y-106569740D01*
X119289384Y-106512725D01*
X119435507Y-106483660D01*
X119584493Y-106483660D01*
X119730616Y-106512725D01*
G37*
G36*
X122230616Y-106512725D02*
G01*
X122368262Y-106569740D01*
X122492139Y-106652512D01*
X122597488Y-106757861D01*
X122680260Y-106881738D01*
X122737275Y-107019384D01*
X122766340Y-107165507D01*
X122766340Y-107314493D01*
X122737275Y-107460616D01*
X122680260Y-107598262D01*
X122597488Y-107722139D01*
X122492139Y-107827488D01*
X122368262Y-107910260D01*
X122230616Y-107967275D01*
X122084493Y-107996340D01*
X121935507Y-107996340D01*
X121789384Y-107967275D01*
X121651738Y-107910260D01*
X121527861Y-107827488D01*
X121422512Y-107722139D01*
X121339740Y-107598262D01*
X121282725Y-107460616D01*
X121253660Y-107314493D01*
X121253660Y-107165507D01*
X121282725Y-107019384D01*
X121339740Y-106881738D01*
X121422512Y-106757861D01*
X121527861Y-106652512D01*
X121651738Y-106569740D01*
X121789384Y-106512725D01*
X121935507Y-106483660D01*
X122084493Y-106483660D01*
X122230616Y-106512725D01*
G37*
G36*
X141620616Y-106512725D02*
G01*
X141758262Y-106569740D01*
X141882139Y-106652512D01*
X141987488Y-106757861D01*
X142070260Y-106881738D01*
X142127275Y-107019384D01*
X142156340Y-107165507D01*
X142156340Y-107314493D01*
X142127275Y-107460616D01*
X142070260Y-107598262D01*
X141987488Y-107722139D01*
X141882139Y-107827488D01*
X141758262Y-107910260D01*
X141620616Y-107967275D01*
X141474493Y-107996340D01*
X141325507Y-107996340D01*
X141179384Y-107967275D01*
X141041738Y-107910260D01*
X140917861Y-107827488D01*
X140812512Y-107722139D01*
X140729740Y-107598262D01*
X140672725Y-107460616D01*
X140643660Y-107314493D01*
X140643660Y-107165507D01*
X140672725Y-107019384D01*
X140729740Y-106881738D01*
X140812512Y-106757861D01*
X140917861Y-106652512D01*
X141041738Y-106569740D01*
X141179384Y-106512725D01*
X141325507Y-106483660D01*
X141474493Y-106483660D01*
X141620616Y-106512725D01*
G37*
G36*
X144120616Y-106512725D02*
G01*
X144258262Y-106569740D01*
X144382139Y-106652512D01*
X144487488Y-106757861D01*
X144570260Y-106881738D01*
X144627275Y-107019384D01*
X144656340Y-107165507D01*
X144656340Y-107314493D01*
X144627275Y-107460616D01*
X144570260Y-107598262D01*
X144487488Y-107722139D01*
X144382139Y-107827488D01*
X144258262Y-107910260D01*
X144120616Y-107967275D01*
X143974493Y-107996340D01*
X143825507Y-107996340D01*
X143679384Y-107967275D01*
X143541738Y-107910260D01*
X143417861Y-107827488D01*
X143312512Y-107722139D01*
X143229740Y-107598262D01*
X143172725Y-107460616D01*
X143143660Y-107314493D01*
X143143660Y-107165507D01*
X143172725Y-107019384D01*
X143229740Y-106881738D01*
X143312512Y-106757861D01*
X143417861Y-106652512D01*
X143541738Y-106569740D01*
X143679384Y-106512725D01*
X143825507Y-106483660D01*
X143974493Y-106483660D01*
X144120616Y-106512725D01*
G37*
G36*
X146120616Y-106512725D02*
G01*
X146258262Y-106569740D01*
X146382139Y-106652512D01*
X146487488Y-106757861D01*
X146570260Y-106881738D01*
X146627275Y-107019384D01*
X146656340Y-107165507D01*
X146656340Y-107314493D01*
X146627275Y-107460616D01*
X146570260Y-107598262D01*
X146487488Y-107722139D01*
X146382139Y-107827488D01*
X146258262Y-107910260D01*
X146120616Y-107967275D01*
X145974493Y-107996340D01*
X145825507Y-107996340D01*
X145679384Y-107967275D01*
X145541738Y-107910260D01*
X145417861Y-107827488D01*
X145312512Y-107722139D01*
X145229740Y-107598262D01*
X145172725Y-107460616D01*
X145143660Y-107314493D01*
X145143660Y-107165507D01*
X145172725Y-107019384D01*
X145229740Y-106881738D01*
X145312512Y-106757861D01*
X145417861Y-106652512D01*
X145541738Y-106569740D01*
X145679384Y-106512725D01*
X145825507Y-106483660D01*
X145974493Y-106483660D01*
X146120616Y-106512725D01*
G37*
G36*
X148620616Y-106512725D02*
G01*
X148758262Y-106569740D01*
X148882139Y-106652512D01*
X148987488Y-106757861D01*
X149070260Y-106881738D01*
X149127275Y-107019384D01*
X149156340Y-107165507D01*
X149156340Y-107314493D01*
X149127275Y-107460616D01*
X149070260Y-107598262D01*
X148987488Y-107722139D01*
X148882139Y-107827488D01*
X148758262Y-107910260D01*
X148620616Y-107967275D01*
X148474493Y-107996340D01*
X148325507Y-107996340D01*
X148179384Y-107967275D01*
X148041738Y-107910260D01*
X147917861Y-107827488D01*
X147812512Y-107722139D01*
X147729740Y-107598262D01*
X147672725Y-107460616D01*
X147643660Y-107314493D01*
X147643660Y-107165507D01*
X147672725Y-107019384D01*
X147729740Y-106881738D01*
X147812512Y-106757861D01*
X147917861Y-106652512D01*
X148041738Y-106569740D01*
X148179384Y-106512725D01*
X148325507Y-106483660D01*
X148474493Y-106483660D01*
X148620616Y-106512725D01*
G37*
G36*
X105053513Y-95044208D02*
G01*
X105292293Y-95121793D01*
X105515998Y-95235776D01*
X105719117Y-95383350D01*
X105896650Y-95560883D01*
X106044224Y-95764002D01*
X106158207Y-95987707D01*
X106235792Y-96226487D01*
X106275068Y-96474465D01*
X106275068Y-96725535D01*
X106235792Y-96973513D01*
X106158207Y-97212293D01*
X106044224Y-97435998D01*
X105896650Y-97639117D01*
X105719117Y-97816650D01*
X105515998Y-97964224D01*
X105292293Y-98078207D01*
X105053513Y-98155792D01*
X104805535Y-98195068D01*
X104554465Y-98195068D01*
X104306487Y-98155792D01*
X104067707Y-98078207D01*
X103844002Y-97964224D01*
X103640883Y-97816650D01*
X103463350Y-97639117D01*
X103315776Y-97435998D01*
X103201793Y-97212293D01*
X103124208Y-96973513D01*
X103084932Y-96725535D01*
X103084932Y-96474465D01*
X103124208Y-96226487D01*
X103201793Y-95987707D01*
X103315776Y-95764002D01*
X103463350Y-95560883D01*
X103640883Y-95383350D01*
X103844002Y-95235776D01*
X104067707Y-95121793D01*
X104306487Y-95044208D01*
X104554465Y-95004932D01*
X104805535Y-95004932D01*
X105053513Y-95044208D01*
G37*
G36*
X105722228Y-80934448D02*
G01*
X105867117Y-80994463D01*
X105997515Y-81081592D01*
X106108408Y-81192485D01*
X106195537Y-81322883D01*
X106255552Y-81467772D01*
X106286148Y-81621586D01*
X106286148Y-81778414D01*
X106255552Y-81932228D01*
X106195537Y-82077117D01*
X106108408Y-82207515D01*
X105997515Y-82318408D01*
X105867117Y-82405537D01*
X105722228Y-82465552D01*
X105568414Y-82496148D01*
X105411586Y-82496148D01*
X105257772Y-82465552D01*
X105112883Y-82405537D01*
X104982485Y-82318408D01*
X104871592Y-82207515D01*
X104784463Y-82077117D01*
X104724448Y-81932228D01*
X104693852Y-81778414D01*
X104693852Y-81621586D01*
X104724448Y-81467772D01*
X104784463Y-81322883D01*
X104871592Y-81192485D01*
X104982485Y-81081592D01*
X105112883Y-80994463D01*
X105257772Y-80934448D01*
X105411586Y-80903852D01*
X105568414Y-80903852D01*
X105722228Y-80934448D01*
G37*
G36*
X194733513Y-72904208D02*
G01*
X194972293Y-72981793D01*
X195195998Y-73095776D01*
X195399117Y-73243350D01*
X195576650Y-73420883D01*
X195724224Y-73624002D01*
X195838207Y-73847707D01*
X195915792Y-74086487D01*
X195955068Y-74334465D01*
X195955068Y-74585535D01*
X195915792Y-74833513D01*
X195838207Y-75072293D01*
X195724224Y-75295998D01*
X195576650Y-75499117D01*
X195399117Y-75676650D01*
X195195998Y-75824224D01*
X194972293Y-75938207D01*
X194733513Y-76015792D01*
X194485535Y-76055068D01*
X194234465Y-76055068D01*
X193986487Y-76015792D01*
X193747707Y-75938207D01*
X193524002Y-75824224D01*
X193320883Y-75676650D01*
X193143350Y-75499117D01*
X192995776Y-75295998D01*
X192881793Y-75072293D01*
X192804208Y-74833513D01*
X192764932Y-74585535D01*
X192764932Y-74334465D01*
X192804208Y-74086487D01*
X192881793Y-73847707D01*
X192995776Y-73624002D01*
X193143350Y-73420883D01*
X193320883Y-73243350D01*
X193524002Y-73095776D01*
X193747707Y-72981793D01*
X193986487Y-72904208D01*
X194234465Y-72864932D01*
X194485535Y-72864932D01*
X194733513Y-72904208D01*
G37*
G36*
X196809344Y-67040120D02*
G01*
X196865692Y-67042889D01*
X196872627Y-67044268D01*
X196885817Y-67045133D01*
X196911291Y-67051958D01*
X196981638Y-67065951D01*
X197014843Y-67079705D01*
X197037111Y-67085672D01*
X197057077Y-67097199D01*
X197090280Y-67110953D01*
X197149915Y-67150799D01*
X197172758Y-67163988D01*
X197179010Y-67170240D01*
X197188060Y-67176287D01*
X197271213Y-67259440D01*
X197277259Y-67268489D01*
X197283513Y-67274743D01*
X197296703Y-67297589D01*
X197336547Y-67357220D01*
X197350298Y-67390419D01*
X197361829Y-67410390D01*
X197367796Y-67432661D01*
X197381549Y-67465862D01*
X197395540Y-67536202D01*
X197402368Y-67561684D01*
X197402368Y-67570528D01*
X197404491Y-67581202D01*
X197404491Y-67698797D01*
X197402368Y-67709470D01*
X197402368Y-67718316D01*
X197395539Y-67743800D01*
X197381549Y-67814137D01*
X197367797Y-67847335D01*
X197361829Y-67869610D01*
X197350297Y-67889583D01*
X197336547Y-67922779D01*
X197296707Y-67982403D01*
X197283513Y-68005257D01*
X197277257Y-68011512D01*
X197271213Y-68020559D01*
X197188060Y-68103712D01*
X197179013Y-68109756D01*
X197172758Y-68116012D01*
X197149904Y-68129206D01*
X197090280Y-68169046D01*
X197057084Y-68182796D01*
X197037111Y-68194328D01*
X197014836Y-68200296D01*
X196981638Y-68214048D01*
X196911306Y-68228037D01*
X196885817Y-68234867D01*
X196872620Y-68235731D01*
X196865692Y-68237110D01*
X196809347Y-68239879D01*
X196807501Y-68240000D01*
X196806885Y-68240000D01*
X196208117Y-68240000D01*
X196207501Y-68240000D01*
X196205655Y-68239879D01*
X196149309Y-68237110D01*
X196142380Y-68235731D01*
X196129185Y-68234867D01*
X196103698Y-68228037D01*
X196033363Y-68214048D01*
X196000162Y-68200295D01*
X195977891Y-68194328D01*
X195957920Y-68182797D01*
X195924721Y-68169046D01*
X195865090Y-68129202D01*
X195842244Y-68116012D01*
X195835990Y-68109758D01*
X195826941Y-68103712D01*
X195743788Y-68020559D01*
X195737741Y-68011509D01*
X195731489Y-68005257D01*
X195718300Y-67982414D01*
X195678454Y-67922779D01*
X195664700Y-67889576D01*
X195653173Y-67869610D01*
X195647206Y-67847342D01*
X195633452Y-67814137D01*
X195619461Y-67743794D01*
X195612634Y-67718316D01*
X195612634Y-67709470D01*
X195610511Y-67698797D01*
X195610511Y-67581202D01*
X195612634Y-67570528D01*
X195612634Y-67561684D01*
X195619460Y-67536207D01*
X195633452Y-67465862D01*
X195647207Y-67432654D01*
X195653173Y-67410390D01*
X195664699Y-67390425D01*
X195678454Y-67357220D01*
X195718305Y-67297578D01*
X195731489Y-67274743D01*
X195737739Y-67268492D01*
X195743788Y-67259440D01*
X195826941Y-67176287D01*
X195835993Y-67170238D01*
X195842244Y-67163988D01*
X195865079Y-67150804D01*
X195924721Y-67110953D01*
X195957926Y-67097198D01*
X195977891Y-67085672D01*
X196000155Y-67079706D01*
X196033363Y-67065951D01*
X196103713Y-67051958D01*
X196129185Y-67045133D01*
X196142372Y-67044268D01*
X196149309Y-67042889D01*
X196205657Y-67040120D01*
X196207501Y-67040000D01*
X196807501Y-67040000D01*
X196809344Y-67040120D01*
G37*
G36*
X192819290Y-67094705D02*
G01*
X192957977Y-67131866D01*
X193082320Y-67203656D01*
X193183845Y-67305181D01*
X193255635Y-67429524D01*
X193292796Y-67568211D01*
X193292796Y-67711789D01*
X193255635Y-67850476D01*
X193183845Y-67974819D01*
X193082320Y-68076344D01*
X192957977Y-68148134D01*
X192819290Y-68185295D01*
X192747501Y-68190000D01*
X192746690Y-68190000D01*
X191848312Y-68190000D01*
X191847501Y-68190000D01*
X191775712Y-68185295D01*
X191637025Y-68148134D01*
X191512682Y-68076344D01*
X191411157Y-67974819D01*
X191339367Y-67850476D01*
X191302206Y-67711789D01*
X191302206Y-67568211D01*
X191339367Y-67429524D01*
X191411157Y-67305181D01*
X191512682Y-67203656D01*
X191637025Y-67131866D01*
X191775712Y-67094705D01*
X191847501Y-67090000D01*
X192747501Y-67090000D01*
X192819290Y-67094705D01*
G37*
G36*
X192961440Y-65886642D02*
G01*
X193040568Y-65932326D01*
X193105175Y-65996933D01*
X193150859Y-66076061D01*
X193174507Y-66164316D01*
X193174507Y-66255684D01*
X193150859Y-66343939D01*
X193105175Y-66423067D01*
X193040568Y-66487674D01*
X192961440Y-66533358D01*
X192873185Y-66557006D01*
X192781817Y-66557006D01*
X192693562Y-66533358D01*
X192614434Y-66487674D01*
X192549827Y-66423067D01*
X192504143Y-66343939D01*
X192480495Y-66255684D01*
X192480495Y-66164316D01*
X192504143Y-66076061D01*
X192549827Y-65996933D01*
X192614434Y-65932326D01*
X192693562Y-65886642D01*
X192781817Y-65862994D01*
X192873185Y-65862994D01*
X192961440Y-65886642D01*
G37*
G36*
X192961440Y-60106642D02*
G01*
X193040568Y-60152326D01*
X193105175Y-60216933D01*
X193150859Y-60296061D01*
X193174507Y-60384316D01*
X193174507Y-60475684D01*
X193150859Y-60563939D01*
X193105175Y-60643067D01*
X193040568Y-60707674D01*
X192961440Y-60753358D01*
X192873185Y-60777006D01*
X192781817Y-60777006D01*
X192693562Y-60753358D01*
X192614434Y-60707674D01*
X192549827Y-60643067D01*
X192504143Y-60563939D01*
X192480495Y-60475684D01*
X192480495Y-60384316D01*
X192504143Y-60296061D01*
X192549827Y-60216933D01*
X192614434Y-60152326D01*
X192693562Y-60106642D01*
X192781817Y-60082994D01*
X192873185Y-60082994D01*
X192961440Y-60106642D01*
G37*
G36*
X196809344Y-58400120D02*
G01*
X196865692Y-58402889D01*
X196872627Y-58404268D01*
X196885817Y-58405133D01*
X196911291Y-58411958D01*
X196981638Y-58425951D01*
X197014843Y-58439705D01*
X197037111Y-58445672D01*
X197057077Y-58457199D01*
X197090280Y-58470953D01*
X197149915Y-58510799D01*
X197172758Y-58523988D01*
X197179010Y-58530240D01*
X197188060Y-58536287D01*
X197271213Y-58619440D01*
X197277259Y-58628489D01*
X197283513Y-58634743D01*
X197296703Y-58657589D01*
X197336547Y-58717220D01*
X197350298Y-58750419D01*
X197361829Y-58770390D01*
X197367796Y-58792661D01*
X197381549Y-58825862D01*
X197395540Y-58896202D01*
X197402368Y-58921684D01*
X197402368Y-58930528D01*
X197404491Y-58941202D01*
X197404491Y-59058797D01*
X197402368Y-59069470D01*
X197402368Y-59078316D01*
X197395539Y-59103800D01*
X197381549Y-59174137D01*
X197367797Y-59207335D01*
X197361829Y-59229610D01*
X197350297Y-59249583D01*
X197336547Y-59282779D01*
X197296707Y-59342403D01*
X197283513Y-59365257D01*
X197277257Y-59371512D01*
X197271213Y-59380559D01*
X197188060Y-59463712D01*
X197179013Y-59469756D01*
X197172758Y-59476012D01*
X197149904Y-59489206D01*
X197090280Y-59529046D01*
X197057084Y-59542796D01*
X197037111Y-59554328D01*
X197014836Y-59560296D01*
X196981638Y-59574048D01*
X196911306Y-59588037D01*
X196885817Y-59594867D01*
X196872620Y-59595731D01*
X196865692Y-59597110D01*
X196809347Y-59599879D01*
X196807501Y-59600000D01*
X196806885Y-59600000D01*
X196208117Y-59600000D01*
X196207501Y-59600000D01*
X196205655Y-59599879D01*
X196149309Y-59597110D01*
X196142380Y-59595731D01*
X196129185Y-59594867D01*
X196103698Y-59588037D01*
X196033363Y-59574048D01*
X196000162Y-59560295D01*
X195977891Y-59554328D01*
X195957920Y-59542797D01*
X195924721Y-59529046D01*
X195865090Y-59489202D01*
X195842244Y-59476012D01*
X195835990Y-59469758D01*
X195826941Y-59463712D01*
X195743788Y-59380559D01*
X195737741Y-59371509D01*
X195731489Y-59365257D01*
X195718300Y-59342414D01*
X195678454Y-59282779D01*
X195664700Y-59249576D01*
X195653173Y-59229610D01*
X195647206Y-59207342D01*
X195633452Y-59174137D01*
X195619461Y-59103794D01*
X195612634Y-59078316D01*
X195612634Y-59069470D01*
X195610511Y-59058797D01*
X195610511Y-58941202D01*
X195612634Y-58930528D01*
X195612634Y-58921684D01*
X195619460Y-58896207D01*
X195633452Y-58825862D01*
X195647207Y-58792654D01*
X195653173Y-58770390D01*
X195664699Y-58750425D01*
X195678454Y-58717220D01*
X195718305Y-58657578D01*
X195731489Y-58634743D01*
X195737739Y-58628492D01*
X195743788Y-58619440D01*
X195826941Y-58536287D01*
X195835993Y-58530238D01*
X195842244Y-58523988D01*
X195865079Y-58510804D01*
X195924721Y-58470953D01*
X195957926Y-58457198D01*
X195977891Y-58445672D01*
X196000155Y-58439706D01*
X196033363Y-58425951D01*
X196103713Y-58411958D01*
X196129185Y-58405133D01*
X196142372Y-58404268D01*
X196149309Y-58402889D01*
X196205657Y-58400120D01*
X196207501Y-58400000D01*
X196807501Y-58400000D01*
X196809344Y-58400120D01*
G37*
G36*
X192819290Y-58454705D02*
G01*
X192957977Y-58491866D01*
X193082320Y-58563656D01*
X193183845Y-58665181D01*
X193255635Y-58789524D01*
X193292796Y-58928211D01*
X193292796Y-59071789D01*
X193255635Y-59210476D01*
X193183845Y-59334819D01*
X193082320Y-59436344D01*
X192957977Y-59508134D01*
X192819290Y-59545295D01*
X192747501Y-59550000D01*
X192746690Y-59550000D01*
X191848312Y-59550000D01*
X191847501Y-59550000D01*
X191775712Y-59545295D01*
X191637025Y-59508134D01*
X191512682Y-59436344D01*
X191411157Y-59334819D01*
X191339367Y-59210476D01*
X191302206Y-59071789D01*
X191302206Y-58928211D01*
X191339367Y-58789524D01*
X191411157Y-58665181D01*
X191512682Y-58563656D01*
X191637025Y-58491866D01*
X191775712Y-58454705D01*
X191847501Y-58450000D01*
X192747501Y-58450000D01*
X192819290Y-58454705D01*
G37*
G36*
X105722228Y-56724448D02*
G01*
X105867117Y-56784463D01*
X105997515Y-56871592D01*
X106108408Y-56982485D01*
X106195537Y-57112883D01*
X106255552Y-57257772D01*
X106286148Y-57411586D01*
X106286148Y-57568414D01*
X106255552Y-57722228D01*
X106195537Y-57867117D01*
X106108408Y-57997515D01*
X105997515Y-58108408D01*
X105867117Y-58195537D01*
X105722228Y-58255552D01*
X105568414Y-58286148D01*
X105411586Y-58286148D01*
X105257772Y-58255552D01*
X105112883Y-58195537D01*
X104982485Y-58108408D01*
X104871592Y-57997515D01*
X104784463Y-57867117D01*
X104724448Y-57722228D01*
X104693852Y-57568414D01*
X104693852Y-57411586D01*
X104724448Y-57257772D01*
X104784463Y-57112883D01*
X104871592Y-56982485D01*
X104982485Y-56871592D01*
X105112883Y-56784463D01*
X105257772Y-56724448D01*
X105411586Y-56693852D01*
X105568414Y-56693852D01*
X105722228Y-56724448D01*
G37*
M02*
