%TF.GenerationSoftware,KiCad,Pcbnew,10.0.3*%
%TF.CreationDate,2026-06-14T19:13:01-04:00*%
%TF.ProjectId,a-side,612d7369-6465-42e6-9b69-6361645f7063,rev?*%
%TF.SameCoordinates,Original*%
%TF.FileFunction,Copper,L2,Bot*%
%TF.FilePolarity,Positive*%
%FSLAX46Y46*%
G04 Gerber Fmt 4.6, Leading zero omitted, Abs format (unit mm)*
G04 Created by KiCad (PCBNEW 10.0.3) date 2026-06-14 19:13:01*
%MOMM*%
%LPD*%
G01*
G04 APERTURE LIST*
%TA.AperFunction,ComponentPad*%
%ADD10O,2.000000X1.100000*%
%TD*%
%TA.AperFunction,ComponentPad*%
%ADD11O,1.800000X1.200000*%
%TD*%
%TA.AperFunction,ComponentPad*%
%ADD12C,1.520000*%
%TD*%
%TA.AperFunction,ComponentPad*%
%ADD13C,3.200000*%
%TD*%
%TA.AperFunction,ViaPad*%
%ADD14C,0.600000*%
%TD*%
%TA.AperFunction,Conductor*%
%ADD15C,0.200000*%
%TD*%
G04 APERTURE END LIST*
D10*
%TO.P,USB3,13,EH_13*%
%TO.N,GND*%
X192297501Y-67640000D03*
D11*
X196507501Y-67640000D03*
D10*
%TO.P,USB3,14,EH_14*%
X192297501Y-59000000D03*
D11*
X196507501Y-59000000D03*
%TD*%
D12*
%TO.P,USB1,1,VCC_1*%
%TO.N,VBUS*%
X115010000Y-107240000D03*
%TO.P,USB1,2,D-_2*%
%TO.N,/USBA1_DM*%
X117510000Y-107240000D03*
%TO.P,USB1,3,D+_3*%
%TO.N,/USBA1_DP*%
X119510000Y-107240000D03*
%TO.P,USB1,4,GND_4*%
%TO.N,GND*%
X122010000Y-107240000D03*
D13*
%TO.P,USB1,5,SHLD_5*%
X111940000Y-109940000D03*
X125080000Y-109940000D03*
%TD*%
D12*
%TO.P,USB2,1,VCC_1*%
%TO.N,VBUS*%
X141400000Y-107240000D03*
%TO.P,USB2,2,D-_2*%
%TO.N,/USBA2_DM*%
X143900000Y-107240000D03*
%TO.P,USB2,3,D+_3*%
%TO.N,/USBA2_DP*%
X145900000Y-107240000D03*
%TO.P,USB2,4,GND_4*%
%TO.N,GND*%
X148400000Y-107240000D03*
D13*
%TO.P,USB2,5,SHLD_5*%
X138330000Y-109940000D03*
X151470000Y-109940000D03*
%TD*%
D14*
%TO.N,+3.3V*%
X138800000Y-73860000D03*
X173080000Y-88070000D03*
X180380000Y-87270000D03*
X178345903Y-88873112D03*
X132240000Y-69890000D03*
X160530000Y-80340000D03*
X176300000Y-89800000D03*
X160640000Y-76430000D03*
X183670000Y-88360000D03*
X132240000Y-67910000D03*
X169160000Y-74920000D03*
X148070000Y-80480000D03*
%TO.N,GND*%
X190490000Y-63540000D03*
X132380000Y-102740000D03*
X131940000Y-71540000D03*
X137420000Y-71440000D03*
X156980000Y-95270000D03*
X170750000Y-88370000D03*
X152770000Y-87620000D03*
X149500000Y-69550000D03*
X187300000Y-60600000D03*
X138320000Y-72390000D03*
X152870000Y-68940000D03*
X152530000Y-99630000D03*
X178630000Y-67490000D03*
X123450000Y-101810000D03*
X131370000Y-66940000D03*
X155170000Y-68110000D03*
X173970000Y-91420000D03*
X160000000Y-75090000D03*
X143460000Y-74430000D03*
X173110000Y-72970000D03*
X185550000Y-59790000D03*
X157830000Y-87520000D03*
X159910000Y-69240000D03*
X150730000Y-105000000D03*
X123450000Y-104010000D03*
X172400000Y-88380000D03*
X172090000Y-86990000D03*
X179220000Y-91420000D03*
X186930000Y-61560000D03*
X158490000Y-64670000D03*
X125890000Y-101780000D03*
X179230000Y-66120000D03*
%TO.N,/USB_DP*%
X186961446Y-67368554D03*
X187130686Y-65699314D03*
%TO.N,/USB_DM*%
X186020000Y-66770000D03*
X187950000Y-66290000D03*
%TO.N,VBUS*%
X149250000Y-74610000D03*
X155310000Y-69230000D03*
X154872975Y-74535937D03*
X158580000Y-69230000D03*
X146430608Y-71660608D03*
X179990000Y-68690000D03*
X179990000Y-64290000D03*
%TO.N,/SD2_DP*%
X147850000Y-67200500D03*
X148742716Y-66417284D03*
%TO.N,/USBA1_DM*%
X133990000Y-103980000D03*
X138980000Y-103190000D03*
%TO.N,/USBA1_DP*%
X139500000Y-103790000D03*
X127130000Y-101920000D03*
%TO.N,Net-(IC3-VDD)*%
X180560000Y-77860000D03*
X178940000Y-75680000D03*
%TO.N,/SD2_D1*%
X141380000Y-70374500D03*
X136090000Y-60520000D03*
%TD*%
%TO.N,+3.3V*%
D15*
X138800000Y-73860000D02*
X141450000Y-73860000D01*
X183406888Y-88873112D02*
X178776888Y-88873112D01*
X173080000Y-78840000D02*
X169160000Y-74920000D01*
X178345903Y-88873112D02*
X178776888Y-88873112D01*
X183670000Y-88610000D02*
X183406888Y-88873112D01*
X160640000Y-80230000D02*
X160530000Y-80340000D01*
X178209015Y-89010000D02*
X178345903Y-88873112D01*
X173080000Y-88070000D02*
X173080000Y-78840000D01*
X176300000Y-89340000D02*
X176630000Y-89010000D01*
X178776888Y-88873112D02*
X180380000Y-87270000D01*
X176300000Y-89800000D02*
X176300000Y-89340000D01*
X183670000Y-88360000D02*
X183670000Y-88610000D01*
X132240000Y-69890000D02*
X132240000Y-67910000D01*
X176630000Y-89010000D02*
X178209015Y-89010000D01*
X141450000Y-73860000D02*
X148070000Y-80480000D01*
X160640000Y-76430000D02*
X160640000Y-80230000D01*
%TO.N,GND*%
X157730000Y-87620000D02*
X157830000Y-87520000D01*
X172400000Y-87300000D02*
X172090000Y-86990000D01*
X172400000Y-88380000D02*
X172400000Y-87300000D01*
X150730000Y-105000000D02*
X150730000Y-101430000D01*
X152870000Y-68940000D02*
X150110000Y-68940000D01*
X186360000Y-60600000D02*
X187300000Y-60600000D01*
X179230000Y-66120000D02*
X179230000Y-66890000D01*
X158490000Y-64670000D02*
X158490000Y-64700000D01*
X155990000Y-64870000D02*
X155170000Y-65690000D01*
X192747501Y-59000000D02*
X192297501Y-59000000D01*
X152770000Y-87620000D02*
X157730000Y-87620000D01*
X161040000Y-70370000D02*
X159910000Y-69240000D01*
X173970000Y-91420000D02*
X179220000Y-91420000D01*
X140740000Y-72390000D02*
X142780000Y-74430000D01*
X131370000Y-70970000D02*
X131940000Y-71540000D01*
X155170000Y-65690000D02*
X155170000Y-68110000D01*
X150110000Y-68940000D02*
X149500000Y-69550000D01*
X158490000Y-64700000D02*
X158320000Y-64870000D01*
X193780000Y-60032499D02*
X192747501Y-59000000D01*
X161040000Y-74050000D02*
X161040000Y-70370000D01*
X193780000Y-60850000D02*
X193780000Y-60032499D01*
X192690000Y-61940000D02*
X193780000Y-60850000D01*
X192090000Y-61940000D02*
X192690000Y-61940000D01*
X150730000Y-101430000D02*
X152530000Y-99630000D01*
X179230000Y-66890000D02*
X178630000Y-67490000D01*
X190490000Y-63540000D02*
X192090000Y-61940000D01*
X123450000Y-104010000D02*
X123450000Y-101810000D01*
X158320000Y-64870000D02*
X155990000Y-64870000D01*
X138320000Y-72390000D02*
X140740000Y-72390000D01*
X185550000Y-59790000D02*
X186360000Y-60600000D01*
X142780000Y-74430000D02*
X143460000Y-74430000D01*
X160000000Y-75090000D02*
X161040000Y-74050000D01*
X159910000Y-66090000D02*
X158490000Y-64670000D01*
X131370000Y-66940000D02*
X131370000Y-70970000D01*
X159910000Y-69240000D02*
X159910000Y-66090000D01*
%TO.N,/USB_DP*%
X188450000Y-66082893D02*
X188450000Y-66497107D01*
X188066421Y-65699314D02*
X188450000Y-66082893D01*
X187578553Y-67368554D02*
X186961446Y-67368554D01*
X187130686Y-65699314D02*
X188066421Y-65699314D01*
X188450000Y-66497107D02*
X187578553Y-67368554D01*
%TO.N,/USB_DM*%
X186020000Y-66770000D02*
X187470000Y-66770000D01*
X187470000Y-66770000D02*
X187950000Y-66290000D01*
%TO.N,VBUS*%
X158580000Y-69230000D02*
X155310000Y-69230000D01*
X149250000Y-74610000D02*
X154798912Y-74610000D01*
X154798912Y-74610000D02*
X154872975Y-74535937D01*
X179990000Y-68690000D02*
X179990000Y-64290000D01*
X149250000Y-74480000D02*
X149250000Y-74610000D01*
X146430608Y-71660608D02*
X149250000Y-74480000D01*
%TO.N,/SD2_DP*%
X148429118Y-66621382D02*
X147850000Y-67200500D01*
X148538618Y-66621382D02*
X148429118Y-66621382D01*
X148742716Y-66417284D02*
X148538618Y-66621382D01*
%TO.N,/USBA1_DM*%
X138190000Y-103980000D02*
X138980000Y-103190000D01*
X133990000Y-103980000D02*
X138190000Y-103980000D01*
%TO.N,/USBA1_DP*%
X131760000Y-104520000D02*
X138770000Y-104520000D01*
X127820000Y-102610000D02*
X129850000Y-102610000D01*
X138770000Y-104520000D02*
X139500000Y-103790000D01*
X127130000Y-101920000D02*
X127820000Y-102610000D01*
X129850000Y-102610000D02*
X131760000Y-104520000D01*
%TO.N,Net-(IC3-VDD)*%
X178920000Y-77540000D02*
X180240000Y-77540000D01*
X180240000Y-77540000D02*
X180560000Y-77860000D01*
X178920000Y-75700000D02*
X178920000Y-77540000D01*
X178940000Y-75680000D02*
X178920000Y-75700000D01*
%TO.N,/SD2_D1*%
X141380000Y-70374500D02*
X141380000Y-65810000D01*
X141380000Y-65810000D02*
X136090000Y-60520000D01*
%TD*%
%TA.AperFunction,Conductor*%
%TO.N,GND*%
G36*
X197224418Y-50880816D02*
G01*
X197424561Y-50895130D01*
X197442063Y-50897647D01*
X197633795Y-50939355D01*
X197650760Y-50944336D01*
X197834611Y-51012909D01*
X197850694Y-51020253D01*
X197967495Y-51084032D01*
X198022908Y-51114290D01*
X198037791Y-51123855D01*
X198194864Y-51241438D01*
X198208235Y-51253024D01*
X198346975Y-51391764D01*
X198358561Y-51405135D01*
X198476144Y-51562208D01*
X198485709Y-51577091D01*
X198579743Y-51749300D01*
X198587093Y-51765394D01*
X198655661Y-51949234D01*
X198660645Y-51966209D01*
X198702351Y-52157931D01*
X198704869Y-52175442D01*
X198719184Y-52375580D01*
X198719500Y-52384427D01*
X198719500Y-118375572D01*
X198719184Y-118384419D01*
X198704869Y-118584557D01*
X198702351Y-118602068D01*
X198660645Y-118793790D01*
X198655661Y-118810765D01*
X198587093Y-118994605D01*
X198579743Y-119010699D01*
X198485709Y-119182908D01*
X198476144Y-119197791D01*
X198358561Y-119354864D01*
X198346975Y-119368235D01*
X198208235Y-119506975D01*
X198194864Y-119518561D01*
X198037791Y-119636144D01*
X198022908Y-119645709D01*
X197850699Y-119739743D01*
X197834605Y-119747093D01*
X197650765Y-119815661D01*
X197633790Y-119820645D01*
X197442068Y-119862351D01*
X197424557Y-119864869D01*
X197243779Y-119877799D01*
X197224417Y-119879184D01*
X197215572Y-119879500D01*
X101224428Y-119879500D01*
X101215582Y-119879184D01*
X101193622Y-119877613D01*
X101015442Y-119864869D01*
X100997931Y-119862351D01*
X100806209Y-119820645D01*
X100789234Y-119815661D01*
X100605394Y-119747093D01*
X100589300Y-119739743D01*
X100417091Y-119645709D01*
X100402208Y-119636144D01*
X100245135Y-119518561D01*
X100231764Y-119506975D01*
X100093024Y-119368235D01*
X100081438Y-119354864D01*
X99963855Y-119197791D01*
X99954290Y-119182908D01*
X99860256Y-119010699D01*
X99852909Y-118994611D01*
X99784336Y-118810760D01*
X99779354Y-118793790D01*
X99737648Y-118602068D01*
X99735130Y-118584556D01*
X99720816Y-118384418D01*
X99720500Y-118375572D01*
X99720500Y-115005258D01*
X103209500Y-115005258D01*
X103209500Y-115234741D01*
X103234446Y-115424215D01*
X103239452Y-115462238D01*
X103239453Y-115462240D01*
X103298842Y-115683887D01*
X103386650Y-115895876D01*
X103386657Y-115895890D01*
X103501392Y-116094617D01*
X103641081Y-116276661D01*
X103641089Y-116276670D01*
X103803330Y-116438911D01*
X103803338Y-116438918D01*
X103985382Y-116578607D01*
X103985385Y-116578608D01*
X103985388Y-116578611D01*
X104184112Y-116693344D01*
X104184117Y-116693346D01*
X104184123Y-116693349D01*
X104275480Y-116731190D01*
X104396113Y-116781158D01*
X104617762Y-116840548D01*
X104845266Y-116870500D01*
X104845273Y-116870500D01*
X105074727Y-116870500D01*
X105074734Y-116870500D01*
X105302238Y-116840548D01*
X105523887Y-116781158D01*
X105735888Y-116693344D01*
X105934612Y-116578611D01*
X106116661Y-116438919D01*
X106116665Y-116438914D01*
X106116670Y-116438911D01*
X106278911Y-116276670D01*
X106278914Y-116276665D01*
X106278919Y-116276661D01*
X106418611Y-116094612D01*
X106533344Y-115895888D01*
X106621158Y-115683887D01*
X106680548Y-115462238D01*
X106710500Y-115234734D01*
X106710500Y-115005266D01*
X106680548Y-114777762D01*
X106621158Y-114556113D01*
X106533344Y-114344112D01*
X106515913Y-114313920D01*
X165259499Y-114313920D01*
X165288340Y-114458907D01*
X165288343Y-114458917D01*
X165344912Y-114595488D01*
X165344919Y-114595501D01*
X165427048Y-114718415D01*
X165427051Y-114718419D01*
X165531580Y-114822948D01*
X165531584Y-114822951D01*
X165654498Y-114905080D01*
X165654511Y-114905087D01*
X165791082Y-114961656D01*
X165791087Y-114961658D01*
X165791091Y-114961658D01*
X165791092Y-114961659D01*
X165936079Y-114990500D01*
X165936082Y-114990500D01*
X166083920Y-114990500D01*
X166181462Y-114971096D01*
X166228913Y-114961658D01*
X166365495Y-114905084D01*
X166488416Y-114822951D01*
X166592951Y-114718416D01*
X166675084Y-114595495D01*
X166731658Y-114458913D01*
X166754494Y-114344112D01*
X166760500Y-114313920D01*
X189469499Y-114313920D01*
X189498340Y-114458907D01*
X189498343Y-114458917D01*
X189554912Y-114595488D01*
X189554919Y-114595501D01*
X189637048Y-114718415D01*
X189637051Y-114718419D01*
X189741580Y-114822948D01*
X189741584Y-114822951D01*
X189864498Y-114905080D01*
X189864511Y-114905087D01*
X190001082Y-114961656D01*
X190001087Y-114961658D01*
X190001091Y-114961658D01*
X190001092Y-114961659D01*
X190146079Y-114990500D01*
X190146082Y-114990500D01*
X190293920Y-114990500D01*
X190391462Y-114971096D01*
X190438913Y-114961658D01*
X190575495Y-114905084D01*
X190698416Y-114822951D01*
X190802951Y-114718416D01*
X190885084Y-114595495D01*
X190941658Y-114458913D01*
X190964494Y-114344112D01*
X190970500Y-114313920D01*
X190970500Y-114166079D01*
X190941659Y-114021092D01*
X190941658Y-114021091D01*
X190941658Y-114021087D01*
X190917738Y-113963338D01*
X190885087Y-113884511D01*
X190885080Y-113884498D01*
X190802951Y-113761584D01*
X190802948Y-113761580D01*
X190698419Y-113657051D01*
X190698415Y-113657048D01*
X190575501Y-113574919D01*
X190575488Y-113574912D01*
X190438917Y-113518343D01*
X190438907Y-113518340D01*
X190293920Y-113489500D01*
X190293918Y-113489500D01*
X190146082Y-113489500D01*
X190146080Y-113489500D01*
X190001092Y-113518340D01*
X190001082Y-113518343D01*
X189864511Y-113574912D01*
X189864498Y-113574919D01*
X189741584Y-113657048D01*
X189741580Y-113657051D01*
X189637051Y-113761580D01*
X189637048Y-113761584D01*
X189554919Y-113884498D01*
X189554912Y-113884511D01*
X189498343Y-114021082D01*
X189498340Y-114021092D01*
X189469500Y-114166079D01*
X189469500Y-114166082D01*
X189469500Y-114313918D01*
X189469500Y-114313920D01*
X189469499Y-114313920D01*
X166760500Y-114313920D01*
X166760500Y-114166079D01*
X166731659Y-114021092D01*
X166731658Y-114021091D01*
X166731658Y-114021087D01*
X166707738Y-113963338D01*
X166675087Y-113884511D01*
X166675080Y-113884498D01*
X166592951Y-113761584D01*
X166592948Y-113761580D01*
X166488419Y-113657051D01*
X166488415Y-113657048D01*
X166365501Y-113574919D01*
X166365488Y-113574912D01*
X166228917Y-113518343D01*
X166228907Y-113518340D01*
X166083920Y-113489500D01*
X166083918Y-113489500D01*
X165936082Y-113489500D01*
X165936080Y-113489500D01*
X165791092Y-113518340D01*
X165791082Y-113518343D01*
X165654511Y-113574912D01*
X165654498Y-113574919D01*
X165531584Y-113657048D01*
X165531580Y-113657051D01*
X165427051Y-113761580D01*
X165427048Y-113761584D01*
X165344919Y-113884498D01*
X165344912Y-113884511D01*
X165288343Y-114021082D01*
X165288340Y-114021092D01*
X165259500Y-114166079D01*
X165259500Y-114166082D01*
X165259500Y-114313918D01*
X165259500Y-114313920D01*
X165259499Y-114313920D01*
X106515913Y-114313920D01*
X106418611Y-114145388D01*
X106418608Y-114145385D01*
X106418607Y-114145382D01*
X106278918Y-113963338D01*
X106278911Y-113963330D01*
X106116670Y-113801089D01*
X106116661Y-113801081D01*
X105934617Y-113661392D01*
X105735890Y-113546657D01*
X105735876Y-113546650D01*
X105523887Y-113458842D01*
X105302238Y-113399452D01*
X105264215Y-113394446D01*
X105074741Y-113369500D01*
X105074734Y-113369500D01*
X104845266Y-113369500D01*
X104845258Y-113369500D01*
X104628715Y-113398009D01*
X104617762Y-113399452D01*
X104524076Y-113424554D01*
X104396112Y-113458842D01*
X104184123Y-113546650D01*
X104184109Y-113546657D01*
X103985382Y-113661392D01*
X103803338Y-113801081D01*
X103641081Y-113963338D01*
X103501392Y-114145382D01*
X103386657Y-114344109D01*
X103386650Y-114344123D01*
X103298842Y-114556112D01*
X103239453Y-114777759D01*
X103239451Y-114777770D01*
X103209500Y-115005258D01*
X99720500Y-115005258D01*
X99720500Y-109802358D01*
X109840000Y-109802358D01*
X109840000Y-110077641D01*
X109875930Y-110350565D01*
X109947180Y-110616471D01*
X110052520Y-110870787D01*
X110052527Y-110870802D01*
X110190163Y-111109196D01*
X110288758Y-111237686D01*
X110967904Y-110558539D01*
X111062822Y-110689181D01*
X111190819Y-110817178D01*
X111321458Y-110912094D01*
X110642312Y-111591240D01*
X110770804Y-111689836D01*
X111009197Y-111827472D01*
X111009212Y-111827479D01*
X111263528Y-111932819D01*
X111529434Y-112004069D01*
X111802358Y-112040000D01*
X112077642Y-112040000D01*
X112350565Y-112004069D01*
X112616471Y-111932819D01*
X112870787Y-111827479D01*
X112870802Y-111827472D01*
X113109194Y-111689836D01*
X113109211Y-111689825D01*
X113237686Y-111591241D01*
X113237686Y-111591239D01*
X112558541Y-110912094D01*
X112689181Y-110817178D01*
X112817178Y-110689181D01*
X112912094Y-110558541D01*
X113591239Y-111237686D01*
X113591241Y-111237686D01*
X113689825Y-111109211D01*
X113689836Y-111109194D01*
X113827472Y-110870802D01*
X113827479Y-110870787D01*
X113932819Y-110616471D01*
X114004069Y-110350565D01*
X114040000Y-110077641D01*
X114040000Y-109802358D01*
X122980000Y-109802358D01*
X122980000Y-110077641D01*
X123015930Y-110350565D01*
X123087180Y-110616471D01*
X123192520Y-110870787D01*
X123192527Y-110870802D01*
X123330163Y-111109196D01*
X123428758Y-111237686D01*
X124107904Y-110558539D01*
X124202822Y-110689181D01*
X124330819Y-110817178D01*
X124461458Y-110912094D01*
X123782312Y-111591240D01*
X123910804Y-111689836D01*
X124149197Y-111827472D01*
X124149212Y-111827479D01*
X124403528Y-111932819D01*
X124669434Y-112004069D01*
X124942358Y-112040000D01*
X125217642Y-112040000D01*
X125490565Y-112004069D01*
X125756471Y-111932819D01*
X126010787Y-111827479D01*
X126010802Y-111827472D01*
X126249194Y-111689836D01*
X126249211Y-111689825D01*
X126377686Y-111591241D01*
X126377686Y-111591239D01*
X125698541Y-110912094D01*
X125829181Y-110817178D01*
X125957178Y-110689181D01*
X126052094Y-110558541D01*
X126731239Y-111237686D01*
X126731241Y-111237686D01*
X126829825Y-111109211D01*
X126829836Y-111109194D01*
X126967472Y-110870802D01*
X126967479Y-110870787D01*
X127072819Y-110616471D01*
X127144069Y-110350565D01*
X127180000Y-110077641D01*
X127180000Y-109802358D01*
X136230000Y-109802358D01*
X136230000Y-110077641D01*
X136265930Y-110350565D01*
X136337180Y-110616471D01*
X136442520Y-110870787D01*
X136442527Y-110870802D01*
X136580163Y-111109196D01*
X136678758Y-111237686D01*
X137357904Y-110558540D01*
X137452822Y-110689181D01*
X137580819Y-110817178D01*
X137711458Y-110912094D01*
X137032312Y-111591240D01*
X137160804Y-111689836D01*
X137399197Y-111827472D01*
X137399212Y-111827479D01*
X137653528Y-111932819D01*
X137919434Y-112004069D01*
X138192358Y-112040000D01*
X138467642Y-112040000D01*
X138740565Y-112004069D01*
X139006471Y-111932819D01*
X139260787Y-111827479D01*
X139260802Y-111827472D01*
X139499194Y-111689836D01*
X139499211Y-111689825D01*
X139627686Y-111591241D01*
X139627686Y-111591239D01*
X138948541Y-110912094D01*
X139079181Y-110817178D01*
X139207178Y-110689181D01*
X139302094Y-110558541D01*
X139981239Y-111237686D01*
X139981241Y-111237686D01*
X140079825Y-111109211D01*
X140079836Y-111109194D01*
X140217472Y-110870802D01*
X140217479Y-110870787D01*
X140322819Y-110616471D01*
X140394069Y-110350565D01*
X140430000Y-110077641D01*
X140430000Y-109802358D01*
X149370000Y-109802358D01*
X149370000Y-110077641D01*
X149405930Y-110350565D01*
X149477180Y-110616471D01*
X149582520Y-110870787D01*
X149582527Y-110870802D01*
X149720163Y-111109196D01*
X149818758Y-111237686D01*
X150497904Y-110558540D01*
X150592822Y-110689181D01*
X150720819Y-110817178D01*
X150851458Y-110912094D01*
X150172312Y-111591240D01*
X150300804Y-111689836D01*
X150539197Y-111827472D01*
X150539212Y-111827479D01*
X150793528Y-111932819D01*
X151059434Y-112004069D01*
X151332358Y-112040000D01*
X151607642Y-112040000D01*
X151880565Y-112004069D01*
X152146471Y-111932819D01*
X152400787Y-111827479D01*
X152400802Y-111827472D01*
X152639194Y-111689836D01*
X152639211Y-111689825D01*
X152767686Y-111591241D01*
X152767686Y-111591239D01*
X152088541Y-110912094D01*
X152219181Y-110817178D01*
X152347178Y-110689181D01*
X152442094Y-110558541D01*
X153121239Y-111237686D01*
X153121241Y-111237686D01*
X153219825Y-111109211D01*
X153219836Y-111109194D01*
X153357472Y-110870802D01*
X153357479Y-110870787D01*
X153462819Y-110616471D01*
X153534069Y-110350565D01*
X153570000Y-110077641D01*
X153570000Y-109802358D01*
X153534069Y-109529434D01*
X153462819Y-109263528D01*
X153357479Y-109009212D01*
X153357472Y-109009197D01*
X153219836Y-108770804D01*
X153121240Y-108642312D01*
X152442094Y-109321458D01*
X152347178Y-109190819D01*
X152219181Y-109062822D01*
X152088540Y-108967905D01*
X152767686Y-108288758D01*
X152639196Y-108190163D01*
X152400802Y-108052527D01*
X152400787Y-108052520D01*
X152146471Y-107947180D01*
X151880565Y-107875930D01*
X151607642Y-107840000D01*
X151332358Y-107840000D01*
X151059434Y-107875930D01*
X150793528Y-107947180D01*
X150539212Y-108052520D01*
X150539197Y-108052527D01*
X150300799Y-108190166D01*
X150172312Y-108288757D01*
X150172312Y-108288758D01*
X150851459Y-108967905D01*
X150720819Y-109062822D01*
X150592822Y-109190819D01*
X150497905Y-109321459D01*
X149818758Y-108642312D01*
X149818757Y-108642312D01*
X149720166Y-108770799D01*
X149582527Y-109009197D01*
X149582520Y-109009212D01*
X149477180Y-109263528D01*
X149405930Y-109529434D01*
X149370000Y-109802358D01*
X140430000Y-109802358D01*
X140394069Y-109529434D01*
X140322819Y-109263528D01*
X140217479Y-109009212D01*
X140217472Y-109009197D01*
X140079836Y-108770804D01*
X139981240Y-108642312D01*
X139302094Y-109321458D01*
X139207178Y-109190819D01*
X139079181Y-109062822D01*
X138948540Y-108967905D01*
X139627686Y-108288758D01*
X139499196Y-108190163D01*
X139260802Y-108052527D01*
X139260787Y-108052520D01*
X139006471Y-107947180D01*
X138740565Y-107875930D01*
X138467642Y-107840000D01*
X138192358Y-107840000D01*
X137919434Y-107875930D01*
X137653528Y-107947180D01*
X137399212Y-108052520D01*
X137399197Y-108052527D01*
X137160799Y-108190166D01*
X137032312Y-108288757D01*
X137032312Y-108288758D01*
X137711459Y-108967905D01*
X137580819Y-109062822D01*
X137452822Y-109190819D01*
X137357905Y-109321459D01*
X136678758Y-108642312D01*
X136678757Y-108642312D01*
X136580166Y-108770799D01*
X136442527Y-109009197D01*
X136442520Y-109009212D01*
X136337180Y-109263528D01*
X136265930Y-109529434D01*
X136230000Y-109802358D01*
X127180000Y-109802358D01*
X127144069Y-109529434D01*
X127072819Y-109263528D01*
X126967479Y-109009212D01*
X126967472Y-109009197D01*
X126829836Y-108770804D01*
X126731240Y-108642312D01*
X126052094Y-109321458D01*
X125957178Y-109190819D01*
X125829181Y-109062822D01*
X125698540Y-108967905D01*
X126377686Y-108288758D01*
X126249196Y-108190163D01*
X126010802Y-108052527D01*
X126010787Y-108052520D01*
X125756471Y-107947180D01*
X125490565Y-107875930D01*
X125217642Y-107840000D01*
X124942358Y-107840000D01*
X124669434Y-107875930D01*
X124403528Y-107947180D01*
X124149212Y-108052520D01*
X124149197Y-108052527D01*
X123910799Y-108190166D01*
X123782312Y-108288757D01*
X123782312Y-108288758D01*
X124461459Y-108967905D01*
X124330819Y-109062822D01*
X124202822Y-109190819D01*
X124107905Y-109321459D01*
X123428758Y-108642312D01*
X123428757Y-108642312D01*
X123330166Y-108770799D01*
X123192527Y-109009197D01*
X123192520Y-109009212D01*
X123087180Y-109263528D01*
X123015930Y-109529434D01*
X122980000Y-109802358D01*
X114040000Y-109802358D01*
X114004069Y-109529434D01*
X113932819Y-109263528D01*
X113827479Y-109009212D01*
X113827472Y-109009197D01*
X113689836Y-108770804D01*
X113591240Y-108642312D01*
X112912094Y-109321458D01*
X112817178Y-109190819D01*
X112689181Y-109062822D01*
X112558540Y-108967905D01*
X113237686Y-108288758D01*
X113109196Y-108190163D01*
X112870802Y-108052527D01*
X112870787Y-108052520D01*
X112616471Y-107947180D01*
X112350565Y-107875930D01*
X112077642Y-107840000D01*
X111802358Y-107840000D01*
X111529434Y-107875930D01*
X111263528Y-107947180D01*
X111009212Y-108052520D01*
X111009197Y-108052527D01*
X110770799Y-108190166D01*
X110642312Y-108288757D01*
X110642312Y-108288758D01*
X111321459Y-108967905D01*
X111190819Y-109062822D01*
X111062822Y-109190819D01*
X110967905Y-109321459D01*
X110288758Y-108642312D01*
X110288757Y-108642312D01*
X110190166Y-108770799D01*
X110052527Y-109009197D01*
X110052520Y-109009212D01*
X109947180Y-109263528D01*
X109875930Y-109529434D01*
X109840000Y-109802358D01*
X99720500Y-109802358D01*
X99720500Y-107155243D01*
X114149500Y-107155243D01*
X114149500Y-107324756D01*
X114182566Y-107490991D01*
X114182569Y-107491003D01*
X114247431Y-107647595D01*
X114247432Y-107647597D01*
X114341605Y-107788536D01*
X114341608Y-107788540D01*
X114461459Y-107908391D01*
X114461463Y-107908394D01*
X114602400Y-108002566D01*
X114602401Y-108002566D01*
X114602402Y-108002567D01*
X114602404Y-108002568D01*
X114723000Y-108052520D01*
X114759001Y-108067432D01*
X114925243Y-108100499D01*
X114925247Y-108100500D01*
X114925248Y-108100500D01*
X115094753Y-108100500D01*
X115094754Y-108100499D01*
X115260999Y-108067432D01*
X115417600Y-108002566D01*
X115558537Y-107908394D01*
X115678394Y-107788537D01*
X115772566Y-107647600D01*
X115837432Y-107490999D01*
X115870500Y-107324752D01*
X115870500Y-107155248D01*
X115870499Y-107155243D01*
X116649500Y-107155243D01*
X116649500Y-107324756D01*
X116682566Y-107490991D01*
X116682569Y-107491003D01*
X116747431Y-107647595D01*
X116747432Y-107647597D01*
X116841605Y-107788536D01*
X116841608Y-107788540D01*
X116961459Y-107908391D01*
X116961463Y-107908394D01*
X117102400Y-108002566D01*
X117102401Y-108002566D01*
X117102402Y-108002567D01*
X117102404Y-108002568D01*
X117223000Y-108052520D01*
X117259001Y-108067432D01*
X117425243Y-108100499D01*
X117425247Y-108100500D01*
X117425248Y-108100500D01*
X117594753Y-108100500D01*
X117594754Y-108100499D01*
X117760999Y-108067432D01*
X117917600Y-108002566D01*
X118058537Y-107908394D01*
X118178394Y-107788537D01*
X118272566Y-107647600D01*
X118337432Y-107490999D01*
X118370500Y-107324752D01*
X118370500Y-107155248D01*
X118370499Y-107155243D01*
X118649500Y-107155243D01*
X118649500Y-107324756D01*
X118682566Y-107490991D01*
X118682569Y-107491003D01*
X118747431Y-107647595D01*
X118747432Y-107647597D01*
X118841605Y-107788536D01*
X118841608Y-107788540D01*
X118961459Y-107908391D01*
X118961463Y-107908394D01*
X119102400Y-108002566D01*
X119102401Y-108002566D01*
X119102402Y-108002567D01*
X119102404Y-108002568D01*
X119223000Y-108052520D01*
X119259001Y-108067432D01*
X119425243Y-108100499D01*
X119425247Y-108100500D01*
X119425248Y-108100500D01*
X119594753Y-108100500D01*
X119594754Y-108100499D01*
X119760999Y-108067432D01*
X119917600Y-108002566D01*
X120058537Y-107908394D01*
X120178394Y-107788537D01*
X120272566Y-107647600D01*
X120337432Y-107490999D01*
X120370500Y-107324752D01*
X120370500Y-107155248D01*
X120370500Y-107155247D01*
X120370499Y-107155239D01*
X120367634Y-107140836D01*
X120750000Y-107140836D01*
X120750000Y-107339163D01*
X120781026Y-107535052D01*
X120842310Y-107723669D01*
X120842311Y-107723672D01*
X120932350Y-107900380D01*
X120959161Y-107937283D01*
X121559701Y-107336743D01*
X121581354Y-107417551D01*
X121641913Y-107522443D01*
X121727557Y-107608087D01*
X121832449Y-107668646D01*
X121913254Y-107690297D01*
X121312714Y-108290837D01*
X121312715Y-108290838D01*
X121349612Y-108317645D01*
X121526327Y-108407688D01*
X121526330Y-108407689D01*
X121714947Y-108468973D01*
X121910837Y-108500000D01*
X122109163Y-108500000D01*
X122305052Y-108468973D01*
X122493669Y-108407689D01*
X122493672Y-108407688D01*
X122670382Y-108317648D01*
X122707283Y-108290838D01*
X122707283Y-108290836D01*
X122106745Y-107690297D01*
X122187551Y-107668646D01*
X122292443Y-107608087D01*
X122378087Y-107522443D01*
X122438646Y-107417551D01*
X122460297Y-107336745D01*
X123060836Y-107937284D01*
X123060837Y-107937283D01*
X123087648Y-107900382D01*
X123177688Y-107723672D01*
X123177689Y-107723669D01*
X123238973Y-107535052D01*
X123270000Y-107339163D01*
X123270000Y-107155243D01*
X140539500Y-107155243D01*
X140539500Y-107324756D01*
X140572566Y-107490991D01*
X140572569Y-107491003D01*
X140637431Y-107647595D01*
X140637432Y-107647597D01*
X140731605Y-107788536D01*
X140731608Y-107788540D01*
X140851459Y-107908391D01*
X140851463Y-107908394D01*
X140992400Y-108002566D01*
X140992401Y-108002566D01*
X140992402Y-108002567D01*
X140992404Y-108002568D01*
X141113000Y-108052520D01*
X141149001Y-108067432D01*
X141315243Y-108100499D01*
X141315247Y-108100500D01*
X141315248Y-108100500D01*
X141484753Y-108100500D01*
X141484754Y-108100499D01*
X141650999Y-108067432D01*
X141807600Y-108002566D01*
X141948537Y-107908394D01*
X142068394Y-107788537D01*
X142162566Y-107647600D01*
X142227432Y-107490999D01*
X142260500Y-107324752D01*
X142260500Y-107155248D01*
X142260499Y-107155243D01*
X143039500Y-107155243D01*
X143039500Y-107324756D01*
X143072566Y-107490991D01*
X143072569Y-107491003D01*
X143137431Y-107647595D01*
X143137432Y-107647597D01*
X143231605Y-107788536D01*
X143231608Y-107788540D01*
X143351459Y-107908391D01*
X143351463Y-107908394D01*
X143492400Y-108002566D01*
X143492401Y-108002566D01*
X143492402Y-108002567D01*
X143492404Y-108002568D01*
X143613000Y-108052520D01*
X143649001Y-108067432D01*
X143815243Y-108100499D01*
X143815247Y-108100500D01*
X143815248Y-108100500D01*
X143984753Y-108100500D01*
X143984754Y-108100499D01*
X144150999Y-108067432D01*
X144307600Y-108002566D01*
X144448537Y-107908394D01*
X144568394Y-107788537D01*
X144662566Y-107647600D01*
X144727432Y-107490999D01*
X144760500Y-107324752D01*
X144760500Y-107155248D01*
X144760499Y-107155243D01*
X145039500Y-107155243D01*
X145039500Y-107324756D01*
X145072566Y-107490991D01*
X145072569Y-107491003D01*
X145137431Y-107647595D01*
X145137432Y-107647597D01*
X145231605Y-107788536D01*
X145231608Y-107788540D01*
X145351459Y-107908391D01*
X145351463Y-107908394D01*
X145492400Y-108002566D01*
X145492401Y-108002566D01*
X145492402Y-108002567D01*
X145492404Y-108002568D01*
X145613000Y-108052520D01*
X145649001Y-108067432D01*
X145815243Y-108100499D01*
X145815247Y-108100500D01*
X145815248Y-108100500D01*
X145984753Y-108100500D01*
X145984754Y-108100499D01*
X146150999Y-108067432D01*
X146307600Y-108002566D01*
X146448537Y-107908394D01*
X146568394Y-107788537D01*
X146662566Y-107647600D01*
X146727432Y-107490999D01*
X146760500Y-107324752D01*
X146760500Y-107155248D01*
X146760500Y-107155247D01*
X146760499Y-107155239D01*
X146757634Y-107140836D01*
X147140000Y-107140836D01*
X147140000Y-107339163D01*
X147171026Y-107535052D01*
X147232310Y-107723669D01*
X147232311Y-107723672D01*
X147322350Y-107900380D01*
X147349161Y-107937283D01*
X147949701Y-107336743D01*
X147971354Y-107417551D01*
X148031913Y-107522443D01*
X148117557Y-107608087D01*
X148222449Y-107668646D01*
X148303254Y-107690297D01*
X147702714Y-108290837D01*
X147702715Y-108290838D01*
X147739612Y-108317645D01*
X147916327Y-108407688D01*
X147916330Y-108407689D01*
X148104947Y-108468973D01*
X148300837Y-108500000D01*
X148499163Y-108500000D01*
X148695052Y-108468973D01*
X148883669Y-108407689D01*
X148883672Y-108407688D01*
X149060382Y-108317648D01*
X149097283Y-108290838D01*
X149097283Y-108290836D01*
X148496745Y-107690297D01*
X148577551Y-107668646D01*
X148682443Y-107608087D01*
X148768087Y-107522443D01*
X148828646Y-107417551D01*
X148850297Y-107336745D01*
X149450836Y-107937284D01*
X149450837Y-107937283D01*
X149477648Y-107900382D01*
X149567688Y-107723672D01*
X149567689Y-107723669D01*
X149628973Y-107535052D01*
X149660000Y-107339163D01*
X149660000Y-107140836D01*
X149628973Y-106944947D01*
X149567689Y-106756330D01*
X149567688Y-106756327D01*
X149477645Y-106579612D01*
X149450838Y-106542715D01*
X149450837Y-106542714D01*
X148850297Y-107143254D01*
X148828646Y-107062449D01*
X148768087Y-106957557D01*
X148682443Y-106871913D01*
X148577551Y-106811354D01*
X148496744Y-106789701D01*
X149097283Y-106189161D01*
X149060380Y-106162350D01*
X148883672Y-106072311D01*
X148883669Y-106072310D01*
X148695052Y-106011026D01*
X148499163Y-105980000D01*
X148300837Y-105980000D01*
X148104947Y-106011026D01*
X147916330Y-106072310D01*
X147916322Y-106072313D01*
X147739615Y-106162352D01*
X147702715Y-106189160D01*
X147702715Y-106189161D01*
X148303255Y-106789701D01*
X148222449Y-106811354D01*
X148117557Y-106871913D01*
X148031913Y-106957557D01*
X147971354Y-107062449D01*
X147949701Y-107143255D01*
X147349161Y-106542715D01*
X147349160Y-106542715D01*
X147322352Y-106579615D01*
X147232313Y-106756322D01*
X147232310Y-106756330D01*
X147171026Y-106944947D01*
X147140000Y-107140836D01*
X146757634Y-107140836D01*
X146727433Y-106989008D01*
X146727432Y-106989001D01*
X146709184Y-106944947D01*
X146662568Y-106832404D01*
X146662567Y-106832402D01*
X146568394Y-106691463D01*
X146568391Y-106691459D01*
X146448540Y-106571608D01*
X146448536Y-106571605D01*
X146307597Y-106477432D01*
X146307595Y-106477431D01*
X146151003Y-106412569D01*
X146150991Y-106412566D01*
X145984756Y-106379500D01*
X145984752Y-106379500D01*
X145815248Y-106379500D01*
X145815243Y-106379500D01*
X145649008Y-106412566D01*
X145648996Y-106412569D01*
X145492404Y-106477431D01*
X145492402Y-106477432D01*
X145351463Y-106571605D01*
X145351459Y-106571608D01*
X145231608Y-106691459D01*
X145231605Y-106691463D01*
X145137432Y-106832402D01*
X145137431Y-106832404D01*
X145072569Y-106988996D01*
X145072566Y-106989008D01*
X145039500Y-107155243D01*
X144760499Y-107155243D01*
X144727432Y-106989001D01*
X144709184Y-106944947D01*
X144662568Y-106832404D01*
X144662567Y-106832402D01*
X144568394Y-106691463D01*
X144568391Y-106691459D01*
X144448540Y-106571608D01*
X144448536Y-106571605D01*
X144307597Y-106477432D01*
X144307595Y-106477431D01*
X144151003Y-106412569D01*
X144150991Y-106412566D01*
X143984756Y-106379500D01*
X143984752Y-106379500D01*
X143815248Y-106379500D01*
X143815243Y-106379500D01*
X143649008Y-106412566D01*
X143648996Y-106412569D01*
X143492404Y-106477431D01*
X143492402Y-106477432D01*
X143351463Y-106571605D01*
X143351459Y-106571608D01*
X143231608Y-106691459D01*
X143231605Y-106691463D01*
X143137432Y-106832402D01*
X143137431Y-106832404D01*
X143072569Y-106988996D01*
X143072566Y-106989008D01*
X143039500Y-107155243D01*
X142260499Y-107155243D01*
X142227432Y-106989001D01*
X142209184Y-106944947D01*
X142162568Y-106832404D01*
X142162567Y-106832402D01*
X142068394Y-106691463D01*
X142068391Y-106691459D01*
X141948540Y-106571608D01*
X141948536Y-106571605D01*
X141807597Y-106477432D01*
X141807595Y-106477431D01*
X141651003Y-106412569D01*
X141650991Y-106412566D01*
X141484756Y-106379500D01*
X141484752Y-106379500D01*
X141315248Y-106379500D01*
X141315243Y-106379500D01*
X141149008Y-106412566D01*
X141148996Y-106412569D01*
X140992404Y-106477431D01*
X140992402Y-106477432D01*
X140851463Y-106571605D01*
X140851459Y-106571608D01*
X140731608Y-106691459D01*
X140731605Y-106691463D01*
X140637432Y-106832402D01*
X140637431Y-106832404D01*
X140572569Y-106988996D01*
X140572566Y-106989008D01*
X140539500Y-107155243D01*
X123270000Y-107155243D01*
X123270000Y-107140836D01*
X123238973Y-106944947D01*
X123177689Y-106756330D01*
X123177688Y-106756327D01*
X123087645Y-106579612D01*
X123060838Y-106542715D01*
X123060837Y-106542714D01*
X122460297Y-107143254D01*
X122438646Y-107062449D01*
X122378087Y-106957557D01*
X122292443Y-106871913D01*
X122187551Y-106811354D01*
X122106744Y-106789701D01*
X122707283Y-106189161D01*
X122670380Y-106162350D01*
X122493672Y-106072311D01*
X122493669Y-106072310D01*
X122305052Y-106011026D01*
X122109163Y-105980000D01*
X121910837Y-105980000D01*
X121714947Y-106011026D01*
X121526330Y-106072310D01*
X121526322Y-106072313D01*
X121349615Y-106162352D01*
X121312715Y-106189160D01*
X121312715Y-106189161D01*
X121913255Y-106789701D01*
X121832449Y-106811354D01*
X121727557Y-106871913D01*
X121641913Y-106957557D01*
X121581354Y-107062449D01*
X121559701Y-107143255D01*
X120959161Y-106542715D01*
X120959160Y-106542715D01*
X120932352Y-106579615D01*
X120842313Y-106756322D01*
X120842310Y-106756330D01*
X120781026Y-106944947D01*
X120750000Y-107140836D01*
X120367634Y-107140836D01*
X120337433Y-106989008D01*
X120337432Y-106989001D01*
X120319184Y-106944947D01*
X120272568Y-106832404D01*
X120272567Y-106832402D01*
X120178394Y-106691463D01*
X120178391Y-106691459D01*
X120058540Y-106571608D01*
X120058536Y-106571605D01*
X119917597Y-106477432D01*
X119917595Y-106477431D01*
X119761003Y-106412569D01*
X119760991Y-106412566D01*
X119594756Y-106379500D01*
X119594752Y-106379500D01*
X119425248Y-106379500D01*
X119425243Y-106379500D01*
X119259008Y-106412566D01*
X119258996Y-106412569D01*
X119102404Y-106477431D01*
X119102402Y-106477432D01*
X118961463Y-106571605D01*
X118961459Y-106571608D01*
X118841608Y-106691459D01*
X118841605Y-106691463D01*
X118747432Y-106832402D01*
X118747431Y-106832404D01*
X118682569Y-106988996D01*
X118682566Y-106989008D01*
X118649500Y-107155243D01*
X118370499Y-107155243D01*
X118337432Y-106989001D01*
X118319184Y-106944947D01*
X118272568Y-106832404D01*
X118272567Y-106832402D01*
X118178394Y-106691463D01*
X118178391Y-106691459D01*
X118058540Y-106571608D01*
X118058536Y-106571605D01*
X117917597Y-106477432D01*
X117917595Y-106477431D01*
X117761003Y-106412569D01*
X117760991Y-106412566D01*
X117594756Y-106379500D01*
X117594752Y-106379500D01*
X117425248Y-106379500D01*
X117425243Y-106379500D01*
X117259008Y-106412566D01*
X117258996Y-106412569D01*
X117102404Y-106477431D01*
X117102402Y-106477432D01*
X116961463Y-106571605D01*
X116961459Y-106571608D01*
X116841608Y-106691459D01*
X116841605Y-106691463D01*
X116747432Y-106832402D01*
X116747431Y-106832404D01*
X116682569Y-106988996D01*
X116682566Y-106989008D01*
X116649500Y-107155243D01*
X115870499Y-107155243D01*
X115837432Y-106989001D01*
X115819184Y-106944947D01*
X115772568Y-106832404D01*
X115772567Y-106832402D01*
X115678394Y-106691463D01*
X115678391Y-106691459D01*
X115558540Y-106571608D01*
X115558536Y-106571605D01*
X115417597Y-106477432D01*
X115417595Y-106477431D01*
X115261003Y-106412569D01*
X115260991Y-106412566D01*
X115094756Y-106379500D01*
X115094752Y-106379500D01*
X114925248Y-106379500D01*
X114925243Y-106379500D01*
X114759008Y-106412566D01*
X114758996Y-106412569D01*
X114602404Y-106477431D01*
X114602402Y-106477432D01*
X114461463Y-106571605D01*
X114461459Y-106571608D01*
X114341608Y-106691459D01*
X114341605Y-106691463D01*
X114247432Y-106832402D01*
X114247431Y-106832404D01*
X114182569Y-106988996D01*
X114182566Y-106989008D01*
X114149500Y-107155243D01*
X99720500Y-107155243D01*
X99720500Y-101867273D01*
X126729500Y-101867273D01*
X126729500Y-101972727D01*
X126756793Y-102074587D01*
X126809520Y-102165913D01*
X126884087Y-102240480D01*
X126975413Y-102293207D01*
X127077273Y-102320500D01*
X127077275Y-102320500D01*
X127190854Y-102320500D01*
X127190854Y-102322883D01*
X127247879Y-102331772D01*
X127282718Y-102356268D01*
X127642953Y-102716502D01*
X127642956Y-102716506D01*
X127650024Y-102723574D01*
X127706426Y-102779976D01*
X127780118Y-102810500D01*
X127859882Y-102810500D01*
X129715588Y-102810500D01*
X129782627Y-102830185D01*
X129803269Y-102846819D01*
X131646426Y-104689976D01*
X131720118Y-104720500D01*
X131720120Y-104720500D01*
X138809880Y-104720500D01*
X138809882Y-104720500D01*
X138883574Y-104689976D01*
X139347281Y-104226267D01*
X139408604Y-104192783D01*
X139439146Y-104191510D01*
X139439146Y-104190500D01*
X139552725Y-104190500D01*
X139552727Y-104190500D01*
X139654587Y-104163207D01*
X139745913Y-104110480D01*
X139820480Y-104035913D01*
X139873207Y-103944587D01*
X139900500Y-103842727D01*
X139900500Y-103737273D01*
X139873207Y-103635413D01*
X139820480Y-103544087D01*
X139745913Y-103469520D01*
X139654587Y-103416793D01*
X139552727Y-103389500D01*
X139502572Y-103389500D01*
X139435533Y-103369815D01*
X139389778Y-103317011D01*
X139379633Y-103249316D01*
X139380500Y-103242729D01*
X139380500Y-103137275D01*
X139380500Y-103137273D01*
X139353207Y-103035413D01*
X139300480Y-102944087D01*
X139225913Y-102869520D01*
X139134587Y-102816793D01*
X139032727Y-102789500D01*
X138927273Y-102789500D01*
X138825413Y-102816793D01*
X138825410Y-102816794D01*
X138734085Y-102869521D01*
X138659521Y-102944085D01*
X138606794Y-103035410D01*
X138606793Y-103035413D01*
X138579500Y-103137273D01*
X138579500Y-103250854D01*
X138577120Y-103250854D01*
X138568216Y-103307901D01*
X138543731Y-103342717D01*
X138143269Y-103743181D01*
X138081946Y-103776666D01*
X138055588Y-103779500D01*
X134406476Y-103779500D01*
X134339437Y-103759815D01*
X134316941Y-103739119D01*
X134316227Y-103739834D01*
X134235914Y-103659521D01*
X134235913Y-103659520D01*
X134144587Y-103606793D01*
X134042727Y-103579500D01*
X133937273Y-103579500D01*
X133835413Y-103606793D01*
X133835410Y-103606794D01*
X133744085Y-103659521D01*
X133669521Y-103734085D01*
X133616794Y-103825410D01*
X133616793Y-103825413D01*
X133589500Y-103927273D01*
X133589500Y-104032727D01*
X133611357Y-104114297D01*
X133616793Y-104134586D01*
X133619904Y-104142097D01*
X133618402Y-104142718D01*
X133632637Y-104201406D01*
X133609782Y-104267432D01*
X133554859Y-104310620D01*
X133508778Y-104319500D01*
X131894412Y-104319500D01*
X131827373Y-104299815D01*
X131806731Y-104283181D01*
X129963574Y-102440024D01*
X129889883Y-102409500D01*
X129889882Y-102409500D01*
X127954411Y-102409500D01*
X127887372Y-102389815D01*
X127866730Y-102373181D01*
X127566268Y-102072718D01*
X127532783Y-102011395D01*
X127531511Y-101980854D01*
X127530500Y-101980854D01*
X127530500Y-101867275D01*
X127530500Y-101867273D01*
X127503207Y-101765413D01*
X127450480Y-101674087D01*
X127375913Y-101599520D01*
X127284587Y-101546793D01*
X127182727Y-101519500D01*
X127077273Y-101519500D01*
X126975413Y-101546793D01*
X126975410Y-101546794D01*
X126884085Y-101599521D01*
X126809521Y-101674085D01*
X126756794Y-101765410D01*
X126756793Y-101765413D01*
X126729500Y-101867273D01*
X99720500Y-101867273D01*
X99720500Y-96485258D01*
X102929500Y-96485258D01*
X102929500Y-96714741D01*
X102954446Y-96904215D01*
X102959452Y-96942238D01*
X102959453Y-96942240D01*
X103018842Y-97163887D01*
X103106650Y-97375876D01*
X103106657Y-97375890D01*
X103221392Y-97574617D01*
X103361081Y-97756661D01*
X103361089Y-97756670D01*
X103523330Y-97918911D01*
X103523338Y-97918918D01*
X103705382Y-98058607D01*
X103705385Y-98058608D01*
X103705388Y-98058611D01*
X103904112Y-98173344D01*
X103904117Y-98173346D01*
X103904123Y-98173349D01*
X103995480Y-98211190D01*
X104116113Y-98261158D01*
X104337762Y-98320548D01*
X104565266Y-98350500D01*
X104565273Y-98350500D01*
X104794727Y-98350500D01*
X104794734Y-98350500D01*
X105022238Y-98320548D01*
X105243887Y-98261158D01*
X105455888Y-98173344D01*
X105654612Y-98058611D01*
X105836661Y-97918919D01*
X105836665Y-97918914D01*
X105836670Y-97918911D01*
X105998911Y-97756670D01*
X105998914Y-97756665D01*
X105998919Y-97756661D01*
X106138611Y-97574612D01*
X106253344Y-97375888D01*
X106341158Y-97163887D01*
X106400548Y-96942238D01*
X106430500Y-96714734D01*
X106430500Y-96485266D01*
X106400548Y-96257762D01*
X106341158Y-96036113D01*
X106253344Y-95824112D01*
X106138611Y-95625388D01*
X106138608Y-95625385D01*
X106138607Y-95625382D01*
X105998918Y-95443338D01*
X105998911Y-95443330D01*
X105836670Y-95281089D01*
X105836661Y-95281081D01*
X105654617Y-95141392D01*
X105455890Y-95026657D01*
X105455876Y-95026650D01*
X105243887Y-94938842D01*
X105022238Y-94879452D01*
X104984215Y-94874446D01*
X104794741Y-94849500D01*
X104794734Y-94849500D01*
X104565266Y-94849500D01*
X104565258Y-94849500D01*
X104348715Y-94878009D01*
X104337762Y-94879452D01*
X104244076Y-94904554D01*
X104116112Y-94938842D01*
X103904123Y-95026650D01*
X103904109Y-95026657D01*
X103705382Y-95141392D01*
X103523338Y-95281081D01*
X103361081Y-95443338D01*
X103221392Y-95625382D01*
X103106657Y-95824109D01*
X103106650Y-95824123D01*
X103018842Y-96036112D01*
X102959453Y-96257759D01*
X102959451Y-96257770D01*
X102929500Y-96485258D01*
X99720500Y-96485258D01*
X99720500Y-89747273D01*
X175899500Y-89747273D01*
X175899500Y-89852727D01*
X175926793Y-89954587D01*
X175979520Y-90045913D01*
X176054087Y-90120480D01*
X176145413Y-90173207D01*
X176247273Y-90200500D01*
X176247275Y-90200500D01*
X176352725Y-90200500D01*
X176352727Y-90200500D01*
X176454587Y-90173207D01*
X176545913Y-90120480D01*
X176620480Y-90045913D01*
X176673207Y-89954587D01*
X176700500Y-89852727D01*
X176700500Y-89747273D01*
X176673207Y-89645413D01*
X176620480Y-89554087D01*
X176620478Y-89554085D01*
X176582651Y-89516257D01*
X176578313Y-89508313D01*
X176571065Y-89502887D01*
X176561830Y-89478127D01*
X176549166Y-89454934D01*
X176549812Y-89445903D01*
X176546649Y-89437422D01*
X176552266Y-89411600D01*
X176554152Y-89385242D01*
X176559969Y-89376189D01*
X176561501Y-89369150D01*
X176582646Y-89340902D01*
X176676732Y-89246816D01*
X176738054Y-89213334D01*
X176764411Y-89210500D01*
X178096050Y-89210500D01*
X178158049Y-89227112D01*
X178191316Y-89246319D01*
X178293176Y-89273612D01*
X178293178Y-89273612D01*
X178398628Y-89273612D01*
X178398630Y-89273612D01*
X178500490Y-89246319D01*
X178591816Y-89193592D01*
X178666383Y-89119025D01*
X178666383Y-89119024D01*
X178672130Y-89113278D01*
X178673814Y-89114962D01*
X178720426Y-89080925D01*
X178762379Y-89073612D01*
X183446768Y-89073612D01*
X183446770Y-89073612D01*
X183520462Y-89043088D01*
X183826666Y-88736882D01*
X183852337Y-88717184D01*
X183915913Y-88680480D01*
X183990480Y-88605913D01*
X184043207Y-88514587D01*
X184070500Y-88412727D01*
X184070500Y-88307273D01*
X184043207Y-88205413D01*
X183990480Y-88114087D01*
X183915913Y-88039520D01*
X183824587Y-87986793D01*
X183722727Y-87959500D01*
X183617273Y-87959500D01*
X183515413Y-87986793D01*
X183515410Y-87986794D01*
X183424085Y-88039521D01*
X183349521Y-88114085D01*
X183296794Y-88205410D01*
X183296793Y-88205413D01*
X183269500Y-88307273D01*
X183269500Y-88412727D01*
X183292859Y-88499906D01*
X183297311Y-88516519D01*
X183295648Y-88586369D01*
X183256485Y-88644231D01*
X183192257Y-88671735D01*
X183177536Y-88672612D01*
X179560300Y-88672612D01*
X179493261Y-88652927D01*
X179447506Y-88600123D01*
X179437562Y-88530965D01*
X179466587Y-88467409D01*
X179472619Y-88460931D01*
X179626277Y-88307273D01*
X180227282Y-87706266D01*
X180288603Y-87672783D01*
X180319146Y-87671510D01*
X180319146Y-87670500D01*
X180432725Y-87670500D01*
X180432727Y-87670500D01*
X180534587Y-87643207D01*
X180625913Y-87590480D01*
X180700480Y-87515913D01*
X180753207Y-87424587D01*
X180780500Y-87322727D01*
X180780500Y-87217273D01*
X180753207Y-87115413D01*
X180700480Y-87024087D01*
X180625913Y-86949520D01*
X180534587Y-86896793D01*
X180432727Y-86869500D01*
X180327273Y-86869500D01*
X180225413Y-86896793D01*
X180225410Y-86896794D01*
X180134085Y-86949521D01*
X180059521Y-87024085D01*
X180006794Y-87115410D01*
X180006793Y-87115413D01*
X179979500Y-87217273D01*
X179979500Y-87330854D01*
X179977120Y-87330854D01*
X179968216Y-87387901D01*
X179943731Y-87422717D01*
X178790497Y-88575951D01*
X178729174Y-88609436D01*
X178659482Y-88604452D01*
X178615135Y-88575951D01*
X178591817Y-88552633D01*
X178591816Y-88552632D01*
X178500490Y-88499905D01*
X178398630Y-88472612D01*
X178293176Y-88472612D01*
X178191316Y-88499905D01*
X178191313Y-88499906D01*
X178099988Y-88552633D01*
X178025424Y-88627197D01*
X177972695Y-88718526D01*
X177969584Y-88726037D01*
X177968159Y-88725446D01*
X177936576Y-88777258D01*
X177873728Y-88807784D01*
X177853170Y-88809500D01*
X176669882Y-88809500D01*
X176590117Y-88809500D01*
X176568533Y-88818440D01*
X176568532Y-88818440D01*
X176516426Y-88840023D01*
X176488225Y-88868224D01*
X176460024Y-88896426D01*
X176460023Y-88896427D01*
X176241487Y-89114962D01*
X176168985Y-89187464D01*
X176130024Y-89226425D01*
X176099500Y-89300116D01*
X176099500Y-89383522D01*
X176079815Y-89450561D01*
X176059121Y-89473060D01*
X176059834Y-89473773D01*
X175979520Y-89554087D01*
X175926794Y-89645410D01*
X175926793Y-89645413D01*
X175899500Y-89747273D01*
X99720500Y-89747273D01*
X99720500Y-81773920D01*
X104739499Y-81773920D01*
X104768340Y-81918907D01*
X104768343Y-81918917D01*
X104824912Y-82055488D01*
X104824919Y-82055501D01*
X104907048Y-82178415D01*
X104907051Y-82178419D01*
X105011580Y-82282948D01*
X105011584Y-82282951D01*
X105134498Y-82365080D01*
X105134511Y-82365087D01*
X105271082Y-82421656D01*
X105271087Y-82421658D01*
X105271091Y-82421658D01*
X105271092Y-82421659D01*
X105416079Y-82450500D01*
X105416082Y-82450500D01*
X105563920Y-82450500D01*
X105661462Y-82431096D01*
X105708913Y-82421658D01*
X105845495Y-82365084D01*
X105968416Y-82282951D01*
X106072951Y-82178416D01*
X106155084Y-82055495D01*
X106211658Y-81918913D01*
X106240500Y-81773918D01*
X106240500Y-81626082D01*
X106240500Y-81626079D01*
X106211659Y-81481092D01*
X106211658Y-81481091D01*
X106211658Y-81481087D01*
X106211656Y-81481082D01*
X106155087Y-81344511D01*
X106155080Y-81344498D01*
X106072951Y-81221584D01*
X106072948Y-81221580D01*
X105968419Y-81117051D01*
X105968415Y-81117048D01*
X105845501Y-81034919D01*
X105845488Y-81034912D01*
X105708917Y-80978343D01*
X105708907Y-80978340D01*
X105563920Y-80949500D01*
X105563918Y-80949500D01*
X105416082Y-80949500D01*
X105416080Y-80949500D01*
X105271092Y-80978340D01*
X105271082Y-80978343D01*
X105134511Y-81034912D01*
X105134498Y-81034919D01*
X105011584Y-81117048D01*
X105011580Y-81117051D01*
X104907051Y-81221580D01*
X104907048Y-81221584D01*
X104824919Y-81344498D01*
X104824912Y-81344511D01*
X104768343Y-81481082D01*
X104768340Y-81481092D01*
X104739500Y-81626079D01*
X104739500Y-81626082D01*
X104739500Y-81773918D01*
X104739500Y-81773920D01*
X104739499Y-81773920D01*
X99720500Y-81773920D01*
X99720500Y-73807273D01*
X138399500Y-73807273D01*
X138399500Y-73912727D01*
X138426793Y-74014587D01*
X138479520Y-74105913D01*
X138554087Y-74180480D01*
X138645413Y-74233207D01*
X138747273Y-74260500D01*
X138747275Y-74260500D01*
X138852725Y-74260500D01*
X138852727Y-74260500D01*
X138954587Y-74233207D01*
X139045913Y-74180480D01*
X139120480Y-74105913D01*
X139120480Y-74105912D01*
X139126227Y-74100166D01*
X139127911Y-74101850D01*
X139174523Y-74067813D01*
X139216476Y-74060500D01*
X141315588Y-74060500D01*
X141382627Y-74080185D01*
X141403269Y-74096819D01*
X147633731Y-80327281D01*
X147667216Y-80388604D01*
X147668492Y-80419146D01*
X147669500Y-80419146D01*
X147669500Y-80427273D01*
X147669500Y-80532727D01*
X147696793Y-80634587D01*
X147749520Y-80725913D01*
X147824087Y-80800480D01*
X147915413Y-80853207D01*
X148017273Y-80880500D01*
X148017275Y-80880500D01*
X148122725Y-80880500D01*
X148122727Y-80880500D01*
X148224587Y-80853207D01*
X148315913Y-80800480D01*
X148390480Y-80725913D01*
X148443207Y-80634587D01*
X148470500Y-80532727D01*
X148470500Y-80427273D01*
X148443207Y-80325413D01*
X148421187Y-80287273D01*
X160129500Y-80287273D01*
X160129500Y-80392727D01*
X160156793Y-80494587D01*
X160209520Y-80585913D01*
X160284087Y-80660480D01*
X160375413Y-80713207D01*
X160477273Y-80740500D01*
X160477275Y-80740500D01*
X160582725Y-80740500D01*
X160582727Y-80740500D01*
X160684587Y-80713207D01*
X160775913Y-80660480D01*
X160850480Y-80585913D01*
X160903207Y-80494587D01*
X160930500Y-80392727D01*
X160930500Y-80287273D01*
X160903207Y-80185413D01*
X160857112Y-80105575D01*
X160840500Y-80043576D01*
X160840500Y-76846476D01*
X160860185Y-76779437D01*
X160880880Y-76756941D01*
X160880166Y-76756227D01*
X160885913Y-76750480D01*
X160960480Y-76675913D01*
X161013207Y-76584587D01*
X161040500Y-76482727D01*
X161040500Y-76377273D01*
X161013207Y-76275413D01*
X160960480Y-76184087D01*
X160885913Y-76109520D01*
X160794587Y-76056793D01*
X160692727Y-76029500D01*
X160587273Y-76029500D01*
X160485413Y-76056793D01*
X160485410Y-76056794D01*
X160394085Y-76109521D01*
X160319521Y-76184085D01*
X160266794Y-76275410D01*
X160266793Y-76275413D01*
X160239500Y-76377273D01*
X160239500Y-76482726D01*
X160266793Y-76584586D01*
X160266794Y-76584589D01*
X160319521Y-76675914D01*
X160399834Y-76756227D01*
X160398149Y-76757911D01*
X160432187Y-76804523D01*
X160439500Y-76846476D01*
X160439500Y-79858201D01*
X160419815Y-79925240D01*
X160377500Y-79965588D01*
X160284085Y-80019521D01*
X160209521Y-80094085D01*
X160156794Y-80185410D01*
X160156793Y-80185413D01*
X160129500Y-80287273D01*
X148421187Y-80287273D01*
X148390480Y-80234087D01*
X148315913Y-80159520D01*
X148224587Y-80106793D01*
X148122727Y-80079500D01*
X148017273Y-80079500D01*
X148009146Y-80079500D01*
X148009146Y-80077121D01*
X147952090Y-80068213D01*
X147917281Y-80043731D01*
X141563574Y-73690024D01*
X141489883Y-73659500D01*
X141489882Y-73659500D01*
X139216476Y-73659500D01*
X139149437Y-73639815D01*
X139126941Y-73619119D01*
X139126227Y-73619834D01*
X139045914Y-73539521D01*
X139045913Y-73539520D01*
X138954587Y-73486793D01*
X138852727Y-73459500D01*
X138747273Y-73459500D01*
X138645413Y-73486793D01*
X138645410Y-73486794D01*
X138554085Y-73539521D01*
X138479521Y-73614085D01*
X138426794Y-73705410D01*
X138426793Y-73705413D01*
X138399500Y-73807273D01*
X99720500Y-73807273D01*
X99720500Y-71607881D01*
X146030108Y-71607881D01*
X146030108Y-71713335D01*
X146057401Y-71815195D01*
X146110128Y-71906521D01*
X146184695Y-71981088D01*
X146276021Y-72033815D01*
X146377881Y-72061108D01*
X146377883Y-72061108D01*
X146491462Y-72061108D01*
X146491462Y-72063491D01*
X146548487Y-72072380D01*
X146583326Y-72096876D01*
X148839921Y-74353470D01*
X148873406Y-74414793D01*
X148872015Y-74473243D01*
X148849500Y-74557271D01*
X148849500Y-74557273D01*
X148849500Y-74662727D01*
X148876793Y-74764587D01*
X148929520Y-74855913D01*
X149004087Y-74930480D01*
X149095413Y-74983207D01*
X149197273Y-75010500D01*
X149197275Y-75010500D01*
X149302725Y-75010500D01*
X149302727Y-75010500D01*
X149404587Y-74983207D01*
X149495913Y-74930480D01*
X149570480Y-74855913D01*
X149570480Y-74855912D01*
X149576227Y-74850166D01*
X149577911Y-74851850D01*
X149624523Y-74817813D01*
X149666476Y-74810500D01*
X154529783Y-74810500D01*
X154596822Y-74830185D01*
X154617464Y-74846819D01*
X154627062Y-74856417D01*
X154718388Y-74909144D01*
X154820248Y-74936437D01*
X154820250Y-74936437D01*
X154925700Y-74936437D01*
X154925702Y-74936437D01*
X155027562Y-74909144D01*
X155100085Y-74867273D01*
X168759500Y-74867273D01*
X168759500Y-74972727D01*
X168786793Y-75074587D01*
X168839520Y-75165913D01*
X168914087Y-75240480D01*
X169005413Y-75293207D01*
X169107273Y-75320500D01*
X169107275Y-75320500D01*
X169220854Y-75320500D01*
X169220854Y-75322883D01*
X169277879Y-75331772D01*
X169312718Y-75356268D01*
X172843181Y-78886731D01*
X172876666Y-78948054D01*
X172879500Y-78974412D01*
X172879500Y-87653522D01*
X172859815Y-87720561D01*
X172839121Y-87743060D01*
X172839834Y-87743773D01*
X172759520Y-87824087D01*
X172706794Y-87915410D01*
X172706793Y-87915413D01*
X172679500Y-88017273D01*
X172679500Y-88122727D01*
X172706793Y-88224587D01*
X172759520Y-88315913D01*
X172834087Y-88390480D01*
X172925413Y-88443207D01*
X173027273Y-88470500D01*
X173027275Y-88470500D01*
X173132725Y-88470500D01*
X173132727Y-88470500D01*
X173234587Y-88443207D01*
X173325913Y-88390480D01*
X173400480Y-88315913D01*
X173453207Y-88224587D01*
X173480500Y-88122727D01*
X173480500Y-88017273D01*
X173453207Y-87915413D01*
X173400480Y-87824087D01*
X173325913Y-87749520D01*
X173325912Y-87749519D01*
X173320166Y-87743773D01*
X173321847Y-87742091D01*
X173287803Y-87695448D01*
X173280500Y-87653522D01*
X173280500Y-78800119D01*
X173280499Y-78800116D01*
X173249976Y-78726426D01*
X173193574Y-78670024D01*
X170150823Y-75627273D01*
X178539500Y-75627273D01*
X178539500Y-75732727D01*
X178566793Y-75834587D01*
X178615304Y-75918611D01*
X178619521Y-75925914D01*
X178683181Y-75989574D01*
X178716666Y-76050897D01*
X178719500Y-76077255D01*
X178719500Y-77579882D01*
X178750024Y-77653574D01*
X178806426Y-77709976D01*
X178880118Y-77740500D01*
X178959882Y-77740500D01*
X180035500Y-77740500D01*
X180102539Y-77760185D01*
X180148294Y-77812989D01*
X180159500Y-77864500D01*
X180159500Y-77912727D01*
X180186793Y-78014587D01*
X180239520Y-78105913D01*
X180314087Y-78180480D01*
X180405413Y-78233207D01*
X180507273Y-78260500D01*
X180507275Y-78260500D01*
X180612725Y-78260500D01*
X180612727Y-78260500D01*
X180714587Y-78233207D01*
X180805913Y-78180480D01*
X180880480Y-78105913D01*
X180933207Y-78014587D01*
X180960500Y-77912727D01*
X180960500Y-77807273D01*
X180933207Y-77705413D01*
X180880480Y-77614087D01*
X180805913Y-77539520D01*
X180714587Y-77486793D01*
X180612727Y-77459500D01*
X180507273Y-77459500D01*
X180499146Y-77459500D01*
X180499146Y-77457121D01*
X180442090Y-77448213D01*
X180407281Y-77423731D01*
X180353574Y-77370024D01*
X180279883Y-77339500D01*
X180279882Y-77339500D01*
X179244500Y-77339500D01*
X179177461Y-77319815D01*
X179131706Y-77267011D01*
X179120500Y-77215500D01*
X179120500Y-76109837D01*
X179140185Y-76042798D01*
X179182505Y-76002447D01*
X179185913Y-76000480D01*
X179260480Y-75925913D01*
X179313207Y-75834587D01*
X179340500Y-75732727D01*
X179340500Y-75627273D01*
X179313207Y-75525413D01*
X179260480Y-75434087D01*
X179185913Y-75359520D01*
X179094587Y-75306793D01*
X178992727Y-75279500D01*
X178887273Y-75279500D01*
X178785413Y-75306793D01*
X178785410Y-75306794D01*
X178694085Y-75359521D01*
X178619521Y-75434085D01*
X178566794Y-75525410D01*
X178566793Y-75525413D01*
X178539500Y-75627273D01*
X170150823Y-75627273D01*
X169596268Y-75072718D01*
X169562783Y-75011395D01*
X169561511Y-74980854D01*
X169560500Y-74980854D01*
X169560500Y-74867275D01*
X169560500Y-74867273D01*
X169533207Y-74765413D01*
X169480480Y-74674087D01*
X169405913Y-74599520D01*
X169332739Y-74557273D01*
X169314589Y-74546794D01*
X169314588Y-74546793D01*
X169314587Y-74546793D01*
X169212727Y-74519500D01*
X169107273Y-74519500D01*
X169005413Y-74546793D01*
X169005410Y-74546794D01*
X168914085Y-74599521D01*
X168839521Y-74674085D01*
X168786794Y-74765410D01*
X168786793Y-74765413D01*
X168759500Y-74867273D01*
X155100085Y-74867273D01*
X155118888Y-74856417D01*
X155193455Y-74781850D01*
X155246182Y-74690524D01*
X155273475Y-74588664D01*
X155273475Y-74483210D01*
X155246182Y-74381350D01*
X155225344Y-74345258D01*
X192609500Y-74345258D01*
X192609500Y-74574741D01*
X192634446Y-74764215D01*
X192639452Y-74802238D01*
X192687941Y-74983205D01*
X192698842Y-75023887D01*
X192786650Y-75235876D01*
X192786657Y-75235890D01*
X192901392Y-75434617D01*
X193041081Y-75616661D01*
X193041089Y-75616670D01*
X193203330Y-75778911D01*
X193203338Y-75778918D01*
X193385382Y-75918607D01*
X193385385Y-75918608D01*
X193385388Y-75918611D01*
X193584112Y-76033344D01*
X193584117Y-76033346D01*
X193584123Y-76033349D01*
X193640725Y-76056794D01*
X193796113Y-76121158D01*
X194017762Y-76180548D01*
X194245266Y-76210500D01*
X194245273Y-76210500D01*
X194474727Y-76210500D01*
X194474734Y-76210500D01*
X194702238Y-76180548D01*
X194923887Y-76121158D01*
X195135888Y-76033344D01*
X195334612Y-75918611D01*
X195516661Y-75778919D01*
X195516665Y-75778914D01*
X195516670Y-75778911D01*
X195678911Y-75616670D01*
X195678914Y-75616665D01*
X195678919Y-75616661D01*
X195818611Y-75434612D01*
X195933344Y-75235888D01*
X196021158Y-75023887D01*
X196080548Y-74802238D01*
X196110500Y-74574734D01*
X196110500Y-74345266D01*
X196080548Y-74117762D01*
X196021158Y-73896113D01*
X195971190Y-73775480D01*
X195933349Y-73684123D01*
X195933346Y-73684117D01*
X195933344Y-73684112D01*
X195818611Y-73485388D01*
X195818608Y-73485385D01*
X195818607Y-73485382D01*
X195678918Y-73303338D01*
X195678911Y-73303330D01*
X195516670Y-73141089D01*
X195516661Y-73141081D01*
X195334617Y-73001392D01*
X195135890Y-72886657D01*
X195135876Y-72886650D01*
X194923887Y-72798842D01*
X194702238Y-72739452D01*
X194664215Y-72734446D01*
X194474741Y-72709500D01*
X194474734Y-72709500D01*
X194245266Y-72709500D01*
X194245258Y-72709500D01*
X194028715Y-72738009D01*
X194017762Y-72739452D01*
X193924076Y-72764554D01*
X193796112Y-72798842D01*
X193584123Y-72886650D01*
X193584109Y-72886657D01*
X193385382Y-73001392D01*
X193203338Y-73141081D01*
X193041081Y-73303338D01*
X192901392Y-73485382D01*
X192786657Y-73684109D01*
X192786650Y-73684123D01*
X192698842Y-73896112D01*
X192639453Y-74117759D01*
X192639451Y-74117770D01*
X192609500Y-74345258D01*
X155225344Y-74345258D01*
X155193455Y-74290024D01*
X155118888Y-74215457D01*
X155027562Y-74162730D01*
X154925702Y-74135437D01*
X154820248Y-74135437D01*
X154718388Y-74162730D01*
X154718385Y-74162731D01*
X154627060Y-74215458D01*
X154552497Y-74290021D01*
X154519311Y-74347501D01*
X154468743Y-74395716D01*
X154411924Y-74409500D01*
X149666476Y-74409500D01*
X149599437Y-74389815D01*
X149576941Y-74369119D01*
X149576227Y-74369834D01*
X149495914Y-74289521D01*
X149495913Y-74289520D01*
X149404587Y-74236793D01*
X149363247Y-74225716D01*
X149302721Y-74209498D01*
X149298759Y-74208977D01*
X149295665Y-74207608D01*
X149294877Y-74207397D01*
X149294909Y-74207274D01*
X149234864Y-74180708D01*
X149227269Y-74173720D01*
X146866876Y-71813326D01*
X146833391Y-71752003D01*
X146832119Y-71721462D01*
X146831108Y-71721462D01*
X146831108Y-71607883D01*
X146831108Y-71607881D01*
X146803815Y-71506021D01*
X146751088Y-71414695D01*
X146676521Y-71340128D01*
X146585195Y-71287401D01*
X146483335Y-71260108D01*
X146377881Y-71260108D01*
X146276021Y-71287401D01*
X146276018Y-71287402D01*
X146184693Y-71340129D01*
X146110129Y-71414693D01*
X146057402Y-71506018D01*
X146057401Y-71506021D01*
X146030108Y-71607881D01*
X99720500Y-71607881D01*
X99720500Y-67857273D01*
X131839500Y-67857273D01*
X131839500Y-67962727D01*
X131866793Y-68064587D01*
X131908807Y-68137358D01*
X131919521Y-68155914D01*
X131999834Y-68236227D01*
X131998149Y-68237911D01*
X132032187Y-68284523D01*
X132039500Y-68326476D01*
X132039500Y-69473522D01*
X132019815Y-69540561D01*
X131999121Y-69563060D01*
X131999834Y-69563773D01*
X131919520Y-69644087D01*
X131866794Y-69735410D01*
X131866793Y-69735413D01*
X131839500Y-69837273D01*
X131839500Y-69942727D01*
X131866793Y-70044587D01*
X131919520Y-70135913D01*
X131994087Y-70210480D01*
X132085413Y-70263207D01*
X132187273Y-70290500D01*
X132187275Y-70290500D01*
X132292725Y-70290500D01*
X132292727Y-70290500D01*
X132394587Y-70263207D01*
X132485913Y-70210480D01*
X132560480Y-70135913D01*
X132613207Y-70044587D01*
X132640500Y-69942727D01*
X132640500Y-69837273D01*
X132613207Y-69735413D01*
X132560480Y-69644087D01*
X132485913Y-69569520D01*
X132485912Y-69569519D01*
X132480166Y-69563773D01*
X132481847Y-69562091D01*
X132447803Y-69515448D01*
X132440500Y-69473522D01*
X132440500Y-68326476D01*
X132460185Y-68259437D01*
X132480880Y-68236941D01*
X132480166Y-68236227D01*
X132499869Y-68216524D01*
X132560480Y-68155913D01*
X132613207Y-68064587D01*
X132640500Y-67962727D01*
X132640500Y-67857273D01*
X132613207Y-67755413D01*
X132560480Y-67664087D01*
X132485913Y-67589520D01*
X132394587Y-67536793D01*
X132292727Y-67509500D01*
X132187273Y-67509500D01*
X132085413Y-67536793D01*
X132085410Y-67536794D01*
X131994085Y-67589521D01*
X131919521Y-67664085D01*
X131866794Y-67755410D01*
X131866793Y-67755413D01*
X131839500Y-67857273D01*
X99720500Y-67857273D01*
X99720500Y-60467273D01*
X135689500Y-60467273D01*
X135689500Y-60572727D01*
X135716793Y-60674587D01*
X135769520Y-60765913D01*
X135844087Y-60840480D01*
X135935413Y-60893207D01*
X136037273Y-60920500D01*
X136037275Y-60920500D01*
X136150854Y-60920500D01*
X136150854Y-60922883D01*
X136207879Y-60931772D01*
X136242718Y-60956268D01*
X141143181Y-65856731D01*
X141176666Y-65918054D01*
X141179500Y-65944412D01*
X141179500Y-69958022D01*
X141159815Y-70025061D01*
X141139121Y-70047560D01*
X141139834Y-70048273D01*
X141059520Y-70128587D01*
X141006794Y-70219910D01*
X141006793Y-70219913D01*
X140979500Y-70321773D01*
X140979500Y-70427227D01*
X141006793Y-70529087D01*
X141059520Y-70620413D01*
X141134087Y-70694980D01*
X141225413Y-70747707D01*
X141327273Y-70775000D01*
X141327275Y-70775000D01*
X141432725Y-70775000D01*
X141432727Y-70775000D01*
X141534587Y-70747707D01*
X141625913Y-70694980D01*
X141700480Y-70620413D01*
X141753207Y-70529087D01*
X141780500Y-70427227D01*
X141780500Y-70321773D01*
X141753207Y-70219913D01*
X141700480Y-70128587D01*
X141625913Y-70054020D01*
X141625912Y-70054019D01*
X141620166Y-70048273D01*
X141621847Y-70046591D01*
X141587803Y-69999948D01*
X141580500Y-69958022D01*
X141580500Y-69177273D01*
X154909500Y-69177273D01*
X154909500Y-69282727D01*
X154936793Y-69384587D01*
X154989520Y-69475913D01*
X155064087Y-69550480D01*
X155155413Y-69603207D01*
X155257273Y-69630500D01*
X155257275Y-69630500D01*
X155362725Y-69630500D01*
X155362727Y-69630500D01*
X155464587Y-69603207D01*
X155555913Y-69550480D01*
X155630480Y-69475913D01*
X155630480Y-69475912D01*
X155636227Y-69470166D01*
X155637911Y-69471850D01*
X155684523Y-69437813D01*
X155726476Y-69430500D01*
X158163524Y-69430500D01*
X158230563Y-69450185D01*
X158253058Y-69470880D01*
X158253773Y-69470166D01*
X158259520Y-69475913D01*
X158334087Y-69550480D01*
X158425413Y-69603207D01*
X158527273Y-69630500D01*
X158527275Y-69630500D01*
X158632725Y-69630500D01*
X158632727Y-69630500D01*
X158734587Y-69603207D01*
X158825913Y-69550480D01*
X158900480Y-69475913D01*
X158953207Y-69384587D01*
X158980500Y-69282727D01*
X158980500Y-69177273D01*
X158953207Y-69075413D01*
X158900480Y-68984087D01*
X158825913Y-68909520D01*
X158734587Y-68856793D01*
X158632727Y-68829500D01*
X158527273Y-68829500D01*
X158425413Y-68856793D01*
X158425410Y-68856794D01*
X158334085Y-68909521D01*
X158253773Y-68989834D01*
X158252088Y-68988149D01*
X158205477Y-69022187D01*
X158163524Y-69029500D01*
X155726476Y-69029500D01*
X155659437Y-69009815D01*
X155636941Y-68989119D01*
X155636227Y-68989834D01*
X155555914Y-68909521D01*
X155555913Y-68909520D01*
X155464587Y-68856793D01*
X155362727Y-68829500D01*
X155257273Y-68829500D01*
X155155413Y-68856793D01*
X155155410Y-68856794D01*
X155064085Y-68909521D01*
X154989521Y-68984085D01*
X154936794Y-69075410D01*
X154936793Y-69075413D01*
X154909500Y-69177273D01*
X141580500Y-69177273D01*
X141580500Y-67147773D01*
X147449500Y-67147773D01*
X147449500Y-67253227D01*
X147476793Y-67355087D01*
X147529520Y-67446413D01*
X147604087Y-67520980D01*
X147695413Y-67573707D01*
X147797273Y-67601000D01*
X147797275Y-67601000D01*
X147902725Y-67601000D01*
X147902727Y-67601000D01*
X148004587Y-67573707D01*
X148095913Y-67520980D01*
X148170480Y-67446413D01*
X148223207Y-67355087D01*
X148250500Y-67253227D01*
X148250500Y-67147773D01*
X148250500Y-67139646D01*
X148252882Y-67139646D01*
X148261774Y-67082616D01*
X148286268Y-67047781D01*
X148379463Y-66954587D01*
X148475849Y-66858201D01*
X148537172Y-66824716D01*
X148540343Y-66824069D01*
X148551832Y-66821882D01*
X148578500Y-66821882D01*
X148601173Y-66812489D01*
X148613677Y-66810110D01*
X148636287Y-66812321D01*
X148658876Y-66809892D01*
X148668942Y-66812144D01*
X148689989Y-66817784D01*
X148689992Y-66817784D01*
X148795441Y-66817784D01*
X148795443Y-66817784D01*
X148897303Y-66790491D01*
X148988629Y-66737764D01*
X149063196Y-66663197D01*
X149115923Y-66571871D01*
X149143216Y-66470011D01*
X149143216Y-66364557D01*
X149115923Y-66262697D01*
X149063196Y-66171371D01*
X148988629Y-66096804D01*
X148918860Y-66056523D01*
X148897305Y-66044078D01*
X148897304Y-66044077D01*
X148897303Y-66044077D01*
X148795443Y-66016784D01*
X148689989Y-66016784D01*
X148588129Y-66044077D01*
X148588126Y-66044078D01*
X148496801Y-66096805D01*
X148422237Y-66171369D01*
X148369510Y-66262694D01*
X148369509Y-66262697D01*
X148342216Y-66364557D01*
X148342216Y-66373371D01*
X148322531Y-66440410D01*
X148305897Y-66461052D01*
X148002717Y-66764231D01*
X147941394Y-66797716D01*
X147910854Y-66798990D01*
X147910854Y-66800000D01*
X147797273Y-66800000D01*
X147695413Y-66827293D01*
X147695410Y-66827294D01*
X147604085Y-66880021D01*
X147529521Y-66954585D01*
X147476794Y-67045910D01*
X147476793Y-67045913D01*
X147449500Y-67147773D01*
X141580500Y-67147773D01*
X141580500Y-65770119D01*
X141580499Y-65770116D01*
X141555391Y-65709500D01*
X141549976Y-65696426D01*
X141493574Y-65640024D01*
X140090823Y-64237273D01*
X179589500Y-64237273D01*
X179589500Y-64342726D01*
X179616793Y-64444586D01*
X179616794Y-64444589D01*
X179669521Y-64535914D01*
X179749834Y-64616227D01*
X179748149Y-64617911D01*
X179782187Y-64664523D01*
X179789500Y-64706476D01*
X179789500Y-68273522D01*
X179769815Y-68340561D01*
X179749121Y-68363060D01*
X179749834Y-68363773D01*
X179669520Y-68444087D01*
X179616794Y-68535410D01*
X179616793Y-68535413D01*
X179589500Y-68637273D01*
X179589500Y-68742727D01*
X179616793Y-68844587D01*
X179669520Y-68935913D01*
X179744087Y-69010480D01*
X179835413Y-69063207D01*
X179937273Y-69090500D01*
X179937275Y-69090500D01*
X180042725Y-69090500D01*
X180042727Y-69090500D01*
X180144587Y-69063207D01*
X180235913Y-69010480D01*
X180310480Y-68935913D01*
X180363207Y-68844587D01*
X180390500Y-68742727D01*
X180390500Y-68637273D01*
X180363207Y-68535413D01*
X180310480Y-68444087D01*
X180235913Y-68369520D01*
X180235912Y-68369519D01*
X180230166Y-68363773D01*
X180231847Y-68362091D01*
X180197803Y-68315448D01*
X180190500Y-68273522D01*
X180190500Y-66717273D01*
X185619500Y-66717273D01*
X185619500Y-66822727D01*
X185646793Y-66924587D01*
X185699520Y-67015913D01*
X185774087Y-67090480D01*
X185865413Y-67143207D01*
X185967273Y-67170500D01*
X185967275Y-67170500D01*
X186072725Y-67170500D01*
X186072727Y-67170500D01*
X186174587Y-67143207D01*
X186265913Y-67090480D01*
X186340480Y-67015913D01*
X186340481Y-67015910D01*
X186342483Y-67013909D01*
X186342763Y-67013297D01*
X186343694Y-67012698D01*
X186346227Y-67010166D01*
X186346777Y-67010716D01*
X186369176Y-66996322D01*
X186394523Y-66977813D01*
X186399263Y-66976986D01*
X186401541Y-66975523D01*
X186436476Y-66970500D01*
X186514031Y-66970500D01*
X186581070Y-66990185D01*
X186626825Y-67042989D01*
X186636769Y-67112147D01*
X186621419Y-67156496D01*
X186588239Y-67213967D01*
X186560946Y-67315827D01*
X186560946Y-67421281D01*
X186587660Y-67520978D01*
X186588239Y-67523140D01*
X186588240Y-67523143D01*
X186597123Y-67538528D01*
X186640966Y-67614467D01*
X186715533Y-67689034D01*
X186806859Y-67741761D01*
X186908719Y-67769054D01*
X186908721Y-67769054D01*
X187014171Y-67769054D01*
X187014173Y-67769054D01*
X187116033Y-67741761D01*
X187207359Y-67689034D01*
X187281926Y-67614467D01*
X187281926Y-67614466D01*
X187287673Y-67608720D01*
X187289357Y-67610404D01*
X187335969Y-67576367D01*
X187377922Y-67569054D01*
X187618433Y-67569054D01*
X187618435Y-67569054D01*
X187692127Y-67538530D01*
X187840657Y-67390000D01*
X190826658Y-67390000D01*
X191680515Y-67390000D01*
X191663297Y-67399941D01*
X191607442Y-67455796D01*
X191567946Y-67524205D01*
X191547502Y-67600504D01*
X191547502Y-67679496D01*
X191567946Y-67755795D01*
X191607442Y-67824204D01*
X191663297Y-67880059D01*
X191680515Y-67890000D01*
X190826658Y-67890000D01*
X190837851Y-67946274D01*
X190837852Y-67946276D01*
X190917001Y-68137358D01*
X190917006Y-68137368D01*
X191031911Y-68309335D01*
X191031914Y-68309339D01*
X191178161Y-68455586D01*
X191178165Y-68455589D01*
X191350132Y-68570494D01*
X191350142Y-68570499D01*
X191541226Y-68649649D01*
X191541234Y-68649651D01*
X191744080Y-68689999D01*
X191744084Y-68690000D01*
X192047501Y-68690000D01*
X192047501Y-67939999D01*
X192547501Y-67939999D01*
X192547501Y-68690000D01*
X192850918Y-68690000D01*
X192850921Y-68689999D01*
X193053767Y-68649651D01*
X193053775Y-68649649D01*
X193244859Y-68570499D01*
X193244869Y-68570494D01*
X193416836Y-68455589D01*
X193416840Y-68455586D01*
X193563087Y-68309339D01*
X193563090Y-68309335D01*
X193677995Y-68137368D01*
X193678000Y-68137358D01*
X193757149Y-67946276D01*
X193757150Y-67946274D01*
X193768344Y-67890000D01*
X192914487Y-67890000D01*
X192931705Y-67880059D01*
X192987560Y-67824204D01*
X193027056Y-67755795D01*
X193047500Y-67679496D01*
X193047500Y-67600504D01*
X193027056Y-67524205D01*
X192987560Y-67455796D01*
X192931705Y-67399941D01*
X192914487Y-67390000D01*
X193768344Y-67390000D01*
X193768344Y-67389999D01*
X195133385Y-67389999D01*
X195133386Y-67390000D01*
X196040515Y-67390000D01*
X196023297Y-67399941D01*
X195967442Y-67455796D01*
X195927946Y-67524205D01*
X195907502Y-67600504D01*
X195907502Y-67679496D01*
X195927946Y-67755795D01*
X195967442Y-67824204D01*
X196023297Y-67880059D01*
X196040515Y-67890000D01*
X195133386Y-67890000D01*
X195134586Y-67897584D01*
X195188092Y-68062255D01*
X195266696Y-68216524D01*
X195368468Y-68356602D01*
X195490898Y-68479032D01*
X195630976Y-68580804D01*
X195785243Y-68659408D01*
X195949916Y-68712914D01*
X196120930Y-68740000D01*
X196257501Y-68740000D01*
X196257501Y-67939999D01*
X196757501Y-67939999D01*
X196757501Y-68740000D01*
X196894072Y-68740000D01*
X197065085Y-68712914D01*
X197229758Y-68659408D01*
X197384025Y-68580804D01*
X197524103Y-68479032D01*
X197646533Y-68356602D01*
X197748305Y-68216524D01*
X197826909Y-68062255D01*
X197880415Y-67897584D01*
X197881616Y-67890000D01*
X196974487Y-67890000D01*
X196991705Y-67880059D01*
X197047560Y-67824204D01*
X197087056Y-67755795D01*
X197107500Y-67679496D01*
X197107500Y-67600504D01*
X197087056Y-67524205D01*
X197047560Y-67455796D01*
X196991705Y-67399941D01*
X196974487Y-67390000D01*
X197881616Y-67390000D01*
X197881616Y-67389999D01*
X197880415Y-67382415D01*
X197826909Y-67217744D01*
X197748305Y-67063475D01*
X197646533Y-66923397D01*
X197524103Y-66800967D01*
X197384025Y-66699195D01*
X197229758Y-66620591D01*
X197065085Y-66567085D01*
X196894072Y-66540000D01*
X196757501Y-66540000D01*
X196757501Y-67340001D01*
X196257501Y-67340001D01*
X196257501Y-66540000D01*
X196120930Y-66540000D01*
X195949916Y-66567085D01*
X195785243Y-66620591D01*
X195630976Y-66699195D01*
X195490898Y-66800967D01*
X195368468Y-66923397D01*
X195266696Y-67063475D01*
X195188092Y-67217744D01*
X195134586Y-67382415D01*
X195133385Y-67389999D01*
X193768344Y-67389999D01*
X193757150Y-67333725D01*
X193757149Y-67333723D01*
X193678000Y-67142641D01*
X193677995Y-67142631D01*
X193563090Y-66970664D01*
X193563087Y-66970660D01*
X193416840Y-66824413D01*
X193416832Y-66824407D01*
X193245177Y-66709711D01*
X193200371Y-66656099D01*
X193191664Y-66586774D01*
X193221818Y-66523747D01*
X193226373Y-66518941D01*
X193228001Y-66517314D01*
X193293893Y-66403186D01*
X193328001Y-66275892D01*
X193328001Y-66144108D01*
X193293893Y-66016814D01*
X193228001Y-65902686D01*
X193134815Y-65809500D01*
X193066600Y-65770116D01*
X193020688Y-65743608D01*
X192957040Y-65726554D01*
X192893393Y-65709500D01*
X192761609Y-65709500D01*
X192634313Y-65743608D01*
X192520187Y-65809500D01*
X192520184Y-65809502D01*
X192427003Y-65902683D01*
X192427001Y-65902686D01*
X192361109Y-66016812D01*
X192327001Y-66144108D01*
X192327001Y-66275891D01*
X192361109Y-66403187D01*
X192394055Y-66460250D01*
X192427001Y-66517314D01*
X192427003Y-66517316D01*
X192511182Y-66601495D01*
X192544667Y-66662818D01*
X192547501Y-66689176D01*
X192547501Y-67340001D01*
X192047501Y-67340001D01*
X192047501Y-66590000D01*
X191744080Y-66590000D01*
X191541234Y-66630348D01*
X191541226Y-66630350D01*
X191350142Y-66709500D01*
X191350132Y-66709505D01*
X191178165Y-66824410D01*
X191178161Y-66824413D01*
X191031914Y-66970660D01*
X191031911Y-66970664D01*
X190917006Y-67142631D01*
X190917001Y-67142641D01*
X190837852Y-67333723D01*
X190837851Y-67333725D01*
X190826658Y-67390000D01*
X187840657Y-67390000D01*
X188619976Y-66610681D01*
X188650500Y-66536989D01*
X188650500Y-66457225D01*
X188650500Y-66043011D01*
X188619976Y-65969319D01*
X188563574Y-65912917D01*
X188179995Y-65529338D01*
X188106304Y-65498814D01*
X188106303Y-65498814D01*
X187547162Y-65498814D01*
X187480123Y-65479129D01*
X187457627Y-65458433D01*
X187456913Y-65459148D01*
X187376600Y-65378835D01*
X187376599Y-65378834D01*
X187285273Y-65326107D01*
X187183413Y-65298814D01*
X187077959Y-65298814D01*
X186976099Y-65326107D01*
X186976096Y-65326108D01*
X186884771Y-65378835D01*
X186810207Y-65453399D01*
X186757480Y-65544724D01*
X186757479Y-65544727D01*
X186730186Y-65646587D01*
X186730186Y-65752041D01*
X186757479Y-65853901D01*
X186810206Y-65945227D01*
X186884773Y-66019794D01*
X186976099Y-66072521D01*
X187077959Y-66099814D01*
X187077961Y-66099814D01*
X187183411Y-66099814D01*
X187183413Y-66099814D01*
X187285273Y-66072521D01*
X187376599Y-66019794D01*
X187376605Y-66019787D01*
X187377794Y-66018876D01*
X187378986Y-66018414D01*
X187383637Y-66015730D01*
X187384055Y-66016454D01*
X187442961Y-65993678D01*
X187511407Y-66007712D01*
X187561400Y-66056523D01*
X187577067Y-66124613D01*
X187576481Y-66131358D01*
X187575436Y-66140474D01*
X187549500Y-66237273D01*
X187549500Y-66342727D01*
X187551441Y-66349972D01*
X187549245Y-66369147D01*
X187541345Y-66387848D01*
X187538216Y-66407901D01*
X187524846Y-66426912D01*
X187522059Y-66433511D01*
X187518487Y-66435954D01*
X187513732Y-66442716D01*
X187423270Y-66533180D01*
X187361947Y-66566666D01*
X187335588Y-66569500D01*
X186436476Y-66569500D01*
X186369437Y-66549815D01*
X186346941Y-66529119D01*
X186346227Y-66529834D01*
X186265914Y-66449521D01*
X186265913Y-66449520D01*
X186174587Y-66396793D01*
X186072727Y-66369500D01*
X185967273Y-66369500D01*
X185865413Y-66396793D01*
X185865410Y-66396794D01*
X185774085Y-66449521D01*
X185699521Y-66524085D01*
X185646794Y-66615410D01*
X185646793Y-66615413D01*
X185619500Y-66717273D01*
X180190500Y-66717273D01*
X180190500Y-64706476D01*
X180210185Y-64639437D01*
X180230880Y-64616941D01*
X180230166Y-64616227D01*
X180235913Y-64610480D01*
X180310480Y-64535913D01*
X180363207Y-64444587D01*
X180390500Y-64342727D01*
X180390500Y-64237273D01*
X180363207Y-64135413D01*
X180310480Y-64044087D01*
X180235913Y-63969520D01*
X180144587Y-63916793D01*
X180042727Y-63889500D01*
X179937273Y-63889500D01*
X179835413Y-63916793D01*
X179835410Y-63916794D01*
X179744085Y-63969521D01*
X179669521Y-64044085D01*
X179616794Y-64135410D01*
X179616793Y-64135413D01*
X179589500Y-64237273D01*
X140090823Y-64237273D01*
X136526268Y-60672718D01*
X136492783Y-60611395D01*
X136490675Y-60598435D01*
X136488636Y-60579680D01*
X136490500Y-60572727D01*
X136490500Y-60467273D01*
X136463207Y-60365413D01*
X136410480Y-60274087D01*
X136335913Y-60199520D01*
X136244587Y-60146793D01*
X136142727Y-60119500D01*
X136037273Y-60119500D01*
X135935413Y-60146793D01*
X135935410Y-60146794D01*
X135844085Y-60199521D01*
X135769521Y-60274085D01*
X135716794Y-60365410D01*
X135716793Y-60365413D01*
X135689500Y-60467273D01*
X99720500Y-60467273D01*
X99720500Y-58750000D01*
X190826658Y-58750000D01*
X191680503Y-58750000D01*
X191663285Y-58759941D01*
X191607430Y-58815796D01*
X191567934Y-58884205D01*
X191547490Y-58960504D01*
X191547490Y-59039496D01*
X191567934Y-59115795D01*
X191607430Y-59184204D01*
X191663285Y-59240059D01*
X191680503Y-59250000D01*
X190826658Y-59250000D01*
X190837851Y-59306274D01*
X190837852Y-59306276D01*
X190917001Y-59497358D01*
X190917006Y-59497368D01*
X191031911Y-59669335D01*
X191031914Y-59669339D01*
X191178161Y-59815586D01*
X191178165Y-59815589D01*
X191350132Y-59930494D01*
X191350142Y-59930499D01*
X191541226Y-60009649D01*
X191541234Y-60009651D01*
X191744080Y-60049999D01*
X191744084Y-60050000D01*
X192047501Y-60050000D01*
X192047501Y-59299999D01*
X192547501Y-59299999D01*
X192547501Y-59950824D01*
X192527816Y-60017863D01*
X192511182Y-60038505D01*
X192427003Y-60122683D01*
X192427001Y-60122686D01*
X192361109Y-60236812D01*
X192327001Y-60364108D01*
X192327001Y-60495891D01*
X192361109Y-60623187D01*
X192389706Y-60672718D01*
X192427001Y-60737314D01*
X192520187Y-60830500D01*
X192634315Y-60896392D01*
X192761609Y-60930500D01*
X192761611Y-60930500D01*
X192893391Y-60930500D01*
X192893393Y-60930500D01*
X193020687Y-60896392D01*
X193134815Y-60830500D01*
X193228001Y-60737314D01*
X193293893Y-60623186D01*
X193328001Y-60495892D01*
X193328001Y-60364108D01*
X193293893Y-60236814D01*
X193228001Y-60122686D01*
X193226386Y-60121071D01*
X193225460Y-60119376D01*
X193223054Y-60116240D01*
X193223543Y-60115864D01*
X193192901Y-60059748D01*
X193197885Y-59990056D01*
X193239757Y-59934123D01*
X193245177Y-59930287D01*
X193416839Y-59815587D01*
X193563087Y-59669339D01*
X193563090Y-59669335D01*
X193677995Y-59497368D01*
X193678000Y-59497358D01*
X193757149Y-59306276D01*
X193757150Y-59306274D01*
X193768344Y-59250000D01*
X192914499Y-59250000D01*
X192931717Y-59240059D01*
X192987572Y-59184204D01*
X193027068Y-59115795D01*
X193047512Y-59039496D01*
X193047512Y-58960504D01*
X193027068Y-58884205D01*
X192987572Y-58815796D01*
X192931717Y-58759941D01*
X192914499Y-58750000D01*
X193768344Y-58750000D01*
X193768344Y-58749999D01*
X195133385Y-58749999D01*
X195133386Y-58750000D01*
X196040515Y-58750000D01*
X196023297Y-58759941D01*
X195967442Y-58815796D01*
X195927946Y-58884205D01*
X195907502Y-58960504D01*
X195907502Y-59039496D01*
X195927946Y-59115795D01*
X195967442Y-59184204D01*
X196023297Y-59240059D01*
X196040515Y-59250000D01*
X195133386Y-59250000D01*
X195134586Y-59257584D01*
X195188092Y-59422255D01*
X195266696Y-59576524D01*
X195368468Y-59716602D01*
X195490898Y-59839032D01*
X195630976Y-59940804D01*
X195785243Y-60019408D01*
X195949916Y-60072914D01*
X196120930Y-60100000D01*
X196257501Y-60100000D01*
X196257501Y-59299999D01*
X196757501Y-59299999D01*
X196757501Y-60100000D01*
X196894072Y-60100000D01*
X197065085Y-60072914D01*
X197229758Y-60019408D01*
X197384025Y-59940804D01*
X197524103Y-59839032D01*
X197646533Y-59716602D01*
X197748305Y-59576524D01*
X197826909Y-59422255D01*
X197880415Y-59257584D01*
X197881616Y-59250000D01*
X196974487Y-59250000D01*
X196991705Y-59240059D01*
X197047560Y-59184204D01*
X197087056Y-59115795D01*
X197107500Y-59039496D01*
X197107500Y-58960504D01*
X197087056Y-58884205D01*
X197047560Y-58815796D01*
X196991705Y-58759941D01*
X196974487Y-58750000D01*
X197881616Y-58750000D01*
X197881616Y-58749999D01*
X197880415Y-58742415D01*
X197826909Y-58577744D01*
X197748305Y-58423475D01*
X197646533Y-58283397D01*
X197524103Y-58160967D01*
X197384025Y-58059195D01*
X197229758Y-57980591D01*
X197065085Y-57927085D01*
X196894072Y-57900000D01*
X196757501Y-57900000D01*
X196757501Y-58700001D01*
X196257501Y-58700001D01*
X196257501Y-57900000D01*
X196120930Y-57900000D01*
X195949916Y-57927085D01*
X195785243Y-57980591D01*
X195630976Y-58059195D01*
X195490898Y-58160967D01*
X195368468Y-58283397D01*
X195266696Y-58423475D01*
X195188092Y-58577744D01*
X195134586Y-58742415D01*
X195133385Y-58749999D01*
X193768344Y-58749999D01*
X193757150Y-58693725D01*
X193757149Y-58693723D01*
X193678000Y-58502641D01*
X193677995Y-58502631D01*
X193563090Y-58330664D01*
X193563087Y-58330660D01*
X193416840Y-58184413D01*
X193416836Y-58184410D01*
X193244869Y-58069505D01*
X193244859Y-58069500D01*
X193053775Y-57990350D01*
X193053767Y-57990348D01*
X192850921Y-57950000D01*
X192547501Y-57950000D01*
X192547501Y-58700001D01*
X192047501Y-58700001D01*
X192047501Y-57950000D01*
X191744080Y-57950000D01*
X191541234Y-57990348D01*
X191541226Y-57990350D01*
X191350142Y-58069500D01*
X191350132Y-58069505D01*
X191178165Y-58184410D01*
X191178161Y-58184413D01*
X191031914Y-58330660D01*
X191031911Y-58330664D01*
X190917006Y-58502631D01*
X190917001Y-58502641D01*
X190837852Y-58693723D01*
X190837851Y-58693725D01*
X190826658Y-58750000D01*
X99720500Y-58750000D01*
X99720500Y-57563920D01*
X104739499Y-57563920D01*
X104768340Y-57708907D01*
X104768343Y-57708917D01*
X104824912Y-57845488D01*
X104824919Y-57845501D01*
X104907048Y-57968415D01*
X104907051Y-57968419D01*
X105011580Y-58072948D01*
X105011584Y-58072951D01*
X105134498Y-58155080D01*
X105134511Y-58155087D01*
X105271082Y-58211656D01*
X105271087Y-58211658D01*
X105271091Y-58211658D01*
X105271092Y-58211659D01*
X105416079Y-58240500D01*
X105416082Y-58240500D01*
X105563920Y-58240500D01*
X105661462Y-58221096D01*
X105708913Y-58211658D01*
X105845495Y-58155084D01*
X105968416Y-58072951D01*
X106072951Y-57968416D01*
X106155084Y-57845495D01*
X106211658Y-57708913D01*
X106240500Y-57563918D01*
X106240500Y-57416082D01*
X106240500Y-57416079D01*
X106211659Y-57271092D01*
X106211658Y-57271091D01*
X106211658Y-57271087D01*
X106211656Y-57271082D01*
X106155087Y-57134511D01*
X106155080Y-57134498D01*
X106072951Y-57011584D01*
X106072948Y-57011580D01*
X105968419Y-56907051D01*
X105968415Y-56907048D01*
X105845501Y-56824919D01*
X105845488Y-56824912D01*
X105708917Y-56768343D01*
X105708907Y-56768340D01*
X105563920Y-56739500D01*
X105563918Y-56739500D01*
X105416082Y-56739500D01*
X105416080Y-56739500D01*
X105271092Y-56768340D01*
X105271082Y-56768343D01*
X105134511Y-56824912D01*
X105134498Y-56824919D01*
X105011584Y-56907048D01*
X105011580Y-56907051D01*
X104907051Y-57011580D01*
X104907048Y-57011584D01*
X104824919Y-57134498D01*
X104824912Y-57134511D01*
X104768343Y-57271082D01*
X104768340Y-57271092D01*
X104739500Y-57416079D01*
X104739500Y-57416082D01*
X104739500Y-57563918D01*
X104739500Y-57563920D01*
X104739499Y-57563920D01*
X99720500Y-57563920D01*
X99720500Y-52384427D01*
X99720816Y-52375581D01*
X99735130Y-52175443D01*
X99735131Y-52175434D01*
X99737646Y-52157938D01*
X99779356Y-51966200D01*
X99784335Y-51949242D01*
X99852911Y-51765382D01*
X99860251Y-51749310D01*
X99954294Y-51577083D01*
X99963850Y-51562214D01*
X100081443Y-51405128D01*
X100093017Y-51391771D01*
X100231771Y-51253017D01*
X100245128Y-51241443D01*
X100402214Y-51123850D01*
X100417083Y-51114294D01*
X100589310Y-51020251D01*
X100605382Y-51012911D01*
X100789242Y-50944335D01*
X100806200Y-50939356D01*
X100997938Y-50897646D01*
X101015436Y-50895130D01*
X101215582Y-50880816D01*
X101224428Y-50880500D01*
X101285892Y-50880500D01*
X197154108Y-50880500D01*
X197215572Y-50880500D01*
X197224418Y-50880816D01*
G37*
%TD.AperFunction*%
%TD*%
M02*
