%TF.GenerationSoftware,KiCad,Pcbnew,10.0.3*%
%TF.CreationDate,2026-06-15T00:27:10-04:00*%
%TF.ProjectId,a-side,612d7369-6465-42e6-9b69-6361645f7063,rev?*%
%TF.SameCoordinates,Original*%
%TF.FileFunction,Paste,Top*%
%TF.FilePolarity,Positive*%
%FSLAX46Y46*%
G04 Gerber Fmt 4.6, Leading zero omitted, Abs format (unit mm)*
G04 Created by KiCad (PCBNEW 10.0.3) date 2026-06-15 00:27:10*
%MOMM*%
%LPD*%
G01*
G04 APERTURE LIST*
G04 Aperture macros list*
%AMRoundRect*
0 Rectangle with rounded corners*
0 $1 Rounding radius*
0 $2 $3 $4 $5 $6 $7 $8 $9 X,Y pos of 4 corners*
0 Add a 4 corners polygon primitive as box body*
4,1,4,$2,$3,$4,$5,$6,$7,$8,$9,$2,$3,0*
0 Add four circle primitives for the rounded corners*
1,1,$1+$1,$2,$3*
1,1,$1+$1,$4,$5*
1,1,$1+$1,$6,$7*
1,1,$1+$1,$8,$9*
0 Add four rect primitives between the rounded corners*
20,1,$1+$1,$2,$3,$4,$5,0*
20,1,$1+$1,$4,$5,$6,$7,0*
20,1,$1+$1,$6,$7,$8,$9,0*
20,1,$1+$1,$8,$9,$2,$3,0*%
G04 Aperture macros list end*
%ADD10RoundRect,0.250000X0.450000X-0.262500X0.450000X0.262500X-0.450000X0.262500X-0.450000X-0.262500X0*%
%ADD11RoundRect,0.250000X-0.475000X0.250000X-0.475000X-0.250000X0.475000X-0.250000X0.475000X0.250000X0*%
%ADD12R,1.100000X0.550000*%
%ADD13R,1.100000X0.300000*%
%ADD14RoundRect,0.250000X-0.325000X-0.450000X0.325000X-0.450000X0.325000X0.450000X-0.325000X0.450000X0*%
%ADD15RoundRect,0.250000X-0.262500X-0.450000X0.262500X-0.450000X0.262500X0.450000X-0.262500X0.450000X0*%
%ADD16R,1.200000X1.500000*%
%ADD17R,1.200000X2.000000*%
%ADD18RoundRect,0.200000X0.800000X-0.200000X0.800000X0.200000X-0.800000X0.200000X-0.800000X-0.200000X0*%
%ADD19RoundRect,0.250000X0.475000X-0.250000X0.475000X0.250000X-0.475000X0.250000X-0.475000X-0.250000X0*%
%ADD20RoundRect,0.250000X-0.250000X-0.475000X0.250000X-0.475000X0.250000X0.475000X-0.250000X0.475000X0*%
%ADD21RoundRect,0.150000X0.150000X-0.512500X0.150000X0.512500X-0.150000X0.512500X-0.150000X-0.512500X0*%
%ADD22RoundRect,0.250000X-0.450000X0.325000X-0.450000X-0.325000X0.450000X-0.325000X0.450000X0.325000X0*%
%ADD23R,0.350000X1.800000*%
%ADD24RoundRect,0.250000X0.262500X0.450000X-0.262500X0.450000X-0.262500X-0.450000X0.262500X-0.450000X0*%
%ADD25RoundRect,0.250000X0.450000X0.350000X-0.450000X0.350000X-0.450000X-0.350000X0.450000X-0.350000X0*%
%ADD26R,1.500000X0.435000*%
%ADD27RoundRect,0.250000X0.250000X0.475000X-0.250000X0.475000X-0.250000X-0.475000X0.250000X-0.475000X0*%
%ADD28R,1.500000X1.200000*%
%ADD29R,2.000000X1.200000*%
%ADD30R,0.435000X1.500000*%
%ADD31RoundRect,0.150000X-0.512500X-0.150000X0.512500X-0.150000X0.512500X0.150000X-0.512500X0.150000X0*%
G04 APERTURE END LIST*
D10*
%TO.C,R13*%
X182510000Y-88122500D03*
X182510000Y-86297500D03*
%TD*%
D11*
%TO.C,C7*%
X156810000Y-84190001D03*
X156810000Y-86089999D03*
%TD*%
D12*
%TO.C,USB3*%
X191747501Y-66520000D03*
X191747501Y-65720000D03*
D13*
X191747500Y-64570000D03*
X191747501Y-63570000D03*
X191747501Y-63070000D03*
X191747500Y-62070000D03*
D12*
X191747501Y-60120000D03*
X191747501Y-60920000D03*
D13*
X191747501Y-61570000D03*
X191747501Y-62570000D03*
X191747501Y-64070000D03*
X191747501Y-65070000D03*
%TD*%
D14*
%TO.C,D1*%
X160330000Y-118420000D03*
X162380000Y-118420000D03*
%TD*%
D15*
%TO.C,R20*%
X133565000Y-70520000D03*
X135390000Y-70520000D03*
%TD*%
%TO.C,R18*%
X133547500Y-64640000D03*
X135372500Y-64640000D03*
%TD*%
D16*
%TO.C,Card1*%
X184990000Y-89940000D03*
X182490000Y-89940000D03*
X179190000Y-89940000D03*
X177490000Y-89940000D03*
X174990000Y-89940000D03*
X172490000Y-89940000D03*
X170060000Y-89940000D03*
X168360000Y-89940000D03*
X187490000Y-89940000D03*
X180840000Y-89940000D03*
X165010000Y-89940000D03*
D17*
X164760000Y-112140000D03*
X192220000Y-110940000D03*
%TD*%
D18*
%TO.C,SW1*%
X160180000Y-88400000D03*
X160180000Y-84200000D03*
%TD*%
D10*
%TO.C,R15*%
X178680000Y-88105000D03*
X178680000Y-86280000D03*
%TD*%
%TO.C,R12*%
X174740000Y-88075000D03*
X174740000Y-86250000D03*
%TD*%
D19*
%TO.C,C5*%
X155270000Y-73459999D03*
X155270000Y-71560001D03*
%TD*%
D20*
%TO.C,C20*%
X135180000Y-101790000D03*
X137080000Y-101790000D03*
%TD*%
D21*
%TO.C,U1*%
X188210002Y-64745000D03*
X189160001Y-64745000D03*
X190110000Y-64745000D03*
X190110000Y-62470000D03*
X189160001Y-62470000D03*
X188210002Y-62470000D03*
%TD*%
D11*
%TO.C,C11*%
X174780000Y-63180001D03*
X174780000Y-65079999D03*
%TD*%
D22*
%TO.C,D2*%
X100850000Y-86640002D03*
X100850000Y-88690000D03*
%TD*%
D23*
%TO.C,GL850G2*%
X150695000Y-82410000D03*
X151345000Y-82410000D03*
X151995000Y-82410000D03*
X152645000Y-82410000D03*
X153295000Y-82410000D03*
X153945000Y-82410000D03*
X154595000Y-82410000D03*
X155245000Y-82410000D03*
X155895000Y-82410000D03*
X156545000Y-82410000D03*
X157195000Y-82410000D03*
X157845000Y-82410000D03*
X158495000Y-82410000D03*
X159145000Y-82410000D03*
X159145000Y-76010000D03*
X158495000Y-76010000D03*
X157845000Y-76010000D03*
X157195000Y-76010000D03*
X156545000Y-76010000D03*
X155895000Y-76010000D03*
X155245000Y-76010000D03*
X154595000Y-76010000D03*
X153945000Y-76010000D03*
X153295000Y-76010000D03*
X152645000Y-76010000D03*
X151995000Y-76010000D03*
X151345000Y-76010000D03*
X150695000Y-76010000D03*
%TD*%
D15*
%TO.C,R17*%
X133550000Y-66550000D03*
X135375000Y-66550000D03*
%TD*%
D24*
%TO.C,R4*%
X150885000Y-84560000D03*
X149060000Y-84560000D03*
%TD*%
D19*
%TO.C,C1*%
X149680000Y-92759999D03*
X149680000Y-90860001D03*
%TD*%
D15*
%TO.C,R23*%
X183835000Y-65360000D03*
X185660000Y-65360000D03*
%TD*%
D25*
%TO.C,Y2*%
X153910000Y-89120001D03*
X151710000Y-89120001D03*
X151710000Y-90820001D03*
X153910000Y-90820001D03*
%TD*%
D19*
%TO.C,C14*%
X177664000Y-77069998D03*
X177664000Y-75170000D03*
%TD*%
%TO.C,C10*%
X177970000Y-65079999D03*
X177970000Y-63180001D03*
%TD*%
%TO.C,C6*%
X159860000Y-73619998D03*
X159860000Y-71720000D03*
%TD*%
D10*
%TO.C,R5*%
X153170000Y-63092500D03*
X153170000Y-61267500D03*
%TD*%
D26*
%TO.C,IC4*%
X139740000Y-66700500D03*
X139740000Y-67334500D03*
X139740000Y-67970500D03*
X139740000Y-68604500D03*
X139740000Y-69240500D03*
X139740000Y-69874500D03*
X139740000Y-70510500D03*
X139740000Y-71144500D03*
X145140000Y-71144500D03*
X145140000Y-70510500D03*
X145140000Y-69874500D03*
X145140000Y-69240500D03*
X145140000Y-68604500D03*
X145140000Y-67970500D03*
X145140000Y-67334500D03*
X145140000Y-66700500D03*
%TD*%
D20*
%TO.C,C15*%
X146910000Y-70520000D03*
X148810000Y-70520000D03*
%TD*%
D10*
%TO.C,R11*%
X176650000Y-88092500D03*
X176650000Y-86267500D03*
%TD*%
D15*
%TO.C,R19*%
X133547500Y-72440000D03*
X135372500Y-72440000D03*
%TD*%
D27*
%TO.C,C9*%
X149499999Y-82470000D03*
X147600001Y-82470000D03*
%TD*%
D20*
%TO.C,C17*%
X146910000Y-68560000D03*
X148810000Y-68560000D03*
%TD*%
D19*
%TO.C,C3*%
X162870000Y-86179999D03*
X162870000Y-84280001D03*
%TD*%
D11*
%TO.C,C16*%
X145170000Y-72420001D03*
X145170000Y-74319999D03*
%TD*%
D15*
%TO.C,R16*%
X133550000Y-68450000D03*
X135375000Y-68450000D03*
%TD*%
D10*
%TO.C,R1*%
X159020000Y-63040000D03*
X159020000Y-61215000D03*
%TD*%
%TO.C,R6*%
X155170000Y-63060000D03*
X155170000Y-61235000D03*
%TD*%
D20*
%TO.C,C12*%
X181784001Y-78970000D03*
X183683999Y-78970000D03*
%TD*%
D10*
%TO.C,R14*%
X180600000Y-88112500D03*
X180600000Y-86287500D03*
%TD*%
D15*
%TO.C,R8*%
X104077500Y-86650000D03*
X105902500Y-86650000D03*
%TD*%
%TO.C,R10*%
X183827500Y-62380000D03*
X185652500Y-62380000D03*
%TD*%
D28*
%TO.C,Card2*%
X129790000Y-76470000D03*
X129790000Y-73970000D03*
X129790000Y-70670000D03*
X129790000Y-68970000D03*
X129790000Y-66470000D03*
X129790000Y-63970000D03*
X129790000Y-61540000D03*
X129790000Y-59840000D03*
X129790000Y-78970000D03*
X129790000Y-72320000D03*
X129790000Y-56490000D03*
D29*
X107590000Y-56240000D03*
X108790000Y-83700000D03*
%TD*%
D11*
%TO.C,C8*%
X152790000Y-84270001D03*
X152790000Y-86169999D03*
%TD*%
D20*
%TO.C,C13*%
X179904000Y-76710000D03*
X181804000Y-76710000D03*
%TD*%
D15*
%TO.C,R7*%
X160247500Y-114740000D03*
X162072500Y-114740000D03*
%TD*%
D11*
%TO.C,C2*%
X155910000Y-89080001D03*
X155910000Y-90979999D03*
%TD*%
D30*
%TO.C,IC3*%
X176060000Y-84400000D03*
X176694000Y-84400000D03*
X177330000Y-84400000D03*
X177964000Y-84400000D03*
X178600000Y-84400000D03*
X179234000Y-84400000D03*
X179870000Y-84400000D03*
X180504000Y-84400000D03*
X180504000Y-79000000D03*
X179870000Y-79000000D03*
X179234000Y-79000000D03*
X178600000Y-79000000D03*
X177964000Y-79000000D03*
X177330000Y-79000000D03*
X176694000Y-79000000D03*
X176060000Y-79000000D03*
%TD*%
D19*
%TO.C,C4*%
X153290000Y-73459999D03*
X153290000Y-71560001D03*
%TD*%
D31*
%TO.C,U2*%
X131225000Y-100850000D03*
X131225000Y-101800000D03*
X131225000Y-102750000D03*
X133500000Y-102750000D03*
X133500000Y-101800000D03*
X133500000Y-100850000D03*
%TD*%
D10*
%TO.C,R2*%
X157100000Y-63037500D03*
X157100000Y-61212500D03*
%TD*%
D20*
%TO.C,C19*%
X188530000Y-60220000D03*
X190430000Y-60220000D03*
%TD*%
M02*
