ISO-10303-21;
HEADER;
/* Generated by software containing ST-Developer
 * from STEP Tools, Inc. (www.steptools.com) 
 */

FILE_DESCRIPTION(
/* description */ (''),
/* implementation_level */ '2;1');

FILE_NAME(
/* name */ 'bottom.step',
/* time_stamp */ '2026-06-16T04:19:03-04:00',
/* author */ (''),
/* organization */ (''),
/* preprocessor_version */ 'ST-DEVELOPER v20.1',
/* originating_system */ 'Autodesk Translation Framework v15.8.0.0',
/* authorisation */ '');

FILE_SCHEMA (('AUTOMOTIVE_DESIGN { 1 0 10303 214 3 1 1 }'));
ENDSEC;

DATA;
#10=MECHANICAL_DESIGN_GEOMETRIC_PRESENTATION_REPRESENTATION('',(#13),#2386);
#11=SHAPE_REPRESENTATION_RELATIONSHIP('SRR','None',#2393,#12);
#12=ADVANCED_BREP_SHAPE_REPRESENTATION('',(#14),#2385);
#13=STYLED_ITEM('',(#2403),#14);
#14=MANIFOLD_SOLID_BREP('Bottom',#1434);
#15=FACE_BOUND('',#186,.T.);
#16=FACE_BOUND('',#187,.T.);
#17=FACE_BOUND('',#190,.T.);
#18=FACE_BOUND('',#216,.T.);
#19=FACE_BOUND('',#223,.T.);
#20=FACE_BOUND('',#226,.T.);
#21=FACE_BOUND('',#229,.T.);
#22=FACE_BOUND('',#255,.T.);
#23=FACE_BOUND('',#258,.T.);
#24=FACE_BOUND('',#261,.T.);
#25=FACE_BOUND('',#264,.T.);
#26=FACE_BOUND('',#265,.T.);
#27=FACE_BOUND('',#266,.T.);
#28=FACE_BOUND('',#267,.T.);
#29=FACE_BOUND('',#268,.T.);
#30=FACE_BOUND('',#270,.T.);
#31=FACE_BOUND('',#271,.T.);
#32=CIRCLE('',#1450,4.53924561645539);
#33=CIRCLE('',#1451,4.53924561645539);
#34=CIRCLE('',#1454,4.53924561645539);
#35=CIRCLE('',#1455,4.53924561645539);
#36=CIRCLE('',#1457,0.600000000000005);
#37=CIRCLE('',#1458,0.600000000000005);
#38=CIRCLE('',#1460,3.);
#39=CIRCLE('',#1461,3.);
#40=CIRCLE('',#1463,0.600000000000005);
#41=CIRCLE('',#1465,0.600000000000005);
#42=CIRCLE('',#1467,0.600000000000005);
#43=CIRCLE('',#1469,0.600000000000005);
#44=CIRCLE('',#1472,3.);
#45=CIRCLE('',#1473,3.);
#46=CIRCLE('',#1476,3.);
#47=CIRCLE('',#1477,3.);
#48=CIRCLE('',#1486,3.50000000000001);
#49=CIRCLE('',#1487,3.50000000000001);
#50=CIRCLE('',#1491,5.00000000000001);
#51=CIRCLE('',#1492,3.50000000000002);
#52=CIRCLE('',#1493,3.50000000000001);
#53=CIRCLE('',#1494,3.50000000000001);
#54=CIRCLE('',#1495,5.00000000000001);
#55=CIRCLE('',#1496,5.00000000000001);
#56=CIRCLE('',#1497,5.00000000000002);
#57=CIRCLE('',#1504,3.50000000000001);
#58=CIRCLE('',#1507,3.50000000000001);
#59=CIRCLE('',#1510,3.50000000000002);
#60=CIRCLE('',#1513,1.6);
#61=CIRCLE('',#1514,1.6);
#62=CIRCLE('',#1517,1.6);
#63=CIRCLE('',#1518,1.6);
#64=CIRCLE('',#1521,1.6);
#65=CIRCLE('',#1522,1.6);
#66=CIRCLE('',#1528,2.00000000000001);
#67=CIRCLE('',#1529,2.00000000000001);
#68=CIRCLE('',#1531,3.00000000000001);
#69=CIRCLE('',#1532,3.00000000000001);
#70=CIRCLE('',#1541,2.00000000000002);
#71=CIRCLE('',#1542,2.00000000000002);
#72=CIRCLE('',#1545,2.00000000000001);
#73=CIRCLE('',#1546,2.00000000000001);
#74=CIRCLE('',#1548,3.00000000000002);
#75=CIRCLE('',#1549,3.00000000000002);
#76=CIRCLE('',#1552,3.00000000000001);
#77=CIRCLE('',#1553,3.00000000000001);
#78=CIRCLE('',#1560,5.00000000000001);
#79=CIRCLE('',#1563,5.00000000000001);
#80=CIRCLE('',#1566,5.00000000000001);
#81=CIRCLE('',#1569,5.00000000000002);
#82=CYLINDRICAL_SURFACE('',#1449,4.53924561645539);
#83=CYLINDRICAL_SURFACE('',#1453,4.53924561645539);
#84=CYLINDRICAL_SURFACE('',#1459,3.);
#85=CYLINDRICAL_SURFACE('',#1464,0.600000000000005);
#86=CYLINDRICAL_SURFACE('',#1466,0.600000000000005);
#87=CYLINDRICAL_SURFACE('',#1468,0.600000000000005);
#88=CYLINDRICAL_SURFACE('',#1471,3.);
#89=CYLINDRICAL_SURFACE('',#1475,3.);
#90=CYLINDRICAL_SURFACE('',#1485,3.50000000000001);
#91=CYLINDRICAL_SURFACE('',#1503,3.50000000000001);
#92=CYLINDRICAL_SURFACE('',#1506,3.50000000000001);
#93=CYLINDRICAL_SURFACE('',#1509,3.50000000000002);
#94=CYLINDRICAL_SURFACE('',#1512,1.6);
#95=CYLINDRICAL_SURFACE('',#1516,1.6);
#96=CYLINDRICAL_SURFACE('',#1520,1.6);
#97=CYLINDRICAL_SURFACE('',#1527,2.00000000000001);
#98=CYLINDRICAL_SURFACE('',#1530,3.00000000000001);
#99=CYLINDRICAL_SURFACE('',#1540,2.00000000000002);
#100=CYLINDRICAL_SURFACE('',#1544,2.00000000000001);
#101=CYLINDRICAL_SURFACE('',#1547,3.00000000000002);
#102=CYLINDRICAL_SURFACE('',#1551,3.00000000000001);
#103=CYLINDRICAL_SURFACE('',#1559,5.00000000000001);
#104=CYLINDRICAL_SURFACE('',#1562,5.00000000000001);
#105=CYLINDRICAL_SURFACE('',#1565,5.00000000000001);
#106=CYLINDRICAL_SURFACE('',#1568,5.00000000000002);
#107=FACE_OUTER_BOUND('',#181,.T.);
#108=FACE_OUTER_BOUND('',#182,.T.);
#109=FACE_OUTER_BOUND('',#183,.T.);
#110=FACE_OUTER_BOUND('',#184,.T.);
#111=FACE_OUTER_BOUND('',#185,.T.);
#112=FACE_OUTER_BOUND('',#188,.T.);
#113=FACE_OUTER_BOUND('',#189,.T.);
#114=FACE_OUTER_BOUND('',#191,.T.);
#115=FACE_OUTER_BOUND('',#192,.T.);
#116=FACE_OUTER_BOUND('',#193,.T.);
#117=FACE_OUTER_BOUND('',#194,.T.);
#118=FACE_OUTER_BOUND('',#195,.T.);
#119=FACE_OUTER_BOUND('',#196,.T.);
#120=FACE_OUTER_BOUND('',#197,.T.);
#121=FACE_OUTER_BOUND('',#198,.T.);
#122=FACE_OUTER_BOUND('',#199,.T.);
#123=FACE_OUTER_BOUND('',#200,.T.);
#124=FACE_OUTER_BOUND('',#201,.T.);
#125=FACE_OUTER_BOUND('',#202,.T.);
#126=FACE_OUTER_BOUND('',#203,.T.);
#127=FACE_OUTER_BOUND('',#204,.T.);
#128=FACE_OUTER_BOUND('',#205,.T.);
#129=FACE_OUTER_BOUND('',#206,.T.);
#130=FACE_OUTER_BOUND('',#207,.T.);
#131=FACE_OUTER_BOUND('',#208,.T.);
#132=FACE_OUTER_BOUND('',#209,.T.);
#133=FACE_OUTER_BOUND('',#210,.T.);
#134=FACE_OUTER_BOUND('',#211,.T.);
#135=FACE_OUTER_BOUND('',#212,.T.);
#136=FACE_OUTER_BOUND('',#213,.T.);
#137=FACE_OUTER_BOUND('',#214,.T.);
#138=FACE_OUTER_BOUND('',#215,.T.);
#139=FACE_OUTER_BOUND('',#217,.T.);
#140=FACE_OUTER_BOUND('',#218,.T.);
#141=FACE_OUTER_BOUND('',#219,.T.);
#142=FACE_OUTER_BOUND('',#220,.T.);
#143=FACE_OUTER_BOUND('',#221,.T.);
#144=FACE_OUTER_BOUND('',#222,.T.);
#145=FACE_OUTER_BOUND('',#224,.T.);
#146=FACE_OUTER_BOUND('',#225,.T.);
#147=FACE_OUTER_BOUND('',#227,.T.);
#148=FACE_OUTER_BOUND('',#228,.T.);
#149=FACE_OUTER_BOUND('',#230,.T.);
#150=FACE_OUTER_BOUND('',#231,.T.);
#151=FACE_OUTER_BOUND('',#232,.T.);
#152=FACE_OUTER_BOUND('',#233,.T.);
#153=FACE_OUTER_BOUND('',#234,.T.);
#154=FACE_OUTER_BOUND('',#235,.T.);
#155=FACE_OUTER_BOUND('',#236,.T.);
#156=FACE_OUTER_BOUND('',#237,.T.);
#157=FACE_OUTER_BOUND('',#238,.T.);
#158=FACE_OUTER_BOUND('',#239,.T.);
#159=FACE_OUTER_BOUND('',#240,.T.);
#160=FACE_OUTER_BOUND('',#241,.T.);
#161=FACE_OUTER_BOUND('',#242,.T.);
#162=FACE_OUTER_BOUND('',#243,.T.);
#163=FACE_OUTER_BOUND('',#244,.T.);
#164=FACE_OUTER_BOUND('',#245,.T.);
#165=FACE_OUTER_BOUND('',#246,.T.);
#166=FACE_OUTER_BOUND('',#247,.T.);
#167=FACE_OUTER_BOUND('',#248,.T.);
#168=FACE_OUTER_BOUND('',#249,.T.);
#169=FACE_OUTER_BOUND('',#250,.T.);
#170=FACE_OUTER_BOUND('',#251,.T.);
#171=FACE_OUTER_BOUND('',#252,.T.);
#172=FACE_OUTER_BOUND('',#253,.T.);
#173=FACE_OUTER_BOUND('',#254,.T.);
#174=FACE_OUTER_BOUND('',#256,.T.);
#175=FACE_OUTER_BOUND('',#257,.T.);
#176=FACE_OUTER_BOUND('',#259,.T.);
#177=FACE_OUTER_BOUND('',#260,.T.);
#178=FACE_OUTER_BOUND('',#262,.T.);
#179=FACE_OUTER_BOUND('',#263,.T.);
#180=FACE_OUTER_BOUND('',#269,.T.);
#181=EDGE_LOOP('',(#909,#910,#911,#912));
#182=EDGE_LOOP('',(#913,#914,#915,#916));
#183=EDGE_LOOP('',(#917,#918,#919,#920));
#184=EDGE_LOOP('',(#921,#922,#923,#924));
#185=EDGE_LOOP('',(#925,#926,#927,#928));
#186=EDGE_LOOP('',(#929));
#187=EDGE_LOOP('',(#930));
#188=EDGE_LOOP('',(#931,#932,#933,#934));
#189=EDGE_LOOP('',(#935));
#190=EDGE_LOOP('',(#936));
#191=EDGE_LOOP('',(#937,#938,#939,#940));
#192=EDGE_LOOP('',(#941,#942,#943,#944));
#193=EDGE_LOOP('',(#945,#946,#947,#948));
#194=EDGE_LOOP('',(#949,#950,#951,#952));
#195=EDGE_LOOP('',(#953,#954,#955,#956));
#196=EDGE_LOOP('',(#957,#958,#959,#960));
#197=EDGE_LOOP('',(#961,#962,#963,#964));
#198=EDGE_LOOP('',(#965,#966,#967,#968));
#199=EDGE_LOOP('',(#969,#970,#971,#972));
#200=EDGE_LOOP('',(#973,#974,#975,#976));
#201=EDGE_LOOP('',(#977,#978,#979,#980));
#202=EDGE_LOOP('',(#981,#982,#983,#984));
#203=EDGE_LOOP('',(#985,#986,#987,#988));
#204=EDGE_LOOP('',(#989,#990,#991,#992,#993,#994,#995,#996));
#205=EDGE_LOOP('',(#997,#998,#999,#1000));
#206=EDGE_LOOP('',(#1001,#1002,#1003,#1004));
#207=EDGE_LOOP('',(#1005,#1006,#1007,#1008));
#208=EDGE_LOOP('',(#1009,#1010,#1011,#1012,#1013,#1014,#1015,#1016,#1017,
#1018,#1019,#1020,#1021,#1022,#1023,#1024,#1025,#1026,#1027,#1028));
#209=EDGE_LOOP('',(#1029,#1030,#1031,#1032));
#210=EDGE_LOOP('',(#1033,#1034,#1035,#1036));
#211=EDGE_LOOP('',(#1037,#1038,#1039,#1040));
#212=EDGE_LOOP('',(#1041,#1042,#1043,#1044));
#213=EDGE_LOOP('',(#1045,#1046,#1047,#1048));
#214=EDGE_LOOP('',(#1049,#1050,#1051,#1052));
#215=EDGE_LOOP('',(#1053,#1054,#1055,#1056));
#216=EDGE_LOOP('',(#1057,#1058,#1059,#1060));
#217=EDGE_LOOP('',(#1061,#1062,#1063,#1064));
#218=EDGE_LOOP('',(#1065,#1066,#1067,#1068));
#219=EDGE_LOOP('',(#1069,#1070,#1071,#1072));
#220=EDGE_LOOP('',(#1073,#1074,#1075,#1076,#1077,#1078,#1079,#1080));
#221=EDGE_LOOP('',(#1081,#1082,#1083,#1084));
#222=EDGE_LOOP('',(#1085));
#223=EDGE_LOOP('',(#1086));
#224=EDGE_LOOP('',(#1087,#1088,#1089,#1090));
#225=EDGE_LOOP('',(#1091));
#226=EDGE_LOOP('',(#1092));
#227=EDGE_LOOP('',(#1093,#1094,#1095,#1096));
#228=EDGE_LOOP('',(#1097));
#229=EDGE_LOOP('',(#1098));
#230=EDGE_LOOP('',(#1099,#1100,#1101,#1102));
#231=EDGE_LOOP('',(#1103,#1104,#1105,#1106));
#232=EDGE_LOOP('',(#1107,#1108,#1109,#1110));
#233=EDGE_LOOP('',(#1111,#1112,#1113,#1114));
#234=EDGE_LOOP('',(#1115,#1116,#1117,#1118));
#235=EDGE_LOOP('',(#1119,#1120,#1121,#1122));
#236=EDGE_LOOP('',(#1123,#1124,#1125,#1126));
#237=EDGE_LOOP('',(#1127,#1128,#1129,#1130));
#238=EDGE_LOOP('',(#1131,#1132,#1133,#1134,#1135,#1136,#1137,#1138));
#239=EDGE_LOOP('',(#1139,#1140,#1141,#1142));
#240=EDGE_LOOP('',(#1143,#1144,#1145,#1146));
#241=EDGE_LOOP('',(#1147,#1148,#1149,#1150));
#242=EDGE_LOOP('',(#1151,#1152,#1153,#1154));
#243=EDGE_LOOP('',(#1155,#1156,#1157,#1158));
#244=EDGE_LOOP('',(#1159,#1160,#1161,#1162));
#245=EDGE_LOOP('',(#1163,#1164,#1165,#1166));
#246=EDGE_LOOP('',(#1167,#1168,#1169,#1170));
#247=EDGE_LOOP('',(#1171,#1172,#1173,#1174));
#248=EDGE_LOOP('',(#1175,#1176,#1177,#1178));
#249=EDGE_LOOP('',(#1179,#1180,#1181,#1182));
#250=EDGE_LOOP('',(#1183,#1184,#1185,#1186));
#251=EDGE_LOOP('',(#1187,#1188,#1189,#1190,#1191,#1192,#1193,#1194,#1195,
#1196,#1197,#1198));
#252=EDGE_LOOP('',(#1199,#1200,#1201,#1202));
#253=EDGE_LOOP('',(#1203,#1204,#1205,#1206));
#254=EDGE_LOOP('',(#1207,#1208,#1209,#1210));
#255=EDGE_LOOP('',(#1211,#1212,#1213,#1214));
#256=EDGE_LOOP('',(#1215,#1216,#1217,#1218));
#257=EDGE_LOOP('',(#1219,#1220,#1221,#1222,#1223,#1224,#1225,#1226,#1227,
#1228,#1229,#1230));
#258=EDGE_LOOP('',(#1231,#1232,#1233,#1234));
#259=EDGE_LOOP('',(#1235,#1236,#1237,#1238));
#260=EDGE_LOOP('',(#1239,#1240,#1241,#1242));
#261=EDGE_LOOP('',(#1243,#1244,#1245,#1246));
#262=EDGE_LOOP('',(#1247,#1248,#1249,#1250));
#263=EDGE_LOOP('',(#1251,#1252,#1253,#1254,#1255,#1256,#1257,#1258,#1259,
#1260,#1261,#1262,#1263,#1264,#1265,#1266,#1267,#1268,#1269,#1270,#1271,
#1272,#1273,#1274));
#264=EDGE_LOOP('',(#1275));
#265=EDGE_LOOP('',(#1276));
#266=EDGE_LOOP('',(#1277));
#267=EDGE_LOOP('',(#1278,#1279,#1280,#1281,#1282,#1283,#1284,#1285));
#268=EDGE_LOOP('',(#1286,#1287,#1288,#1289,#1290,#1291,#1292,#1293,#1294,
#1295,#1296,#1297));
#269=EDGE_LOOP('',(#1298,#1299,#1300,#1301,#1302,#1303,#1304,#1305));
#270=EDGE_LOOP('',(#1306,#1307,#1308,#1309));
#271=EDGE_LOOP('',(#1310));
#272=LINE('',#1977,#423);
#273=LINE('',#1979,#424);
#274=LINE('',#1981,#425);
#275=LINE('',#1982,#426);
#276=LINE('',#1987,#427);
#277=LINE('',#1991,#428);
#278=LINE('',#1993,#429);
#279=LINE('',#1994,#430);
#280=LINE('',#2007,#431);
#281=LINE('',#2014,#432);
#282=LINE('',#2018,#433);
#283=LINE('',#2022,#434);
#284=LINE('',#2027,#435);
#285=LINE('',#2029,#436);
#286=LINE('',#2031,#437);
#287=LINE('',#2032,#438);
#288=LINE('',#2038,#439);
#289=LINE('',#2041,#440);
#290=LINE('',#2043,#441);
#291=LINE('',#2044,#442);
#292=LINE('',#2051,#443);
#293=LINE('',#2053,#444);
#294=LINE('',#2055,#445);
#295=LINE('',#2056,#446);
#296=LINE('',#2059,#447);
#297=LINE('',#2061,#448);
#298=LINE('',#2062,#449);
#299=LINE('',#2065,#450);
#300=LINE('',#2067,#451);
#301=LINE('',#2068,#452);
#302=LINE('',#2072,#453);
#303=LINE('',#2074,#454);
#304=LINE('',#2076,#455);
#305=LINE('',#2077,#456);
#306=LINE('',#2080,#457);
#307=LINE('',#2082,#458);
#308=LINE('',#2083,#459);
#309=LINE('',#2086,#460);
#310=LINE('',#2088,#461);
#311=LINE('',#2089,#462);
#312=LINE('',#2092,#463);
#313=LINE('',#2094,#464);
#314=LINE('',#2096,#465);
#315=LINE('',#2098,#466);
#316=LINE('',#2099,#467);
#317=LINE('',#2105,#468);
#318=LINE('',#2108,#469);
#319=LINE('',#2110,#470);
#320=LINE('',#2111,#471);
#321=LINE('',#2114,#472);
#322=LINE('',#2116,#473);
#323=LINE('',#2117,#474);
#324=LINE('',#2121,#475);
#325=LINE('',#2124,#476);
#326=LINE('',#2128,#477);
#327=LINE('',#2132,#478);
#328=LINE('',#2136,#479);
#329=LINE('',#2138,#480);
#330=LINE('',#2140,#481);
#331=LINE('',#2144,#482);
#332=LINE('',#2148,#483);
#333=LINE('',#2153,#484);
#334=LINE('',#2154,#485);
#335=LINE('',#2155,#486);
#336=LINE('',#2159,#487);
#337=LINE('',#2161,#488);
#338=LINE('',#2163,#489);
#339=LINE('',#2164,#490);
#340=LINE('',#2167,#491);
#341=LINE('',#2169,#492);
#342=LINE('',#2170,#493);
#343=LINE('',#2173,#494);
#344=LINE('',#2175,#495);
#345=LINE('',#2176,#496);
#346=LINE('',#2178,#497);
#347=LINE('',#2183,#498);
#348=LINE('',#2184,#499);
#349=LINE('',#2187,#500);
#350=LINE('',#2188,#501);
#351=LINE('',#2192,#502);
#352=LINE('',#2195,#503);
#353=LINE('',#2196,#504);
#354=LINE('',#2200,#505);
#355=LINE('',#2201,#506);
#356=LINE('',#2206,#507);
#357=LINE('',#2213,#508);
#358=LINE('',#2220,#509);
#359=LINE('',#2226,#510);
#360=LINE('',#2228,#511);
#361=LINE('',#2230,#512);
#362=LINE('',#2231,#513);
#363=LINE('',#2234,#514);
#364=LINE('',#2236,#515);
#365=LINE('',#2237,#516);
#366=LINE('',#2240,#517);
#367=LINE('',#2242,#518);
#368=LINE('',#2243,#519);
#369=LINE('',#2248,#520);
#370=LINE('',#2255,#521);
#371=LINE('',#2258,#522);
#372=LINE('',#2260,#523);
#373=LINE('',#2261,#524);
#374=LINE('',#2264,#525);
#375=LINE('',#2266,#526);
#376=LINE('',#2267,#527);
#377=LINE('',#2269,#528);
#378=LINE('',#2270,#529);
#379=LINE('',#2275,#530);
#380=LINE('',#2277,#531);
#381=LINE('',#2279,#532);
#382=LINE('',#2280,#533);
#383=LINE('',#2283,#534);
#384=LINE('',#2285,#535);
#385=LINE('',#2286,#536);
#386=LINE('',#2289,#537);
#387=LINE('',#2291,#538);
#388=LINE('',#2292,#539);
#389=LINE('',#2297,#540);
#390=LINE('',#2301,#541);
#391=LINE('',#2303,#542);
#392=LINE('',#2304,#543);
#393=LINE('',#2309,#544);
#394=LINE('',#2316,#545);
#395=LINE('',#2319,#546);
#396=LINE('',#2321,#547);
#397=LINE('',#2322,#548);
#398=LINE('',#2328,#549);
#399=LINE('',#2331,#550);
#400=LINE('',#2333,#551);
#401=LINE('',#2334,#552);
#402=LINE('',#2337,#553);
#403=LINE('',#2339,#554);
#404=LINE('',#2340,#555);
#405=LINE('',#2342,#556);
#406=LINE('',#2343,#557);
#407=LINE('',#2348,#558);
#408=LINE('',#2349,#559);
#409=LINE('',#2350,#560);
#410=LINE('',#2354,#561);
#411=LINE('',#2357,#562);
#412=LINE('',#2358,#563);
#413=LINE('',#2362,#564);
#414=LINE('',#2364,#565);
#415=LINE('',#2365,#566);
#416=LINE('',#2367,#567);
#417=LINE('',#2368,#568);
#418=LINE('',#2369,#569);
#419=LINE('',#2373,#570);
#420=LINE('',#2376,#571);
#421=LINE('',#2377,#572);
#422=LINE('',#2378,#573);
#423=VECTOR('',#1576,10.);
#424=VECTOR('',#1577,10.);
#425=VECTOR('',#1578,10.);
#426=VECTOR('',#1579,10.);
#427=VECTOR('',#1584,10.);
#428=VECTOR('',#1589,10.);
#429=VECTOR('',#1590,10.);
#430=VECTOR('',#1591,10.);
#431=VECTOR('',#1608,3.);
#432=VECTOR('',#1617,0.600000000000005);
#433=VECTOR('',#1622,0.600000000000005);
#434=VECTOR('',#1627,0.600000000000005);
#435=VECTOR('',#1632,10.);
#436=VECTOR('',#1633,10.);
#437=VECTOR('',#1634,10.);
#438=VECTOR('',#1635,10.);
#439=VECTOR('',#1642,10.);
#440=VECTOR('',#1645,10.);
#441=VECTOR('',#1646,10.);
#442=VECTOR('',#1647,10.);
#443=VECTOR('',#1656,10.);
#444=VECTOR('',#1657,10.);
#445=VECTOR('',#1658,10.);
#446=VECTOR('',#1659,10.);
#447=VECTOR('',#1662,10.);
#448=VECTOR('',#1663,10.);
#449=VECTOR('',#1664,10.);
#450=VECTOR('',#1667,10.);
#451=VECTOR('',#1668,10.);
#452=VECTOR('',#1669,10.);
#453=VECTOR('',#1672,10.);
#454=VECTOR('',#1673,10.);
#455=VECTOR('',#1674,10.);
#456=VECTOR('',#1675,10.);
#457=VECTOR('',#1678,10.);
#458=VECTOR('',#1679,10.);
#459=VECTOR('',#1680,10.);
#460=VECTOR('',#1683,10.);
#461=VECTOR('',#1684,10.);
#462=VECTOR('',#1685,10.);
#463=VECTOR('',#1688,10.);
#464=VECTOR('',#1689,10.);
#465=VECTOR('',#1690,10.);
#466=VECTOR('',#1691,10.);
#467=VECTOR('',#1692,10.);
#468=VECTOR('',#1699,10.);
#469=VECTOR('',#1702,10.);
#470=VECTOR('',#1703,10.);
#471=VECTOR('',#1704,10.);
#472=VECTOR('',#1707,10.);
#473=VECTOR('',#1708,10.);
#474=VECTOR('',#1709,10.);
#475=VECTOR('',#1712,10.);
#476=VECTOR('',#1715,10.);
#477=VECTOR('',#1718,10.);
#478=VECTOR('',#1721,10.);
#479=VECTOR('',#1724,10.);
#480=VECTOR('',#1725,10.);
#481=VECTOR('',#1726,10.);
#482=VECTOR('',#1729,10.);
#483=VECTOR('',#1732,10.);
#484=VECTOR('',#1737,10.);
#485=VECTOR('',#1738,10.);
#486=VECTOR('',#1739,10.);
#487=VECTOR('',#1742,10.);
#488=VECTOR('',#1743,10.);
#489=VECTOR('',#1744,10.);
#490=VECTOR('',#1745,10.);
#491=VECTOR('',#1748,10.);
#492=VECTOR('',#1749,10.);
#493=VECTOR('',#1750,10.);
#494=VECTOR('',#1753,10.);
#495=VECTOR('',#1754,10.);
#496=VECTOR('',#1755,10.);
#497=VECTOR('',#1758,10.);
#498=VECTOR('',#1763,10.);
#499=VECTOR('',#1764,10.);
#500=VECTOR('',#1767,10.);
#501=VECTOR('',#1768,10.);
#502=VECTOR('',#1773,10.);
#503=VECTOR('',#1776,10.);
#504=VECTOR('',#1777,10.);
#505=VECTOR('',#1784,10.);
#506=VECTOR('',#1785,10.);
#507=VECTOR('',#1790,1.6);
#508=VECTOR('',#1799,1.6);
#509=VECTOR('',#1808,1.6);
#510=VECTOR('',#1815,10.);
#511=VECTOR('',#1816,10.);
#512=VECTOR('',#1817,10.);
#513=VECTOR('',#1818,10.);
#514=VECTOR('',#1821,10.);
#515=VECTOR('',#1822,10.);
#516=VECTOR('',#1823,10.);
#517=VECTOR('',#1826,10.);
#518=VECTOR('',#1827,10.);
#519=VECTOR('',#1828,10.);
#520=VECTOR('',#1833,10.);
#521=VECTOR('',#1842,10.);
#522=VECTOR('',#1845,10.);
#523=VECTOR('',#1846,10.);
#524=VECTOR('',#1847,10.);
#525=VECTOR('',#1850,10.);
#526=VECTOR('',#1851,10.);
#527=VECTOR('',#1852,10.);
#528=VECTOR('',#1855,10.);
#529=VECTOR('',#1856,10.);
#530=VECTOR('',#1861,10.);
#531=VECTOR('',#1862,10.);
#532=VECTOR('',#1863,10.);
#533=VECTOR('',#1864,10.);
#534=VECTOR('',#1867,10.);
#535=VECTOR('',#1868,10.);
#536=VECTOR('',#1869,10.);
#537=VECTOR('',#1872,10.);
#538=VECTOR('',#1873,10.);
#539=VECTOR('',#1874,10.);
#540=VECTOR('',#1879,10.);
#541=VECTOR('',#1884,10.);
#542=VECTOR('',#1885,10.);
#543=VECTOR('',#1886,10.);
#544=VECTOR('',#1891,10.);
#545=VECTOR('',#1900,10.);
#546=VECTOR('',#1903,10.);
#547=VECTOR('',#1904,10.);
#548=VECTOR('',#1905,10.);
#549=VECTOR('',#1912,10.);
#550=VECTOR('',#1915,10.);
#551=VECTOR('',#1916,10.);
#552=VECTOR('',#1917,10.);
#553=VECTOR('',#1920,10.);
#554=VECTOR('',#1921,10.);
#555=VECTOR('',#1922,10.);
#556=VECTOR('',#1925,10.);
#557=VECTOR('',#1926,10.);
#558=VECTOR('',#1931,10.);
#559=VECTOR('',#1932,10.);
#560=VECTOR('',#1933,10.);
#561=VECTOR('',#1938,10.);
#562=VECTOR('',#1941,10.);
#563=VECTOR('',#1942,10.);
#564=VECTOR('',#1947,10.);
#565=VECTOR('',#1950,10.);
#566=VECTOR('',#1951,10.);
#567=VECTOR('',#1952,10.);
#568=VECTOR('',#1953,10.);
#569=VECTOR('',#1954,10.);
#570=VECTOR('',#1959,10.);
#571=VECTOR('',#1962,10.);
#572=VECTOR('',#1963,10.);
#573=VECTOR('',#1964,10.);
#574=VERTEX_POINT('',#1975);
#575=VERTEX_POINT('',#1976);
#576=VERTEX_POINT('',#1978);
#577=VERTEX_POINT('',#1980);
#578=VERTEX_POINT('',#1984);
#579=VERTEX_POINT('',#1986);
#580=VERTEX_POINT('',#1990);
#581=VERTEX_POINT('',#1992);
#582=VERTEX_POINT('',#1999);
#583=VERTEX_POINT('',#2001);
#584=VERTEX_POINT('',#2004);
#585=VERTEX_POINT('',#2006);
#586=VERTEX_POINT('',#2010);
#587=VERTEX_POINT('',#2013);
#588=VERTEX_POINT('',#2017);
#589=VERTEX_POINT('',#2021);
#590=VERTEX_POINT('',#2025);
#591=VERTEX_POINT('',#2026);
#592=VERTEX_POINT('',#2028);
#593=VERTEX_POINT('',#2030);
#594=VERTEX_POINT('',#2034);
#595=VERTEX_POINT('',#2036);
#596=VERTEX_POINT('',#2040);
#597=VERTEX_POINT('',#2042);
#598=VERTEX_POINT('',#2049);
#599=VERTEX_POINT('',#2050);
#600=VERTEX_POINT('',#2052);
#601=VERTEX_POINT('',#2054);
#602=VERTEX_POINT('',#2058);
#603=VERTEX_POINT('',#2060);
#604=VERTEX_POINT('',#2064);
#605=VERTEX_POINT('',#2066);
#606=VERTEX_POINT('',#2070);
#607=VERTEX_POINT('',#2071);
#608=VERTEX_POINT('',#2073);
#609=VERTEX_POINT('',#2075);
#610=VERTEX_POINT('',#2079);
#611=VERTEX_POINT('',#2081);
#612=VERTEX_POINT('',#2085);
#613=VERTEX_POINT('',#2087);
#614=VERTEX_POINT('',#2091);
#615=VERTEX_POINT('',#2093);
#616=VERTEX_POINT('',#2095);
#617=VERTEX_POINT('',#2097);
#618=VERTEX_POINT('',#2101);
#619=VERTEX_POINT('',#2103);
#620=VERTEX_POINT('',#2107);
#621=VERTEX_POINT('',#2109);
#622=VERTEX_POINT('',#2113);
#623=VERTEX_POINT('',#2115);
#624=VERTEX_POINT('',#2119);
#625=VERTEX_POINT('',#2120);
#626=VERTEX_POINT('',#2122);
#627=VERTEX_POINT('',#2125);
#628=VERTEX_POINT('',#2127);
#629=VERTEX_POINT('',#2129);
#630=VERTEX_POINT('',#2131);
#631=VERTEX_POINT('',#2133);
#632=VERTEX_POINT('',#2135);
#633=VERTEX_POINT('',#2137);
#634=VERTEX_POINT('',#2139);
#635=VERTEX_POINT('',#2141);
#636=VERTEX_POINT('',#2143);
#637=VERTEX_POINT('',#2145);
#638=VERTEX_POINT('',#2147);
#639=VERTEX_POINT('',#2151);
#640=VERTEX_POINT('',#2152);
#641=VERTEX_POINT('',#2157);
#642=VERTEX_POINT('',#2158);
#643=VERTEX_POINT('',#2160);
#644=VERTEX_POINT('',#2162);
#645=VERTEX_POINT('',#2166);
#646=VERTEX_POINT('',#2168);
#647=VERTEX_POINT('',#2172);
#648=VERTEX_POINT('',#2174);
#649=VERTEX_POINT('',#2180);
#650=VERTEX_POINT('',#2181);
#651=VERTEX_POINT('',#2186);
#652=VERTEX_POINT('',#2190);
#653=VERTEX_POINT('',#2194);
#654=VERTEX_POINT('',#2203);
#655=VERTEX_POINT('',#2205);
#656=VERTEX_POINT('',#2210);
#657=VERTEX_POINT('',#2212);
#658=VERTEX_POINT('',#2217);
#659=VERTEX_POINT('',#2219);
#660=VERTEX_POINT('',#2224);
#661=VERTEX_POINT('',#2225);
#662=VERTEX_POINT('',#2227);
#663=VERTEX_POINT('',#2229);
#664=VERTEX_POINT('',#2233);
#665=VERTEX_POINT('',#2235);
#666=VERTEX_POINT('',#2239);
#667=VERTEX_POINT('',#2241);
#668=VERTEX_POINT('',#2245);
#669=VERTEX_POINT('',#2247);
#670=VERTEX_POINT('',#2251);
#671=VERTEX_POINT('',#2253);
#672=VERTEX_POINT('',#2257);
#673=VERTEX_POINT('',#2259);
#674=VERTEX_POINT('',#2263);
#675=VERTEX_POINT('',#2265);
#676=VERTEX_POINT('',#2273);
#677=VERTEX_POINT('',#2274);
#678=VERTEX_POINT('',#2276);
#679=VERTEX_POINT('',#2278);
#680=VERTEX_POINT('',#2282);
#681=VERTEX_POINT('',#2284);
#682=VERTEX_POINT('',#2288);
#683=VERTEX_POINT('',#2290);
#684=VERTEX_POINT('',#2294);
#685=VERTEX_POINT('',#2296);
#686=VERTEX_POINT('',#2300);
#687=VERTEX_POINT('',#2302);
#688=VERTEX_POINT('',#2306);
#689=VERTEX_POINT('',#2308);
#690=VERTEX_POINT('',#2312);
#691=VERTEX_POINT('',#2314);
#692=VERTEX_POINT('',#2318);
#693=VERTEX_POINT('',#2320);
#694=VERTEX_POINT('',#2324);
#695=VERTEX_POINT('',#2326);
#696=VERTEX_POINT('',#2330);
#697=VERTEX_POINT('',#2332);
#698=VERTEX_POINT('',#2336);
#699=VERTEX_POINT('',#2338);
#700=VERTEX_POINT('',#2346);
#701=VERTEX_POINT('',#2347);
#702=VERTEX_POINT('',#2352);
#703=VERTEX_POINT('',#2356);
#704=VERTEX_POINT('',#2360);
#705=VERTEX_POINT('',#2366);
#706=VERTEX_POINT('',#2371);
#707=VERTEX_POINT('',#2375);
#708=EDGE_CURVE('',#574,#575,#272,.T.);
#709=EDGE_CURVE('',#574,#576,#273,.T.);
#710=EDGE_CURVE('',#576,#577,#274,.T.);
#711=EDGE_CURVE('',#575,#577,#275,.T.);
#712=EDGE_CURVE('',#578,#574,#32,.T.);
#713=EDGE_CURVE('',#578,#579,#276,.T.);
#714=EDGE_CURVE('',#579,#576,#33,.T.);
#715=EDGE_CURVE('',#580,#578,#277,.T.);
#716=EDGE_CURVE('',#580,#581,#278,.T.);
#717=EDGE_CURVE('',#581,#579,#279,.T.);
#718=EDGE_CURVE('',#575,#580,#34,.T.);
#719=EDGE_CURVE('',#577,#581,#35,.T.);
#720=EDGE_CURVE('',#582,#582,#36,.T.);
#721=EDGE_CURVE('',#583,#583,#37,.T.);
#722=EDGE_CURVE('',#584,#584,#38,.T.);
#723=EDGE_CURVE('',#584,#585,#280,.T.);
#724=EDGE_CURVE('',#585,#585,#39,.T.);
#725=EDGE_CURVE('',#586,#586,#40,.T.);
#726=EDGE_CURVE('',#582,#587,#281,.T.);
#727=EDGE_CURVE('',#587,#587,#41,.T.);
#728=EDGE_CURVE('',#583,#588,#282,.T.);
#729=EDGE_CURVE('',#588,#588,#42,.T.);
#730=EDGE_CURVE('',#586,#589,#283,.T.);
#731=EDGE_CURVE('',#589,#589,#43,.T.);
#732=EDGE_CURVE('',#590,#591,#284,.T.);
#733=EDGE_CURVE('',#592,#590,#285,.T.);
#734=EDGE_CURVE('',#593,#592,#286,.T.);
#735=EDGE_CURVE('',#593,#591,#287,.T.);
#736=EDGE_CURVE('',#591,#594,#44,.T.);
#737=EDGE_CURVE('',#595,#593,#45,.T.);
#738=EDGE_CURVE('',#595,#594,#288,.T.);
#739=EDGE_CURVE('',#594,#596,#289,.T.);
#740=EDGE_CURVE('',#597,#595,#290,.T.);
#741=EDGE_CURVE('',#597,#596,#291,.T.);
#742=EDGE_CURVE('',#596,#590,#46,.T.);
#743=EDGE_CURVE('',#592,#597,#47,.T.);
#744=EDGE_CURVE('',#598,#599,#292,.T.);
#745=EDGE_CURVE('',#598,#600,#293,.T.);
#746=EDGE_CURVE('',#601,#600,#294,.T.);
#747=EDGE_CURVE('',#599,#601,#295,.T.);
#748=EDGE_CURVE('',#602,#600,#296,.T.);
#749=EDGE_CURVE('',#603,#602,#297,.T.);
#750=EDGE_CURVE('',#603,#601,#298,.T.);
#751=EDGE_CURVE('',#604,#599,#299,.T.);
#752=EDGE_CURVE('',#605,#604,#300,.T.);
#753=EDGE_CURVE('',#605,#598,#301,.T.);
#754=EDGE_CURVE('',#606,#607,#302,.T.);
#755=EDGE_CURVE('',#606,#608,#303,.T.);
#756=EDGE_CURVE('',#609,#608,#304,.T.);
#757=EDGE_CURVE('',#607,#609,#305,.T.);
#758=EDGE_CURVE('',#610,#608,#306,.T.);
#759=EDGE_CURVE('',#611,#610,#307,.T.);
#760=EDGE_CURVE('',#611,#609,#308,.T.);
#761=EDGE_CURVE('',#612,#607,#309,.T.);
#762=EDGE_CURVE('',#613,#612,#310,.T.);
#763=EDGE_CURVE('',#613,#606,#311,.T.);
#764=EDGE_CURVE('',#610,#614,#312,.T.);
#765=EDGE_CURVE('',#615,#613,#313,.T.);
#766=EDGE_CURVE('',#615,#616,#314,.T.);
#767=EDGE_CURVE('',#617,#616,#315,.T.);
#768=EDGE_CURVE('',#614,#617,#316,.T.);
#769=EDGE_CURVE('',#614,#618,#48,.T.);
#770=EDGE_CURVE('',#619,#617,#49,.T.);
#771=EDGE_CURVE('',#618,#619,#317,.T.);
#772=EDGE_CURVE('',#618,#620,#318,.T.);
#773=EDGE_CURVE('',#621,#619,#319,.T.);
#774=EDGE_CURVE('',#620,#621,#320,.T.);
#775=EDGE_CURVE('',#620,#622,#321,.T.);
#776=EDGE_CURVE('',#623,#621,#322,.T.);
#777=EDGE_CURVE('',#622,#623,#323,.T.);
#778=EDGE_CURVE('',#624,#625,#324,.T.);
#779=EDGE_CURVE('',#625,#626,#50,.T.);
#780=EDGE_CURVE('',#626,#623,#325,.T.);
#781=EDGE_CURVE('',#616,#627,#51,.T.);
#782=EDGE_CURVE('',#627,#628,#326,.T.);
#783=EDGE_CURVE('',#628,#629,#52,.T.);
#784=EDGE_CURVE('',#629,#630,#327,.T.);
#785=EDGE_CURVE('',#630,#631,#53,.T.);
#786=EDGE_CURVE('',#631,#632,#328,.T.);
#787=EDGE_CURVE('',#632,#633,#329,.T.);
#788=EDGE_CURVE('',#633,#634,#330,.T.);
#789=EDGE_CURVE('',#634,#635,#54,.T.);
#790=EDGE_CURVE('',#635,#636,#331,.T.);
#791=EDGE_CURVE('',#636,#637,#55,.T.);
#792=EDGE_CURVE('',#637,#638,#332,.T.);
#793=EDGE_CURVE('',#638,#624,#56,.T.);
#794=EDGE_CURVE('',#639,#640,#333,.T.);
#795=EDGE_CURVE('',#639,#633,#334,.T.);
#796=EDGE_CURVE('',#640,#632,#335,.T.);
#797=EDGE_CURVE('',#641,#642,#336,.T.);
#798=EDGE_CURVE('',#641,#643,#337,.T.);
#799=EDGE_CURVE('',#644,#643,#338,.T.);
#800=EDGE_CURVE('',#642,#644,#339,.T.);
#801=EDGE_CURVE('',#642,#645,#340,.T.);
#802=EDGE_CURVE('',#646,#644,#341,.T.);
#803=EDGE_CURVE('',#645,#646,#342,.T.);
#804=EDGE_CURVE('',#647,#641,#343,.T.);
#805=EDGE_CURVE('',#647,#648,#344,.T.);
#806=EDGE_CURVE('',#643,#648,#345,.T.);
#807=EDGE_CURVE('',#648,#646,#346,.T.);
#808=EDGE_CURVE('',#649,#650,#57,.T.);
#809=EDGE_CURVE('',#649,#631,#347,.T.);
#810=EDGE_CURVE('',#650,#630,#348,.T.);
#811=EDGE_CURVE('',#650,#651,#349,.T.);
#812=EDGE_CURVE('',#651,#629,#350,.T.);
#813=EDGE_CURVE('',#651,#652,#58,.T.);
#814=EDGE_CURVE('',#652,#628,#351,.T.);
#815=EDGE_CURVE('',#652,#653,#352,.T.);
#816=EDGE_CURVE('',#653,#627,#353,.T.);
#817=EDGE_CURVE('',#653,#615,#59,.T.);
#818=EDGE_CURVE('',#602,#649,#354,.T.);
#819=EDGE_CURVE('',#640,#605,#355,.T.);
#820=EDGE_CURVE('',#654,#654,#60,.T.);
#821=EDGE_CURVE('',#654,#655,#356,.T.);
#822=EDGE_CURVE('',#655,#655,#61,.T.);
#823=EDGE_CURVE('',#656,#656,#62,.T.);
#824=EDGE_CURVE('',#656,#657,#357,.T.);
#825=EDGE_CURVE('',#657,#657,#63,.T.);
#826=EDGE_CURVE('',#658,#658,#64,.T.);
#827=EDGE_CURVE('',#658,#659,#358,.T.);
#828=EDGE_CURVE('',#659,#659,#65,.T.);
#829=EDGE_CURVE('',#660,#661,#359,.T.);
#830=EDGE_CURVE('',#660,#662,#360,.T.);
#831=EDGE_CURVE('',#663,#662,#361,.T.);
#832=EDGE_CURVE('',#661,#663,#362,.T.);
#833=EDGE_CURVE('',#664,#660,#363,.T.);
#834=EDGE_CURVE('',#664,#665,#364,.T.);
#835=EDGE_CURVE('',#662,#665,#365,.T.);
#836=EDGE_CURVE('',#666,#664,#366,.T.);
#837=EDGE_CURVE('',#666,#667,#367,.T.);
#838=EDGE_CURVE('',#665,#667,#368,.T.);
#839=EDGE_CURVE('',#668,#666,#66,.T.);
#840=EDGE_CURVE('',#668,#669,#369,.T.);
#841=EDGE_CURVE('',#667,#669,#67,.T.);
#842=EDGE_CURVE('',#661,#670,#68,.T.);
#843=EDGE_CURVE('',#671,#663,#69,.T.);
#844=EDGE_CURVE('',#670,#671,#370,.T.);
#845=EDGE_CURVE('',#670,#672,#371,.T.);
#846=EDGE_CURVE('',#673,#671,#372,.T.);
#847=EDGE_CURVE('',#672,#673,#373,.T.);
#848=EDGE_CURVE('',#672,#674,#374,.T.);
#849=EDGE_CURVE('',#675,#673,#375,.T.);
#850=EDGE_CURVE('',#674,#675,#376,.T.);
#851=EDGE_CURVE('',#674,#668,#377,.T.);
#852=EDGE_CURVE('',#669,#675,#378,.T.);
#853=EDGE_CURVE('',#676,#677,#379,.T.);
#854=EDGE_CURVE('',#676,#678,#380,.T.);
#855=EDGE_CURVE('',#679,#678,#381,.T.);
#856=EDGE_CURVE('',#677,#679,#382,.T.);
#857=EDGE_CURVE('',#680,#676,#383,.T.);
#858=EDGE_CURVE('',#680,#681,#384,.T.);
#859=EDGE_CURVE('',#678,#681,#385,.T.);
#860=EDGE_CURVE('',#682,#680,#386,.T.);
#861=EDGE_CURVE('',#682,#683,#387,.T.);
#862=EDGE_CURVE('',#681,#683,#388,.T.);
#863=EDGE_CURVE('',#684,#682,#70,.T.);
#864=EDGE_CURVE('',#684,#685,#389,.T.);
#865=EDGE_CURVE('',#683,#685,#71,.T.);
#866=EDGE_CURVE('',#686,#684,#390,.T.);
#867=EDGE_CURVE('',#686,#687,#391,.T.);
#868=EDGE_CURVE('',#685,#687,#392,.T.);
#869=EDGE_CURVE('',#688,#686,#72,.T.);
#870=EDGE_CURVE('',#688,#689,#393,.T.);
#871=EDGE_CURVE('',#687,#689,#73,.T.);
#872=EDGE_CURVE('',#677,#690,#74,.T.);
#873=EDGE_CURVE('',#691,#679,#75,.T.);
#874=EDGE_CURVE('',#690,#691,#394,.T.);
#875=EDGE_CURVE('',#690,#692,#395,.T.);
#876=EDGE_CURVE('',#693,#691,#396,.T.);
#877=EDGE_CURVE('',#692,#693,#397,.T.);
#878=EDGE_CURVE('',#692,#694,#76,.T.);
#879=EDGE_CURVE('',#695,#693,#77,.T.);
#880=EDGE_CURVE('',#694,#695,#398,.T.);
#881=EDGE_CURVE('',#694,#696,#399,.T.);
#882=EDGE_CURVE('',#697,#695,#400,.T.);
#883=EDGE_CURVE('',#696,#697,#401,.T.);
#884=EDGE_CURVE('',#696,#698,#402,.T.);
#885=EDGE_CURVE('',#699,#697,#403,.T.);
#886=EDGE_CURVE('',#698,#699,#404,.T.);
#887=EDGE_CURVE('',#698,#688,#405,.T.);
#888=EDGE_CURVE('',#689,#699,#406,.T.);
#889=EDGE_CURVE('',#700,#701,#407,.T.);
#890=EDGE_CURVE('',#700,#638,#408,.T.);
#891=EDGE_CURVE('',#701,#637,#409,.T.);
#892=EDGE_CURVE('',#702,#701,#78,.T.);
#893=EDGE_CURVE('',#702,#636,#410,.T.);
#894=EDGE_CURVE('',#702,#703,#411,.T.);
#895=EDGE_CURVE('',#703,#635,#412,.T.);
#896=EDGE_CURVE('',#704,#703,#79,.T.);
#897=EDGE_CURVE('',#704,#634,#413,.T.);
#898=EDGE_CURVE('',#645,#639,#414,.T.);
#899=EDGE_CURVE('',#622,#647,#415,.T.);
#900=EDGE_CURVE('',#705,#626,#416,.T.);
#901=EDGE_CURVE('',#704,#705,#417,.T.);
#902=EDGE_CURVE('',#604,#603,#418,.T.);
#903=EDGE_CURVE('',#706,#705,#80,.T.);
#904=EDGE_CURVE('',#706,#625,#419,.T.);
#905=EDGE_CURVE('',#707,#624,#420,.T.);
#906=EDGE_CURVE('',#706,#707,#421,.T.);
#907=EDGE_CURVE('',#612,#611,#422,.T.);
#908=EDGE_CURVE('',#700,#707,#81,.T.);
#909=ORIENTED_EDGE('',*,*,#708,.F.);
#910=ORIENTED_EDGE('',*,*,#709,.T.);
#911=ORIENTED_EDGE('',*,*,#710,.T.);
#912=ORIENTED_EDGE('',*,*,#711,.F.);
#913=ORIENTED_EDGE('',*,*,#712,.F.);
#914=ORIENTED_EDGE('',*,*,#713,.T.);
#915=ORIENTED_EDGE('',*,*,#714,.T.);
#916=ORIENTED_EDGE('',*,*,#709,.F.);
#917=ORIENTED_EDGE('',*,*,#715,.F.);
#918=ORIENTED_EDGE('',*,*,#716,.T.);
#919=ORIENTED_EDGE('',*,*,#717,.T.);
#920=ORIENTED_EDGE('',*,*,#713,.F.);
#921=ORIENTED_EDGE('',*,*,#718,.F.);
#922=ORIENTED_EDGE('',*,*,#711,.T.);
#923=ORIENTED_EDGE('',*,*,#719,.T.);
#924=ORIENTED_EDGE('',*,*,#716,.F.);
#925=ORIENTED_EDGE('',*,*,#719,.F.);
#926=ORIENTED_EDGE('',*,*,#710,.F.);
#927=ORIENTED_EDGE('',*,*,#714,.F.);
#928=ORIENTED_EDGE('',*,*,#717,.F.);
#929=ORIENTED_EDGE('',*,*,#720,.F.);
#930=ORIENTED_EDGE('',*,*,#721,.F.);
#931=ORIENTED_EDGE('',*,*,#722,.F.);
#932=ORIENTED_EDGE('',*,*,#723,.T.);
#933=ORIENTED_EDGE('',*,*,#724,.T.);
#934=ORIENTED_EDGE('',*,*,#723,.F.);
#935=ORIENTED_EDGE('',*,*,#724,.F.);
#936=ORIENTED_EDGE('',*,*,#725,.F.);
#937=ORIENTED_EDGE('',*,*,#720,.T.);
#938=ORIENTED_EDGE('',*,*,#726,.T.);
#939=ORIENTED_EDGE('',*,*,#727,.F.);
#940=ORIENTED_EDGE('',*,*,#726,.F.);
#941=ORIENTED_EDGE('',*,*,#721,.T.);
#942=ORIENTED_EDGE('',*,*,#728,.T.);
#943=ORIENTED_EDGE('',*,*,#729,.F.);
#944=ORIENTED_EDGE('',*,*,#728,.F.);
#945=ORIENTED_EDGE('',*,*,#725,.T.);
#946=ORIENTED_EDGE('',*,*,#730,.T.);
#947=ORIENTED_EDGE('',*,*,#731,.F.);
#948=ORIENTED_EDGE('',*,*,#730,.F.);
#949=ORIENTED_EDGE('',*,*,#732,.F.);
#950=ORIENTED_EDGE('',*,*,#733,.F.);
#951=ORIENTED_EDGE('',*,*,#734,.F.);
#952=ORIENTED_EDGE('',*,*,#735,.T.);
#953=ORIENTED_EDGE('',*,*,#736,.F.);
#954=ORIENTED_EDGE('',*,*,#735,.F.);
#955=ORIENTED_EDGE('',*,*,#737,.F.);
#956=ORIENTED_EDGE('',*,*,#738,.T.);
#957=ORIENTED_EDGE('',*,*,#739,.F.);
#958=ORIENTED_EDGE('',*,*,#738,.F.);
#959=ORIENTED_EDGE('',*,*,#740,.F.);
#960=ORIENTED_EDGE('',*,*,#741,.T.);
#961=ORIENTED_EDGE('',*,*,#742,.F.);
#962=ORIENTED_EDGE('',*,*,#741,.F.);
#963=ORIENTED_EDGE('',*,*,#743,.F.);
#964=ORIENTED_EDGE('',*,*,#733,.T.);
#965=ORIENTED_EDGE('',*,*,#744,.F.);
#966=ORIENTED_EDGE('',*,*,#745,.T.);
#967=ORIENTED_EDGE('',*,*,#746,.F.);
#968=ORIENTED_EDGE('',*,*,#747,.F.);
#969=ORIENTED_EDGE('',*,*,#746,.T.);
#970=ORIENTED_EDGE('',*,*,#748,.F.);
#971=ORIENTED_EDGE('',*,*,#749,.F.);
#972=ORIENTED_EDGE('',*,*,#750,.T.);
#973=ORIENTED_EDGE('',*,*,#744,.T.);
#974=ORIENTED_EDGE('',*,*,#751,.F.);
#975=ORIENTED_EDGE('',*,*,#752,.F.);
#976=ORIENTED_EDGE('',*,*,#753,.T.);
#977=ORIENTED_EDGE('',*,*,#754,.F.);
#978=ORIENTED_EDGE('',*,*,#755,.T.);
#979=ORIENTED_EDGE('',*,*,#756,.F.);
#980=ORIENTED_EDGE('',*,*,#757,.F.);
#981=ORIENTED_EDGE('',*,*,#756,.T.);
#982=ORIENTED_EDGE('',*,*,#758,.F.);
#983=ORIENTED_EDGE('',*,*,#759,.F.);
#984=ORIENTED_EDGE('',*,*,#760,.T.);
#985=ORIENTED_EDGE('',*,*,#754,.T.);
#986=ORIENTED_EDGE('',*,*,#761,.F.);
#987=ORIENTED_EDGE('',*,*,#762,.F.);
#988=ORIENTED_EDGE('',*,*,#763,.T.);
#989=ORIENTED_EDGE('',*,*,#764,.F.);
#990=ORIENTED_EDGE('',*,*,#758,.T.);
#991=ORIENTED_EDGE('',*,*,#755,.F.);
#992=ORIENTED_EDGE('',*,*,#763,.F.);
#993=ORIENTED_EDGE('',*,*,#765,.F.);
#994=ORIENTED_EDGE('',*,*,#766,.T.);
#995=ORIENTED_EDGE('',*,*,#767,.F.);
#996=ORIENTED_EDGE('',*,*,#768,.F.);
#997=ORIENTED_EDGE('',*,*,#769,.F.);
#998=ORIENTED_EDGE('',*,*,#768,.T.);
#999=ORIENTED_EDGE('',*,*,#770,.F.);
#1000=ORIENTED_EDGE('',*,*,#771,.F.);
#1001=ORIENTED_EDGE('',*,*,#772,.F.);
#1002=ORIENTED_EDGE('',*,*,#771,.T.);
#1003=ORIENTED_EDGE('',*,*,#773,.F.);
#1004=ORIENTED_EDGE('',*,*,#774,.F.);
#1005=ORIENTED_EDGE('',*,*,#775,.F.);
#1006=ORIENTED_EDGE('',*,*,#774,.T.);
#1007=ORIENTED_EDGE('',*,*,#776,.F.);
#1008=ORIENTED_EDGE('',*,*,#777,.F.);
#1009=ORIENTED_EDGE('',*,*,#778,.T.);
#1010=ORIENTED_EDGE('',*,*,#779,.T.);
#1011=ORIENTED_EDGE('',*,*,#780,.T.);
#1012=ORIENTED_EDGE('',*,*,#776,.T.);
#1013=ORIENTED_EDGE('',*,*,#773,.T.);
#1014=ORIENTED_EDGE('',*,*,#770,.T.);
#1015=ORIENTED_EDGE('',*,*,#767,.T.);
#1016=ORIENTED_EDGE('',*,*,#781,.T.);
#1017=ORIENTED_EDGE('',*,*,#782,.T.);
#1018=ORIENTED_EDGE('',*,*,#783,.T.);
#1019=ORIENTED_EDGE('',*,*,#784,.T.);
#1020=ORIENTED_EDGE('',*,*,#785,.T.);
#1021=ORIENTED_EDGE('',*,*,#786,.T.);
#1022=ORIENTED_EDGE('',*,*,#787,.T.);
#1023=ORIENTED_EDGE('',*,*,#788,.T.);
#1024=ORIENTED_EDGE('',*,*,#789,.T.);
#1025=ORIENTED_EDGE('',*,*,#790,.T.);
#1026=ORIENTED_EDGE('',*,*,#791,.T.);
#1027=ORIENTED_EDGE('',*,*,#792,.T.);
#1028=ORIENTED_EDGE('',*,*,#793,.T.);
#1029=ORIENTED_EDGE('',*,*,#794,.F.);
#1030=ORIENTED_EDGE('',*,*,#795,.T.);
#1031=ORIENTED_EDGE('',*,*,#787,.F.);
#1032=ORIENTED_EDGE('',*,*,#796,.F.);
#1033=ORIENTED_EDGE('',*,*,#797,.F.);
#1034=ORIENTED_EDGE('',*,*,#798,.T.);
#1035=ORIENTED_EDGE('',*,*,#799,.F.);
#1036=ORIENTED_EDGE('',*,*,#800,.F.);
#1037=ORIENTED_EDGE('',*,*,#801,.F.);
#1038=ORIENTED_EDGE('',*,*,#800,.T.);
#1039=ORIENTED_EDGE('',*,*,#802,.F.);
#1040=ORIENTED_EDGE('',*,*,#803,.F.);
#1041=ORIENTED_EDGE('',*,*,#804,.F.);
#1042=ORIENTED_EDGE('',*,*,#805,.T.);
#1043=ORIENTED_EDGE('',*,*,#806,.F.);
#1044=ORIENTED_EDGE('',*,*,#798,.F.);
#1045=ORIENTED_EDGE('',*,*,#806,.T.);
#1046=ORIENTED_EDGE('',*,*,#807,.T.);
#1047=ORIENTED_EDGE('',*,*,#802,.T.);
#1048=ORIENTED_EDGE('',*,*,#799,.T.);
#1049=ORIENTED_EDGE('',*,*,#808,.F.);
#1050=ORIENTED_EDGE('',*,*,#809,.T.);
#1051=ORIENTED_EDGE('',*,*,#785,.F.);
#1052=ORIENTED_EDGE('',*,*,#810,.F.);
#1053=ORIENTED_EDGE('',*,*,#811,.F.);
#1054=ORIENTED_EDGE('',*,*,#810,.T.);
#1055=ORIENTED_EDGE('',*,*,#784,.F.);
#1056=ORIENTED_EDGE('',*,*,#812,.F.);
#1057=ORIENTED_EDGE('',*,*,#740,.T.);
#1058=ORIENTED_EDGE('',*,*,#737,.T.);
#1059=ORIENTED_EDGE('',*,*,#734,.T.);
#1060=ORIENTED_EDGE('',*,*,#743,.T.);
#1061=ORIENTED_EDGE('',*,*,#813,.F.);
#1062=ORIENTED_EDGE('',*,*,#812,.T.);
#1063=ORIENTED_EDGE('',*,*,#783,.F.);
#1064=ORIENTED_EDGE('',*,*,#814,.F.);
#1065=ORIENTED_EDGE('',*,*,#815,.F.);
#1066=ORIENTED_EDGE('',*,*,#814,.T.);
#1067=ORIENTED_EDGE('',*,*,#782,.F.);
#1068=ORIENTED_EDGE('',*,*,#816,.F.);
#1069=ORIENTED_EDGE('',*,*,#817,.F.);
#1070=ORIENTED_EDGE('',*,*,#816,.T.);
#1071=ORIENTED_EDGE('',*,*,#781,.F.);
#1072=ORIENTED_EDGE('',*,*,#766,.F.);
#1073=ORIENTED_EDGE('',*,*,#818,.F.);
#1074=ORIENTED_EDGE('',*,*,#748,.T.);
#1075=ORIENTED_EDGE('',*,*,#745,.F.);
#1076=ORIENTED_EDGE('',*,*,#753,.F.);
#1077=ORIENTED_EDGE('',*,*,#819,.F.);
#1078=ORIENTED_EDGE('',*,*,#796,.T.);
#1079=ORIENTED_EDGE('',*,*,#786,.F.);
#1080=ORIENTED_EDGE('',*,*,#809,.F.);
#1081=ORIENTED_EDGE('',*,*,#820,.F.);
#1082=ORIENTED_EDGE('',*,*,#821,.T.);
#1083=ORIENTED_EDGE('',*,*,#822,.F.);
#1084=ORIENTED_EDGE('',*,*,#821,.F.);
#1085=ORIENTED_EDGE('',*,*,#820,.T.);
#1086=ORIENTED_EDGE('',*,*,#731,.T.);
#1087=ORIENTED_EDGE('',*,*,#823,.F.);
#1088=ORIENTED_EDGE('',*,*,#824,.T.);
#1089=ORIENTED_EDGE('',*,*,#825,.F.);
#1090=ORIENTED_EDGE('',*,*,#824,.F.);
#1091=ORIENTED_EDGE('',*,*,#823,.T.);
#1092=ORIENTED_EDGE('',*,*,#727,.T.);
#1093=ORIENTED_EDGE('',*,*,#826,.F.);
#1094=ORIENTED_EDGE('',*,*,#827,.T.);
#1095=ORIENTED_EDGE('',*,*,#828,.F.);
#1096=ORIENTED_EDGE('',*,*,#827,.F.);
#1097=ORIENTED_EDGE('',*,*,#826,.T.);
#1098=ORIENTED_EDGE('',*,*,#729,.T.);
#1099=ORIENTED_EDGE('',*,*,#829,.F.);
#1100=ORIENTED_EDGE('',*,*,#830,.T.);
#1101=ORIENTED_EDGE('',*,*,#831,.F.);
#1102=ORIENTED_EDGE('',*,*,#832,.F.);
#1103=ORIENTED_EDGE('',*,*,#833,.F.);
#1104=ORIENTED_EDGE('',*,*,#834,.T.);
#1105=ORIENTED_EDGE('',*,*,#835,.F.);
#1106=ORIENTED_EDGE('',*,*,#830,.F.);
#1107=ORIENTED_EDGE('',*,*,#836,.F.);
#1108=ORIENTED_EDGE('',*,*,#837,.T.);
#1109=ORIENTED_EDGE('',*,*,#838,.F.);
#1110=ORIENTED_EDGE('',*,*,#834,.F.);
#1111=ORIENTED_EDGE('',*,*,#839,.F.);
#1112=ORIENTED_EDGE('',*,*,#840,.T.);
#1113=ORIENTED_EDGE('',*,*,#841,.F.);
#1114=ORIENTED_EDGE('',*,*,#837,.F.);
#1115=ORIENTED_EDGE('',*,*,#842,.F.);
#1116=ORIENTED_EDGE('',*,*,#832,.T.);
#1117=ORIENTED_EDGE('',*,*,#843,.F.);
#1118=ORIENTED_EDGE('',*,*,#844,.F.);
#1119=ORIENTED_EDGE('',*,*,#845,.F.);
#1120=ORIENTED_EDGE('',*,*,#844,.T.);
#1121=ORIENTED_EDGE('',*,*,#846,.F.);
#1122=ORIENTED_EDGE('',*,*,#847,.F.);
#1123=ORIENTED_EDGE('',*,*,#848,.F.);
#1124=ORIENTED_EDGE('',*,*,#847,.T.);
#1125=ORIENTED_EDGE('',*,*,#849,.F.);
#1126=ORIENTED_EDGE('',*,*,#850,.F.);
#1127=ORIENTED_EDGE('',*,*,#851,.F.);
#1128=ORIENTED_EDGE('',*,*,#850,.T.);
#1129=ORIENTED_EDGE('',*,*,#852,.F.);
#1130=ORIENTED_EDGE('',*,*,#840,.F.);
#1131=ORIENTED_EDGE('',*,*,#852,.T.);
#1132=ORIENTED_EDGE('',*,*,#849,.T.);
#1133=ORIENTED_EDGE('',*,*,#846,.T.);
#1134=ORIENTED_EDGE('',*,*,#843,.T.);
#1135=ORIENTED_EDGE('',*,*,#831,.T.);
#1136=ORIENTED_EDGE('',*,*,#835,.T.);
#1137=ORIENTED_EDGE('',*,*,#838,.T.);
#1138=ORIENTED_EDGE('',*,*,#841,.T.);
#1139=ORIENTED_EDGE('',*,*,#853,.F.);
#1140=ORIENTED_EDGE('',*,*,#854,.T.);
#1141=ORIENTED_EDGE('',*,*,#855,.F.);
#1142=ORIENTED_EDGE('',*,*,#856,.F.);
#1143=ORIENTED_EDGE('',*,*,#857,.F.);
#1144=ORIENTED_EDGE('',*,*,#858,.T.);
#1145=ORIENTED_EDGE('',*,*,#859,.F.);
#1146=ORIENTED_EDGE('',*,*,#854,.F.);
#1147=ORIENTED_EDGE('',*,*,#860,.F.);
#1148=ORIENTED_EDGE('',*,*,#861,.T.);
#1149=ORIENTED_EDGE('',*,*,#862,.F.);
#1150=ORIENTED_EDGE('',*,*,#858,.F.);
#1151=ORIENTED_EDGE('',*,*,#863,.F.);
#1152=ORIENTED_EDGE('',*,*,#864,.T.);
#1153=ORIENTED_EDGE('',*,*,#865,.F.);
#1154=ORIENTED_EDGE('',*,*,#861,.F.);
#1155=ORIENTED_EDGE('',*,*,#866,.F.);
#1156=ORIENTED_EDGE('',*,*,#867,.T.);
#1157=ORIENTED_EDGE('',*,*,#868,.F.);
#1158=ORIENTED_EDGE('',*,*,#864,.F.);
#1159=ORIENTED_EDGE('',*,*,#869,.F.);
#1160=ORIENTED_EDGE('',*,*,#870,.T.);
#1161=ORIENTED_EDGE('',*,*,#871,.F.);
#1162=ORIENTED_EDGE('',*,*,#867,.F.);
#1163=ORIENTED_EDGE('',*,*,#872,.F.);
#1164=ORIENTED_EDGE('',*,*,#856,.T.);
#1165=ORIENTED_EDGE('',*,*,#873,.F.);
#1166=ORIENTED_EDGE('',*,*,#874,.F.);
#1167=ORIENTED_EDGE('',*,*,#875,.F.);
#1168=ORIENTED_EDGE('',*,*,#874,.T.);
#1169=ORIENTED_EDGE('',*,*,#876,.F.);
#1170=ORIENTED_EDGE('',*,*,#877,.F.);
#1171=ORIENTED_EDGE('',*,*,#878,.F.);
#1172=ORIENTED_EDGE('',*,*,#877,.T.);
#1173=ORIENTED_EDGE('',*,*,#879,.F.);
#1174=ORIENTED_EDGE('',*,*,#880,.F.);
#1175=ORIENTED_EDGE('',*,*,#881,.F.);
#1176=ORIENTED_EDGE('',*,*,#880,.T.);
#1177=ORIENTED_EDGE('',*,*,#882,.F.);
#1178=ORIENTED_EDGE('',*,*,#883,.F.);
#1179=ORIENTED_EDGE('',*,*,#884,.F.);
#1180=ORIENTED_EDGE('',*,*,#883,.T.);
#1181=ORIENTED_EDGE('',*,*,#885,.F.);
#1182=ORIENTED_EDGE('',*,*,#886,.F.);
#1183=ORIENTED_EDGE('',*,*,#887,.F.);
#1184=ORIENTED_EDGE('',*,*,#886,.T.);
#1185=ORIENTED_EDGE('',*,*,#888,.F.);
#1186=ORIENTED_EDGE('',*,*,#870,.F.);
#1187=ORIENTED_EDGE('',*,*,#888,.T.);
#1188=ORIENTED_EDGE('',*,*,#885,.T.);
#1189=ORIENTED_EDGE('',*,*,#882,.T.);
#1190=ORIENTED_EDGE('',*,*,#879,.T.);
#1191=ORIENTED_EDGE('',*,*,#876,.T.);
#1192=ORIENTED_EDGE('',*,*,#873,.T.);
#1193=ORIENTED_EDGE('',*,*,#855,.T.);
#1194=ORIENTED_EDGE('',*,*,#859,.T.);
#1195=ORIENTED_EDGE('',*,*,#862,.T.);
#1196=ORIENTED_EDGE('',*,*,#865,.T.);
#1197=ORIENTED_EDGE('',*,*,#868,.T.);
#1198=ORIENTED_EDGE('',*,*,#871,.T.);
#1199=ORIENTED_EDGE('',*,*,#889,.F.);
#1200=ORIENTED_EDGE('',*,*,#890,.T.);
#1201=ORIENTED_EDGE('',*,*,#792,.F.);
#1202=ORIENTED_EDGE('',*,*,#891,.F.);
#1203=ORIENTED_EDGE('',*,*,#892,.T.);
#1204=ORIENTED_EDGE('',*,*,#891,.T.);
#1205=ORIENTED_EDGE('',*,*,#791,.F.);
#1206=ORIENTED_EDGE('',*,*,#893,.F.);
#1207=ORIENTED_EDGE('',*,*,#894,.F.);
#1208=ORIENTED_EDGE('',*,*,#893,.T.);
#1209=ORIENTED_EDGE('',*,*,#790,.F.);
#1210=ORIENTED_EDGE('',*,*,#895,.F.);
#1211=ORIENTED_EDGE('',*,*,#739,.T.);
#1212=ORIENTED_EDGE('',*,*,#742,.T.);
#1213=ORIENTED_EDGE('',*,*,#732,.T.);
#1214=ORIENTED_EDGE('',*,*,#736,.T.);
#1215=ORIENTED_EDGE('',*,*,#896,.T.);
#1216=ORIENTED_EDGE('',*,*,#895,.T.);
#1217=ORIENTED_EDGE('',*,*,#789,.F.);
#1218=ORIENTED_EDGE('',*,*,#897,.F.);
#1219=ORIENTED_EDGE('',*,*,#788,.F.);
#1220=ORIENTED_EDGE('',*,*,#795,.F.);
#1221=ORIENTED_EDGE('',*,*,#898,.F.);
#1222=ORIENTED_EDGE('',*,*,#803,.T.);
#1223=ORIENTED_EDGE('',*,*,#807,.F.);
#1224=ORIENTED_EDGE('',*,*,#805,.F.);
#1225=ORIENTED_EDGE('',*,*,#899,.F.);
#1226=ORIENTED_EDGE('',*,*,#777,.T.);
#1227=ORIENTED_EDGE('',*,*,#780,.F.);
#1228=ORIENTED_EDGE('',*,*,#900,.F.);
#1229=ORIENTED_EDGE('',*,*,#901,.F.);
#1230=ORIENTED_EDGE('',*,*,#897,.T.);
#1231=ORIENTED_EDGE('',*,*,#750,.F.);
#1232=ORIENTED_EDGE('',*,*,#902,.F.);
#1233=ORIENTED_EDGE('',*,*,#751,.T.);
#1234=ORIENTED_EDGE('',*,*,#747,.T.);
#1235=ORIENTED_EDGE('',*,*,#903,.T.);
#1236=ORIENTED_EDGE('',*,*,#900,.T.);
#1237=ORIENTED_EDGE('',*,*,#779,.F.);
#1238=ORIENTED_EDGE('',*,*,#904,.F.);
#1239=ORIENTED_EDGE('',*,*,#778,.F.);
#1240=ORIENTED_EDGE('',*,*,#905,.F.);
#1241=ORIENTED_EDGE('',*,*,#906,.F.);
#1242=ORIENTED_EDGE('',*,*,#904,.T.);
#1243=ORIENTED_EDGE('',*,*,#760,.F.);
#1244=ORIENTED_EDGE('',*,*,#907,.F.);
#1245=ORIENTED_EDGE('',*,*,#761,.T.);
#1246=ORIENTED_EDGE('',*,*,#757,.T.);
#1247=ORIENTED_EDGE('',*,*,#908,.T.);
#1248=ORIENTED_EDGE('',*,*,#905,.T.);
#1249=ORIENTED_EDGE('',*,*,#793,.F.);
#1250=ORIENTED_EDGE('',*,*,#890,.F.);
#1251=ORIENTED_EDGE('',*,*,#775,.T.);
#1252=ORIENTED_EDGE('',*,*,#899,.T.);
#1253=ORIENTED_EDGE('',*,*,#804,.T.);
#1254=ORIENTED_EDGE('',*,*,#797,.T.);
#1255=ORIENTED_EDGE('',*,*,#801,.T.);
#1256=ORIENTED_EDGE('',*,*,#898,.T.);
#1257=ORIENTED_EDGE('',*,*,#794,.T.);
#1258=ORIENTED_EDGE('',*,*,#819,.T.);
#1259=ORIENTED_EDGE('',*,*,#752,.T.);
#1260=ORIENTED_EDGE('',*,*,#902,.T.);
#1261=ORIENTED_EDGE('',*,*,#749,.T.);
#1262=ORIENTED_EDGE('',*,*,#818,.T.);
#1263=ORIENTED_EDGE('',*,*,#808,.T.);
#1264=ORIENTED_EDGE('',*,*,#811,.T.);
#1265=ORIENTED_EDGE('',*,*,#813,.T.);
#1266=ORIENTED_EDGE('',*,*,#815,.T.);
#1267=ORIENTED_EDGE('',*,*,#817,.T.);
#1268=ORIENTED_EDGE('',*,*,#765,.T.);
#1269=ORIENTED_EDGE('',*,*,#762,.T.);
#1270=ORIENTED_EDGE('',*,*,#907,.T.);
#1271=ORIENTED_EDGE('',*,*,#759,.T.);
#1272=ORIENTED_EDGE('',*,*,#764,.T.);
#1273=ORIENTED_EDGE('',*,*,#769,.T.);
#1274=ORIENTED_EDGE('',*,*,#772,.T.);
#1275=ORIENTED_EDGE('',*,*,#822,.T.);
#1276=ORIENTED_EDGE('',*,*,#825,.T.);
#1277=ORIENTED_EDGE('',*,*,#828,.T.);
#1278=ORIENTED_EDGE('',*,*,#839,.T.);
#1279=ORIENTED_EDGE('',*,*,#836,.T.);
#1280=ORIENTED_EDGE('',*,*,#833,.T.);
#1281=ORIENTED_EDGE('',*,*,#829,.T.);
#1282=ORIENTED_EDGE('',*,*,#842,.T.);
#1283=ORIENTED_EDGE('',*,*,#845,.T.);
#1284=ORIENTED_EDGE('',*,*,#848,.T.);
#1285=ORIENTED_EDGE('',*,*,#851,.T.);
#1286=ORIENTED_EDGE('',*,*,#869,.T.);
#1287=ORIENTED_EDGE('',*,*,#866,.T.);
#1288=ORIENTED_EDGE('',*,*,#863,.T.);
#1289=ORIENTED_EDGE('',*,*,#860,.T.);
#1290=ORIENTED_EDGE('',*,*,#857,.T.);
#1291=ORIENTED_EDGE('',*,*,#853,.T.);
#1292=ORIENTED_EDGE('',*,*,#872,.T.);
#1293=ORIENTED_EDGE('',*,*,#875,.T.);
#1294=ORIENTED_EDGE('',*,*,#878,.T.);
#1295=ORIENTED_EDGE('',*,*,#881,.T.);
#1296=ORIENTED_EDGE('',*,*,#884,.T.);
#1297=ORIENTED_EDGE('',*,*,#887,.T.);
#1298=ORIENTED_EDGE('',*,*,#908,.F.);
#1299=ORIENTED_EDGE('',*,*,#889,.T.);
#1300=ORIENTED_EDGE('',*,*,#892,.F.);
#1301=ORIENTED_EDGE('',*,*,#894,.T.);
#1302=ORIENTED_EDGE('',*,*,#896,.F.);
#1303=ORIENTED_EDGE('',*,*,#901,.T.);
#1304=ORIENTED_EDGE('',*,*,#903,.F.);
#1305=ORIENTED_EDGE('',*,*,#906,.T.);
#1306=ORIENTED_EDGE('',*,*,#708,.T.);
#1307=ORIENTED_EDGE('',*,*,#718,.T.);
#1308=ORIENTED_EDGE('',*,*,#715,.T.);
#1309=ORIENTED_EDGE('',*,*,#712,.T.);
#1310=ORIENTED_EDGE('',*,*,#722,.T.);
#1311=PLANE('',#1448);
#1312=PLANE('',#1452);
#1313=PLANE('',#1456);
#1314=PLANE('',#1462);
#1315=PLANE('',#1470);
#1316=PLANE('',#1474);
#1317=PLANE('',#1478);
#1318=PLANE('',#1479);
#1319=PLANE('',#1480);
#1320=PLANE('',#1481);
#1321=PLANE('',#1482);
#1322=PLANE('',#1483);
#1323=PLANE('',#1484);
#1324=PLANE('',#1488);
#1325=PLANE('',#1489);
#1326=PLANE('',#1490);
#1327=PLANE('',#1498);
#1328=PLANE('',#1499);
#1329=PLANE('',#1500);
#1330=PLANE('',#1501);
#1331=PLANE('',#1502);
#1332=PLANE('',#1505);
#1333=PLANE('',#1508);
#1334=PLANE('',#1511);
#1335=PLANE('',#1515);
#1336=PLANE('',#1519);
#1337=PLANE('',#1523);
#1338=PLANE('',#1524);
#1339=PLANE('',#1525);
#1340=PLANE('',#1526);
#1341=PLANE('',#1533);
#1342=PLANE('',#1534);
#1343=PLANE('',#1535);
#1344=PLANE('',#1536);
#1345=PLANE('',#1537);
#1346=PLANE('',#1538);
#1347=PLANE('',#1539);
#1348=PLANE('',#1543);
#1349=PLANE('',#1550);
#1350=PLANE('',#1554);
#1351=PLANE('',#1555);
#1352=PLANE('',#1556);
#1353=PLANE('',#1557);
#1354=PLANE('',#1558);
#1355=PLANE('',#1561);
#1356=PLANE('',#1564);
#1357=PLANE('',#1567);
#1358=PLANE('',#1570);
#1359=PLANE('',#1571);
#1360=ADVANCED_FACE('',(#107),#1311,.F.);
#1361=ADVANCED_FACE('',(#108),#82,.F.);
#1362=ADVANCED_FACE('',(#109),#1312,.F.);
#1363=ADVANCED_FACE('',(#110),#83,.F.);
#1364=ADVANCED_FACE('',(#111,#15,#16),#1313,.T.);
#1365=ADVANCED_FACE('',(#112),#84,.F.);
#1366=ADVANCED_FACE('',(#113,#17),#1314,.T.);
#1367=ADVANCED_FACE('',(#114),#85,.F.);
#1368=ADVANCED_FACE('',(#115),#86,.F.);
#1369=ADVANCED_FACE('',(#116),#87,.F.);
#1370=ADVANCED_FACE('',(#117),#1315,.F.);
#1371=ADVANCED_FACE('',(#118),#88,.F.);
#1372=ADVANCED_FACE('',(#119),#1316,.F.);
#1373=ADVANCED_FACE('',(#120),#89,.F.);
#1374=ADVANCED_FACE('',(#121),#1317,.F.);
#1375=ADVANCED_FACE('',(#122),#1318,.T.);
#1376=ADVANCED_FACE('',(#123),#1319,.T.);
#1377=ADVANCED_FACE('',(#124),#1320,.F.);
#1378=ADVANCED_FACE('',(#125),#1321,.T.);
#1379=ADVANCED_FACE('',(#126),#1322,.T.);
#1380=ADVANCED_FACE('',(#127),#1323,.T.);
#1381=ADVANCED_FACE('',(#128),#90,.F.);
#1382=ADVANCED_FACE('',(#129),#1324,.T.);
#1383=ADVANCED_FACE('',(#130),#1325,.T.);
#1384=ADVANCED_FACE('',(#131),#1326,.T.);
#1385=ADVANCED_FACE('',(#132),#1327,.T.);
#1386=ADVANCED_FACE('',(#133),#1328,.T.);
#1387=ADVANCED_FACE('',(#134),#1329,.T.);
#1388=ADVANCED_FACE('',(#135),#1330,.T.);
#1389=ADVANCED_FACE('',(#136),#1331,.T.);
#1390=ADVANCED_FACE('',(#137),#91,.F.);
#1391=ADVANCED_FACE('',(#138,#18),#1332,.T.);
#1392=ADVANCED_FACE('',(#139),#92,.F.);
#1393=ADVANCED_FACE('',(#140),#1333,.T.);
#1394=ADVANCED_FACE('',(#141),#93,.F.);
#1395=ADVANCED_FACE('',(#142),#1334,.T.);
#1396=ADVANCED_FACE('',(#143),#94,.T.);
#1397=ADVANCED_FACE('',(#144,#19),#1335,.T.);
#1398=ADVANCED_FACE('',(#145),#95,.T.);
#1399=ADVANCED_FACE('',(#146,#20),#1336,.T.);
#1400=ADVANCED_FACE('',(#147),#96,.T.);
#1401=ADVANCED_FACE('',(#148,#21),#1337,.T.);
#1402=ADVANCED_FACE('',(#149),#1338,.T.);
#1403=ADVANCED_FACE('',(#150),#1339,.T.);
#1404=ADVANCED_FACE('',(#151),#1340,.T.);
#1405=ADVANCED_FACE('',(#152),#97,.F.);
#1406=ADVANCED_FACE('',(#153),#98,.T.);
#1407=ADVANCED_FACE('',(#154),#1341,.T.);
#1408=ADVANCED_FACE('',(#155),#1342,.T.);
#1409=ADVANCED_FACE('',(#156),#1343,.T.);
#1410=ADVANCED_FACE('',(#157),#1344,.T.);
#1411=ADVANCED_FACE('',(#158),#1345,.T.);
#1412=ADVANCED_FACE('',(#159),#1346,.T.);
#1413=ADVANCED_FACE('',(#160),#1347,.T.);
#1414=ADVANCED_FACE('',(#161),#99,.F.);
#1415=ADVANCED_FACE('',(#162),#1348,.T.);
#1416=ADVANCED_FACE('',(#163),#100,.F.);
#1417=ADVANCED_FACE('',(#164),#101,.T.);
#1418=ADVANCED_FACE('',(#165),#1349,.T.);
#1419=ADVANCED_FACE('',(#166),#102,.T.);
#1420=ADVANCED_FACE('',(#167),#1350,.T.);
#1421=ADVANCED_FACE('',(#168),#1351,.T.);
#1422=ADVANCED_FACE('',(#169),#1352,.T.);
#1423=ADVANCED_FACE('',(#170),#1353,.T.);
#1424=ADVANCED_FACE('',(#171),#1354,.T.);
#1425=ADVANCED_FACE('',(#172),#103,.T.);
#1426=ADVANCED_FACE('',(#173,#22),#1355,.T.);
#1427=ADVANCED_FACE('',(#174),#104,.T.);
#1428=ADVANCED_FACE('',(#175,#23),#1356,.T.);
#1429=ADVANCED_FACE('',(#176),#105,.T.);
#1430=ADVANCED_FACE('',(#177,#24),#1357,.T.);
#1431=ADVANCED_FACE('',(#178),#106,.T.);
#1432=ADVANCED_FACE('',(#179,#25,#26,#27,#28,#29),#1358,.T.);
#1433=ADVANCED_FACE('',(#180,#30,#31),#1359,.F.);
#1434=CLOSED_SHELL('',(#1360,#1361,#1362,#1363,#1364,#1365,#1366,#1367,
#1368,#1369,#1370,#1371,#1372,#1373,#1374,#1375,#1376,#1377,#1378,#1379,
#1380,#1381,#1382,#1383,#1384,#1385,#1386,#1387,#1388,#1389,#1390,#1391,
#1392,#1393,#1394,#1395,#1396,#1397,#1398,#1399,#1400,#1401,#1402,#1403,
#1404,#1405,#1406,#1407,#1408,#1409,#1410,#1411,#1412,#1413,#1414,#1415,
#1416,#1417,#1418,#1419,#1420,#1421,#1422,#1423,#1424,#1425,#1426,#1427,
#1428,#1429,#1430,#1431,#1432,#1433));
#1435=DERIVED_UNIT_ELEMENT(#1437,1.);
#1436=DERIVED_UNIT_ELEMENT(#2388,-3.);
#1437=(
MASS_UNIT()
NAMED_UNIT(*)
SI_UNIT(.KILO.,.GRAM.)
);
#1438=DERIVED_UNIT((#1435,#1436));
#1439=MEASURE_REPRESENTATION_ITEM('density measure',
POSITIVE_RATIO_MEASURE(7850.),#1438);
#1440=PROPERTY_DEFINITION_REPRESENTATION(#1445,#1442);
#1441=PROPERTY_DEFINITION_REPRESENTATION(#1446,#1443);
#1442=REPRESENTATION('material name',(#1444),#2385);
#1443=REPRESENTATION('density',(#1439),#2385);
#1444=DESCRIPTIVE_REPRESENTATION_ITEM('Steel','Steel');
#1445=PROPERTY_DEFINITION('material property','material name',#2395);
#1446=PROPERTY_DEFINITION('material property','density of part',#2395);
#1447=AXIS2_PLACEMENT_3D('',#1973,#1572,#1573);
#1448=AXIS2_PLACEMENT_3D('',#1974,#1574,#1575);
#1449=AXIS2_PLACEMENT_3D('',#1983,#1580,#1581);
#1450=AXIS2_PLACEMENT_3D('',#1985,#1582,#1583);
#1451=AXIS2_PLACEMENT_3D('',#1988,#1585,#1586);
#1452=AXIS2_PLACEMENT_3D('',#1989,#1587,#1588);
#1453=AXIS2_PLACEMENT_3D('',#1995,#1592,#1593);
#1454=AXIS2_PLACEMENT_3D('',#1996,#1594,#1595);
#1455=AXIS2_PLACEMENT_3D('',#1997,#1596,#1597);
#1456=AXIS2_PLACEMENT_3D('',#1998,#1598,#1599);
#1457=AXIS2_PLACEMENT_3D('',#2000,#1600,#1601);
#1458=AXIS2_PLACEMENT_3D('',#2002,#1602,#1603);
#1459=AXIS2_PLACEMENT_3D('',#2003,#1604,#1605);
#1460=AXIS2_PLACEMENT_3D('',#2005,#1606,#1607);
#1461=AXIS2_PLACEMENT_3D('',#2008,#1609,#1610);
#1462=AXIS2_PLACEMENT_3D('',#2009,#1611,#1612);
#1463=AXIS2_PLACEMENT_3D('',#2011,#1613,#1614);
#1464=AXIS2_PLACEMENT_3D('',#2012,#1615,#1616);
#1465=AXIS2_PLACEMENT_3D('',#2015,#1618,#1619);
#1466=AXIS2_PLACEMENT_3D('',#2016,#1620,#1621);
#1467=AXIS2_PLACEMENT_3D('',#2019,#1623,#1624);
#1468=AXIS2_PLACEMENT_3D('',#2020,#1625,#1626);
#1469=AXIS2_PLACEMENT_3D('',#2023,#1628,#1629);
#1470=AXIS2_PLACEMENT_3D('',#2024,#1630,#1631);
#1471=AXIS2_PLACEMENT_3D('',#2033,#1636,#1637);
#1472=AXIS2_PLACEMENT_3D('',#2035,#1638,#1639);
#1473=AXIS2_PLACEMENT_3D('',#2037,#1640,#1641);
#1474=AXIS2_PLACEMENT_3D('',#2039,#1643,#1644);
#1475=AXIS2_PLACEMENT_3D('',#2045,#1648,#1649);
#1476=AXIS2_PLACEMENT_3D('',#2046,#1650,#1651);
#1477=AXIS2_PLACEMENT_3D('',#2047,#1652,#1653);
#1478=AXIS2_PLACEMENT_3D('',#2048,#1654,#1655);
#1479=AXIS2_PLACEMENT_3D('',#2057,#1660,#1661);
#1480=AXIS2_PLACEMENT_3D('',#2063,#1665,#1666);
#1481=AXIS2_PLACEMENT_3D('',#2069,#1670,#1671);
#1482=AXIS2_PLACEMENT_3D('',#2078,#1676,#1677);
#1483=AXIS2_PLACEMENT_3D('',#2084,#1681,#1682);
#1484=AXIS2_PLACEMENT_3D('',#2090,#1686,#1687);
#1485=AXIS2_PLACEMENT_3D('',#2100,#1693,#1694);
#1486=AXIS2_PLACEMENT_3D('',#2102,#1695,#1696);
#1487=AXIS2_PLACEMENT_3D('',#2104,#1697,#1698);
#1488=AXIS2_PLACEMENT_3D('',#2106,#1700,#1701);
#1489=AXIS2_PLACEMENT_3D('',#2112,#1705,#1706);
#1490=AXIS2_PLACEMENT_3D('',#2118,#1710,#1711);
#1491=AXIS2_PLACEMENT_3D('',#2123,#1713,#1714);
#1492=AXIS2_PLACEMENT_3D('',#2126,#1716,#1717);
#1493=AXIS2_PLACEMENT_3D('',#2130,#1719,#1720);
#1494=AXIS2_PLACEMENT_3D('',#2134,#1722,#1723);
#1495=AXIS2_PLACEMENT_3D('',#2142,#1727,#1728);
#1496=AXIS2_PLACEMENT_3D('',#2146,#1730,#1731);
#1497=AXIS2_PLACEMENT_3D('',#2149,#1733,#1734);
#1498=AXIS2_PLACEMENT_3D('',#2150,#1735,#1736);
#1499=AXIS2_PLACEMENT_3D('',#2156,#1740,#1741);
#1500=AXIS2_PLACEMENT_3D('',#2165,#1746,#1747);
#1501=AXIS2_PLACEMENT_3D('',#2171,#1751,#1752);
#1502=AXIS2_PLACEMENT_3D('',#2177,#1756,#1757);
#1503=AXIS2_PLACEMENT_3D('',#2179,#1759,#1760);
#1504=AXIS2_PLACEMENT_3D('',#2182,#1761,#1762);
#1505=AXIS2_PLACEMENT_3D('',#2185,#1765,#1766);
#1506=AXIS2_PLACEMENT_3D('',#2189,#1769,#1770);
#1507=AXIS2_PLACEMENT_3D('',#2191,#1771,#1772);
#1508=AXIS2_PLACEMENT_3D('',#2193,#1774,#1775);
#1509=AXIS2_PLACEMENT_3D('',#2197,#1778,#1779);
#1510=AXIS2_PLACEMENT_3D('',#2198,#1780,#1781);
#1511=AXIS2_PLACEMENT_3D('',#2199,#1782,#1783);
#1512=AXIS2_PLACEMENT_3D('',#2202,#1786,#1787);
#1513=AXIS2_PLACEMENT_3D('',#2204,#1788,#1789);
#1514=AXIS2_PLACEMENT_3D('',#2207,#1791,#1792);
#1515=AXIS2_PLACEMENT_3D('',#2208,#1793,#1794);
#1516=AXIS2_PLACEMENT_3D('',#2209,#1795,#1796);
#1517=AXIS2_PLACEMENT_3D('',#2211,#1797,#1798);
#1518=AXIS2_PLACEMENT_3D('',#2214,#1800,#1801);
#1519=AXIS2_PLACEMENT_3D('',#2215,#1802,#1803);
#1520=AXIS2_PLACEMENT_3D('',#2216,#1804,#1805);
#1521=AXIS2_PLACEMENT_3D('',#2218,#1806,#1807);
#1522=AXIS2_PLACEMENT_3D('',#2221,#1809,#1810);
#1523=AXIS2_PLACEMENT_3D('',#2222,#1811,#1812);
#1524=AXIS2_PLACEMENT_3D('',#2223,#1813,#1814);
#1525=AXIS2_PLACEMENT_3D('',#2232,#1819,#1820);
#1526=AXIS2_PLACEMENT_3D('',#2238,#1824,#1825);
#1527=AXIS2_PLACEMENT_3D('',#2244,#1829,#1830);
#1528=AXIS2_PLACEMENT_3D('',#2246,#1831,#1832);
#1529=AXIS2_PLACEMENT_3D('',#2249,#1834,#1835);
#1530=AXIS2_PLACEMENT_3D('',#2250,#1836,#1837);
#1531=AXIS2_PLACEMENT_3D('',#2252,#1838,#1839);
#1532=AXIS2_PLACEMENT_3D('',#2254,#1840,#1841);
#1533=AXIS2_PLACEMENT_3D('',#2256,#1843,#1844);
#1534=AXIS2_PLACEMENT_3D('',#2262,#1848,#1849);
#1535=AXIS2_PLACEMENT_3D('',#2268,#1853,#1854);
#1536=AXIS2_PLACEMENT_3D('',#2271,#1857,#1858);
#1537=AXIS2_PLACEMENT_3D('',#2272,#1859,#1860);
#1538=AXIS2_PLACEMENT_3D('',#2281,#1865,#1866);
#1539=AXIS2_PLACEMENT_3D('',#2287,#1870,#1871);
#1540=AXIS2_PLACEMENT_3D('',#2293,#1875,#1876);
#1541=AXIS2_PLACEMENT_3D('',#2295,#1877,#1878);
#1542=AXIS2_PLACEMENT_3D('',#2298,#1880,#1881);
#1543=AXIS2_PLACEMENT_3D('',#2299,#1882,#1883);
#1544=AXIS2_PLACEMENT_3D('',#2305,#1887,#1888);
#1545=AXIS2_PLACEMENT_3D('',#2307,#1889,#1890);
#1546=AXIS2_PLACEMENT_3D('',#2310,#1892,#1893);
#1547=AXIS2_PLACEMENT_3D('',#2311,#1894,#1895);
#1548=AXIS2_PLACEMENT_3D('',#2313,#1896,#1897);
#1549=AXIS2_PLACEMENT_3D('',#2315,#1898,#1899);
#1550=AXIS2_PLACEMENT_3D('',#2317,#1901,#1902);
#1551=AXIS2_PLACEMENT_3D('',#2323,#1906,#1907);
#1552=AXIS2_PLACEMENT_3D('',#2325,#1908,#1909);
#1553=AXIS2_PLACEMENT_3D('',#2327,#1910,#1911);
#1554=AXIS2_PLACEMENT_3D('',#2329,#1913,#1914);
#1555=AXIS2_PLACEMENT_3D('',#2335,#1918,#1919);
#1556=AXIS2_PLACEMENT_3D('',#2341,#1923,#1924);
#1557=AXIS2_PLACEMENT_3D('',#2344,#1927,#1928);
#1558=AXIS2_PLACEMENT_3D('',#2345,#1929,#1930);
#1559=AXIS2_PLACEMENT_3D('',#2351,#1934,#1935);
#1560=AXIS2_PLACEMENT_3D('',#2353,#1936,#1937);
#1561=AXIS2_PLACEMENT_3D('',#2355,#1939,#1940);
#1562=AXIS2_PLACEMENT_3D('',#2359,#1943,#1944);
#1563=AXIS2_PLACEMENT_3D('',#2361,#1945,#1946);
#1564=AXIS2_PLACEMENT_3D('',#2363,#1948,#1949);
#1565=AXIS2_PLACEMENT_3D('',#2370,#1955,#1956);
#1566=AXIS2_PLACEMENT_3D('',#2372,#1957,#1958);
#1567=AXIS2_PLACEMENT_3D('',#2374,#1960,#1961);
#1568=AXIS2_PLACEMENT_3D('',#2379,#1965,#1966);
#1569=AXIS2_PLACEMENT_3D('',#2380,#1967,#1968);
#1570=AXIS2_PLACEMENT_3D('',#2381,#1969,#1970);
#1571=AXIS2_PLACEMENT_3D('',#2382,#1971,#1972);
#1572=DIRECTION('axis',(0.,0.,1.));
#1573=DIRECTION('refdir',(1.,0.,0.));
#1574=DIRECTION('center_axis',(-0.999999993314514,-0.000115632922420039,
0.));
#1575=DIRECTION('ref_axis',(0.000115632922420039,-0.999999993314514,1.80314195411723E-17));
#1576=DIRECTION('',(0.000115632922420039,-0.999999993314514,0.));
#1577=DIRECTION('',(0.,0.,1.));
#1578=DIRECTION('',(0.000115632922420039,-0.999999993314514,1.80314195411723E-17));
#1579=DIRECTION('',(0.,0.,1.));
#1580=DIRECTION('center_axis',(0.,0.,1.));
#1581=DIRECTION('ref_axis',(-0.999999993314514,-0.000115632922419982,0.));
#1582=DIRECTION('center_axis',(0.,0.,1.));
#1583=DIRECTION('ref_axis',(-0.999999993314514,-0.000115632922419982,0.));
#1584=DIRECTION('',(0.,0.,1.));
#1585=DIRECTION('center_axis',(-1.80314194206235E-17,-2.08502573692653E-21,
1.));
#1586=DIRECTION('ref_axis',(-0.999999993314514,-0.000115632922419982,-1.80314195411723E-17));
#1587=DIRECTION('center_axis',(0.999999993314514,0.000115632922420039,0.));
#1588=DIRECTION('ref_axis',(-0.000115632922420039,0.999999993314514,-1.80314195411723E-17));
#1589=DIRECTION('',(-0.000115632922420039,0.999999993314514,0.));
#1590=DIRECTION('',(0.,0.,1.));
#1591=DIRECTION('',(-0.000115632922420039,0.999999993314514,-1.80314195411723E-17));
#1592=DIRECTION('center_axis',(0.,0.,1.));
#1593=DIRECTION('ref_axis',(0.999999993314514,0.000115632922419982,0.));
#1594=DIRECTION('center_axis',(0.,0.,1.));
#1595=DIRECTION('ref_axis',(0.999999993314514,0.000115632922419982,0.));
#1596=DIRECTION('center_axis',(-1.80314194206235E-17,-2.08502573692652E-21,
1.));
#1597=DIRECTION('ref_axis',(0.999999993314514,0.000115632922419982,1.80314195411723E-17));
#1598=DIRECTION('center_axis',(1.80314194206235E-17,2.08502573693296E-21,
-1.));
#1599=DIRECTION('ref_axis',(1.,0.,1.80314194206235E-17));
#1600=DIRECTION('center_axis',(1.80314194206235E-17,2.08502573693296E-21,
-1.));
#1601=DIRECTION('ref_axis',(1.,0.,0.));
#1602=DIRECTION('center_axis',(1.80314194206235E-17,2.08502573693296E-21,
-1.));
#1603=DIRECTION('ref_axis',(1.,0.,0.));
#1604=DIRECTION('center_axis',(0.,0.,1.));
#1605=DIRECTION('ref_axis',(1.,0.,0.));
#1606=DIRECTION('center_axis',(0.,0.,1.));
#1607=DIRECTION('ref_axis',(1.,0.,0.));
#1608=DIRECTION('',(0.,0.,1.));
#1609=DIRECTION('center_axis',(0.,0.,1.));
#1610=DIRECTION('ref_axis',(1.,0.,0.));
#1611=DIRECTION('center_axis',(0.,0.,-1.));
#1612=DIRECTION('ref_axis',(1.,0.,0.));
#1613=DIRECTION('center_axis',(0.,0.,-1.));
#1614=DIRECTION('ref_axis',(1.,0.,0.));
#1615=DIRECTION('center_axis',(0.,0.,1.));
#1616=DIRECTION('ref_axis',(1.,0.,0.));
#1617=DIRECTION('',(0.,0.,1.));
#1618=DIRECTION('center_axis',(0.,0.,-1.));
#1619=DIRECTION('ref_axis',(1.,0.,0.));
#1620=DIRECTION('center_axis',(0.,0.,1.));
#1621=DIRECTION('ref_axis',(1.,0.,0.));
#1622=DIRECTION('',(0.,0.,1.));
#1623=DIRECTION('center_axis',(0.,0.,-1.));
#1624=DIRECTION('ref_axis',(1.,0.,0.));
#1625=DIRECTION('center_axis',(0.,0.,1.));
#1626=DIRECTION('ref_axis',(1.,0.,0.));
#1627=DIRECTION('',(0.,0.,1.));
#1628=DIRECTION('center_axis',(0.,0.,-1.));
#1629=DIRECTION('ref_axis',(1.,0.,0.));
#1630=DIRECTION('center_axis',(0.,0.,1.));
#1631=DIRECTION('ref_axis',(0.,-1.,0.));
#1632=DIRECTION('',(0.,1.,0.));
#1633=DIRECTION('',(1.,0.,0.));
#1634=DIRECTION('',(0.,-1.,0.));
#1635=DIRECTION('',(1.,0.,0.));
#1636=DIRECTION('center_axis',(1.,0.,0.));
#1637=DIRECTION('ref_axis',(0.,0.,1.));
#1638=DIRECTION('center_axis',(-1.,0.,0.));
#1639=DIRECTION('ref_axis',(0.,0.,1.));
#1640=DIRECTION('center_axis',(1.,0.,0.));
#1641=DIRECTION('ref_axis',(0.,0.,1.));
#1642=DIRECTION('',(1.,0.,0.));
#1643=DIRECTION('center_axis',(0.,0.,-1.));
#1644=DIRECTION('ref_axis',(0.,1.,0.));
#1645=DIRECTION('',(0.,-1.,0.));
#1646=DIRECTION('',(0.,1.,0.));
#1647=DIRECTION('',(1.,0.,0.));
#1648=DIRECTION('center_axis',(1.,0.,0.));
#1649=DIRECTION('ref_axis',(0.,0.,-1.));
#1650=DIRECTION('center_axis',(-1.,0.,0.));
#1651=DIRECTION('ref_axis',(0.,0.,-1.));
#1652=DIRECTION('center_axis',(1.,0.,0.));
#1653=DIRECTION('ref_axis',(0.,0.,-1.));
#1654=DIRECTION('center_axis',(0.,0.,1.));
#1655=DIRECTION('ref_axis',(-1.,0.,0.));
#1656=DIRECTION('',(0.,-1.,0.));
#1657=DIRECTION('',(1.,4.62592926927148E-17,0.));
#1658=DIRECTION('',(0.,1.,0.));
#1659=DIRECTION('',(1.,0.,0.));
#1660=DIRECTION('center_axis',(-1.,0.,0.));
#1661=DIRECTION('ref_axis',(0.,-1.,0.));
#1662=DIRECTION('',(0.,0.,1.));
#1663=DIRECTION('',(0.,1.,0.));
#1664=DIRECTION('',(0.,0.,1.));
#1665=DIRECTION('center_axis',(1.,0.,0.));
#1666=DIRECTION('ref_axis',(0.,1.,0.));
#1667=DIRECTION('',(0.,0.,1.));
#1668=DIRECTION('',(0.,-1.,0.));
#1669=DIRECTION('',(0.,0.,1.));
#1670=DIRECTION('center_axis',(0.,0.,1.));
#1671=DIRECTION('ref_axis',(-1.,0.,0.));
#1672=DIRECTION('',(-1.,0.,0.));
#1673=DIRECTION('',(0.,-1.,0.));
#1674=DIRECTION('',(1.,-5.92118946466749E-15,0.));
#1675=DIRECTION('',(0.,-1.,0.));
#1676=DIRECTION('center_axis',(5.92118946466749E-15,1.,0.));
#1677=DIRECTION('ref_axis',(-1.,5.92118946466749E-15,0.));
#1678=DIRECTION('',(0.,0.,1.));
#1679=DIRECTION('',(1.,-5.92118946466749E-15,0.));
#1680=DIRECTION('',(0.,0.,1.));
#1681=DIRECTION('center_axis',(0.,-1.,0.));
#1682=DIRECTION('ref_axis',(1.,0.,0.));
#1683=DIRECTION('',(0.,0.,1.));
#1684=DIRECTION('',(-1.,0.,0.));
#1685=DIRECTION('',(0.,0.,1.));
#1686=DIRECTION('center_axis',(1.,0.,0.));
#1687=DIRECTION('ref_axis',(0.,1.,0.));
#1688=DIRECTION('',(0.,-1.,0.));
#1689=DIRECTION('',(0.,-1.,0.));
#1690=DIRECTION('',(0.,0.,1.));
#1691=DIRECTION('',(0.,1.,0.));
#1692=DIRECTION('',(0.,0.,1.));
#1693=DIRECTION('center_axis',(0.,0.,1.));
#1694=DIRECTION('ref_axis',(-1.,0.,0.));
#1695=DIRECTION('center_axis',(0.,0.,1.));
#1696=DIRECTION('ref_axis',(-1.,0.,0.));
#1697=DIRECTION('center_axis',(0.,0.,-1.));
#1698=DIRECTION('ref_axis',(-1.,0.,0.));
#1699=DIRECTION('',(0.,0.,1.));
#1700=DIRECTION('center_axis',(-4.62592926927148E-17,1.,0.));
#1701=DIRECTION('ref_axis',(-1.,-4.62592926927148E-17,0.));
#1702=DIRECTION('',(1.,4.62592926927148E-17,0.));
#1703=DIRECTION('',(-1.,-4.62592926927148E-17,0.));
#1704=DIRECTION('',(0.,0.,1.));
#1705=DIRECTION('center_axis',(1.,0.,0.));
#1706=DIRECTION('ref_axis',(0.,1.,0.));
#1707=DIRECTION('',(0.,-1.,0.));
#1708=DIRECTION('',(0.,1.,0.));
#1709=DIRECTION('',(0.,0.,1.));
#1710=DIRECTION('center_axis',(0.,0.,1.));
#1711=DIRECTION('ref_axis',(-1.,0.,0.));
#1712=DIRECTION('',(0.,-1.,0.));
#1713=DIRECTION('center_axis',(0.,0.,1.));
#1714=DIRECTION('ref_axis',(-1.,8.88178419700124E-16,0.));
#1715=DIRECTION('',(1.,0.,0.));
#1716=DIRECTION('center_axis',(0.,0.,-1.));
#1717=DIRECTION('ref_axis',(-2.53765262771463E-15,1.,0.));
#1718=DIRECTION('',(1.,-9.25185853854297E-17,0.));
#1719=DIRECTION('center_axis',(0.,0.,-1.));
#1720=DIRECTION('ref_axis',(1.,6.3441315692866E-15,0.));
#1721=DIRECTION('',(0.,-1.,0.));
#1722=DIRECTION('center_axis',(0.,0.,-1.));
#1723=DIRECTION('ref_axis',(1.26882631385732E-14,-1.,0.));
#1724=DIRECTION('',(-1.,-4.62592926927148E-17,0.));
#1725=DIRECTION('',(0.,-1.,0.));
#1726=DIRECTION('',(1.,0.,0.));
#1727=DIRECTION('center_axis',(0.,0.,1.));
#1728=DIRECTION('ref_axis',(7.10542735760099E-15,-1.,0.));
#1729=DIRECTION('',(0.,1.,0.));
#1730=DIRECTION('center_axis',(0.,0.,1.));
#1731=DIRECTION('ref_axis',(1.,4.44089209850062E-15,0.));
#1732=DIRECTION('',(-1.,1.38777878078145E-16,0.));
#1733=DIRECTION('center_axis',(0.,0.,1.));
#1734=DIRECTION('ref_axis',(-1.77635683940024E-15,1.,0.));
#1735=DIRECTION('center_axis',(-1.,0.,0.));
#1736=DIRECTION('ref_axis',(0.,-1.,0.));
#1737=DIRECTION('',(0.,1.,0.));
#1738=DIRECTION('',(0.,0.,1.));
#1739=DIRECTION('',(0.,0.,1.));
#1740=DIRECTION('center_axis',(-4.62592926927148E-17,1.,0.));
#1741=DIRECTION('ref_axis',(-1.,-4.62592926927148E-17,0.));
#1742=DIRECTION('',(1.,4.62592926927148E-17,0.));
#1743=DIRECTION('',(0.,0.,1.));
#1744=DIRECTION('',(-1.,-4.62592926927148E-17,0.));
#1745=DIRECTION('',(0.,0.,1.));
#1746=DIRECTION('center_axis',(1.,0.,0.));
#1747=DIRECTION('ref_axis',(0.,1.,0.));
#1748=DIRECTION('',(0.,-1.,0.));
#1749=DIRECTION('',(0.,1.,0.));
#1750=DIRECTION('',(0.,0.,1.));
#1751=DIRECTION('center_axis',(-1.,0.,0.));
#1752=DIRECTION('ref_axis',(0.,-1.,0.));
#1753=DIRECTION('',(0.,1.,0.));
#1754=DIRECTION('',(0.,0.,1.));
#1755=DIRECTION('',(0.,-1.,0.));
#1756=DIRECTION('center_axis',(0.,0.,1.));
#1757=DIRECTION('ref_axis',(1.,0.,0.));
#1758=DIRECTION('',(1.,0.,0.));
#1759=DIRECTION('center_axis',(0.,0.,1.));
#1760=DIRECTION('ref_axis',(1.26882631385732E-14,-1.,0.));
#1761=DIRECTION('center_axis',(0.,0.,1.));
#1762=DIRECTION('ref_axis',(1.26882631385732E-14,-1.,0.));
#1763=DIRECTION('',(0.,0.,1.));
#1764=DIRECTION('',(0.,0.,1.));
#1765=DIRECTION('center_axis',(-1.,0.,0.));
#1766=DIRECTION('ref_axis',(0.,-1.,0.));
#1767=DIRECTION('',(0.,1.,0.));
#1768=DIRECTION('',(0.,0.,1.));
#1769=DIRECTION('center_axis',(0.,0.,1.));
#1770=DIRECTION('ref_axis',(1.,6.3441315692866E-15,0.));
#1771=DIRECTION('center_axis',(0.,0.,1.));
#1772=DIRECTION('ref_axis',(1.,6.3441315692866E-15,0.));
#1773=DIRECTION('',(0.,0.,1.));
#1774=DIRECTION('center_axis',(-9.25185853854297E-17,-1.,0.));
#1775=DIRECTION('ref_axis',(1.,-9.25185853854297E-17,0.));
#1776=DIRECTION('',(-1.,9.25185853854297E-17,0.));
#1777=DIRECTION('',(0.,0.,1.));
#1778=DIRECTION('center_axis',(0.,0.,1.));
#1779=DIRECTION('ref_axis',(-2.53765262771463E-15,1.,0.));
#1780=DIRECTION('center_axis',(0.,0.,1.));
#1781=DIRECTION('ref_axis',(-2.53765262771463E-15,1.,0.));
#1782=DIRECTION('center_axis',(-4.62592926927148E-17,1.,0.));
#1783=DIRECTION('ref_axis',(-1.,-4.62592926927148E-17,0.));
#1784=DIRECTION('',(1.,4.62592926927148E-17,0.));
#1785=DIRECTION('',(1.,4.62592926927148E-17,0.));
#1786=DIRECTION('center_axis',(0.,0.,1.));
#1787=DIRECTION('ref_axis',(1.,0.,0.));
#1788=DIRECTION('center_axis',(0.,0.,1.));
#1789=DIRECTION('ref_axis',(1.,0.,0.));
#1790=DIRECTION('',(0.,0.,-1.));
#1791=DIRECTION('center_axis',(0.,0.,-1.));
#1792=DIRECTION('ref_axis',(1.,0.,0.));
#1793=DIRECTION('center_axis',(0.,0.,1.));
#1794=DIRECTION('ref_axis',(1.,0.,0.));
#1795=DIRECTION('center_axis',(0.,0.,1.));
#1796=DIRECTION('ref_axis',(1.,0.,0.));
#1797=DIRECTION('center_axis',(0.,0.,1.));
#1798=DIRECTION('ref_axis',(1.,0.,0.));
#1799=DIRECTION('',(0.,0.,-1.));
#1800=DIRECTION('center_axis',(0.,0.,-1.));
#1801=DIRECTION('ref_axis',(1.,0.,0.));
#1802=DIRECTION('center_axis',(0.,0.,1.));
#1803=DIRECTION('ref_axis',(1.,0.,0.));
#1804=DIRECTION('center_axis',(0.,0.,1.));
#1805=DIRECTION('ref_axis',(1.,0.,0.));
#1806=DIRECTION('center_axis',(0.,0.,1.));
#1807=DIRECTION('ref_axis',(1.,0.,0.));
#1808=DIRECTION('',(0.,0.,-1.));
#1809=DIRECTION('center_axis',(0.,0.,-1.));
#1810=DIRECTION('ref_axis',(1.,0.,0.));
#1811=DIRECTION('center_axis',(0.,0.,1.));
#1812=DIRECTION('ref_axis',(1.,0.,0.));
#1813=DIRECTION('center_axis',(1.,0.,0.));
#1814=DIRECTION('ref_axis',(0.,1.,0.));
#1815=DIRECTION('',(0.,-1.,0.));
#1816=DIRECTION('',(0.,0.,1.));
#1817=DIRECTION('',(0.,1.,0.));
#1818=DIRECTION('',(0.,0.,1.));
#1819=DIRECTION('center_axis',(0.,1.,0.));
#1820=DIRECTION('ref_axis',(-1.,0.,0.));
#1821=DIRECTION('',(1.,0.,0.));
#1822=DIRECTION('',(0.,0.,1.));
#1823=DIRECTION('',(-1.,0.,0.));
#1824=DIRECTION('center_axis',(-1.,0.,0.));
#1825=DIRECTION('ref_axis',(0.,-1.,0.));
#1826=DIRECTION('',(0.,1.,0.));
#1827=DIRECTION('',(0.,0.,1.));
#1828=DIRECTION('',(0.,-1.,0.));
#1829=DIRECTION('center_axis',(0.,0.,1.));
#1830=DIRECTION('ref_axis',(8.8817841970012E-15,-1.,0.));
#1831=DIRECTION('center_axis',(0.,0.,1.));
#1832=DIRECTION('ref_axis',(8.8817841970012E-15,-1.,0.));
#1833=DIRECTION('',(0.,0.,1.));
#1834=DIRECTION('center_axis',(0.,0.,-1.));
#1835=DIRECTION('ref_axis',(8.8817841970012E-15,-1.,0.));
#1836=DIRECTION('center_axis',(0.,0.,1.));
#1837=DIRECTION('ref_axis',(5.92118946466748E-15,-1.,0.));
#1838=DIRECTION('center_axis',(0.,0.,-1.));
#1839=DIRECTION('ref_axis',(5.92118946466748E-15,-1.,0.));
#1840=DIRECTION('center_axis',(0.,0.,1.));
#1841=DIRECTION('ref_axis',(5.92118946466748E-15,-1.,0.));
#1842=DIRECTION('',(0.,0.,1.));
#1843=DIRECTION('center_axis',(4.62592926927149E-17,-1.,0.));
#1844=DIRECTION('ref_axis',(1.,4.62592926927149E-17,0.));
#1845=DIRECTION('',(-1.,-4.62592926927149E-17,0.));
#1846=DIRECTION('',(1.,4.62592926927149E-17,0.));
#1847=DIRECTION('',(0.,0.,1.));
#1848=DIRECTION('center_axis',(-1.,0.,0.));
#1849=DIRECTION('ref_axis',(0.,-1.,0.));
#1850=DIRECTION('',(0.,1.,0.));
#1851=DIRECTION('',(0.,-1.,0.));
#1852=DIRECTION('',(0.,0.,1.));
#1853=DIRECTION('center_axis',(-4.62592926927149E-17,1.,0.));
#1854=DIRECTION('ref_axis',(-1.,-4.62592926927149E-17,0.));
#1855=DIRECTION('',(1.,4.62592926927149E-17,0.));
#1856=DIRECTION('',(-1.,-4.62592926927149E-17,0.));
#1857=DIRECTION('center_axis',(0.,0.,1.));
#1858=DIRECTION('ref_axis',(1.,0.,0.));
#1859=DIRECTION('center_axis',(-1.,0.,0.));
#1860=DIRECTION('ref_axis',(0.,-1.,0.));
#1861=DIRECTION('',(0.,1.,0.));
#1862=DIRECTION('',(0.,0.,1.));
#1863=DIRECTION('',(0.,-1.,0.));
#1864=DIRECTION('',(0.,0.,1.));
#1865=DIRECTION('center_axis',(0.,-1.,0.));
#1866=DIRECTION('ref_axis',(1.,0.,0.));
#1867=DIRECTION('',(-1.,0.,0.));
#1868=DIRECTION('',(0.,0.,1.));
#1869=DIRECTION('',(1.,0.,0.));
#1870=DIRECTION('center_axis',(1.,-1.34572487833352E-16,0.));
#1871=DIRECTION('ref_axis',(1.34572487833352E-16,1.,0.));
#1872=DIRECTION('',(-1.34572487833352E-16,-1.,0.));
#1873=DIRECTION('',(0.,0.,1.));
#1874=DIRECTION('',(1.34572487833352E-16,1.,0.));
#1875=DIRECTION('center_axis',(0.,0.,1.));
#1876=DIRECTION('ref_axis',(-4.44089209850059E-15,1.,0.));
#1877=DIRECTION('center_axis',(0.,0.,1.));
#1878=DIRECTION('ref_axis',(-4.44089209850059E-15,1.,0.));
#1879=DIRECTION('',(0.,0.,1.));
#1880=DIRECTION('center_axis',(0.,0.,-1.));
#1881=DIRECTION('ref_axis',(-4.44089209850059E-15,1.,0.));
#1882=DIRECTION('center_axis',(0.,-1.,0.));
#1883=DIRECTION('ref_axis',(1.,0.,0.));
#1884=DIRECTION('',(-1.,0.,0.));
#1885=DIRECTION('',(0.,0.,1.));
#1886=DIRECTION('',(1.,0.,0.));
#1887=DIRECTION('center_axis',(0.,0.,1.));
#1888=DIRECTION('ref_axis',(1.,6.6613381477509E-15,0.));
#1889=DIRECTION('center_axis',(0.,0.,1.));
#1890=DIRECTION('ref_axis',(1.,6.6613381477509E-15,0.));
#1891=DIRECTION('',(0.,0.,1.));
#1892=DIRECTION('center_axis',(0.,0.,-1.));
#1893=DIRECTION('ref_axis',(1.,6.6613381477509E-15,0.));
#1894=DIRECTION('center_axis',(0.,0.,1.));
#1895=DIRECTION('ref_axis',(-2.96059473233374E-15,1.,0.));
#1896=DIRECTION('center_axis',(0.,0.,-1.));
#1897=DIRECTION('ref_axis',(-2.96059473233374E-15,1.,0.));
#1898=DIRECTION('center_axis',(0.,0.,1.));
#1899=DIRECTION('ref_axis',(-2.96059473233374E-15,1.,0.));
#1900=DIRECTION('',(0.,0.,1.));
#1901=DIRECTION('center_axis',(4.62592926927149E-17,1.,0.));
#1902=DIRECTION('ref_axis',(-1.,4.62592926927149E-17,0.));
#1903=DIRECTION('',(1.,-4.62592926927149E-17,0.));
#1904=DIRECTION('',(-1.,4.62592926927149E-17,0.));
#1905=DIRECTION('',(0.,0.,1.));
#1906=DIRECTION('center_axis',(0.,0.,1.));
#1907=DIRECTION('ref_axis',(1.,4.44089209850062E-15,0.));
#1908=DIRECTION('center_axis',(0.,0.,-1.));
#1909=DIRECTION('ref_axis',(1.,4.44089209850062E-15,0.));
#1910=DIRECTION('center_axis',(0.,0.,1.));
#1911=DIRECTION('ref_axis',(1.,4.44089209850062E-15,0.));
#1912=DIRECTION('',(0.,0.,1.));
#1913=DIRECTION('center_axis',(1.,0.,0.));
#1914=DIRECTION('ref_axis',(0.,1.,0.));
#1915=DIRECTION('',(0.,-1.,0.));
#1916=DIRECTION('',(0.,1.,0.));
#1917=DIRECTION('',(0.,0.,1.));
#1918=DIRECTION('center_axis',(0.,-1.,0.));
#1919=DIRECTION('ref_axis',(1.,0.,0.));
#1920=DIRECTION('',(-1.,0.,0.));
#1921=DIRECTION('',(1.,0.,0.));
#1922=DIRECTION('',(0.,0.,1.));
#1923=DIRECTION('center_axis',(-1.,0.,0.));
#1924=DIRECTION('ref_axis',(0.,-1.,0.));
#1925=DIRECTION('',(0.,1.,0.));
#1926=DIRECTION('',(0.,-1.,0.));
#1927=DIRECTION('center_axis',(0.,0.,1.));
#1928=DIRECTION('ref_axis',(1.,0.,0.));
#1929=DIRECTION('center_axis',(1.38777878078145E-16,1.,0.));
#1930=DIRECTION('ref_axis',(-1.,1.38777878078145E-16,0.));
#1931=DIRECTION('',(1.,-1.38777878078145E-16,0.));
#1932=DIRECTION('',(0.,0.,1.));
#1933=DIRECTION('',(0.,0.,1.));
#1934=DIRECTION('center_axis',(0.,0.,1.));
#1935=DIRECTION('ref_axis',(1.,2.66453525910037E-15,0.));
#1936=DIRECTION('center_axis',(0.,0.,1.));
#1937=DIRECTION('ref_axis',(1.,2.66453525910037E-15,0.));
#1938=DIRECTION('',(0.,0.,1.));
#1939=DIRECTION('center_axis',(1.,0.,0.));
#1940=DIRECTION('ref_axis',(0.,1.,0.));
#1941=DIRECTION('',(0.,-1.,0.));
#1942=DIRECTION('',(0.,0.,1.));
#1943=DIRECTION('center_axis',(0.,0.,1.));
#1944=DIRECTION('ref_axis',(3.55271367880049E-15,-1.,0.));
#1945=DIRECTION('center_axis',(0.,0.,1.));
#1946=DIRECTION('ref_axis',(3.55271367880049E-15,-1.,0.));
#1947=DIRECTION('',(0.,0.,1.));
#1948=DIRECTION('center_axis',(0.,-1.,0.));
#1949=DIRECTION('ref_axis',(1.,0.,0.));
#1950=DIRECTION('',(1.,0.,0.));
#1951=DIRECTION('',(1.,0.,0.));
#1952=DIRECTION('',(0.,0.,1.));
#1953=DIRECTION('',(-1.,0.,0.));
#1954=DIRECTION('',(1.,0.,0.));
#1955=DIRECTION('center_axis',(0.,0.,1.));
#1956=DIRECTION('ref_axis',(-1.,-1.77635683940025E-15,0.));
#1957=DIRECTION('center_axis',(0.,0.,1.));
#1958=DIRECTION('ref_axis',(-1.,-1.77635683940025E-15,0.));
#1959=DIRECTION('',(0.,0.,1.));
#1960=DIRECTION('center_axis',(-1.,0.,0.));
#1961=DIRECTION('ref_axis',(0.,-1.,0.));
#1962=DIRECTION('',(0.,0.,1.));
#1963=DIRECTION('',(0.,1.,0.));
#1964=DIRECTION('',(0.,-1.,0.));
#1965=DIRECTION('center_axis',(0.,0.,1.));
#1966=DIRECTION('ref_axis',(-1.77635683940024E-15,1.,0.));
#1967=DIRECTION('center_axis',(0.,0.,1.));
#1968=DIRECTION('ref_axis',(-1.77635683940024E-15,1.,0.));
#1969=DIRECTION('center_axis',(0.,0.,1.));
#1970=DIRECTION('ref_axis',(1.,0.,0.));
#1971=DIRECTION('center_axis',(0.,0.,1.));
#1972=DIRECTION('ref_axis',(1.,0.,0.));
#1973=CARTESIAN_POINT('',(0.,0.,0.));
#1974=CARTESIAN_POINT('Origin',(-49.0787206998721,-8.01608174502944,-3.5));
#1975=CARTESIAN_POINT('',(-49.0787206998721,-8.01608174502944,-3.5));
#1976=CARTESIAN_POINT('',(-49.0762106213615,-29.7233813727834,-3.5));
#1977=CARTESIAN_POINT('',(-49.0791838332332,-4.01087848403873,-3.5));
#1978=CARTESIAN_POINT('',(-49.0787206998721,-8.01608174502944,-3.));
#1979=CARTESIAN_POINT('',(-49.0787206998721,-8.01608174502944,-3.5));
#1980=CARTESIAN_POINT('',(-49.0762106213615,-29.7233813727834,-3.));
#1981=CARTESIAN_POINT('',(-49.0762106213694,-29.7233813051434,-3.));
#1982=CARTESIAN_POINT('',(-49.0762106213615,-29.7233813727834,-3.5));
#1983=CARTESIAN_POINT('Origin',(-44.5394751137638,-8.01555685879322,-3.5));
#1984=CARTESIAN_POINT('',(-40.0002295276555,-8.01503197255701,-3.5));
#1985=CARTESIAN_POINT('Origin',(-44.5394751137638,-8.01555685879322,-3.5));
#1986=CARTESIAN_POINT('',(-40.0002295276555,-8.01503197255701,-3.));
#1987=CARTESIAN_POINT('',(-40.0002295276555,-8.01503197255701,-3.5));
#1988=CARTESIAN_POINT('Origin',(-44.5394751137638,-8.01555685879322,-3.));
#1989=CARTESIAN_POINT('Origin',(-39.9977194491527,-29.7223315326709,-3.5));
#1990=CARTESIAN_POINT('',(-39.9977194491527,-29.7223315326709,-3.5));
#1991=CARTESIAN_POINT('',(-39.9994376217651,-14.8634784916233,-3.5));
#1992=CARTESIAN_POINT('',(-39.9977194491527,-29.7223315326709,-3.));
#1993=CARTESIAN_POINT('',(-39.9977194491527,-29.7223315326709,-3.5));
#1994=CARTESIAN_POINT('',(-40.0002295276555,-8.01503197255701,-3.));
#1995=CARTESIAN_POINT('Origin',(-44.536965035261,-29.7228564189071,-3.5));
#1996=CARTESIAN_POINT('Origin',(-44.536965035261,-29.7228564189071,-3.5));
#1997=CARTESIAN_POINT('Origin',(-44.536965035261,-29.7228564189071,-3.));
#1998=CARTESIAN_POINT('Origin',(-44.5382200745124,-18.8692066388502,-3.));
#1999=CARTESIAN_POINT('',(-44.86,-29.74,-3.));
#2000=CARTESIAN_POINT('Origin',(-44.26,-29.74,-3.));
#2001=CARTESIAN_POINT('',(-45.14,-11.22,-3.));
#2002=CARTESIAN_POINT('Origin',(-44.54,-11.22,-3.));
#2003=CARTESIAN_POINT('Origin',(45.14,10.92,-3.5));
#2004=CARTESIAN_POINT('',(42.14,10.92,-3.5));
#2005=CARTESIAN_POINT('Origin',(45.14,10.92,-3.5));
#2006=CARTESIAN_POINT('',(42.14,10.92,-3.));
#2007=CARTESIAN_POINT('',(42.14,10.92,-3.5));
#2008=CARTESIAN_POINT('Origin',(45.14,10.92,-3.));
#2009=CARTESIAN_POINT('Origin',(45.14,10.92,-3.));
#2010=CARTESIAN_POINT('',(44.54,10.92,-3.));
#2011=CARTESIAN_POINT('Origin',(45.14,10.92,-3.));
#2012=CARTESIAN_POINT('Origin',(-44.26,-29.74,-3.5));
#2013=CARTESIAN_POINT('',(-44.86,-29.74,0.));
#2014=CARTESIAN_POINT('',(-44.86,-29.74,-3.5));
#2015=CARTESIAN_POINT('Origin',(-44.26,-29.74,0.));
#2016=CARTESIAN_POINT('Origin',(-44.54,-11.22,-3.5));
#2017=CARTESIAN_POINT('',(-45.14,-11.22,0.));
#2018=CARTESIAN_POINT('',(-45.14,-11.22,-3.5));
#2019=CARTESIAN_POINT('Origin',(-44.54,-11.22,0.));
#2020=CARTESIAN_POINT('Origin',(45.14,10.92,-3.5));
#2021=CARTESIAN_POINT('',(44.54,10.92,0.));
#2022=CARTESIAN_POINT('',(44.54,10.92,-3.5));
#2023=CARTESIAN_POINT('Origin',(45.14,10.92,0.));
#2024=CARTESIAN_POINT('Origin',(51.5,27.0000004023314,6.00000002980232));
#2025=CARTESIAN_POINT('',(53.,17.0000002533197,6.00000002980232));
#2026=CARTESIAN_POINT('',(53.,27.0000004023314,6.00000002980232));
#2027=CARTESIAN_POINT('',(53.,-2.99999979883433,6.00000002980232));
#2028=CARTESIAN_POINT('',(51.5,17.0000002533197,6.00000002980232));
#2029=CARTESIAN_POINT('',(51.5,17.0000002533197,6.00000002980232));
#2030=CARTESIAN_POINT('',(51.5,27.0000004023314,6.00000002980232));
#2031=CARTESIAN_POINT('',(51.5,30.0000002011657,6.00000002980232));
#2032=CARTESIAN_POINT('',(51.5,27.0000004023314,6.00000002980232));
#2033=CARTESIAN_POINT('Origin',(51.5,27.0000004023314,3.00000002980232));
#2034=CARTESIAN_POINT('',(53.,27.0000004023314,2.98023217215615E-8));
#2035=CARTESIAN_POINT('Origin',(53.,27.0000004023314,3.00000002980232));
#2036=CARTESIAN_POINT('',(51.5,27.0000004023314,2.98023217215615E-8));
#2037=CARTESIAN_POINT('Origin',(51.5,27.0000004023314,3.00000002980232));
#2038=CARTESIAN_POINT('',(51.5,27.0000004023314,2.98023217215615E-8));
#2039=CARTESIAN_POINT('Origin',(51.5,17.0000002533197,2.98023219991173E-8));
#2040=CARTESIAN_POINT('',(53.,17.0000002533197,2.98023217215615E-8));
#2041=CARTESIAN_POINT('',(53.,-7.99999987334014,2.9802322276673E-8));
#2042=CARTESIAN_POINT('',(51.5,17.0000002533197,2.98023217215615E-8));
#2043=CARTESIAN_POINT('',(51.5,25.0000001266599,2.98023219991173E-8));
#2044=CARTESIAN_POINT('',(51.5,17.0000002533197,2.98023217215615E-8));
#2045=CARTESIAN_POINT('Origin',(51.5,17.0000002533197,3.00000002980232));
#2046=CARTESIAN_POINT('Origin',(53.,17.0000002533197,3.00000002980232));
#2047=CARTESIAN_POINT('Origin',(51.5,17.0000002533197,3.00000002980232));
#2048=CARTESIAN_POINT('Origin',(29.2438572748307,-37.25,4.5));
#2049=CARTESIAN_POINT('',(13.4647975941667,-36.5,4.5));
#2050=CARTESIAN_POINT('',(13.4647975941667,-38.,4.5));
#2051=CARTESIAN_POINT('',(13.4647975941667,-37.625,4.5));
#2052=CARTESIAN_POINT('',(45.0229169554948,-36.5,4.5));
#2053=CARTESIAN_POINT('',(-48.,-36.5,4.5));
#2054=CARTESIAN_POINT('',(45.0229169554948,-38.,4.5));
#2055=CARTESIAN_POINT('',(45.0229169554948,-36.875,4.5));
#2056=CARTESIAN_POINT('',(-48.,-38.,4.5));
#2057=CARTESIAN_POINT('Origin',(45.0229169554948,-36.5,-1.5));
#2058=CARTESIAN_POINT('',(45.0229169554948,-36.5,-1.5));
#2059=CARTESIAN_POINT('',(45.0229169554948,-36.5,-1.5));
#2060=CARTESIAN_POINT('',(45.0229169554948,-38.,-1.5));
#2061=CARTESIAN_POINT('',(45.0229169554948,-18.25,-1.5));
#2062=CARTESIAN_POINT('',(45.0229169554948,-38.,-1.5));
#2063=CARTESIAN_POINT('Origin',(13.4647975941667,-38.,-1.5));
#2064=CARTESIAN_POINT('',(13.4647975941667,-38.,-1.5));
#2065=CARTESIAN_POINT('',(13.4647975941667,-38.,-1.5));
#2066=CARTESIAN_POINT('',(13.4647975941667,-36.5,-1.5));
#2067=CARTESIAN_POINT('',(13.4647975941667,-19.,-1.5));
#2068=CARTESIAN_POINT('',(13.4647975941667,-36.5,-1.5));
#2069=CARTESIAN_POINT('Origin',(-52.25,15.3933493329145,4.5));
#2070=CARTESIAN_POINT('',(-51.5,30.786698665829,4.5));
#2071=CARTESIAN_POINT('',(-53.,30.786698665829,4.5));
#2072=CARTESIAN_POINT('',(-52.625,30.786698665829,4.5));
#2073=CARTESIAN_POINT('',(-51.5,1.33226762955019E-14,4.5));
#2074=CARTESIAN_POINT('',(-51.5,33.,4.5));
#2075=CARTESIAN_POINT('',(-53.,2.22044604925031E-14,4.5));
#2076=CARTESIAN_POINT('',(-51.875,1.55431223447522E-14,4.5));
#2077=CARTESIAN_POINT('',(-53.,33.,4.5));
#2078=CARTESIAN_POINT('Origin',(-51.5,1.33226762955019E-14,-1.5));
#2079=CARTESIAN_POINT('',(-51.5,1.33226762955019E-14,-1.5));
#2080=CARTESIAN_POINT('',(-51.5,1.33226762955019E-14,-1.5));
#2081=CARTESIAN_POINT('',(-53.,2.22044604925031E-14,-1.5));
#2082=CARTESIAN_POINT('',(-25.75,-1.39147952419686E-13,-1.5));
#2083=CARTESIAN_POINT('',(-53.,2.22044604925031E-14,-1.5));
#2084=CARTESIAN_POINT('Origin',(-53.,30.786698665829,-1.5));
#2085=CARTESIAN_POINT('',(-53.,30.786698665829,-1.5));
#2086=CARTESIAN_POINT('',(-53.,30.786698665829,-1.5));
#2087=CARTESIAN_POINT('',(-51.5,30.786698665829,-1.5));
#2088=CARTESIAN_POINT('',(-26.5,30.786698665829,-1.5));
#2089=CARTESIAN_POINT('',(-51.5,30.786698665829,-1.5));
#2090=CARTESIAN_POINT('Origin',(-51.5,-33.,-1.5));
#2091=CARTESIAN_POINT('',(-51.5,-33.,-1.5));
#2092=CARTESIAN_POINT('',(-51.5,-16.5,-1.5));
#2093=CARTESIAN_POINT('',(-51.5,33.,-1.5));
#2094=CARTESIAN_POINT('',(-51.5,15.3933493329145,-1.5));
#2095=CARTESIAN_POINT('',(-51.5,33.,8.5));
#2096=CARTESIAN_POINT('',(-51.5,33.,-1.5));
#2097=CARTESIAN_POINT('',(-51.5,-33.,8.5));
#2098=CARTESIAN_POINT('',(-51.5,33.,8.5));
#2099=CARTESIAN_POINT('',(-51.5,-33.,-1.5));
#2100=CARTESIAN_POINT('Origin',(-48.,-33.,-1.5));
#2101=CARTESIAN_POINT('',(-48.,-36.5,-1.5));
#2102=CARTESIAN_POINT('Origin',(-48.,-33.,-1.5));
#2103=CARTESIAN_POINT('',(-48.,-36.5,8.5));
#2104=CARTESIAN_POINT('Origin',(-48.,-33.,8.5));
#2105=CARTESIAN_POINT('',(-48.,-36.5,-1.5));
#2106=CARTESIAN_POINT('Origin',(-39.9736178576823,-36.5,-1.5));
#2107=CARTESIAN_POINT('',(-39.9736178576823,-36.5,-1.5));
#2108=CARTESIAN_POINT('',(-19.9868089288412,-36.5,-1.5));
#2109=CARTESIAN_POINT('',(-39.9736178576823,-36.5,8.5));
#2110=CARTESIAN_POINT('',(-48.,-36.5,8.5));
#2111=CARTESIAN_POINT('',(-39.9736178576823,-36.5,-1.5));
#2112=CARTESIAN_POINT('Origin',(-39.9736178576823,-38.,-1.5));
#2113=CARTESIAN_POINT('',(-39.9736178576823,-38.,-1.5));
#2114=CARTESIAN_POINT('',(-39.9736178576823,-19.,-1.5));
#2115=CARTESIAN_POINT('',(-39.9736178576823,-38.,8.5));
#2116=CARTESIAN_POINT('',(-39.9736178576823,-38.,8.5));
#2117=CARTESIAN_POINT('',(-39.9736178576823,-38.,-1.5));
#2118=CARTESIAN_POINT('Origin',(-46.4868089288412,-19.,8.5));
#2119=CARTESIAN_POINT('',(-53.,33.,8.5));
#2120=CARTESIAN_POINT('',(-53.,-33.,8.5));
#2121=CARTESIAN_POINT('',(-53.,33.,8.5));
#2122=CARTESIAN_POINT('',(-48.,-38.,8.5));
#2123=CARTESIAN_POINT('Origin',(-48.,-33.,8.5));
#2124=CARTESIAN_POINT('',(-48.,-38.,8.5));
#2125=CARTESIAN_POINT('',(-48.,36.5,8.5));
#2126=CARTESIAN_POINT('Origin',(-48.,33.,8.5));
#2127=CARTESIAN_POINT('',(48.,36.5,8.5));
#2128=CARTESIAN_POINT('',(48.,36.5,8.5));
#2129=CARTESIAN_POINT('',(51.5,33.,8.5));
#2130=CARTESIAN_POINT('Origin',(48.,33.,8.5));
#2131=CARTESIAN_POINT('',(51.5,-33.,8.5));
#2132=CARTESIAN_POINT('',(51.5,-33.,8.5));
#2133=CARTESIAN_POINT('',(48.,-36.5,8.5));
#2134=CARTESIAN_POINT('Origin',(48.,-33.,8.5));
#2135=CARTESIAN_POINT('',(5.61033233090278,-36.5,8.5));
#2136=CARTESIAN_POINT('',(-48.,-36.5,8.5));
#2137=CARTESIAN_POINT('',(5.61033233090278,-38.,8.5));
#2138=CARTESIAN_POINT('',(5.61033233090278,-36.5,8.5));
#2139=CARTESIAN_POINT('',(48.,-38.,8.5));
#2140=CARTESIAN_POINT('',(-48.,-38.,8.5));
#2141=CARTESIAN_POINT('',(53.,-33.,8.5));
#2142=CARTESIAN_POINT('Origin',(48.,-33.,8.5));
#2143=CARTESIAN_POINT('',(53.,33.,8.5));
#2144=CARTESIAN_POINT('',(53.,-33.,8.5));
#2145=CARTESIAN_POINT('',(48.,38.,8.5));
#2146=CARTESIAN_POINT('Origin',(48.,33.,8.5));
#2147=CARTESIAN_POINT('',(-48.,38.,8.5));
#2148=CARTESIAN_POINT('',(48.,38.,8.5));
#2149=CARTESIAN_POINT('Origin',(-48.,33.,8.5));
#2150=CARTESIAN_POINT('Origin',(5.61033233090278,-36.5,-1.5));
#2151=CARTESIAN_POINT('',(5.61033233090278,-38.,-1.5));
#2152=CARTESIAN_POINT('',(5.61033233090278,-36.5,-1.5));
#2153=CARTESIAN_POINT('',(5.61033233090278,-18.25,-1.5));
#2154=CARTESIAN_POINT('',(5.61033233090278,-38.,-1.5));
#2155=CARTESIAN_POINT('',(5.61033233090278,-36.5,-1.5));
#2156=CARTESIAN_POINT('Origin',(-14.0258308272569,-36.5,-1.5));
#2157=CARTESIAN_POINT('',(-21.3192628574306,-36.5,-1.5));
#2158=CARTESIAN_POINT('',(-14.0258308272569,-36.5,-1.5));
#2159=CARTESIAN_POINT('',(-7.01291541362847,-36.5,-1.5));
#2160=CARTESIAN_POINT('',(-21.3192628574306,-36.5,8.5));
#2161=CARTESIAN_POINT('',(-21.3192628574306,-36.5,-1.5));
#2162=CARTESIAN_POINT('',(-14.0258308272569,-36.5,8.5));
#2163=CARTESIAN_POINT('',(-48.,-36.5,8.5));
#2164=CARTESIAN_POINT('',(-14.0258308272569,-36.5,-1.5));
#2165=CARTESIAN_POINT('Origin',(-14.0258308272569,-38.,-1.5));
#2166=CARTESIAN_POINT('',(-14.0258308272569,-38.,-1.5));
#2167=CARTESIAN_POINT('',(-14.0258308272569,-19.,-1.5));
#2168=CARTESIAN_POINT('',(-14.0258308272569,-38.,8.5));
#2169=CARTESIAN_POINT('',(-14.0258308272569,-36.5,8.5));
#2170=CARTESIAN_POINT('',(-14.0258308272569,-38.,-1.5));
#2171=CARTESIAN_POINT('Origin',(-21.3192628574306,-36.5,-1.5));
#2172=CARTESIAN_POINT('',(-21.3192628574306,-38.,-1.5));
#2173=CARTESIAN_POINT('',(-21.3192628574306,-18.25,-1.5));
#2174=CARTESIAN_POINT('',(-21.3192628574306,-38.,8.5));
#2175=CARTESIAN_POINT('',(-21.3192628574306,-38.,-1.5));
#2176=CARTESIAN_POINT('',(-21.3192628574306,-36.5,8.5));
#2177=CARTESIAN_POINT('Origin',(-17.6725468423438,-37.25,8.5));
#2178=CARTESIAN_POINT('',(-48.,-38.,8.5));
#2179=CARTESIAN_POINT('Origin',(48.,-33.,-1.5));
#2180=CARTESIAN_POINT('',(48.,-36.5,-1.5));
#2181=CARTESIAN_POINT('',(51.5,-33.,-1.5));
#2182=CARTESIAN_POINT('Origin',(48.,-33.,-1.5));
#2183=CARTESIAN_POINT('',(48.,-36.5,-1.5));
#2184=CARTESIAN_POINT('',(51.5,-33.,-1.5));
#2185=CARTESIAN_POINT('Origin',(51.5,33.,-1.5));
#2186=CARTESIAN_POINT('',(51.5,33.,-1.5));
#2187=CARTESIAN_POINT('',(51.5,16.5,-1.5));
#2188=CARTESIAN_POINT('',(51.5,33.,-1.5));
#2189=CARTESIAN_POINT('Origin',(48.,33.,-1.5));
#2190=CARTESIAN_POINT('',(48.,36.5,-1.5));
#2191=CARTESIAN_POINT('Origin',(48.,33.,-1.5));
#2192=CARTESIAN_POINT('',(48.,36.5,-1.5));
#2193=CARTESIAN_POINT('Origin',(-48.,36.5,-1.5));
#2194=CARTESIAN_POINT('',(-48.,36.5,-1.5));
#2195=CARTESIAN_POINT('',(-24.,36.5,-1.5));
#2196=CARTESIAN_POINT('',(-48.,36.5,-1.5));
#2197=CARTESIAN_POINT('Origin',(-48.,33.,-1.5));
#2198=CARTESIAN_POINT('Origin',(-48.,33.,-1.5));
#2199=CARTESIAN_POINT('Origin',(48.,-36.5,-1.5));
#2200=CARTESIAN_POINT('',(24.,-36.5,-1.5));
#2201=CARTESIAN_POINT('',(6.73239879708334,-36.5,-1.5));
#2202=CARTESIAN_POINT('Origin',(45.14,10.92,-3.));
#2203=CARTESIAN_POINT('',(43.54,10.92,0.));
#2204=CARTESIAN_POINT('Origin',(45.14,10.92,0.));
#2205=CARTESIAN_POINT('',(43.54,10.92,-1.5));
#2206=CARTESIAN_POINT('',(43.54,10.92,-3.));
#2207=CARTESIAN_POINT('Origin',(45.14,10.92,-1.5));
#2208=CARTESIAN_POINT('Origin',(45.14,10.92,0.));
#2209=CARTESIAN_POINT('Origin',(-44.2695064611955,-29.737022999491,-3.));
#2210=CARTESIAN_POINT('',(-45.8695064611955,-29.737022999491,0.));
#2211=CARTESIAN_POINT('Origin',(-44.2695064611955,-29.737022999491,0.));
#2212=CARTESIAN_POINT('',(-45.8695064611955,-29.737022999491,-1.5));
#2213=CARTESIAN_POINT('',(-45.8695064611955,-29.737022999491,-3.));
#2214=CARTESIAN_POINT('Origin',(-44.2695064611955,-29.737022999491,-1.5));
#2215=CARTESIAN_POINT('Origin',(-44.2695064611955,-29.737022999491,0.));
#2216=CARTESIAN_POINT('Origin',(-44.5444230865356,-11.2150208973987,-3.));
#2217=CARTESIAN_POINT('',(-46.1444230865356,-11.2150208973987,0.));
#2218=CARTESIAN_POINT('Origin',(-44.5444230865356,-11.2150208973987,0.));
#2219=CARTESIAN_POINT('',(-46.1444230865356,-11.2150208973987,-1.5));
#2220=CARTESIAN_POINT('',(-46.1444230865356,-11.2150208973987,-3.));
#2221=CARTESIAN_POINT('Origin',(-44.5444230865356,-11.2150208973987,-1.5));
#2222=CARTESIAN_POINT('Origin',(-44.5444230865356,-11.2150208973987,0.));
#2223=CARTESIAN_POINT('Origin',(51.,-33.,-3.));
#2224=CARTESIAN_POINT('',(51.,13.6299273218867,-1.5));
#2225=CARTESIAN_POINT('',(51.,-33.,-1.5));
#2226=CARTESIAN_POINT('',(51.,-16.5,-1.5));
#2227=CARTESIAN_POINT('',(51.,13.6299273218867,1.));
#2228=CARTESIAN_POINT('',(51.,13.6299273218867,-3.));
#2229=CARTESIAN_POINT('',(51.,-33.,1.));
#2230=CARTESIAN_POINT('',(51.,33.,1.));
#2231=CARTESIAN_POINT('',(51.,-33.,-3.));
#2232=CARTESIAN_POINT('Origin',(51.,13.6299273218867,-3.));
#2233=CARTESIAN_POINT('',(50.,13.6299273218867,-1.5));
#2234=CARTESIAN_POINT('',(25.5,13.6299273218867,-1.5));
#2235=CARTESIAN_POINT('',(50.,13.6299273218867,1.));
#2236=CARTESIAN_POINT('',(50.,13.6299273218867,-3.));
#2237=CARTESIAN_POINT('',(50.,13.6299273218867,1.));
#2238=CARTESIAN_POINT('Origin',(50.,13.6299273218867,-3.));
#2239=CARTESIAN_POINT('',(50.,-33.,-1.5));
#2240=CARTESIAN_POINT('',(50.,6.81496366094333,-1.5));
#2241=CARTESIAN_POINT('',(50.,-33.,1.));
#2242=CARTESIAN_POINT('',(50.,-33.,-3.));
#2243=CARTESIAN_POINT('',(50.,33.,1.));
#2244=CARTESIAN_POINT('Origin',(48.,-33.,-3.));
#2245=CARTESIAN_POINT('',(48.,-35.,-1.5));
#2246=CARTESIAN_POINT('Origin',(48.,-33.,-1.5));
#2247=CARTESIAN_POINT('',(48.,-35.,1.));
#2248=CARTESIAN_POINT('',(48.,-35.,-3.));
#2249=CARTESIAN_POINT('Origin',(48.,-33.,1.));
#2250=CARTESIAN_POINT('Origin',(48.,-33.,-3.));
#2251=CARTESIAN_POINT('',(48.,-36.,-1.5));
#2252=CARTESIAN_POINT('Origin',(48.,-33.,-1.5));
#2253=CARTESIAN_POINT('',(48.,-36.,1.));
#2254=CARTESIAN_POINT('Origin',(48.,-33.,1.));
#2255=CARTESIAN_POINT('',(48.,-36.,-3.));
#2256=CARTESIAN_POINT('Origin',(46.9115761353316,-36.,-3.));
#2257=CARTESIAN_POINT('',(46.9115761353316,-36.,-1.5));
#2258=CARTESIAN_POINT('',(23.4557880676658,-36.,-1.5));
#2259=CARTESIAN_POINT('',(46.9115761353316,-36.,1.));
#2260=CARTESIAN_POINT('',(48.,-36.,1.));
#2261=CARTESIAN_POINT('',(46.9115761353316,-36.,-3.));
#2262=CARTESIAN_POINT('Origin',(46.9115761353316,-35.,-3.));
#2263=CARTESIAN_POINT('',(46.9115761353316,-35.,-1.5));
#2264=CARTESIAN_POINT('',(46.9115761353316,-17.5,-1.5));
#2265=CARTESIAN_POINT('',(46.9115761353316,-35.,1.));
#2266=CARTESIAN_POINT('',(46.9115761353316,-35.,1.));
#2267=CARTESIAN_POINT('',(46.9115761353316,-35.,-3.));
#2268=CARTESIAN_POINT('Origin',(48.,-35.,-3.));
#2269=CARTESIAN_POINT('',(24.,-35.,-1.5));
#2270=CARTESIAN_POINT('',(48.,-35.,1.));
#2271=CARTESIAN_POINT('Origin',(48.9557880676658,-11.1850363390567,1.));
#2272=CARTESIAN_POINT('Origin',(-51.,33.,-3.));
#2273=CARTESIAN_POINT('',(-51.,31.5829907807756,-1.5));
#2274=CARTESIAN_POINT('',(-51.,33.,-1.5));
#2275=CARTESIAN_POINT('',(-51.,16.5,-1.5));
#2276=CARTESIAN_POINT('',(-51.,31.5829907807756,1.));
#2277=CARTESIAN_POINT('',(-51.,31.5829907807756,-3.));
#2278=CARTESIAN_POINT('',(-51.,33.,1.));
#2279=CARTESIAN_POINT('',(-51.,-33.,1.));
#2280=CARTESIAN_POINT('',(-51.,33.,-3.));
#2281=CARTESIAN_POINT('Origin',(-51.,31.5829907807756,-3.));
#2282=CARTESIAN_POINT('',(-50.,31.5829907807756,-1.5));
#2283=CARTESIAN_POINT('',(-25.5,31.5829907807756,-1.5));
#2284=CARTESIAN_POINT('',(-50.,31.5829907807756,1.));
#2285=CARTESIAN_POINT('',(-50.,31.5829907807756,-3.));
#2286=CARTESIAN_POINT('',(-50.,31.5829907807756,1.));
#2287=CARTESIAN_POINT('Origin',(-50.,31.5829907807756,-3.));
#2288=CARTESIAN_POINT('',(-50.,33.,-1.5));
#2289=CARTESIAN_POINT('',(-50.,15.7914953903878,-1.5));
#2290=CARTESIAN_POINT('',(-50.,33.,1.));
#2291=CARTESIAN_POINT('',(-50.,33.,-3.));
#2292=CARTESIAN_POINT('',(-50.,-33.,1.));
#2293=CARTESIAN_POINT('Origin',(-48.,33.,-3.));
#2294=CARTESIAN_POINT('',(-48.,35.,-1.5));
#2295=CARTESIAN_POINT('Origin',(-48.,33.,-1.5));
#2296=CARTESIAN_POINT('',(-48.,35.,1.));
#2297=CARTESIAN_POINT('',(-48.,35.,-3.));
#2298=CARTESIAN_POINT('Origin',(-48.,33.,1.));
#2299=CARTESIAN_POINT('Origin',(-48.,35.,-3.));
#2300=CARTESIAN_POINT('',(48.,35.,-1.5));
#2301=CARTESIAN_POINT('',(-24.,35.,-1.5));
#2302=CARTESIAN_POINT('',(48.,35.,1.));
#2303=CARTESIAN_POINT('',(48.,35.,-3.));
#2304=CARTESIAN_POINT('',(-48.,35.,1.));
#2305=CARTESIAN_POINT('Origin',(48.,33.,-3.));
#2306=CARTESIAN_POINT('',(50.,33.,-1.5));
#2307=CARTESIAN_POINT('Origin',(48.,33.,-1.5));
#2308=CARTESIAN_POINT('',(50.,33.,1.));
#2309=CARTESIAN_POINT('',(50.,33.,-3.));
#2310=CARTESIAN_POINT('Origin',(48.,33.,1.));
#2311=CARTESIAN_POINT('Origin',(-48.,33.,-3.));
#2312=CARTESIAN_POINT('',(-48.,36.,-1.5));
#2313=CARTESIAN_POINT('Origin',(-48.,33.,-1.5));
#2314=CARTESIAN_POINT('',(-48.,36.,1.));
#2315=CARTESIAN_POINT('Origin',(-48.,33.,1.));
#2316=CARTESIAN_POINT('',(-48.,36.,-3.));
#2317=CARTESIAN_POINT('Origin',(48.,36.,-3.));
#2318=CARTESIAN_POINT('',(48.,36.,-1.5));
#2319=CARTESIAN_POINT('',(24.,36.,-1.5));
#2320=CARTESIAN_POINT('',(48.,36.,1.));
#2321=CARTESIAN_POINT('',(-48.,36.,1.));
#2322=CARTESIAN_POINT('',(48.,36.,-3.));
#2323=CARTESIAN_POINT('Origin',(48.,33.,-3.));
#2324=CARTESIAN_POINT('',(51.,33.,-1.5));
#2325=CARTESIAN_POINT('Origin',(48.,33.,-1.5));
#2326=CARTESIAN_POINT('',(51.,33.,1.));
#2327=CARTESIAN_POINT('Origin',(48.,33.,1.));
#2328=CARTESIAN_POINT('',(51.,33.,-3.));
#2329=CARTESIAN_POINT('Origin',(51.,30.,-3.));
#2330=CARTESIAN_POINT('',(51.,30.,-1.5));
#2331=CARTESIAN_POINT('',(51.,15.,-1.5));
#2332=CARTESIAN_POINT('',(51.,30.,1.));
#2333=CARTESIAN_POINT('',(51.,33.,1.));
#2334=CARTESIAN_POINT('',(51.,30.,-3.));
#2335=CARTESIAN_POINT('Origin',(50.,30.,-3.));
#2336=CARTESIAN_POINT('',(50.,30.,-1.5));
#2337=CARTESIAN_POINT('',(25.,30.,-1.5));
#2338=CARTESIAN_POINT('',(50.,30.,1.));
#2339=CARTESIAN_POINT('',(50.,30.,1.));
#2340=CARTESIAN_POINT('',(50.,30.,-3.));
#2341=CARTESIAN_POINT('Origin',(50.,33.,-3.));
#2342=CARTESIAN_POINT('',(50.,16.5,-1.5));
#2343=CARTESIAN_POINT('',(50.,33.,1.));
#2344=CARTESIAN_POINT('Origin',(-8.88178419700125E-15,33.,1.));
#2345=CARTESIAN_POINT('Origin',(48.,38.,-3.5));
#2346=CARTESIAN_POINT('',(-48.,38.,-3.5));
#2347=CARTESIAN_POINT('',(48.,38.,-3.5));
#2348=CARTESIAN_POINT('',(-48.,38.,-3.5));
#2349=CARTESIAN_POINT('',(-48.,38.,-3.5));
#2350=CARTESIAN_POINT('',(48.,38.,-3.5));
#2351=CARTESIAN_POINT('Origin',(48.,33.,-3.5));
#2352=CARTESIAN_POINT('',(53.,33.,-3.5));
#2353=CARTESIAN_POINT('Origin',(48.,33.,-3.5));
#2354=CARTESIAN_POINT('',(53.,33.,-3.5));
#2355=CARTESIAN_POINT('Origin',(53.,-33.,-3.5));
#2356=CARTESIAN_POINT('',(53.,-33.,-3.5));
#2357=CARTESIAN_POINT('',(53.,33.,-3.5));
#2358=CARTESIAN_POINT('',(53.,-33.,-3.5));
#2359=CARTESIAN_POINT('Origin',(48.,-33.,-3.5));
#2360=CARTESIAN_POINT('',(48.,-38.,-3.5));
#2361=CARTESIAN_POINT('Origin',(48.,-33.,-3.5));
#2362=CARTESIAN_POINT('',(48.,-38.,-3.5));
#2363=CARTESIAN_POINT('Origin',(-48.,-38.,-3.5));
#2364=CARTESIAN_POINT('',(48.,-38.,-1.5));
#2365=CARTESIAN_POINT('',(48.,-38.,-1.5));
#2366=CARTESIAN_POINT('',(-48.,-38.,-3.5));
#2367=CARTESIAN_POINT('',(-48.,-38.,-3.5));
#2368=CARTESIAN_POINT('',(48.,-38.,-3.5));
#2369=CARTESIAN_POINT('',(48.,-38.,-1.5));
#2370=CARTESIAN_POINT('Origin',(-48.,-33.,-3.5));
#2371=CARTESIAN_POINT('',(-53.,-33.,-3.5));
#2372=CARTESIAN_POINT('Origin',(-48.,-33.,-3.5));
#2373=CARTESIAN_POINT('',(-53.,-33.,-3.5));
#2374=CARTESIAN_POINT('Origin',(-53.,33.,-3.5));
#2375=CARTESIAN_POINT('',(-53.,33.,-3.5));
#2376=CARTESIAN_POINT('',(-53.,33.,-3.5));
#2377=CARTESIAN_POINT('',(-53.,-33.,-3.5));
#2378=CARTESIAN_POINT('',(-53.,-33.,-1.5));
#2379=CARTESIAN_POINT('Origin',(-48.,33.,-3.5));
#2380=CARTESIAN_POINT('Origin',(-48.,33.,-3.5));
#2381=CARTESIAN_POINT('Origin',(0.,0.,-1.5));
#2382=CARTESIAN_POINT('Origin',(0.,0.,-3.5));
#2383=UNCERTAINTY_MEASURE_WITH_UNIT(LENGTH_MEASURE(0.01),#2387,
'DISTANCE_ACCURACY_VALUE',
'Maximum model space distance between geometric entities at asserted c
onnectivities');
#2384=UNCERTAINTY_MEASURE_WITH_UNIT(LENGTH_MEASURE(0.01),#2387,
'DISTANCE_ACCURACY_VALUE',
'Maximum model space distance between geometric entities at asserted c
onnectivities');
#2385=(
GEOMETRIC_REPRESENTATION_CONTEXT(3)
GLOBAL_UNCERTAINTY_ASSIGNED_CONTEXT((#2383))
GLOBAL_UNIT_ASSIGNED_CONTEXT((#2387,#2389,#2390))
REPRESENTATION_CONTEXT('','3D')
);
#2386=(
GEOMETRIC_REPRESENTATION_CONTEXT(3)
GLOBAL_UNCERTAINTY_ASSIGNED_CONTEXT((#2384))
GLOBAL_UNIT_ASSIGNED_CONTEXT((#2387,#2389,#2390))
REPRESENTATION_CONTEXT('','3D')
);
#2387=(
LENGTH_UNIT()
NAMED_UNIT(*)
SI_UNIT(.MILLI.,.METRE.)
);
#2388=(
LENGTH_UNIT()
NAMED_UNIT(*)
SI_UNIT($,.METRE.)
);
#2389=(
NAMED_UNIT(*)
PLANE_ANGLE_UNIT()
SI_UNIT($,.RADIAN.)
);
#2390=(
NAMED_UNIT(*)
SI_UNIT($,.STERADIAN.)
SOLID_ANGLE_UNIT()
);
#2391=SHAPE_DEFINITION_REPRESENTATION(#2392,#2393);
#2392=PRODUCT_DEFINITION_SHAPE('',$,#2395);
#2393=SHAPE_REPRESENTATION('',(#1447),#2385);
#2394=PRODUCT_DEFINITION_CONTEXT('part definition',#2399,'design');
#2395=PRODUCT_DEFINITION('2026-06-16-04-19-03-016','Bottom',#2396,#2394);
#2396=PRODUCT_DEFINITION_FORMATION('',$,#2401);
#2397=PRODUCT_RELATED_PRODUCT_CATEGORY('Bottom','Bottom',(#2401));
#2398=APPLICATION_PROTOCOL_DEFINITION('international standard',
'automotive_design',2009,#2399);
#2399=APPLICATION_CONTEXT(
'Core Data for Automotive Mechanical Design Process');
#2400=PRODUCT_CONTEXT('part definition',#2399,'mechanical');
#2401=PRODUCT('2026-06-16-04-19-03-016','Bottom',$,(#2400));
#2402=PRESENTATION_STYLE_ASSIGNMENT((#2404));
#2403=PRESENTATION_STYLE_ASSIGNMENT((#2405));
#2404=SURFACE_STYLE_USAGE(.BOTH.,#2406);
#2405=SURFACE_STYLE_USAGE(.BOTH.,#2407);
#2406=SURFACE_SIDE_STYLE('',(#2408));
#2407=SURFACE_SIDE_STYLE('',(#2409));
#2408=SURFACE_STYLE_FILL_AREA(#2410);
#2409=SURFACE_STYLE_FILL_AREA(#2411);
#2410=FILL_AREA_STYLE('Steel - Satin',(#2412));
#2411=FILL_AREA_STYLE('Plastic - Matte (Gray)',(#2413));
#2412=FILL_AREA_STYLE_COLOUR('Steel - Satin',#2414);
#2413=FILL_AREA_STYLE_COLOUR('Plastic - Matte (Gray)',#2415);
#2414=COLOUR_RGB('Steel - Satin',0.627450980392157,0.627450980392157,0.627450980392157);
#2415=COLOUR_RGB('Plastic - Matte (Gray)',0.701960784313725,0.701960784313725,
0.701960784313725);
ENDSEC;
END-ISO-10303-21;
